<svg width="84" height="58" viewBox="0 0 84 58" fill="none" xmlns="http://www.w3.org/2000/svg">
<rect width="84" height="58" rx="4" fill="white"/>
<path fill-rule="evenodd" clip-rule="evenodd" d="M25.4562 21.6431C24.8452 22.375 23.8676 22.9522 22.89 22.8698C22.7678 21.8802 23.2464 20.8288 23.8065 20.1793C24.4175 19.4269 25.4867 18.8908 26.3523 18.8496C26.4541 19.8804 26.057 20.8906 25.4562 21.6431ZM26.3421 23.0656C25.4809 23.0154 24.695 23.3278 24.0603 23.5801C23.6518 23.7425 23.3059 23.8799 23.0427 23.8799C22.7474 23.8799 22.3872 23.7351 21.9828 23.5725C21.4529 23.3594 20.8471 23.1158 20.2118 23.1275C18.7556 23.1481 17.4013 23.983 16.6579 25.3128C15.1304 27.9722 16.2607 31.9099 17.7373 34.0746C18.4603 35.1466 19.3259 36.3218 20.4664 36.2805C20.9682 36.2614 21.3291 36.1063 21.7026 35.9459C22.1327 35.7612 22.5794 35.5693 23.277 35.5693C23.9503 35.5693 24.3775 35.7562 24.7876 35.9356C25.1775 36.1062 25.552 36.27 26.1079 36.2599C27.2891 36.2393 28.0325 35.1879 28.7555 34.1158C29.5358 32.9652 29.8786 31.8423 29.9307 31.6719L29.9368 31.6522C29.9355 31.651 29.9259 31.6465 29.9089 31.6386L29.9089 31.6386C29.648 31.5177 27.6545 30.5939 27.6354 28.1166C27.6162 26.0372 29.2166 24.9837 29.4685 24.8178C29.4839 24.8077 29.4942 24.8009 29.4989 24.7974C28.4806 23.2718 26.892 23.1068 26.3421 23.0656ZM34.5192 36.1465V20.0763H40.4764C43.5517 20.0763 45.7003 22.2203 45.7003 25.354C45.7003 28.4876 43.511 30.6523 40.3949 30.6523H36.9835V36.1465H34.5192ZM36.9835 22.1791H39.8246C41.9631 22.1791 43.1851 23.3336 43.1851 25.3643C43.1851 27.395 41.9631 28.5598 39.8145 28.5598H36.9835V22.1791ZM53.8367 34.2189C53.185 35.4765 51.7491 36.2702 50.2013 36.2702C47.9101 36.2702 46.3113 34.8889 46.3113 32.8067C46.3113 30.7451 47.8592 29.5597 50.7206 29.3844L53.796 29.1989V28.3124C53.796 27.0033 52.9508 26.292 51.4436 26.292C50.2013 26.292 49.295 26.9414 49.1117 27.931H46.8918C46.963 25.8488 48.8979 24.3335 51.5149 24.3335C54.3357 24.3335 56.1687 25.8282 56.1687 28.1475V36.1465H53.8876V34.2189H53.8367ZM50.8632 34.3632C49.5496 34.3632 48.7146 33.7241 48.7146 32.7449C48.7146 31.7347 49.519 31.1471 51.0567 31.0543L53.796 30.8791V31.7862C53.796 33.2912 52.5332 34.3632 50.8632 34.3632ZM63.7348 36.7753C62.747 39.5894 61.6167 40.5171 59.2134 40.5171C59.0301 40.5171 58.4192 40.4965 58.2766 40.4553V38.5277C58.4293 38.5483 58.8061 38.5689 58.9996 38.5689C60.0892 38.5689 60.7002 38.1051 61.077 36.899L61.301 36.1878L57.1259 24.4881H59.7022L62.6044 33.9818H62.6554L65.5576 24.4881H68.0626L63.7348 36.7753Z" fill="black"/>
</svg>
