<svg width="84" height="58" viewBox="0 0 84 58" fill="none" xmlns="http://www.w3.org/2000/svg">
<rect width="84" height="58" rx="4" fill="white"/>
<path fill-rule="evenodd" clip-rule="evenodd" d="M40.4322 34.9711V28.43V28.4287H43.9665C45.4236 28.4296 46.6482 27.9712 47.6403 27.0535C48.6429 26.1825 49.2035 24.9303 49.175 23.625C49.1948 22.327 48.6353 21.0841 47.6403 20.2159C46.6569 19.2932 45.3343 18.7898 43.9665 18.8175H38.293V34.9711H40.4322ZM40.4322 26.4451V20.8062V20.805H44.0196C44.8192 20.7832 45.59 21.0953 46.1362 21.6621C46.6859 22.1804 46.996 22.8924 46.996 23.636C46.996 24.3796 46.6859 25.0916 46.1362 25.6099C45.5833 26.1648 44.8149 26.468 44.0196 26.4451H40.4322Z" fill="#5F6368"/>
<path fill-rule="evenodd" clip-rule="evenodd" d="M57.8487 24.7882C56.9337 23.9685 55.6856 23.5586 54.1045 23.5586C52.0733 23.5586 50.5396 24.2804 49.5032 25.7239L51.3873 26.8749C52.0835 25.8971 53.0291 25.4081 54.2241 25.4081C54.9859 25.3995 55.7231 25.6696 56.2888 26.1647C56.8529 26.6171 57.1773 27.2915 57.1724 28.0014V28.4757C56.3504 28.0246 55.3043 27.799 54.034 27.799C52.5459 27.8008 51.3563 28.1393 50.4652 28.8147C49.5741 29.4901 49.1285 30.3996 49.1285 31.5433C49.1091 32.5847 49.5748 33.579 50.3961 34.2499C51.2411 34.9717 52.2912 35.3326 53.5464 35.3326C55.0168 35.3326 56.1949 34.701 57.0807 33.4379H57.1738V34.9717H59.2199V28.1599C59.2208 26.7318 58.7638 25.6079 57.8487 24.7882ZM52.0464 32.9417C51.5983 32.6284 51.334 32.1242 51.3369 31.5884C51.3369 30.9865 51.6279 30.4851 52.2138 30.0726C52.794 29.6662 53.5186 29.463 54.3876 29.463C55.5808 29.463 56.5108 29.7208 57.1778 30.2363C57.1778 31.1076 56.8235 31.8668 56.1149 32.5138C55.4766 33.133 54.6113 33.4816 53.7086 33.483C53.1068 33.494 52.5195 33.3027 52.0464 32.9417Z" fill="#5F6368"/>
<path fill-rule="evenodd" clip-rule="evenodd" d="M70.9659 23.9189L63.8228 39.8432H61.6145L64.2653 34.2713L59.5684 23.9189H61.8936L65.2884 31.8585H65.3349L68.6367 23.9189H70.9659Z" fill="#5F6368"/>
<path fill-rule="evenodd" clip-rule="evenodd" d="M31.7872 27.0207C31.788 26.3883 31.7329 25.757 31.6224 25.1338H22.6006V28.7079H27.7679C27.5542 29.8614 26.864 30.8801 25.8572 31.528V33.848H28.9411C30.7468 32.233 31.7872 29.8447 31.7872 27.0207Z" fill="#4285F4"/>
<path fill-rule="evenodd" clip-rule="evenodd" d="M22.6012 36.0889C25.1828 36.0889 27.3566 35.2666 28.9417 33.8488L25.8578 31.5288C24.9995 32.0933 23.894 32.4155 22.6012 32.4155C20.1059 32.4155 17.988 30.7838 17.2306 28.585H14.0537V30.9759C15.6776 34.1104 18.9848 36.0887 22.6012 36.0889Z" fill="#34A853"/>
<path fill-rule="evenodd" clip-rule="evenodd" d="M17.2307 28.5847C16.8303 27.4325 16.8303 26.1847 17.2307 25.0325V22.6416H14.0538C12.6956 25.2634 12.6956 28.3538 14.0538 30.9756L17.2307 28.5847Z" fill="#FBBC04"/>
<path fill-rule="evenodd" clip-rule="evenodd" d="M22.6012 21.2023C23.9655 21.1806 25.2837 21.6807 26.271 22.5943L29.0015 19.9456C27.2701 18.3681 24.9764 17.502 22.6012 17.5289C18.9848 17.5291 15.6776 19.5074 14.0537 22.642L17.2306 25.0328C17.988 22.834 20.1059 21.2023 22.6012 21.2023Z" fill="#EA4335"/>
</svg>
