<svg width="84" height="58" viewBox="0 0 84 58" fill="none" xmlns="http://www.w3.org/2000/svg">
<rect width="84" height="58" rx="4" fill="white"/>
<path fill-rule="evenodd" clip-rule="evenodd" d="M30.7743 44.792V46.9335V49.0749H29.8369V48.5549C29.5395 48.9406 29.0884 49.1826 28.4751 49.1826C27.2661 49.1826 26.3183 48.2421 26.3183 46.9335C26.3183 45.6258 27.2661 44.6843 28.4751 44.6843C29.0884 44.6843 29.5395 44.9264 29.8369 45.312V44.792H30.7743ZM28.5917 45.5622C27.7802 45.5622 27.2836 46.1807 27.2836 46.9335C27.2836 47.6863 27.7802 48.3047 28.5917 48.3047C29.3671 48.3047 29.8906 47.7129 29.8906 46.9335C29.8906 46.154 29.3671 45.5622 28.5917 45.5622ZM62.4538 46.9335C62.4538 46.1807 62.9504 45.5622 63.7619 45.5622C64.5383 45.5622 65.0607 46.154 65.0607 46.9335C65.0607 47.7129 64.5383 48.3047 63.7619 48.3047C62.9504 48.3047 62.4538 47.6863 62.4538 46.9335ZM65.9455 43.0721V46.9335V49.0749H65.007V48.5549C64.7097 48.9406 64.2585 49.1826 63.6452 49.1826C62.4362 49.1826 61.4884 48.2421 61.4884 46.9335C61.4884 45.6258 62.4362 44.6843 63.6452 44.6843C64.2585 44.6843 64.7097 44.9264 65.007 45.312V43.0721H65.9455ZM42.411 45.5181C43.015 45.5181 43.4032 45.8945 43.5023 46.5571H41.265C41.3651 45.9386 41.743 45.5181 42.411 45.5181ZM40.2821 46.9335C40.2821 45.5981 41.1658 44.6843 42.4295 44.6843C43.6375 44.6843 44.4676 45.5981 44.4769 46.9335C44.4769 47.0586 44.4676 47.1755 44.4583 47.2914H41.2567C41.3919 48.0627 41.9422 48.3406 42.5462 48.3406C42.9788 48.3406 43.4393 48.1786 43.8006 47.8924L44.2601 48.5826C43.7366 49.0216 43.1419 49.1826 42.4925 49.1826C41.202 49.1826 40.2821 48.2955 40.2821 46.9335ZM53.7493 46.9335C53.7493 46.1807 54.2459 45.5622 55.0574 45.5622C55.8327 45.5622 56.3562 46.154 56.3562 46.9335C56.3562 47.7129 55.8327 48.3047 55.0574 48.3047C54.2459 48.3047 53.7493 47.6863 53.7493 46.9335ZM57.24 44.792V46.9335V49.0749H56.3025V48.5549C56.0041 48.9406 55.554 49.1826 54.9407 49.1826C53.7317 49.1826 52.7839 48.2421 52.7839 46.9335C52.7839 45.6258 53.7317 44.6843 54.9407 44.6843C55.554 44.6843 56.0041 44.9264 56.3025 45.312V44.792H57.24ZM48.4548 46.9335C48.4548 48.2329 49.3655 49.1826 50.7551 49.1826C51.4045 49.1826 51.8371 49.039 52.3058 48.6719L51.8557 47.9191C51.5036 48.1703 51.134 48.3047 50.7272 48.3047C49.9787 48.2955 49.4284 47.7581 49.4284 46.9335C49.4284 46.1089 49.9787 45.5715 50.7272 45.5622C51.134 45.5622 51.5036 45.6966 51.8557 45.9479L52.3058 45.1951C51.8371 44.8279 51.4045 44.6843 50.7551 44.6843C49.3655 44.6843 48.4548 45.634 48.4548 46.9335ZM59.4048 45.312C59.6485 44.9356 60.0005 44.6843 60.5415 44.6843C60.7315 44.6843 61.002 44.7202 61.2095 44.8012L60.9204 45.6792C60.7222 45.5981 60.524 45.5715 60.334 45.5715C59.7207 45.5715 59.4141 45.9653 59.4141 46.674V49.0749H58.4756V44.792H59.4048V45.312ZM35.4109 45.1325C34.9598 44.8371 34.3382 44.6843 33.6527 44.6843C32.5604 44.6843 31.8573 45.2043 31.8573 46.0556C31.8573 46.754 32.3807 47.1847 33.345 47.3191L33.788 47.3817C34.3021 47.4535 34.5447 47.5878 34.5447 47.8298C34.5447 48.1611 34.202 48.3498 33.5618 48.3498C32.9124 48.3498 32.4437 48.1437 32.1278 47.9016L31.6859 48.6267C32.2001 49.0031 32.8495 49.1826 33.5526 49.1826C34.7977 49.1826 35.5194 48.6001 35.5194 47.7847C35.5194 47.0319 34.9515 46.6381 34.013 46.5037L33.5711 46.4402C33.1654 46.3868 32.8402 46.3068 32.8402 46.0197C32.8402 45.7058 33.1468 45.5181 33.661 45.5181C34.2113 45.5181 34.744 45.7243 35.0052 45.8853L35.4109 45.1325ZM46.3714 45.312C46.614 44.9356 46.9661 44.6843 47.5071 44.6843C47.6971 44.6843 47.9676 44.7202 48.1751 44.8012L47.886 45.6792C47.6878 45.5981 47.4895 45.5715 47.2996 45.5715C46.6863 45.5715 46.3797 45.9653 46.3797 46.674V49.0749H45.4422V44.792H46.3714V45.312ZM39.5066 44.792H37.9734V43.4926H37.0256V44.792H36.1511V45.6433H37.0256V47.597C37.0256 48.5908 37.4138 49.1826 38.5226 49.1826C38.9294 49.1826 39.3982 49.0575 39.6955 48.8513L39.425 48.0534C39.1452 48.2144 38.8386 48.2955 38.5949 48.2955C38.1262 48.2955 37.9734 48.0083 37.9734 47.5786V45.6433H39.5066V44.792ZM25.4892 46.3868V49.0749H24.5414V46.6914C24.5414 45.9653 24.2348 45.5622 23.5947 45.5622C22.9721 45.5622 22.5395 45.9571 22.5395 46.7007V49.0749H21.5918V46.6914C21.5918 45.9653 21.2769 45.5622 20.6543 45.5622C20.0132 45.5622 19.5981 45.9571 19.5981 46.7007V49.0749H18.6514V44.792H19.5899V45.3202C19.9419 44.8187 20.3921 44.6843 20.8525 44.6843C21.5112 44.6843 21.98 44.9715 22.2773 45.4463C22.6748 44.8453 23.2426 44.6751 23.7929 44.6843C24.8398 44.6936 25.4892 45.3746 25.4892 46.3868Z" fill="#231F20"/>
<path d="M49.3081 37.5136H35.0996V12.1484H49.3081V37.5136Z" fill="#FF5F00"/>
<path d="M36.0013 24.8322C36.0013 19.6867 38.4265 15.1033 42.2032 12.1496C39.4414 9.98964 35.9559 8.70045 32.1679 8.70045C23.2001 8.70045 15.9307 15.9228 15.9307 24.8322C15.9307 33.7416 23.2001 40.9639 32.1679 40.9639C35.9559 40.9639 39.4414 39.6747 42.2032 37.5148C38.4265 34.561 36.0013 29.9776 36.0013 24.8322Z" fill="#EB001B"/>
<path d="M68.4767 24.8322C68.4767 33.7416 61.2073 40.9639 52.2395 40.9639C48.4515 40.9639 44.9659 39.6747 42.2031 37.5148C45.9808 34.561 48.406 29.9776 48.406 24.8322C48.406 19.6867 45.9808 15.1033 42.2031 12.1496C44.9659 9.98964 48.4515 8.70045 52.2395 8.70045C61.2073 8.70045 68.4767 15.9228 68.4767 24.8322Z" fill="#F79E1B"/>
</svg>
