<svg width="84" height="58" viewBox="0 0 84 58" fill="none" xmlns="http://www.w3.org/2000/svg">
<rect width="84" height="58" rx="4" fill="white"/>
<path fill-rule="evenodd" clip-rule="evenodd" d="M38.2901 29.3714L38.6558 27.0392L37.8412 27.0201H33.9512L36.6546 9.8093C36.663 9.75719 36.6902 9.70881 36.73 9.67439C36.77 9.63997 36.8209 9.62109 36.8742 9.62109H43.4333C45.611 9.62109 47.1138 10.076 47.8982 10.974C48.2661 11.3952 48.5004 11.8355 48.6138 12.3199C48.7327 12.8283 48.7346 13.4356 48.6187 14.1765L48.6102 14.2303V14.7051L48.9781 14.9144C49.2878 15.0794 49.534 15.2682 49.7228 15.4843C50.0374 15.8446 50.2409 16.3024 50.3269 16.845C50.4158 17.4032 50.3864 18.0675 50.2409 18.8195C50.073 19.6845 49.8017 20.4379 49.4353 21.0543C49.0984 21.6222 48.669 22.0934 48.1591 22.4584C47.6724 22.8054 47.0942 23.0687 46.4404 23.2372C45.8067 23.4028 45.0843 23.4864 44.292 23.4864H43.7816C43.4167 23.4864 43.0622 23.6184 42.7838 23.855C42.5047 24.0965 42.3202 24.4265 42.2636 24.7874L42.225 24.9974L41.5788 29.1083L41.5496 29.2591C41.5418 29.3069 41.5285 29.3307 41.5089 29.3469C41.4915 29.3616 41.4664 29.3714 41.4419 29.3714H38.2901Z" fill="#28356A"/>
<path fill-rule="evenodd" clip-rule="evenodd" d="M49.3266 14.2852C49.3072 14.4108 49.2847 14.5392 49.2596 14.6712C48.3947 19.1304 45.4352 20.6709 41.6557 20.6709H39.7312C39.269 20.6709 38.8794 21.0078 38.8075 21.4656L37.5432 29.5181C37.4963 29.8188 37.7271 30.0896 38.0291 30.0896H41.4424C41.8465 30.0896 42.1898 29.7948 42.2535 29.3946L42.287 29.2205L42.9296 25.1258L42.971 24.9012C43.0338 24.4996 43.378 24.2046 43.7821 24.2046H44.2925C47.5994 24.2046 50.1883 22.8566 50.9449 18.9556C51.2609 17.326 51.0973 15.9653 50.2609 15.0083C50.0079 14.7198 49.6939 14.4802 49.3266 14.2852Z" fill="#298FC2"/>
<path fill-rule="evenodd" clip-rule="evenodd" d="M48.422 13.923C48.2898 13.8843 48.1535 13.8493 48.0136 13.8176C47.873 13.7868 47.729 13.7594 47.5807 13.7354C47.0619 13.6513 46.4932 13.6113 45.8843 13.6113H40.7432C40.6165 13.6113 40.4962 13.64 40.3887 13.692C40.1515 13.8064 39.9754 14.0318 39.9327 14.3077L38.839 21.263L38.8076 21.4658C38.8795 21.0079 39.2691 20.671 39.7314 20.671H41.6558C45.4353 20.671 48.3948 19.1298 49.2597 14.6714C49.2856 14.5394 49.3073 14.411 49.3267 14.2853C49.1079 14.1687 48.8709 14.069 48.6157 13.984C48.5526 13.963 48.4876 13.9427 48.422 13.923Z" fill="#22284F"/>
<path fill-rule="evenodd" clip-rule="evenodd" d="M39.9328 14.3079C39.9755 14.032 40.1516 13.8066 40.3888 13.6929C40.4971 13.6408 40.6166 13.6121 40.7433 13.6121H45.8844C46.4934 13.6121 47.062 13.6522 47.5808 13.7364C47.7291 13.7602 47.8731 13.7877 48.0137 13.8186C48.1536 13.8501 48.2899 13.8853 48.4221 13.9238C48.4877 13.9435 48.5528 13.9639 48.6164 13.9842C48.8716 14.0691 49.1088 14.1696 49.3276 14.2855C49.585 12.6376 49.3255 11.5156 48.4382 10.4997C47.4598 9.38103 45.6942 8.90234 43.4348 8.90234H36.8755C36.414 8.90234 36.0203 9.23923 35.949 9.69786L33.217 27.0857C33.1631 27.4296 33.4273 27.74 33.7728 27.74H37.8223L39.9328 14.3079Z" fill="#28356A"/>
<path fill-rule="evenodd" clip-rule="evenodd" d="M18.9644 34.1055H14.1819C13.8546 34.1055 13.5763 34.3442 13.5252 34.6687L11.5909 46.9816C11.5525 47.2246 11.74 47.4435 11.9854 47.4435H14.2685C14.5958 47.4435 14.8741 47.205 14.9253 46.8799L15.4469 43.5588C15.4972 43.2337 15.7761 42.995 16.1029 42.995H17.6168C20.767 42.995 22.585 41.4643 23.06 38.4313C23.2739 37.1042 23.069 36.0617 22.4501 35.3315C21.7704 34.5297 20.5648 34.1055 18.9644 34.1055ZM19.5158 38.6026C19.2543 40.3256 17.9431 40.3256 16.6755 40.3256H15.9537L16.46 37.1078C16.4902 36.9133 16.6578 36.7701 16.8537 36.7701H17.1845C18.0481 36.7701 18.8628 36.7701 19.2837 37.2643C19.5348 37.5591 19.6116 37.9973 19.5158 38.6026Z" fill="#28356A"/>
<path fill-rule="evenodd" clip-rule="evenodd" d="M33.3817 38.4536H31.0915C30.8964 38.4536 30.7278 38.5968 30.6978 38.7913L30.5964 39.4344L30.4363 39.2014C29.9406 38.4788 28.8349 38.2373 27.7315 38.2373C25.2007 38.2373 23.0392 40.1619 22.6183 42.8615C22.3995 44.2081 22.7105 45.4958 23.4715 46.3938C24.1694 47.2194 25.168 47.5636 26.3559 47.5636C28.3951 47.5636 29.5257 46.2471 29.5257 46.2471L29.4237 46.8861C29.3853 47.1303 29.5727 47.3494 29.8168 47.3494H31.8795C32.2076 47.3494 32.4846 47.1107 32.5363 46.7856L33.774 38.9156C33.8132 38.6733 33.6263 38.4536 33.3817 38.4536ZM30.1893 42.929C29.9684 44.2425 28.93 45.1243 27.6056 45.1243C26.9406 45.1243 26.4092 44.9102 26.0678 44.5045C25.7293 44.1015 25.6008 43.5278 25.7083 42.8888C25.9148 41.5865 26.9705 40.6758 28.2749 40.6758C28.9252 40.6758 29.4538 40.8929 29.8021 41.3019C30.1509 41.7155 30.2894 42.2928 30.1893 42.929Z" fill="#28356A"/>
<path fill-rule="evenodd" clip-rule="evenodd" d="M45.4026 38.6504H43.1011C42.8815 38.6504 42.6753 38.7599 42.5509 38.9432L39.3768 43.6374L38.0314 39.1263C37.9467 38.8441 37.6874 38.6504 37.3936 38.6504H35.1322C34.8572 38.6504 34.6665 38.92 34.7538 39.1798L37.2888 46.6488L34.9056 50.0267C34.7182 50.2928 34.907 50.6586 35.2308 50.6586H37.5293C37.7475 50.6586 37.9516 50.5518 38.0754 50.3723L45.7297 39.2787C45.9131 39.0134 45.7248 38.6504 45.4026 38.6504Z" fill="#28356A"/>
<path fill-rule="evenodd" clip-rule="evenodd" d="M53.0745 34.1055H48.2915C47.965 34.1055 47.6867 34.3442 47.6355 34.6687L45.7013 46.9816C45.6629 47.2246 45.8504 47.4435 46.0944 47.4435H48.5489C48.7767 47.4435 48.9718 47.2766 49.0074 47.049L49.5564 43.5588C49.6068 43.2337 49.8859 42.995 50.2124 42.995H51.7257C54.8765 42.995 56.694 41.4643 57.1696 38.4313C57.3843 37.1042 57.178 36.0617 56.5591 35.3315C55.88 34.5297 54.6752 34.1055 53.0745 34.1055ZM53.6264 38.6026C53.3655 40.3256 52.0543 40.3256 50.7858 40.3256H50.065L50.5719 37.1078C50.6019 36.9133 50.7684 36.7701 50.9648 36.7701H51.2957C52.1585 36.7701 52.9739 36.7701 53.3948 37.2643C53.6459 37.5591 53.7221 37.9973 53.6264 38.6026Z" fill="#298FC2"/>
<path fill-rule="evenodd" clip-rule="evenodd" d="M67.4899 38.4536H65.2011C65.0047 38.4536 64.8376 38.5968 64.8082 38.7913L64.7068 39.4344L64.5459 39.2014C64.0502 38.4788 62.9453 38.2373 61.8417 38.2373C59.3111 38.2373 57.1504 40.1619 56.7295 42.8615C56.5113 44.2081 56.8209 45.4958 57.5817 46.3938C58.2812 47.2194 59.2782 47.5636 60.4663 47.5636C62.5053 47.5636 63.6361 46.2471 63.6361 46.2471L63.5341 46.8861C63.4957 47.1303 63.6829 47.3494 63.9286 47.3494H65.9907C66.3172 47.3494 66.5956 47.1107 66.6467 46.7856L67.885 38.9156C67.9228 38.6733 67.7353 38.4536 67.4899 38.4536ZM64.2976 42.929C64.0781 44.2425 63.0382 45.1243 61.7137 45.1243C61.0501 45.1243 60.5173 44.9102 60.1759 44.5045C59.8376 44.1015 59.7103 43.5278 59.8165 42.8888C60.0243 41.5865 61.0787 40.6758 62.383 40.6758C63.0333 40.6758 63.562 40.8929 63.9102 41.3019C64.2604 41.7155 64.3989 42.2928 64.2976 42.929Z" fill="#298FC2"/>
<path fill-rule="evenodd" clip-rule="evenodd" d="M69.9991 34.4439L68.0363 46.9822C67.9979 47.2252 68.1851 47.4441 68.4292 47.4441H70.4026C70.7307 47.4441 71.0088 47.2056 71.0592 46.8805L72.9948 34.5682C73.0334 34.3251 72.8459 34.1055 72.6018 34.1055H70.3922C70.1971 34.1061 70.0293 34.2494 69.9991 34.4439Z" fill="#298FC2"/>
</svg>
