<svg width="104" height="35" viewBox="0 0 104 35" fill="none" xmlns="http://www.w3.org/2000/svg">
<path d="M7.43238 10.1746H0.191347V33.644H7.43238V10.1746ZM3.85816 0C1.52447 0 0 1.58181 0 3.64829C0 5.66262 1.47748 7.29473 3.76435 7.29473C6.19315 7.29473 7.67071 5.66262 7.67071 3.64829C7.62275 1.58181 6.19315 0 3.85816 0ZM13.4836 33.6457H20.6769V22.0302C21.3437 22.1746 22.202 22.2214 23.1542 22.2214C27.4421 22.2214 31.1102 21.1177 33.5874 18.814C35.5404 17.0392 36.5412 14.301 36.5412 11.134C36.5412 7.96639 35.2073 5.27903 33.11 3.64829C30.9665 1.91954 27.7761 1.05581 23.2971 1.05581C18.8664 1.05581 15.722 1.34356 13.4836 1.72714V33.6457ZM20.6769 6.86189C21.2013 6.71923 22.202 6.62235 23.631 6.62235C27.2987 6.62235 29.3475 8.3989 29.3475 11.3746C29.3475 14.6386 26.9647 16.6067 23.1072 16.6067C22.0108 16.6067 21.2952 16.5591 20.6769 16.4135V6.86189ZM50.9292 9.59777C43.4015 9.59777 38.4466 14.4464 38.4466 22.0778C38.4466 29.6596 43.6876 34.1726 50.4997 34.1726C56.7415 34.1726 62.792 30.2375 62.792 21.6467C62.792 14.5428 58.0277 9.59777 50.9292 9.59777ZM50.691 14.8306C53.978 14.8306 55.3118 18.3815 55.3118 21.8373C55.3118 26.1087 53.5492 28.9407 50.691 28.9407C47.5935 28.9407 45.9277 25.9174 45.9277 21.8858C45.9277 18.4304 47.2605 14.8306 50.691 14.8306ZM67.2695 33.6457H74.5121V21.7425C74.5121 21.1665 74.5594 20.5907 74.6548 20.1107C75.1306 17.8549 76.9408 16.4135 79.6088 16.4135C80.4202 16.4135 80.9904 16.5109 81.5617 16.6067V9.74213C81.0394 9.6463 80.7047 9.59777 80.0383 9.59777C77.7516 9.59777 74.941 11.0389 73.7495 14.4943H73.5583L73.2731 10.1746H67.0798C67.2226 12.1903 67.2695 14.4464 67.2695 17.9016V33.6457ZM87.374 5.80665V10.1746H84.2785V15.5498H87.374V25.1487C87.374 28.4613 88.0417 30.7165 89.3749 32.1081C90.5663 33.3083 92.5192 34.125 94.8541 34.125C96.8549 34.125 98.6186 33.8369 99.523 33.5013L99.4751 27.9822C98.8089 28.125 98.3315 28.1726 97.3315 28.1726C95.1881 28.1726 94.4731 26.8778 94.4731 24.0461V15.5498H99.6663V10.1746H94.4731V3.83867L87.374 5.80665Z" fill="#383838"/>
<path d="M100.002 4.20935H100.373C100.805 4.20935 101.011 4.3757 101.072 4.73009C101.176 5.14481 101.239 5.43491 101.341 5.56188H102.165C102.104 5.43491 102.022 5.24914 101.917 4.73009C101.815 4.27202 101.651 4.00094 101.32 3.89661V3.85496C101.712 3.73187 102.022 3.45997 102.022 3.04517C102.022 2.71148 101.877 2.46175 101.67 2.31585C101.445 2.14909 101.156 2.04606 100.516 2.04606C99.9611 2.04606 99.5267 2.10946 99.2185 2.14909V5.56188H100.002V4.20935ZM100.022 2.66983C100.104 2.64848 100.25 2.62915 100.455 2.62915C100.949 2.62915 101.176 2.83619 101.176 3.14917C101.176 3.50162 100.826 3.64857 100.393 3.64857H100.022V2.66983ZM100.558 0.381836C98.5994 0.381836 97.0547 1.8797 97.0547 3.79366C97.0547 5.70689 98.5994 7.22416 100.537 7.22416C102.474 7.22416 104 5.70689 104 3.79366C104 1.8797 102.474 0.381836 100.558 0.381836ZM100.516 1.06765C102.022 1.06765 103.135 2.29612 103.135 3.81428C103.135 5.31117 102.022 6.53803 100.558 6.51667C99.0538 6.51667 97.9192 5.31117 97.9192 3.79366C97.9192 2.29612 99.0538 1.06765 100.516 1.06765Z" fill="#383838"/>
</svg>
