<svg width="136" height="34" viewBox="0 0 136 34" fill="none" xmlns="http://www.w3.org/2000/svg">
<path d="M107.984 28.8052C117.918 23.555 120.296 16.9293 117.246 15.0483C112.741 12.5214 100.344 17.0418 101.771 29.4511C101.156 29.8159 99.9243 30.4897 99.9243 30.4897L100.736 32.9883C100.736 32.9883 102.471 31.9496 102.919 31.6406C104.374 32.8198 105.129 33.4657 107.368 33.5216C112.153 33.6342 116.267 28.2998 116.267 28.2998L115.063 26.4188C115.091 26.4188 109.83 31.5005 107.984 28.8052ZM109.299 21.1966C110.726 18.6701 113.021 16.7049 114.168 17.4909C115.287 18.2769 113.021 22.2636 107.676 26.531C107.452 26.1382 107.872 23.7235 109.299 21.1966ZM17.9897 33.5216C17.2622 33.5216 16.1708 33.241 15.3873 32.427C13.0087 29.9281 15.2474 21.4776 15.7231 19.6525C15.7791 19.4841 15.6391 19.3156 15.4713 19.3156C15.3593 19.3156 15.2753 19.3719 15.2194 19.4561C14.212 21.5056 8.75529 33.5216 3.94215 33.5216C3.85824 33.5216 3.74627 33.5216 3.66232 33.5216C-1.01084 33.0725 -0.395241 26.6152 1.05989 22.6848H8.58738C7.97174 24.3694 7.77586 25.436 7.77586 25.9977C7.80384 26.3909 8.13965 26.6152 8.44745 26.4467C9.231 26.0256 10.5182 24.341 11.6375 22.4041C13.6523 18.8386 16.2827 13.5042 20.788 0H29.0433C26.6086 7.52433 24.6218 14.3182 23.5304 22.0952C23.4744 22.4884 23.9222 22.797 24.2859 22.4884C26.6365 20.2705 35.2275 1.6283 35.7591 0H44.0422C44.0422 0 35.8992 22.6005 36.5704 26.3909C36.6826 27.0926 37.4382 27.1769 37.8018 26.6994C38.2777 26.1098 38.9493 25.2396 39.4248 24.7063L40.6001 25.8855C38.2495 28.8052 34.4159 34.0553 30.6101 33.4374C30.0224 33.3252 29.4348 32.9883 29.015 32.5671C25.0415 29.1141 30.5823 17.5468 31.5615 14.8235C31.7855 14.2339 31.9812 13.6727 32.1213 13.3357C32.1774 13.1673 32.0652 12.9709 31.8694 12.9709C31.7576 12.9709 31.6737 13.0268 31.6176 13.111C31.4218 13.5322 30.9181 14.6271 30.7219 14.992C28.2877 20.0737 22.6349 33.5216 17.9897 33.5216ZM95.7828 5.78347C92.1171 5.69924 89.7664 7.97342 89.7664 7.97342L89.8225 10.1913C89.8225 10.1913 92.4529 7.52433 95.1955 8.6752C96.9864 9.40532 98.3296 11.5107 97.3222 15.1888C97.2661 15.4131 97.1543 15.8343 97.0982 16.059C96.3148 14.3744 93.4043 13.0831 89.3467 16.1712C86.3805 18.4174 85.6253 20.8038 85.0376 22.7411C84.1981 25.5765 84.2538 28.6367 84.8975 30.4614C85.3173 31.669 86.4365 33.0162 88.0038 33.6058C94.7197 36.1606 100.008 25.745 101.632 18.249C102.667 13.5042 103.45 5.92398 95.7828 5.78347ZM92.1732 28.5804C91.4176 29.0858 90.1305 29.3105 89.9343 26.9801C89.6825 23.6392 92.1171 19.7088 92.8448 18.7823C94.1041 17.2382 95.8111 17.154 95.7828 19.5683C95.755 22.3758 94.048 27.3453 92.1732 28.5804ZM71.9135 3.8462C67.9398 2.47059 53.8922 6.93473 49.2748 22.5163C48.7153 22.6848 46.001 23.3586 46.001 23.3586L44.8256 26.5593L48.9951 25.2675C48.9951 25.2675 48.5474 33.2689 55.543 33.5216C61.056 33.3252 63.9383 25.1833 62.1753 19.6525C61.8395 19.821 57.4182 21.9547 57.4182 21.9547C57.4182 21.9547 58.3413 27.3733 56.3825 28.6088C56.075 28.8052 55.683 28.7772 55.4312 28.412C54.8714 27.626 54.5077 25.5486 55.1232 22.797C65.2254 17.5189 72.1371 8.25406 72.5568 5.05335C72.6969 4.2394 72.0531 3.90248 71.9135 3.8462ZM59.3487 17.631C57.4739 19.0629 56.0189 19.793 56.0189 19.793C56.0189 19.793 56.5504 18.5576 56.9423 17.8558C58.0337 16.0311 63.2384 8.98417 67.604 7.69279C67.7719 7.63651 67.9116 7.77702 67.8837 7.94509C67.8837 9.48955 62.3432 15.3572 59.3487 17.631ZM80.1683 29.1421C80.1122 29.3668 80.3362 29.479 80.4763 29.3948C81.1479 28.9736 82.0431 28.2435 82.0431 28.2435L82.603 29.956C82.2671 30.3213 79.5806 32.455 77.9016 33.241C76.0829 34.0833 74.4316 32.9603 74.1798 31.6127C73.9279 30.0403 74.7118 27.9908 74.7118 27.9908C74.7118 27.9908 71.8295 31.3037 68.8911 32.9041C68.0795 33.3531 67.4639 33.5216 66.9602 33.5216C64.9736 33.4657 64.3577 31.5564 64.5817 30.5177C64.8335 29.2826 67.52 21.0002 67.8559 19.6525C67.8837 19.5124 67.7437 19.3719 67.5757 19.3998C66.7645 19.6246 64.6378 21.0281 64.6378 21.0281V18.726C64.6378 18.726 70.7938 14.515 72.3332 14.0659C73.76 13.6727 74.9915 14.4866 74.6278 16.1153C74.4599 17.2382 70.4584 26.9801 70.4584 28.2156C70.4584 28.4403 70.6542 28.4682 70.7099 28.4403C71.8574 28.1034 73.9562 26.3066 75.5513 23.7514C77.062 21.3651 78.0695 18.3612 79.3288 14.6271H84.6735C84.6735 14.6551 80.6159 27.0926 80.1683 29.1421ZM135.995 17.4626C136.107 19.2034 134.456 28.384 127.74 32.0618C125.753 33.1567 124.41 33.5779 123.206 33.5216C120.352 33.4374 119.009 31.1073 118.701 30.3492C115.427 22.2074 124.997 14.6551 124.997 14.6551H130.538C130.538 14.6551 122.087 21.4213 123.263 27.4296C124.186 31.0794 127.572 29.3105 129.447 25.1833C129.81 24.3694 132.077 18.9508 130.65 18.8665C129.391 18.7823 127.712 21.4493 127.712 21.4493L126.537 19.6525C127.46 18.4733 130.034 15.3852 132.917 14.4024C133.392 14.2623 135.967 13.7289 135.995 17.4626ZM43.1187 29.0858C44.3498 29.0858 45.3294 30.0686 45.3294 31.3037C45.3294 32.5392 44.3498 33.5216 43.1187 33.5216C41.8873 33.5216 40.9081 32.5392 40.9081 31.3037C40.9081 30.0686 41.9155 29.0858 43.1187 29.0858Z" fill="#383838"/>
</svg>
