<svg width="130" height="30" viewBox="0 0 130 30" fill="none" xmlns="http://www.w3.org/2000/svg">
<path fill-rule="evenodd" clip-rule="evenodd" d="M52.125 0.260218C55.2303 -0.409566 58.4575 0.321108 61.441 1.23445C61.0757 2.63491 60.6495 4.09626 60.2232 5.49671C57.6659 4.58337 54.9259 4.03536 52.2467 4.64426C50.1765 5.25315 49.0196 8.17585 50.8463 9.69808C54.0734 12.3163 58.9446 12.499 61.3193 16.2133C63.6939 19.8057 62.3544 25.2249 58.5792 27.2951C54.1343 29.7916 48.5934 29.2436 44.1484 27.1125C44.5138 25.6511 44.8791 24.2507 45.2444 22.7893C48.3498 24.068 51.9423 25.2858 55.2303 23.8853C57.4832 22.972 57.7877 19.5622 55.9001 18.1008C52.9774 15.9697 49.0196 15.6044 46.5231 12.8643C44.5747 10.9768 44.5747 7.99318 45.0618 5.5576C46.0969 2.57402 49.0805 0.686445 52.125 0.260218ZM65.3989 4.94871L70.5136 2.51313V8.17585L75.2021 8.23674L74.1669 12.0119H70.6353L70.6962 20.5973C70.6962 21.3889 70.6962 22.1804 70.818 23.0329C71.3051 24.9204 73.558 24.7987 75.1412 24.4333C75.1412 25.8338 75.1412 27.1734 75.1412 28.5738C72.6447 29.0609 69.7829 29.4263 67.5909 27.7822C65.7033 26.26 65.4597 23.6418 65.4597 21.3889L65.3989 4.94871ZM82.6915 8.35851C76.1154 10.6114 74.2278 19.7448 78.1856 25.0422C81.5954 29.8525 89.2675 30.2178 93.5298 26.3818C97.4267 22.7893 97.792 16.2741 95.052 11.8901C92.4947 7.8714 87.0146 6.77539 82.6915 8.35851ZM85.127 11.8292C87.0146 11.2812 89.2066 11.8901 90.1809 13.7168C92.0684 17.0048 91.8858 22.0586 88.6586 24.4942C86.2839 26.1991 83.0568 24.3116 82.2043 21.8151C80.8648 18.4662 81.4737 13.4732 85.127 11.8292ZM103.029 9.08919C105.464 7.74962 108.387 7.62784 111.127 7.74962C110.822 9.15008 110.457 10.5505 110.092 11.951C108.691 12.0728 106.743 12.1337 105.586 13.047C104.612 13.8386 104.429 15.5435 104.429 16.7613L104.368 28.9391L99.2534 29L99.1316 16.5177C99.0707 13.595 100.471 10.5505 103.029 9.08919ZM112.101 12.0119C109.3 16.4568 109.483 23.2155 113.684 26.808C117.703 29.9743 123.305 29.2436 127.871 27.7822L127.08 24.1289C124.462 24.7987 121.417 25.4684 118.799 24.5551C116.607 23.7635 115.45 22.3631 115.267 19.9275L128.967 19.8666C129.15 16.335 128.663 12.2554 125.923 9.69808C121.843 6.16649 114.78 7.38428 112.101 12.0119ZM115.085 16.0306C115.694 13.7168 117.459 10.9768 120.321 11.2812C122.818 11.403 123.731 14.0212 124.279 16.0306H115.085Z" fill="#383838"/>
<path fill-rule="evenodd" clip-rule="evenodd" d="M16.016 16.0922H25.0885C24.9668 14.4482 23.8707 11.7081 21.5569 11.4037C20.3392 11.1601 19.304 11.4646 18.4516 12.1344C17.1729 13.0477 16.1987 14.6308 16.016 16.0922ZM36.962 8.23743C38.8495 8.23743 40.3718 9.75966 40.3718 11.6472C40.3718 13.5348 38.8495 15.057 36.962 15.057C35.0744 15.057 33.5522 13.5348 33.5522 11.6472C33.5522 9.75966 35.0744 8.23743 36.962 8.23743ZM36.962 21.694C38.8495 21.694 40.3718 23.2162 40.3718 25.1038C40.3718 26.9914 38.8495 28.4527 36.962 28.4527C35.0744 28.4527 33.5522 26.9305 33.5522 25.1038C33.5522 23.2162 35.0744 21.694 36.962 21.694ZM13.1542 11.6472C16.016 7.32409 22.7747 6.28896 26.7325 9.63788C29.4726 12.1952 30.2032 16.2748 29.7161 19.8673L15.9551 19.9282C16.1987 21.6331 17.112 23.338 18.756 24.1296C21.6178 25.53 25.0276 24.8602 27.9503 24.0078L28.681 27.6612C24.3579 29.1225 19.1823 29.7923 15.1636 27.2349C10.2924 23.886 9.92706 16.3357 13.1542 11.6472ZM3.47278 9.39433C1.21987 10.9775 -0.0588094 13.7784 0.00208008 16.5184V28.9398H5.29946C5.36035 24.2514 5.11679 19.502 5.42124 14.8135C5.90836 12.317 8.70927 12.0126 10.7795 12.0735C11.2057 10.6121 11.632 9.21166 11.8755 7.68942C9.07461 7.62853 5.96925 7.75031 3.47278 9.39433Z" fill="#383838"/>
</svg>
