<svg width="143" height="25" viewBox="0 0 143 25" fill="none" xmlns="http://www.w3.org/2000/svg">
<path d="M50.9448 24.9997C45.7646 24.9997 40.956 23.4571 37.7463 20.5964C35.3213 18.4351 34.156 15.4993 34.156 12.4778C34.156 9.49297 35.3715 6.53699 37.746 4.38707C40.7269 1.68942 45.9897 0 50.9448 0C56.4281 0 60.8169 1.3715 64.172 4.39449C66.559 6.54554 67.7131 9.48841 67.7131 12.478C67.7131 15.3759 66.4884 18.4619 64.172 20.5964C61.0478 23.4757 56.1381 24.9997 50.9448 24.9997V21.7024C53.6942 21.7024 56.2447 20.7598 58.0258 18.9999C59.7947 17.252 60.6188 15.1036 60.6188 12.4778C60.6188 9.96231 59.7298 7.61052 58.0258 5.94248C56.2685 4.22369 53.6572 3.25652 50.9448 3.25652C48.224 3.25652 45.611 4.21371 43.8522 5.94248C42.1574 7.60995 41.2661 9.96858 41.2661 12.4778C41.2661 14.9792 42.1678 17.3364 43.8522 19.0002C45.6124 20.739 48.2163 21.7027 50.9448 21.7027V25V24.9997ZM13.0831 0.0119757C10.3121 0.0119757 7.16407 0.526643 4.48928 1.7128C2.02067 2.80658 5.85058e-07 4.57555 5.85058e-07 7.50815C-0.00114801 10.1494 1.6893 11.6962 1.64335 11.6534C2.36237 12.3107 3.51987 13.4298 6.54613 14.0871C7.8986 14.3807 10.7902 14.8318 13.6697 15.1306C16.528 15.43 19.3409 15.7146 20.4866 16.0026C21.3969 16.2327 22.9259 16.5461 22.9259 18.2494C22.9259 19.946 21.315 20.4638 21.0351 20.5761C20.7554 20.6859 18.8229 21.5664 15.349 21.5664C12.7841 21.5664 9.70074 20.8005 8.57684 20.4014C7.28123 19.9434 5.92215 19.3378 4.65439 17.8001C4.3391 17.4188 3.84176 16.3704 3.84176 15.3322H0.697772V24.0802H4.19237V22.8983C4.19237 22.7637 4.36179 22.2102 4.94843 22.4734C5.67836 22.8028 7.82107 23.6499 10.0614 24.1144C11.8983 24.4959 13.0828 24.7693 15.3665 24.7693C19.0925 24.7693 21.0942 24.1666 22.478 23.7742C23.7816 23.4035 25.3925 22.738 26.7011 21.7019C27.4098 21.1416 28.9638 19.7053 28.9638 17.0984C28.9638 14.596 27.6113 13.0429 27.1355 12.5704C26.4874 11.9266 25.6958 11.4276 24.8708 11.043C24.1521 10.7071 23.0178 10.3036 22.0898 10.0781C20.2885 9.63896 16.2156 9.09721 14.2678 8.89476C12.2254 8.68291 8.68223 8.3915 7.26716 7.95667C6.83816 7.82465 5.9635 7.41092 5.9635 6.40269C5.9635 5.68558 6.3635 5.07767 7.15402 4.58638C8.40886 3.80569 10.9435 3.32039 13.5856 3.32039C16.7092 3.30898 19.3544 4.01811 21.0371 4.76516C21.6094 5.01893 22.279 5.38333 22.8108 5.81446C23.4109 6.30033 24.2534 7.30999 24.5581 8.71826H27.3808V1.10347H24.229V1.98853C24.229 2.27423 23.9318 2.64548 23.3699 2.33867C21.9594 1.60388 17.9715 0.0185337 13.0825 0.0119757H13.0831ZM82.1521 1.39573L97.5266 15.1734L97.3686 5.89715C97.3531 4.68076 97.1274 4.17294 95.8025 4.17294H92.9118V1.39801H106.057V4.17294H103.238C101.886 4.17294 101.801 4.60207 101.785 5.89715L102.023 23.6219H97.5211L79.8127 7.92816L79.8164 19.0661C79.8319 20.2767 79.889 20.847 81.1453 20.847H84.3025V23.6208H71.3923V20.8473H74.4103C75.5376 20.8473 75.4928 19.78 75.4928 19.0031V6.00265C75.4928 5.1635 75.3742 4.17494 73.6042 4.17494H71.1554V1.39573H82.1521ZM121.079 20.8419C121.203 20.8419 121.751 20.8262 121.857 20.794C122.161 20.6999 122.367 20.4849 122.462 20.2608C122.502 20.1667 122.522 19.7504 122.522 19.66L122.525 15.2746C122.525 15.1691 122.517 15.1235 122.337 14.8886C122.138 14.6319 114.283 5.79279 113.924 5.40358C113.477 4.92028 112.693 4.17322 111.502 4.17322H108.771V1.39716H124.187V4.1698H122.328C121.899 4.1698 121.613 4.57469 121.98 5.02464C121.98 5.02464 127.167 11.1855 127.216 11.25C127.264 11.3156 127.306 11.3312 127.372 11.2714C127.437 11.2101 132.688 5.08109 132.73 5.03262C132.98 4.73551 132.81 4.17294 132.272 4.17294H130.365V1.39716H143V4.17294H140.177C139.153 4.17294 138.737 4.36113 137.966 5.22594C137.614 5.62171 129.675 14.6197 129.459 14.8635C129.346 14.9909 129.356 15.1686 129.356 15.2741V19.6589C129.356 19.7478 129.376 20.1647 129.416 20.2582C129.512 20.4835 129.719 20.6985 130.022 20.7914C130.128 20.8239 130.669 20.8399 130.792 20.8399H133.68V23.6154H118.343V20.8396L121.08 20.8419H121.079Z" fill="#383838"/>
</svg>
