<svg width="24" height="24" viewBox="0 0 24 24" fill="none" xmlns="http://www.w3.org/2000/svg">
<path fill-rule="evenodd" clip-rule="evenodd" d="M20.2383 7.5726C20.2383 7.17197 19.7907 6.93403 19.4586 7.15816L13.3942 11.251C13.1004 11.4493 13.1004 11.8817 13.3942 12.0799L19.4586 16.1728C19.7907 16.3969 20.2383 16.159 20.2383 15.7583V7.5726ZM18.3397 5.50038C20.0001 4.37978 22.2383 5.56942 22.2383 7.5726V15.7583C22.2383 17.7615 20.0001 18.9512 18.3397 17.8306L12.2753 13.7377C12.1739 13.6693 12.0795 13.5952 11.9921 13.5164V15.7583C11.9921 17.7615 9.75397 18.9512 8.09357 17.8306L2.02916 13.7377C0.560551 12.7465 0.560556 10.5844 2.02917 9.59326L8.09357 5.50038C9.75397 4.37978 11.9921 5.56942 11.9921 7.5726V9.81456C12.0795 9.73572 12.1739 9.6617 12.2753 9.59326L18.3397 5.50038ZM9.99211 7.5726C9.99211 7.17197 9.54449 6.93403 9.2124 7.15816L3.148 11.251C2.85427 11.4493 2.85428 11.8817 3.148 12.0799L9.2124 16.1728C9.54448 16.3969 9.99211 16.159 9.99211 15.7583V7.5726Z" fill="#14142B"/>
</svg>
