<svg width="24" height="24" viewBox="0 0 24 24" fill="none" xmlns="http://www.w3.org/2000/svg">
<path d="M20.2718 15.8164C19.6608 17.3288 18.689 18.6688 17.4412 19.7195C16.1935 20.7702 14.7076 21.4998 13.1132 21.8445C11.5189 22.1892 9.86436 22.1386 8.29399 21.6972C6.72363 21.2558 5.28509 20.437 4.1038 19.312C2.92252 18.1871 2.03436 16.7903 1.51676 15.2434C0.999169 13.6964 0.867857 12.0464 1.13428 10.4371C1.4007 8.82773 2.05676 7.30802 3.04527 6.01043C4.03377 4.71283 5.3247 3.67676 6.80548 2.99254" stroke="#14142B" stroke-width="2" stroke-linecap="round"/>
<path d="M15.8268 1.83152C15.0768 1.52084 14.2935 1.30337 13.4944 1.1826C12.6753 1.0588 12 1.74189 12 2.57031L12 9.57031C12 10.3987 12.6716 11.0703 13.5 11.0703L20.5 11.0703C21.3284 11.0703 22.0115 10.395 21.8877 9.57592C21.7669 8.77685 21.5495 7.99352 21.2388 7.24348C20.7362 6.03022 19.9997 4.92783 19.0711 3.99925C18.1425 3.07066 17.0401 2.33406 15.8268 1.83152Z" stroke="#14142B" stroke-width="2" stroke-linecap="round"/>
</svg>
