<svg width="17" height="17" viewBox="0 0 17 17" fill="none" xmlns="http://www.w3.org/2000/svg">
<path d="M6.46634 3.58902L6.46632 3.58903C5.17663 4.125 4.1288 5.17177 3.59136 6.46048C3.59132 6.46056 3.59129 6.46064 3.59126 6.46071L3.58915 6.46602L3.58903 6.46631L3.58683 6.47138C3.31989 7.116 3.1843 7.79816 3.1843 8.50016C3.1843 9.20373 3.32063 9.88773 3.589 10.5336C4.12573 11.8252 5.17474 12.8742 6.46634 13.411C6.46634 13.411 6.46634 13.411 6.46635 13.411L6.43373 13.4895C7.09022 13.7622 7.7853 13.9007 8.5 13.9007C9.21439 13.9007 9.90978 13.7622 10.5663 13.4895L6.46634 3.58902ZM6.46634 3.58902C7.11241 3.32033 7.7964 3.18434 8.49997 3.18434C9.20354 3.18434 9.88753 3.32033 10.5336 3.58902L10.5336 3.58902C11.5445 4.00931 12.4232 4.75376 13.0069 5.68459L13.0069 5.6846C13.1015 5.83544 13.2978 5.87785 13.4458 5.78528L13.4462 5.78502C13.5937 5.69167 13.6404 5.49668 13.5466 5.34636L13.5465 5.34617C13.22 4.82578 12.8168 4.36003 12.3479 3.96187C11.9572 3.62993 11.5278 3.35136 11.0686 3.13092L11.6297 1.77627C13.2082 2.51403 14.486 3.79177 15.2237 5.37028M6.46634 3.58902L15.3023 5.33772L15.2237 5.37028M13.4106 6.22256C13.3786 6.30025 13.3784 6.38596 13.4098 6.46376L15.2593 5.44755C15.2476 5.42172 15.2357 5.39596 15.2237 5.37028M13.4106 6.22256L13.4892 6.2549M13.4106 6.22256C13.4106 6.22259 13.4105 6.22263 13.4105 6.22266L13.4892 6.2549M13.4106 6.22256C13.4444 6.1401 13.5086 6.0807 13.5831 6.04983M13.4892 6.2549C13.4655 6.31248 13.4655 6.37567 13.4892 6.43323M13.4892 6.2549V6.43323M13.5831 6.04983L13.6157 6.12836L13.5831 6.04983L13.5831 6.04983ZM13.5831 6.04983L15.2237 5.37028M13.4892 6.43323C13.4892 6.43323 13.4892 6.43345 13.4894 6.43351C13.7573 7.0811 13.9007 7.76949 13.9007 8.50019L13.4892 6.43323ZM14.1949 14.1949L14.1348 14.1348L14.1949 14.1949C15.7159 12.6738 16.5537 10.6511 16.5537 8.5C16.5537 6.34893 15.7159 4.32619 14.1949 2.80512L14.1348 2.86522L14.1949 2.80512C12.6738 1.28408 10.6511 0.44625 8.5 0.44625C6.34893 0.44625 4.32619 1.28408 2.80515 2.80512C1.28411 4.32619 0.44625 6.34896 0.44625 8.5C0.44625 10.651 1.28411 12.6738 2.80515 14.1949C4.32619 15.7159 6.34893 16.5537 8.5 16.5537C10.6511 16.5537 12.6738 15.7159 14.1949 14.1949ZM13.4088 10.5392C12.8713 11.8281 11.8235 12.875 10.5337 13.411L13.4113 6.46731C13.4117 6.46816 13.412 6.46901 13.4125 6.46986C13.6751 7.1063 13.8157 7.78239 13.8157 8.50019C13.8157 9.17474 13.6884 9.86481 13.4131 10.5289L13.4111 10.5334L13.4107 10.5344L13.4093 10.5378L13.4088 10.5392ZM4.29303 4.29278L4.29303 4.29279C3.82434 4.76154 3.42847 5.31224 3.13095 5.93138L1.7763 5.37025C2.51403 3.79177 3.79177 2.51404 5.37025 1.77633L5.93137 3.131C5.32386 3.4228 4.77027 3.81555 4.29303 4.29278ZM8.5 1.08317C9.39254 1.08317 10.2486 1.24162 11.0416 1.5318L10.4805 2.88641C9.8454 2.6613 9.18059 2.54742 8.5 2.54742C7.81941 2.54742 7.1546 2.6613 6.51946 2.88641L5.95837 1.5318C6.75143 1.24162 7.60749 1.08317 8.5 1.08317ZM1.08317 8.5C1.08317 7.60746 1.24162 6.7514 1.5318 5.95834L2.88636 6.51943C2.66127 7.15477 2.54739 7.81959 2.54739 8.50019C2.54739 9.18054 2.66127 9.84534 2.88638 10.4805L1.5318 11.0416C1.24162 10.2486 1.08317 9.39251 1.08317 8.5ZM5.93137 13.869L5.37025 15.2237C3.79176 14.4859 2.51403 13.2082 1.7763 11.6297L3.131 11.0686C3.42613 11.683 3.82043 12.2343 4.29303 12.7069L4.35314 12.6468L4.29304 12.7069C4.76468 13.1785 5.31562 13.5732 5.93137 13.869ZM8.5 15.9168C7.60749 15.9168 6.75143 15.7584 5.95838 15.4682L6.51945 14.1137C7.15452 14.3388 7.81906 14.4526 8.49938 14.4526H8.50062C9.18094 14.4526 9.84548 14.3388 10.4805 14.1136L11.0417 15.4682C10.2486 15.7584 9.39254 15.9168 8.5 15.9168ZM15.2237 11.6297C14.486 13.2082 13.2082 14.4859 11.6297 15.2237L11.0686 13.869C11.6831 13.5739 12.2344 13.1795 12.7069 12.7069L12.6468 12.6468L12.7069 12.7069C13.1766 12.2372 13.572 11.6868 13.869 11.0686L15.2237 11.6297ZM15.4682 11.0416L14.1135 10.4805C14.3336 9.85837 14.4526 9.19076 14.4526 8.50016C14.4526 7.81928 14.3387 7.15443 14.1136 6.51945L15.4682 5.95835C15.7584 6.75143 15.9168 7.60746 15.9168 8.5C15.9168 9.39251 15.7584 10.2486 15.4682 11.0416Z" fill="#FBFDFF" stroke="#F6F7F8" stroke-width="0.17"/>
</svg>
