<svg width="24" height="24" viewBox="0 0 24 24" fill="none" xmlns="http://www.w3.org/2000/svg">
<path fill-rule="evenodd" clip-rule="evenodd" d="M13.2032 7.5726C13.2032 7.17197 13.6508 6.93403 13.9829 7.15816L20.0473 11.251C20.341 11.4493 20.341 11.8817 20.0473 12.0799L13.9829 16.1728C13.6508 16.3969 13.2032 16.159 13.2032 15.7583V7.5726ZM15.1018 5.50038C13.4413 4.37978 11.2032 5.56942 11.2032 7.5726V9.81457C11.1158 9.73573 11.0214 9.6617 10.92 9.59326L4.85557 5.50038C3.19517 4.37978 0.957031 5.56942 0.957031 7.5726V15.7583C0.957031 17.7615 3.19517 18.9512 4.85558 17.8306L10.92 13.7377C11.0214 13.6692 11.1158 13.5952 11.2032 13.5164V15.7583C11.2032 17.7615 13.4414 18.9512 15.1018 17.8306L21.1662 13.7377C22.6348 12.7465 22.6348 10.5844 21.1662 9.59326L15.1018 5.50038ZM2.95703 7.5726C2.95703 7.17197 3.40466 6.93403 3.73674 7.15816L9.80114 11.251C10.0949 11.4493 10.0949 11.8817 9.80115 12.0799L3.73674 16.1728C3.40466 16.3969 2.95703 16.159 2.95703 15.7583V7.5726Z" fill="#14142B"/>
</svg>
