<svg width="24" height="24" viewBox="0 0 24 24" fill="none" xmlns="http://www.w3.org/2000/svg">
<path d="M5.67969 3L21.6797 19" stroke="#14142B" stroke-width="2" stroke-linecap="round"/>
<path fill-rule="evenodd" clip-rule="evenodd" d="M14.0546 4.78949C14.2347 4.26738 14.8039 3.99009 15.326 4.17014C18.4478 5.24674 21.0835 7.65191 22.8918 10.8016C23.3668 11.6289 23.4799 12.6006 23.2316 13.4965C23.084 14.0288 22.5329 14.3406 22.0007 14.193C21.4685 14.0455 21.1567 13.4944 21.3042 12.9622C21.4117 12.5748 21.3626 12.1549 21.1573 11.7974C19.5394 8.9794 17.2514 6.94971 14.674 6.06087C14.1519 5.88081 13.8746 5.3116 14.0546 4.78949ZM8.7503 4.94027C8.95814 5.45195 8.71183 6.03524 8.20014 6.24309C5.82167 7.2092 3.71737 9.15841 2.2022 11.7975C1.9326 12.267 1.9326 12.8441 2.2022 13.3136C4.42466 17.1846 7.89339 19.5555 11.6798 19.5555C14.367 19.5555 16.8801 18.368 18.9146 16.2981C19.3017 15.9042 19.9349 15.8988 20.3288 16.2859C20.7226 16.6731 20.7281 17.3062 20.341 17.7001C17.9956 20.0863 14.9897 21.5555 11.6798 21.5555C6.99415 21.5555 2.94527 18.6246 0.467746 14.3095C-0.155911 13.2232 -0.155916 11.8879 0.467735 10.8017C2.16221 7.85031 4.58162 5.55421 7.44748 4.39011C7.95917 4.18227 8.54246 4.42859 8.7503 4.94027Z" fill="#14142B"/>
<path d="M14.5892 11.8254C14.748 12.4572 14.6968 13.1235 14.4434 13.7237C14.1899 14.3239 13.748 14.8252 13.1844 15.152C12.6208 15.4787 11.9662 15.6132 11.3194 15.5349C10.6726 15.4567 10.0689 15.17 9.59949 14.7183C9.13007 14.2666 8.82045 13.6743 8.71743 13.031C8.61441 12.3877 8.7236 11.7284 9.02848 11.1527C9.33337 10.5769 9.81738 10.1161 10.4074 9.83981C10.9973 9.56351 11.6612 9.48677 12.2987 9.6212" stroke="#14142B" stroke-width="2"/>
</svg>
