<svg width="28" height="28" viewBox="0 0 28 28" fill="none" xmlns="http://www.w3.org/2000/svg">
<circle cx="14" cy="14" r="14" fill="#8C97AC"/>
<path d="M13.5511 16.736C13.1991 16.352 13.0231 15.8827 13.0231 15.328C13.0231 14.9013 13.1458 14.5173 13.3911 14.176C13.6365 13.8347 13.9031 13.5787 14.1911 13.408C14.4791 13.2373 14.7458 13.0347 14.9911 12.8C15.2365 12.5653 15.3591 12.3307 15.3591 12.096C15.3591 11.8293 15.2525 11.6107 15.0391 11.44C14.8365 11.2693 14.5271 11.184 14.1111 11.184C13.3538 11.184 12.6978 11.5147 12.1431 12.176L10.8471 10.72C11.7325 9.68533 12.9005 9.168 14.3511 9.168C15.3751 9.168 16.1858 9.40267 16.7831 9.872C17.3805 10.3307 17.6791 10.9387 17.6791 11.696C17.6791 12.1227 17.5885 12.5067 17.4071 12.848C17.2258 13.1893 17.0018 13.4667 16.7351 13.68C16.4791 13.8933 16.2178 14.0907 15.9511 14.272C15.6845 14.4533 15.4605 14.6507 15.2791 14.864C15.0978 15.0773 15.0071 15.3067 15.0071 15.552C15.0071 15.8293 15.1031 16.0533 15.2951 16.224L13.5511 16.736ZM15.2311 19.792C14.9751 20.048 14.6711 20.176 14.3191 20.176C13.9671 20.176 13.6631 20.048 13.4071 19.792C13.1511 19.536 13.0231 19.232 13.0231 18.88C13.0231 18.528 13.1511 18.224 13.4071 17.968C13.6631 17.712 13.9671 17.584 14.3191 17.584C14.6711 17.584 14.9751 17.712 15.2311 17.968C15.4871 18.224 15.6151 18.528 15.6151 18.88C15.6151 19.232 15.4871 19.536 15.2311 19.792Z" fill="#FBFDFF"/>
</svg>
