<svg width="24" height="24" viewBox="0 0 24 24" fill="none" xmlns="http://www.w3.org/2000/svg">
<path d="M16.8503 0H7.14973C3.20735 0 0 3.20735 0 7.14973V16.8503C0 20.7926 3.20735 24 7.14973 24H16.8503C20.7926 24 24 20.7926 24 16.8503V7.14973C24 3.20735 20.7926 0 16.8503 0ZM21.5856 16.8503C21.5856 19.4655 19.4655 21.5856 16.8503 21.5856H7.14973C4.5345 21.5856 2.4144 19.4655 2.4144 16.8503V7.14973C2.4144 4.53446 4.5345 2.4144 7.14973 2.4144H16.8503C19.4655 2.4144 21.5856 4.53446 21.5856 7.14973V16.8503Z" fill="#FBFDFF"/>
<path d="M11.9992 5.79199C8.57656 5.79199 5.79199 8.57656 5.79199 11.9992C5.79199 15.4218 8.57656 18.2065 11.9992 18.2065C15.4219 18.2065 18.2065 15.4219 18.2065 11.9992C18.2065 8.57652 15.4219 5.79199 11.9992 5.79199ZM11.9992 15.7921C9.90449 15.7921 8.20639 14.094 8.20639 11.9992C8.20639 9.90449 9.90454 8.20639 11.9992 8.20639C14.094 8.20639 15.7921 9.90449 15.7921 11.9992C15.7921 14.094 14.094 15.7921 11.9992 15.7921Z" fill="#FBFDFF"/>
<path d="M18.2188 7.32829C19.0403 7.32829 19.7062 6.66236 19.7062 5.8409C19.7062 5.01944 19.0403 4.35352 18.2188 4.35352C17.3974 4.35352 16.7314 5.01944 16.7314 5.8409C16.7314 6.66236 17.3974 7.32829 18.2188 7.32829Z" fill="#FBFDFF"/>
</svg>
