<svg width="24" height="24" viewBox="0 0 24 24" fill="none" xmlns="http://www.w3.org/2000/svg">
<path fill-rule="evenodd" clip-rule="evenodd" d="M20.8783 2.87928C18.7294 0.730341 15.2452 0.730341 13.0963 2.87928L9.5646 6.41099C9.32163 6.65395 9.51863 7.03568 9.86191 7.02095L11.4185 6.95417C11.7083 6.94174 11.983 6.82101 12.1882 6.61584L14.5105 4.2935C15.8784 2.9256 18.0962 2.9256 19.4641 4.2935C20.832 5.66139 20.832 7.87918 19.4641 9.24707L15.9324 12.7788C14.5645 14.1467 12.3467 14.1467 10.9788 12.7788C10.9446 12.7446 10.9113 12.7099 10.8788 12.6747C10.6089 12.3819 10.2423 12.1745 9.84439 12.1916C9.08916 12.224 8.59484 12.9932 9.04832 13.598C9.20385 13.8054 9.37594 14.0043 9.5646 14.193C11.7135 16.3419 15.1977 16.3419 17.3466 14.193L20.8783 10.6613C23.0272 8.51234 23.0272 5.02822 20.8783 2.87928Z" fill="#14142B"/>
<path fill-rule="evenodd" clip-rule="evenodd" d="M13.3848 11.7234C14.1863 11.6961 14.6915 10.8639 14.1666 10.2575C14.0785 10.1557 13.9861 10.0564 13.8894 9.95973C11.709 7.7793 8.17382 7.77931 5.99339 9.95973L2.57571 13.3774C0.395283 15.5578 0.395283 19.093 2.57571 21.2734C4.75614 23.4539 8.29131 23.4539 10.4717 21.2734L13.8894 17.8558C14.0655 17.6796 13.9273 17.397 13.6784 17.4055L11.8772 17.4668C11.593 17.4765 11.323 17.5937 11.1219 17.7948L9.05752 19.8592C7.65814 21.2586 5.3893 21.2586 3.98992 19.8592C2.59055 18.4598 2.59055 16.191 3.98992 14.7916L7.40761 11.3739C8.80698 9.97457 11.0758 9.97457 12.4752 11.3739C12.6929 11.5916 12.9807 11.7372 13.2884 11.7267L13.3848 11.7234Z" fill="#14142B"/>
</svg>
