<svg width="26" height="26" viewBox="0 0 26 26" fill="none" xmlns="http://www.w3.org/2000/svg">
<path d="M12.4012 20.0259L12.4018 20.0265C12.5287 20.1521 12.695 20.2159 12.8613 20.2159C13.0142 20.2159 13.1705 20.1616 13.2935 20.0505C13.2936 20.0503 13.2938 20.0502 13.2939 20.0501L18.679 15.2418C22.6582 11.8413 25.2584 6.32016 25.1463 1.48737C25.1384 1.14022 24.8588 0.860691 24.5117 0.852888L24.5108 0.852874C19.6824 0.771069 14.1583 3.34138 10.7643 7.31116L5.9484 12.706L5.94818 12.7062C5.71961 12.9633 5.72987 13.3546 5.97423 13.5989L12.4012 20.0259ZM17.8258 14.2628L17.8258 14.2628L17.8234 14.265L12.8861 18.6726L7.32757 13.114L11.7422 8.16773L11.7422 8.16776L11.7443 8.16533C14.758 4.64017 19.5495 2.28113 23.8447 2.15542C23.718 6.45058 21.3589 11.2432 17.8258 14.2628Z" fill="#F85F9F" stroke="#F85F9F" stroke-width="0.3"/>
<path d="M14.5865 23.8465L14.5855 23.8462C14.3682 23.7738 14.1666 23.5987 14.1304 23.3389C14.1304 23.3387 14.1304 23.3386 14.1304 23.3385L13.4445 18.5522L13.4445 18.5521C13.3938 18.1972 13.6405 17.8689 13.9944 17.8166C14.3526 17.7607 14.6798 18.014 14.7314 18.3673L14.7314 18.3676L15.2188 21.7679C16.8131 19.7429 17.695 17.2295 17.695 14.6699C17.695 14.3111 17.9861 14.0199 18.345 14.0199C18.7038 14.0199 18.995 14.3111 18.995 14.6699C18.995 18.0226 17.6372 21.3038 15.269 23.671L14.5865 23.8465ZM14.5865 23.8465C14.6489 23.8669 14.7138 23.8759 14.776 23.8759C14.9572 23.8759 15.1412 23.7988 15.269 23.671L14.5865 23.8465Z" fill="#F85F9F" stroke="#F85F9F" stroke-width="0.3"/>
<path d="M4.22677 10.7804C6.23314 9.19506 8.75924 8.30527 11.3307 8.30527C11.6896 8.30527 11.9807 8.01412 11.9807 7.65527C11.9807 7.29643 11.6896 7.00527 11.3307 7.00527C7.9779 7.00527 4.69799 8.3631 2.29707 10.7638C2.12172 10.9369 2.0596 11.1951 2.13616 11.4289M4.22677 10.7804L2.13613 11.4288C2.13614 11.4288 2.13615 11.4288 2.13616 11.4289M4.22677 10.7804L7.63303 11.2688L7.63349 11.2689C7.98768 11.3208 8.23496 11.6481 8.18425 12.0044L8.18412 12.0053C8.13611 12.3284 7.85855 12.5623 7.54074 12.5623C7.51433 12.5623 7.48181 12.5612 7.44696 12.5555L2.66146 11.8698L2.66142 11.8697C2.41732 11.8347 2.21302 11.6645 2.13616 11.4289M4.22677 10.7804L2.13616 11.4289" fill="#F85F9F" stroke="#F85F9F" stroke-width="0.3"/>
<path d="M16.2591 9.74045L16.2592 9.7405C16.7755 10.2568 17.4542 10.5154 18.1333 10.5154C18.8112 10.5154 19.4899 10.2579 20.0073 9.7405L20.0074 9.74045C21.0399 8.70688 21.0399 7.02599 20.0074 5.99243L20.0073 5.99237C18.9738 4.95879 17.2928 4.95879 16.2592 5.99237L16.2591 5.99243C15.2266 7.02599 15.2266 8.70688 16.2591 9.74045ZM17.1783 8.82137C16.6529 8.29495 16.6529 7.43792 17.1783 6.9115C17.4409 6.64898 17.7871 6.51744 18.1333 6.51744C18.4789 6.51744 18.8244 6.64965 19.0883 6.91163C19.6136 7.43804 19.6136 8.29495 19.0882 8.82133C18.5617 9.34594 17.7046 9.34666 17.1783 8.82137Z" fill="#F85F9F" stroke="#F85F9F" stroke-width="0.3"/>
<path d="M1.04071 24.9607L1.04015 24.9601C0.871094 24.7911 0.808681 24.5428 0.87756 24.3139C0.877569 24.3139 0.877578 24.3139 0.877587 24.3138L1.02122 24.3571L1.04071 24.9607ZM1.04071 24.9607C1.165 25.0837 1.33 25.1501 1.50022 25.1501C1.56292 25.1501 1.62414 25.1409 1.68343 25.1249L1.68344 25.1249M1.04071 24.9607L1.68344 25.1249M1.68344 25.1249L1.68729 25.1238M1.68344 25.1249L1.68729 25.1238M1.68729 25.1238C1.96187 25.0414 3.31061 24.6321 4.7256 24.109C5.43293 23.8475 6.15922 23.5567 6.77711 23.2633C7.38956 22.9724 7.91372 22.6707 8.20128 22.3831C9.46486 21.1196 9.46486 19.0636 8.20128 17.8L1.68729 25.1238ZM4.07128 19.4486C4.25189 19.0954 4.41111 18.8446 4.53727 18.7182C4.91599 18.3404 5.41234 18.1511 5.91022 18.1511C6.40714 18.1511 6.90347 18.3405 7.28115 18.7181C8.03757 19.4746 8.03757 20.7066 7.28115 21.463C7.15504 21.5891 6.90435 21.7484 6.55114 21.929C6.20256 22.1073 5.76861 22.2994 5.2889 22.4942C4.41964 22.8473 3.40692 23.2066 2.49392 23.5063C2.79362 22.593 3.153 21.5802 3.50607 20.7109C3.7009 20.2312 3.89298 19.7972 4.07128 19.4486Z" fill="#F85F9F" stroke="#F85F9F" stroke-width="0.3"/>
</svg>
