<svg width="24" height="24" viewBox="0 0 24 24" fill="none" xmlns="http://www.w3.org/2000/svg">
<path d="M1 9.16797H5L10 5.16797V19.168L5 15.168H1V9.16797Z" stroke="#14142B" stroke-width="2" stroke-linecap="round" stroke-linejoin="round"/>
<path d="M19.702 4C20.7234 5.02144 21.5337 6.23407 22.0865 7.56866C22.6393 8.90324 22.9238 10.3336 22.9238 11.7782C22.9238 13.2227 22.6393 14.6531 22.0865 15.9877C21.5337 17.3223 20.7234 18.5349 19.702 19.5564" stroke="#14142B" stroke-width="2" stroke-linecap="round"/>
<path d="M15.435 7.80273C15.9922 8.35989 16.4341 9.02132 16.7357 9.74927C17.0372 10.4772 17.1924 11.2574 17.1924 12.0454C17.1924 12.8333 17.0372 13.6135 16.7357 14.3415C16.4341 15.0694 15.9922 15.7309 15.435 16.288" stroke="#14142B" stroke-width="2" stroke-linecap="round"/>
</svg>
