<svg width="16" height="16" viewBox="0 0 16 16" fill="none" xmlns="http://www.w3.org/2000/svg">
<path d="M15.1056 0.276367H0.894719C0.552963 0.276367 0.276855 0.552475 0.276855 0.894231V15.1051C0.276855 15.4468 0.552963 15.723 0.894719 15.723H15.1056C15.4473 15.723 15.7234 15.4468 15.7234 15.1051V0.894231C15.7234 0.552475 15.4473 0.276367 15.1056 0.276367ZM13.3215 4.78484H12.0877C11.1204 4.78484 10.9331 5.24437 10.9331 5.92016V7.40883H13.2423L12.9411 9.73933H10.9331V15.723H8.52533V9.74126H6.51148V7.40883H8.52533V5.69039C8.52533 3.69585 9.74368 2.6088 11.5239 2.6088C12.3773 2.6088 13.1091 2.67252 13.3234 2.70148V4.78484H13.3215Z" fill="white"/>
</svg>
