<svg width="24" height="24" viewBox="0 0 24 24" fill="none" xmlns="http://www.w3.org/2000/svg">
<g clip-path="url(#clip0)">
<path fill-rule="evenodd" clip-rule="evenodd" d="M8.3145 0.00585938H15.6868C22.415 0.00585938 24.0081 1.59739 24.0081 8.31909V15.6842C24.0081 22.4059 22.415 23.9974 15.6868 23.9974H8.3145C1.58625 23.9974 -0.00683594 22.4059 -0.00683594 15.6842V8.31909C-0.00683594 1.59739 1.58625 0.00585938 8.3145 0.00585938Z" fill="#FBFDFF"/>
<path fill-rule="evenodd" clip-rule="evenodd" d="M19.6531 8.26578C19.7718 7.8933 19.6531 7.6224 19.1278 7.6224H17.3821C16.9415 7.6224 16.7381 7.85944 16.6195 8.11341C16.6195 8.11341 15.7213 10.2806 14.4671 11.6859C14.0604 12.0922 13.874 12.2277 13.6536 12.2277C13.535 12.2277 13.3825 12.0922 13.3825 11.7198V8.24885C13.3825 7.80864 13.2469 7.60547 12.8741 7.60547H10.1285C9.85736 7.60547 9.68788 7.80864 9.68788 8.01182C9.68788 8.4351 10.3149 8.53669 10.3827 9.72187V12.2954C10.3827 12.8541 10.2811 12.9557 10.0607 12.9557C9.46756 12.9557 8.027 10.7716 7.16267 8.28272C6.99319 7.79171 6.82372 7.60547 6.38308 7.60547H4.62051C4.11208 7.60547 4.02734 7.8425 4.02734 8.09647C4.02734 8.55362 4.62051 10.8563 6.78982 13.9039C8.23038 15.9864 10.2811 17.1039 12.1284 17.1039C13.2469 17.1039 13.3825 16.8499 13.3825 16.4266V14.852C13.3825 14.3441 13.4842 14.2594 13.8401 14.2594C14.0943 14.2594 14.5519 14.3949 15.5857 15.3938C16.772 16.579 16.9754 17.1208 17.6364 17.1208H19.382C19.8904 17.1208 20.1277 16.8668 19.9921 16.3758C19.8396 15.8848 19.2633 15.1737 18.5176 14.3272C18.1109 13.8531 17.5008 13.3282 17.3144 13.0743C17.0601 12.7356 17.1279 12.6002 17.3144 12.2954C17.2974 12.2954 19.4328 9.28166 19.6531 8.26578Z" fill="initial"/>
</g>
<defs>
<clipPath id="clip0">
<rect width="24" height="24" fill="white"/>
</clipPath>
</defs>
</svg>
