<svg width="617" height="573" viewBox="0 0 617 573" fill="none" xmlns="http://www.w3.org/2000/svg">
<path d="M600.459 73.2498L569.214 471.021C569.214 502.27 547.889 519.543 524.247 516.119L225.894 468.629C206.859 465.884 192.785 450.398 192.785 432.193L212.398 95.8868C212.398 73.3002 218.416 62.5734 245.935 60.7101C245.935 60.7101 482.729 51.0661 567.401 45.4257C600.459 43.235 600.459 63.6813 600.459 73.2498Z" fill="white"/>
<path d="M530.163 517.176C528.174 517.176 526.16 517.025 524.146 516.748L225.792 469.258C206.305 466.438 192.155 450.877 192.155 432.218L211.743 95.8614C211.743 74.1813 217.182 62.0445 245.859 60.1056C248.251 60.0049 483.61 50.386 567.325 44.8212C579.536 43.9903 588.575 46.2313 594.114 51.4184C601.088 57.9401 601.088 67.5337 601.088 73.2496V73.3L569.843 471.096C569.843 486.582 564.531 499.751 554.862 508.111C547.964 514.054 539.353 517.176 530.163 517.176ZM572.084 45.904C570.573 45.904 569.012 45.9543 567.401 46.0551C483.686 51.6199 248.276 61.2639 245.909 61.3394C218.088 63.2279 213.002 74.4583 213.002 95.9118L193.389 432.269C193.389 450.247 207.086 465.305 225.969 468.05L524.322 515.539C535.4 517.151 545.924 514.18 554.032 507.18C563.423 499.072 568.584 486.23 568.584 471.071L599.829 73.2496C599.829 67.71 599.829 58.4941 593.258 52.3501C588.701 48.0443 581.576 45.904 572.084 45.904Z" fill="black"/>
<path d="M587.719 134.815H536.835C539.882 105.254 542.123 85.7641 542.173 85.462C542.249 84.7821 541.745 84.1526 541.065 84.0771C540.385 84.0267 539.756 84.4799 539.68 85.185C539.655 85.4871 537.389 105.128 534.318 134.84H479.028C481.848 110.088 483.963 93.2175 484.038 92.6887C484.114 92.0088 483.635 91.3793 482.955 91.2786C482.276 91.1779 481.621 91.6815 481.546 92.3613C481.47 92.8901 479.355 109.912 476.51 134.84H419.03C420.943 110.491 422.328 93.1671 422.378 92.6131C422.429 91.9081 421.925 91.3038 421.22 91.2534C420.54 91.203 419.911 91.7066 419.861 92.4117C419.81 92.9657 418.425 110.365 416.512 134.84H356.036C357.597 113.563 358.856 98.6816 358.906 98.2535C358.956 97.5484 358.453 96.9441 357.748 96.8938C357.093 96.8686 356.438 97.347 356.388 98.052C356.363 98.4801 355.079 113.462 353.493 134.865H303.389L306.965 88.7102C307.015 88.0052 306.511 87.4008 305.806 87.3505C305.127 87.2749 304.497 87.8037 304.447 88.5088L300.847 134.865H253.588L256.131 98.2031C256.182 97.4981 255.653 96.9189 254.973 96.8686C254.293 96.793 253.689 97.347 253.639 98.0269L251.096 134.815H212.826C212.121 134.815 211.567 135.369 211.567 136.074C211.567 136.779 212.121 137.333 212.826 137.333H250.894L247.596 184.722C228.99 183.866 212.901 182.834 212.599 182.834C211.97 182.783 211.315 183.312 211.265 184.017C211.215 184.722 211.743 185.301 212.448 185.352C212.776 185.377 228.814 186.409 247.445 187.24L243.618 242.234C225.339 239.64 214.689 236.367 214.462 236.291C213.808 236.09 213.103 236.442 212.876 237.122C212.675 237.777 213.027 238.482 213.707 238.709C213.934 238.784 224.81 242.133 243.442 244.752L239.816 296.975C220.127 295.616 204.543 294.583 204.215 294.558C203.51 294.508 202.931 295.037 202.881 295.742C202.83 296.447 203.359 297.026 204.064 297.076C204.417 297.101 219.976 298.134 239.665 299.493L235.234 363.426L196.989 359.85L196.763 362.368L235.058 365.944L231.155 422.398C216.905 420.232 206.683 418.797 206.406 418.747C205.726 418.646 205.071 419.124 204.971 419.804C204.87 420.484 205.348 421.139 206.028 421.24C206.305 421.29 216.628 422.75 230.954 424.916L228.36 462.308C228.31 463.013 228.839 463.593 229.519 463.643C229.544 463.643 229.569 463.643 229.619 463.643C230.274 463.643 230.828 463.139 230.878 462.46L233.446 425.243C246.665 427.258 262.828 429.776 277.784 432.319L274.788 470.996C274.737 471.701 275.241 472.305 275.946 472.355C275.971 472.355 276.021 472.355 276.047 472.355C276.701 472.355 277.255 471.852 277.306 471.197L280.302 432.747C294.049 435.114 306.511 437.456 314.342 439.344C318.924 440.452 324.085 441.484 329.7 442.366C328.265 454.578 327.61 469.636 327.786 481.319C327.786 481.999 328.366 482.553 329.045 482.553H329.07C329.775 482.553 330.329 481.974 330.304 481.269C330.103 469.686 330.757 454.805 332.167 442.743C349.741 445.438 371.041 447.1 390.881 447.729C389.547 456.567 387.961 492.248 387.885 493.884C387.86 494.589 388.389 495.169 389.094 495.194C389.119 495.194 389.144 495.194 389.144 495.194C389.824 495.194 390.378 494.665 390.403 493.985C390.906 482.78 392.367 454.1 393.424 447.805C407.196 448.182 420.138 448.056 430.41 447.402C436.15 447.024 443.427 447.175 451.559 447.654C448.915 465.632 447.682 497.787 447.657 498.14C447.631 498.845 448.185 499.424 448.865 499.449C448.89 499.449 448.89 499.449 448.915 499.449C449.595 499.449 450.149 498.92 450.174 498.241C450.174 497.888 451.458 465.582 454.077 447.805C471.072 448.938 491.39 451.456 509.266 453.999C506.219 470.568 504.835 505.316 504.784 506.877C504.759 507.582 505.288 508.162 505.993 508.187C506.018 508.187 506.018 508.187 506.043 508.187C506.723 508.187 507.277 507.658 507.302 506.978C507.327 506.6 508.762 470.769 511.759 454.352C535.123 457.726 553.704 461.024 554.132 461.1C554.208 461.1 554.283 461.125 554.359 461.125C554.963 461.125 555.492 460.697 555.593 460.093C555.718 459.413 555.265 458.758 554.585 458.632C554.183 458.557 535.627 455.258 512.287 451.884C512.312 451.808 512.312 451.708 512.338 451.632C516.467 433.729 519.387 413.031 521.074 389.79C546.931 393.038 570.17 396.739 570.598 396.815C570.674 396.815 570.724 396.84 570.8 396.84C571.404 396.84 571.933 396.412 572.033 395.782C572.134 395.103 571.681 394.448 571.001 394.347C570.573 394.272 547.259 390.545 521.276 387.297C522.534 369.066 523.013 349.275 522.761 328.048C540.36 328.803 556.197 328.929 564.833 328.929C568.609 328.929 571.026 328.904 571.555 328.904C572.26 328.904 572.814 328.325 572.789 327.62C572.789 326.915 572.285 326.411 571.505 326.386C571.052 326.386 548.795 326.612 522.711 325.479C522.711 325.404 522.711 325.328 522.711 325.278C522.509 311.53 523.365 290.882 525.279 263.612C534.595 263.662 543.507 263.687 551.186 263.687C565.865 263.687 576.137 263.612 576.414 263.612C577.119 263.612 577.673 263.033 577.673 262.353C577.673 261.673 577.094 261.094 576.414 261.094C575.986 261.094 552.471 261.27 525.48 261.094C526.789 242.813 528.527 221.662 530.742 197.665C546.327 198.42 558.589 198.622 567.426 198.622C578.529 198.622 584.219 198.294 584.345 198.294C585.05 198.244 585.579 197.665 585.529 196.96C585.478 196.28 584.95 195.701 584.194 195.776C583.993 195.776 565.865 196.834 530.994 195.172C531.044 194.719 531.07 194.291 531.12 193.837C533.059 173.064 534.972 153.725 536.659 137.283H587.795C588.5 137.283 589.053 136.729 589.053 136.024C588.978 135.369 588.424 134.815 587.719 134.815ZM476.208 137.333C474.395 153.146 472.356 171.931 470.341 191.596C469.788 191.571 469.234 191.521 468.655 191.496C451.081 190.363 432.827 189.204 414.85 188.172C416.26 170.193 417.645 152.517 418.828 137.333H476.208ZM462.864 335.35C464.5 346.203 466.741 360.983 464.979 382.638C464.702 382.638 464.425 382.638 464.148 382.638C451.056 382.789 437.837 384.3 426.18 385.635C424.443 385.836 422.756 386.013 421.069 386.214C421.447 383.897 421.799 381.505 422.051 378.962C423.688 362.847 418.149 343.634 413.264 326.663C411.225 319.587 409.261 312.763 408.027 306.771C420.54 309.44 434.514 313.292 450.099 318.781C453.322 319.915 457.098 320.922 461.303 321.803C461.454 325.882 462.108 330.289 462.864 335.35ZM450.955 316.389C434.841 310.724 420.415 306.771 407.549 304.076C406.97 300.727 406.668 297.706 406.819 295.162C407.171 289.069 408.329 273.306 409.865 253.086C413.566 253.842 417.192 254.597 420.767 255.327C436.453 258.601 451.282 261.673 463.745 262.327C463.821 262.327 463.896 262.327 463.972 262.327C462.31 284.511 461.252 304.555 461.303 319.184C457.4 318.353 453.901 317.422 450.955 316.389ZM352.435 307.299C355.683 325.353 359.057 344.037 357.924 356.401C357.37 362.57 354.827 370.577 351.604 379.038L351.126 378.912C335.163 375.135 318.647 371.207 307.695 370.199L285.287 368.109L290.322 303.094C298.732 303.724 306.209 304.303 311.748 304.756C316.205 305.134 321.618 304.479 328.491 303.648C334.786 302.893 342.339 301.961 351.403 301.583C351.755 303.447 352.083 305.36 352.435 307.299ZM328.189 301.13C321.467 301.936 316.154 302.591 311.975 302.238C306.436 301.76 298.958 301.206 290.524 300.576L294.628 247.799C303.767 247.647 313.486 247.119 323.683 246.061C331.739 245.23 339.67 244.978 347.45 245.129C347.198 256.108 347.198 265.853 347.551 273.432C347.853 280.457 349.263 289.396 350.975 299.065C341.987 299.443 334.484 300.35 328.189 301.13ZM299.26 187.945C312.755 187.114 330.254 187.165 349.968 187.719C348.86 206.679 347.928 225.967 347.5 242.611C339.62 242.486 331.588 242.737 323.406 243.568C313.36 244.601 303.792 245.129 294.804 245.281L299.26 187.945ZM352.486 187.769C370.991 188.323 391.36 189.33 412.131 190.514C410.52 211.237 408.883 232.212 407.549 250.065C389.572 246.489 370.311 243.216 350.043 242.637C350.446 225.993 351.378 206.73 352.486 187.769ZM350.043 273.306C349.716 265.777 349.716 256.083 349.968 245.155C370.185 245.734 389.396 249.007 407.347 252.583C405.812 272.954 404.628 288.893 404.276 295.011C404.125 297.529 404.376 300.4 404.88 303.522C383.907 299.342 367.063 298.511 353.493 298.939C351.781 289.245 350.371 280.256 350.043 273.306ZM463.846 259.835C451.584 259.205 437.535 256.259 421.271 252.885C417.595 252.13 413.843 251.349 410.041 250.568C411.401 232.665 413.038 211.539 414.649 190.665C432.651 191.697 450.904 192.855 468.504 193.989C469.032 194.014 469.561 194.064 470.09 194.089C467.874 215.946 465.734 238.784 464.123 259.835C464.022 259.835 463.921 259.835 463.846 259.835ZM416.311 137.333C415.127 152.492 413.742 170.093 412.333 188.021C391.561 186.837 371.192 185.83 352.637 185.276C353.644 168.179 354.802 151.484 355.834 137.333H416.311ZM353.316 137.333C352.284 151.459 351.126 168.128 350.119 185.201C330.455 184.647 313.007 184.596 299.462 185.427L303.188 137.358H353.316V137.333ZM253.412 137.333H300.67L296.919 185.553C286.772 186.157 267.612 185.604 250.114 184.823L253.412 137.333ZM249.938 187.341C267.335 188.096 286.369 188.675 296.717 188.096L292.286 245.306C274.209 245.507 258.548 244.223 246.111 242.561L249.938 187.341ZM245.934 245.079C258.397 246.741 274.032 248 292.085 247.824L288.006 300.375C273.705 299.317 257.038 298.159 242.334 297.126L245.934 245.079ZM242.158 299.645C256.861 300.652 273.529 301.835 287.83 302.868L282.794 367.832L237.726 363.627L242.158 299.645ZM233.623 422.75L237.55 366.171L282.593 370.376L277.985 429.826C262.98 427.283 246.816 424.765 233.623 422.75ZM314.896 436.927C306.99 434.988 294.351 432.621 280.453 430.254L285.085 370.602L307.468 372.692C318.244 373.699 334.66 377.602 350.547 381.354L350.698 381.379C348.306 387.448 345.612 393.667 343.069 399.61C338.613 409.908 334.433 419.628 332.394 426.905C331.462 430.279 330.657 434.786 329.977 439.898C324.463 439.017 319.377 438.035 314.896 436.927ZM334.786 427.585C336.775 420.459 340.929 410.815 345.36 400.617C348.054 394.372 350.774 388.052 353.165 381.984L355.305 382.487C355.406 382.512 355.507 382.512 355.608 382.512C356.187 382.512 356.69 382.11 356.841 381.556C356.992 380.876 356.59 380.196 355.91 380.045L354.097 379.617C357.37 371.055 359.888 363.048 360.467 356.627C361.625 343.936 358.226 325.076 354.928 306.846C354.601 305.033 354.273 303.245 353.971 301.483C367.542 301.08 384.385 301.961 405.384 306.217C406.592 312.411 408.631 319.562 410.897 327.368C415.731 344.113 421.195 363.073 419.609 378.71C419.332 381.455 418.954 384.048 418.526 386.516C416.915 386.692 415.303 386.869 413.768 387.02C413.063 387.095 412.559 387.7 412.635 388.405C412.71 389.11 413.39 389.588 414.019 389.538C415.329 389.412 416.688 389.261 418.048 389.11C414.598 406.157 407.7 416.858 401.506 426.452C397.503 432.671 393.701 438.564 391.511 445.337C371.595 444.733 350.119 443.046 332.495 440.351C333.099 435.315 333.879 430.884 334.786 427.585ZM430.183 444.959C420.138 445.614 407.524 445.74 394.079 445.387C396.194 439.243 399.618 433.905 403.571 427.812C409.991 417.865 417.141 406.761 420.616 388.807C422.529 388.606 424.468 388.379 426.482 388.153C438.089 386.818 451.232 385.333 464.198 385.182C464.374 385.182 464.576 385.182 464.752 385.182C463.166 401.8 459.238 416.329 456.066 428.063C454.329 434.459 452.818 439.999 452.012 444.707C451.987 444.884 451.962 445.085 451.912 445.261C443.553 444.733 436.075 444.582 430.183 444.959ZM509.82 451.154C509.795 451.305 509.744 451.456 509.719 451.607C491.868 449.064 471.525 446.546 454.429 445.387C454.455 445.287 454.454 445.186 454.48 445.11C455.285 440.502 456.771 435.038 458.483 428.693C461.706 416.833 465.684 402.103 467.27 385.156C480.463 385.307 499.975 387.297 518.506 389.563C516.819 412.729 513.924 433.326 509.82 451.154ZM518.708 387.045C500.227 384.779 480.79 382.815 467.496 382.638C469.259 360.807 467.018 345.875 465.356 334.947C464.651 330.213 464.022 326.059 463.871 322.281C479.783 325.379 500.857 327.066 520.193 327.972C520.42 349.174 519.941 368.89 518.708 387.045ZM520.168 325.379C520.168 325.404 520.168 325.404 520.168 325.429C500.68 324.523 479.481 322.835 463.795 319.713C463.72 305.083 464.777 284.864 466.464 262.479C481.772 263.184 502.997 263.511 522.736 263.662C520.822 290.907 519.941 311.58 520.168 325.379ZM522.887 261.144C503.173 260.993 481.948 260.666 466.615 259.961C468.227 238.91 470.367 216.097 472.582 194.24C490.861 195.399 508.158 196.507 523.819 197.363C525.304 197.438 526.714 197.514 528.149 197.589C525.959 221.636 524.196 242.838 522.887 261.144ZM528.527 193.636C528.476 194.14 528.451 194.593 528.401 195.071C526.941 194.996 525.505 194.92 523.97 194.845C508.36 193.989 491.088 192.906 472.834 191.722C474.848 171.981 476.913 153.146 478.726 137.308H534.041C532.354 153.7 530.44 172.963 528.527 193.636Z" fill="#D1DBF6"/>
<path d="M215.268 288.036C217.383 288.036 219.045 286.852 220.052 285.87C220.505 285.417 221.135 284.662 221.789 283.856C222.519 282.975 223.401 281.892 223.879 281.539C225.062 280.633 225.767 280.356 227.102 280.356C230.299 280.356 232.892 283.05 232.892 286.374C232.892 287.079 233.446 287.633 234.151 287.633C234.856 287.633 235.41 287.079 235.41 286.374C235.41 281.665 231.684 277.838 227.102 277.838C225.238 277.838 223.954 278.291 222.343 279.525C221.663 280.054 220.782 281.111 219.85 282.244C219.271 282.949 218.692 283.655 218.289 284.057C217.61 284.712 216.527 285.518 215.268 285.518C212.901 285.518 210.006 284.813 208.873 279.248C208.722 278.568 208.042 278.115 207.388 278.266C206.708 278.417 206.28 279.072 206.406 279.752C207.539 285.266 210.535 288.036 215.268 288.036Z" fill="#D1DBF6"/>
<path d="M155.547 355.495H166.575" stroke="black" stroke-width="0.5" stroke-miterlimit="10" stroke-linecap="round"/>
<path d="M337.883 355.495H352.712" stroke="black" stroke-width="0.5" stroke-miterlimit="10" stroke-linecap="round"/>
<path d="M389.621 345.271C385.568 335.149 378.82 324.825 369.001 315.08C316.33 262.832 302.004 248.101 254.267 246.389C216.652 245.029 191.197 259.457 138.526 311.731C95.5229 354.437 106.5 411.999 158.114 411.999C197.467 411.999 248.98 411.873 248.98 411.873C248.98 411.873 308.449 412.477 347.801 411.999C367.818 411.747 382.194 402.632 389.269 389.085C391.132 372.088 390.729 357.031 389.621 345.271Z" fill="#00BA88"/>
<path d="M331.186 411.999H171.963L162.698 328.552C161.515 317.951 169.169 308.635 179.013 308.635H324.111C333.955 308.635 341.609 317.951 340.426 328.552L331.186 411.999Z" fill="white"/>
<path d="M331.185 412.628H171.963C171.635 412.628 171.384 412.377 171.333 412.075L162.093 328.627C161.489 323.088 163.176 317.624 166.776 313.62C170.024 309.994 174.38 308.005 179.038 308.005H324.136C328.793 308.005 333.149 309.994 336.397 313.62C339.972 317.624 341.684 323.088 341.08 328.627L331.815 412.075C331.789 412.402 331.512 412.628 331.185 412.628ZM172.542 411.369H330.631L339.821 328.476C340.4 323.289 338.814 318.178 335.465 314.451C332.469 311.102 328.441 309.264 324.136 309.264H179.038C174.732 309.264 170.704 311.102 167.708 314.451C164.359 318.203 162.773 323.314 163.352 328.476L172.542 411.369Z" fill="#050505"/>
<path d="M251.573 368.613C247.016 368.613 243.29 364.912 243.29 360.329C243.29 355.772 247.016 352.045 251.573 352.045C251.926 352.045 252.203 352.322 252.203 352.674C252.203 353.027 251.926 353.304 251.573 353.304C247.696 353.304 244.549 356.451 244.549 360.329C244.549 364.207 247.696 367.354 251.573 367.354C255.451 367.354 258.598 364.207 258.598 360.329C258.598 359.977 258.875 359.7 259.227 359.7C259.58 359.7 259.857 359.977 259.857 360.329C259.857 364.887 256.156 368.613 251.573 368.613Z" fill="#0C0C0C"/>
<path d="M283.649 285.267C282.088 285.267 280.351 284.537 278.211 281.918C277.984 281.641 278.035 281.263 278.312 281.037C278.589 280.81 278.966 280.861 279.193 281.137C281.786 284.335 283.473 284.209 284.984 283.832C285.89 283.605 286.494 282.875 286.847 282.321C287.174 281.767 287.753 280.609 288.156 279.753L288.358 279.35C289.138 277.738 290.321 276.706 291.656 276.429C292.587 276.227 294.073 276.328 295.861 277.864C297.698 279.425 299.285 280.055 300.569 279.677C301.979 279.274 303.137 277.612 303.968 274.918C304.068 274.591 304.421 274.389 304.748 274.49C305.075 274.591 305.277 274.943 305.176 275.271C304.219 278.443 302.784 280.332 300.946 280.886C299.209 281.389 297.245 280.709 295.055 278.821C293.947 277.864 292.864 277.461 291.933 277.663C290.976 277.864 290.12 278.645 289.516 279.904L289.314 280.307C288.861 281.238 288.307 282.396 287.93 282.976C287.451 283.731 286.62 284.713 285.311 285.04C284.757 285.166 284.203 285.267 283.649 285.267Z" fill="white"/>
<path d="M200.061 295.517C200.036 295.517 200.011 295.517 199.961 295.517C199.608 295.466 199.381 295.139 199.432 294.812C200.086 290.229 201.975 289.071 203.913 288.492C205.197 288.114 206.431 288.517 207.212 288.92C207.841 289.247 208.999 290.002 209.83 290.531L210.157 290.758C211.316 291.513 212.474 291.765 213.38 291.438C214.312 291.11 215.017 290.254 215.47 288.844C216.376 286.125 217.711 284.513 219.473 284.06C221.336 283.581 223.552 284.463 225.994 286.704C226.246 286.93 226.271 287.333 226.044 287.585C225.818 287.837 225.415 287.862 225.163 287.635C223.073 285.722 221.236 284.916 219.826 285.294C218.516 285.621 217.459 286.956 216.704 289.247C215.973 291.463 214.74 292.319 213.833 292.621C212.549 293.074 211.013 292.772 209.503 291.79L209.175 291.564C208.37 291.035 207.262 290.305 206.683 290.002C206.079 289.7 205.197 289.398 204.291 289.65C202.806 290.078 201.295 290.858 200.691 294.938C200.64 295.29 200.389 295.517 200.061 295.517Z" fill="white"/>
<path d="M134.272 348.042C134.222 348.042 134.171 348.042 134.121 348.017C133.794 347.941 133.567 347.589 133.643 347.261C134.373 344.089 135.632 342.175 137.369 341.621C138.98 341.092 140.868 341.747 143.009 343.585C144.066 344.517 145.098 344.895 145.954 344.693C146.81 344.492 147.54 343.711 148.044 342.477L148.195 342.125C148.573 341.193 149.051 340.01 149.378 339.405C149.781 338.625 150.537 337.643 151.77 337.29C154.238 336.56 156.227 337.441 158.568 340.287C158.795 340.564 158.744 340.941 158.468 341.168C158.191 341.394 157.813 341.344 157.586 341.067C155.018 337.945 153.482 338.071 152.123 338.474C151.317 338.7 150.788 339.43 150.511 339.984C150.209 340.538 149.731 341.722 149.404 342.578L149.253 342.93C148.598 344.542 147.54 345.6 146.307 345.902C145.426 346.103 144.016 346.053 142.253 344.542C140.491 343.006 138.98 342.427 137.847 342.805C136.588 343.207 135.581 344.844 134.952 347.538C134.826 347.841 134.574 348.042 134.272 348.042Z" fill="white"/>
<path d="M112.141 363.679C111.864 363.679 111.612 363.502 111.537 363.225C111.436 362.898 111.638 362.545 111.965 362.445C112.972 362.143 113.601 361.11 113.954 360.254L114.029 360.078C114.407 359.121 114.936 357.837 115.313 357.182C115.842 356.124 116.698 355.344 117.68 355.067C120.122 354.311 122.111 355.193 124.478 358.063C124.705 358.34 124.654 358.718 124.403 358.945C124.126 359.171 123.748 359.121 123.521 358.869C120.928 355.722 119.392 355.873 118.058 356.276C117.403 356.452 116.824 357.006 116.446 357.761C116.094 358.366 115.59 359.65 115.238 360.531L115.162 360.732C114.508 362.294 113.551 363.301 112.368 363.653C112.242 363.653 112.191 363.679 112.141 363.679Z" fill="#FA5A5A"/>
<path d="M147.54 400.366C146.331 400.366 145.098 399.787 143.663 398.553C143.411 398.326 143.36 397.923 143.587 397.671C143.814 397.42 144.217 397.369 144.468 397.596C146.709 399.535 147.892 399.233 148.9 398.779C149.479 398.502 149.806 397.948 149.982 397.495C150.158 397.042 150.41 396.11 150.612 395.405L150.687 395.128C151.065 393.794 151.82 392.837 152.802 392.434C153.507 392.157 154.64 392.006 156.201 392.938C157.712 393.819 158.895 394.046 159.726 393.617C160.657 393.164 161.262 391.83 161.488 389.815C161.513 389.463 161.79 389.211 162.193 389.261C162.546 389.286 162.798 389.614 162.747 389.966C162.47 392.484 161.639 394.096 160.305 394.776C159.046 395.405 157.46 395.153 155.572 394.046C154.665 393.517 153.885 393.366 153.28 393.617C152.651 393.869 152.173 394.524 151.896 395.481L151.82 395.733C151.619 396.463 151.342 397.445 151.14 397.948C150.889 398.603 150.385 399.459 149.428 399.913C148.799 400.215 148.169 400.366 147.54 400.366Z" fill="white"/>
<path d="M361.196 380.347C359.887 380.347 358.679 379.667 357.294 378.232C357.042 377.98 357.067 377.577 357.319 377.351C357.571 377.099 357.974 377.124 358.2 377.376C360.164 379.415 361.297 379.239 362.304 378.887C362.883 378.685 363.236 378.182 363.437 377.779C363.664 377.351 364.016 376.419 364.243 375.789L364.318 375.613C364.797 374.379 365.602 373.523 366.61 373.221C367.289 373.02 368.422 372.969 369.857 374.002C370.789 374.682 372.098 375.387 373.156 374.984C374.062 374.631 374.767 373.423 375.17 371.509C375.245 371.156 375.573 370.955 375.925 371.03C376.278 371.106 376.479 371.433 376.404 371.786C375.9 374.178 374.969 375.638 373.609 376.167C372.35 376.646 370.839 376.268 369.127 375.034C368.573 374.631 367.743 374.203 366.987 374.43C366.383 374.606 365.854 375.185 365.527 376.066L365.451 376.243C365.2 376.923 364.822 377.879 364.57 378.358C364.268 378.962 363.689 379.743 362.732 380.07C362.204 380.246 361.7 380.347 361.196 380.347Z" fill="#FA5A5A"/>
<path d="M356.413 337.214C354.6 337.214 352.536 336.383 349.967 333.412C349.741 333.16 349.766 332.757 350.043 332.531C350.295 332.304 350.698 332.329 350.924 332.606C353.92 336.081 355.909 336.358 358.175 335.678C359.308 335.351 360.038 334.419 360.441 333.714C360.844 333.009 361.499 331.549 362.002 330.466L362.178 330.063C363.06 328.124 364.394 326.84 365.955 326.487C367.063 326.235 368.825 326.286 370.991 328.048C371.268 328.275 371.293 328.653 371.091 328.93C370.865 329.207 370.462 329.232 370.21 329.03C368.775 327.872 367.466 327.444 366.257 327.721C365.074 327.998 364.042 329.03 363.337 330.592L363.16 330.995C362.657 332.102 362.002 333.613 361.549 334.369C361.02 335.275 360.064 336.459 358.528 336.912C357.873 337.088 357.168 337.214 356.413 337.214Z" fill="white"/>
<path d="M260.739 300.074C260.412 300.074 260.059 300.024 259.682 299.923C257.743 299.369 255.855 298.211 255.175 293.628C255.125 293.276 255.351 292.973 255.704 292.923C256.081 292.873 256.358 293.099 256.409 293.452C257.013 297.531 258.524 298.286 260.009 298.714C260.89 298.966 261.797 298.664 262.401 298.362C262.955 298.06 264.037 297.355 264.818 296.851L265.196 296.599C266.681 295.617 268.217 295.315 269.501 295.768C270.407 296.071 271.641 296.927 272.396 299.143C272.497 299.47 272.321 299.822 271.994 299.948C271.666 300.074 271.314 299.873 271.188 299.545C270.71 298.135 270.005 297.279 269.098 296.952C268.192 296.65 267.034 296.876 265.875 297.657L265.498 297.909C264.642 298.463 263.584 299.168 262.955 299.495C262.401 299.772 261.62 300.074 260.739 300.074Z" fill="#FA5A5A"/>
<path d="M324.413 300.452C322.852 300.452 321.115 299.721 318.975 297.103C318.748 296.826 318.798 296.448 319.075 296.221C319.352 296.02 319.73 296.045 319.957 296.322C322.55 299.52 324.237 299.419 325.747 299.016C326.654 298.79 327.258 298.059 327.611 297.506C327.963 296.952 328.542 295.768 328.97 294.887L329.146 294.534C329.298 294.232 329.675 294.081 329.977 294.232C330.279 294.383 330.43 294.761 330.279 295.063L330.103 295.416C329.675 296.322 329.071 297.531 328.693 298.16C328.215 298.916 327.384 299.898 326.075 300.225C325.521 300.351 324.967 300.452 324.413 300.452Z" fill="#FA5A5A"/>
<path d="M220.58 263.235C219.019 263.235 217.282 262.505 215.142 259.886C214.915 259.609 214.965 259.231 215.242 259.005C215.519 258.803 215.897 258.828 216.124 259.105C218.717 262.303 220.404 262.177 221.914 261.8C222.821 261.573 223.425 260.843 223.778 260.289C224.105 259.735 224.684 258.576 225.087 257.72L225.288 257.317C225.439 257.015 225.817 256.864 226.119 257.015C226.421 257.166 226.572 257.544 226.421 257.846L226.22 258.249C225.767 259.181 225.213 260.339 224.835 260.918C224.357 261.674 223.526 262.656 222.217 262.983C221.688 263.134 221.159 263.235 220.58 263.235Z" fill="white"/>
<path d="M300.846 300.451C299.285 300.451 297.547 299.721 295.407 297.102C295.181 296.825 295.231 296.448 295.508 296.221C295.785 296.02 296.163 296.045 296.389 296.322C298.983 299.52 300.669 299.419 302.18 299.016C302.507 298.94 302.86 299.142 302.935 299.469C303.011 299.797 302.81 300.149 302.482 300.225C301.954 300.351 301.425 300.451 300.846 300.451Z" fill="white"/>
<path d="M230.904 297.228C230.576 297.228 230.299 296.976 230.274 296.649C230.249 296.296 230.501 295.994 230.853 295.969C234.957 295.667 235.838 294.206 236.367 292.746C236.493 292.418 236.846 292.242 237.173 292.368C237.5 292.494 237.676 292.846 237.55 293.174C236.846 295.062 235.561 296.875 230.954 297.203C230.929 297.228 230.929 297.228 230.904 297.228Z" fill="white"/>
<path d="M141.07 318.254C140.742 318.254 140.465 318.002 140.44 317.675C140.415 317.322 140.667 317.02 141.019 316.995C145.123 316.693 146.004 315.233 146.533 313.772C146.659 313.445 147.012 313.268 147.339 313.394C147.666 313.52 147.842 313.873 147.716 314.2C147.012 316.089 145.727 317.902 141.12 318.229C141.095 318.254 141.07 318.254 141.07 318.254Z" fill="white"/>
<path d="M285.387 263.135C285.06 263.135 284.783 262.883 284.758 262.556C284.732 262.203 284.984 261.901 285.337 261.876C289.441 261.574 290.322 260.113 290.851 258.653C290.976 258.326 291.329 258.149 291.656 258.275C291.984 258.401 292.16 258.754 292.034 259.081C291.329 260.969 290.045 262.782 285.437 263.11C285.412 263.135 285.412 263.135 285.387 263.135Z" fill="#FA5A5A"/>
<path d="M161.288 374.229C161.036 374.229 160.81 374.078 160.709 373.851C159.047 370.074 157.386 369.747 155.825 369.747C155.472 369.747 155.195 369.47 155.195 369.117C155.195 368.765 155.497 368.437 155.825 368.488C157.839 368.513 159.979 369.117 161.842 373.347C161.993 373.675 161.842 374.027 161.515 374.178C161.465 374.204 161.389 374.229 161.288 374.229Z" fill="#FA5A5A"/>
<path d="M375.497 388.633C375.17 388.633 374.893 388.381 374.868 388.054C374.843 387.701 375.095 387.399 375.447 387.374C379.551 387.072 380.432 385.611 380.961 384.151C381.087 383.824 381.439 383.647 381.767 383.773C382.094 383.899 382.27 384.252 382.144 384.579C381.439 386.468 380.155 388.28 375.548 388.608C375.523 388.633 375.523 388.633 375.497 388.633Z" fill="white"/>
<path d="M337.53 379.945C337.202 379.945 336.925 379.694 336.9 379.366C336.875 379.014 337.127 378.712 337.479 378.686C341.583 378.384 342.464 376.924 342.993 375.463C343.119 375.136 343.472 374.96 343.799 375.086C344.126 375.212 344.302 375.564 344.176 375.891C343.472 377.78 342.187 379.593 337.58 379.92C337.58 379.946 337.555 379.945 337.53 379.945Z" fill="white"/>
<path d="M380.281 354.89C378.72 354.89 376.958 354.16 374.817 351.491C374.591 351.214 374.641 350.811 374.918 350.61C375.195 350.383 375.573 350.433 375.799 350.71C378.368 353.933 380.054 353.833 381.565 353.455C381.892 353.354 382.245 353.581 382.32 353.908C382.396 354.235 382.194 354.588 381.867 354.664C381.389 354.789 380.835 354.89 380.281 354.89Z" fill="#FA5A5A"/>
<path d="M352.209 310.85C350.648 310.85 348.885 310.12 346.745 307.451C346.519 307.174 346.569 306.771 346.846 306.569C347.123 306.343 347.501 306.393 347.727 306.67C350.295 309.893 351.982 309.793 353.493 309.415C353.845 309.314 354.173 309.541 354.248 309.868C354.324 310.195 354.122 310.548 353.795 310.623C353.317 310.749 352.763 310.85 352.209 310.85Z" fill="white"/>
<path d="M195.378 277.261C193.817 277.261 192.08 276.53 189.94 273.912C189.713 273.635 189.763 273.257 190.04 273.03C190.317 272.804 190.695 272.854 190.922 273.131C193.515 276.329 195.202 276.228 196.712 275.825C197.04 275.75 197.392 275.951 197.468 276.279C197.543 276.606 197.342 276.959 197.014 277.034C196.486 277.16 195.932 277.261 195.378 277.261Z" fill="#FA5A5A"/>
<path d="M167.104 302.919C167.028 302.919 166.953 302.919 166.877 302.868C166.55 302.742 166.399 302.39 166.525 302.062C168.186 297.731 170.276 297.026 172.315 296.926C173.625 296.875 174.758 297.505 175.437 298.084C175.991 298.537 176.923 299.544 177.628 300.249L177.88 300.526C178.131 300.778 178.106 301.181 177.855 301.408C177.603 301.66 177.2 301.634 176.973 301.383L176.696 301.106C176.017 300.401 175.11 299.444 174.607 299.041C174.103 298.613 173.348 298.084 172.366 298.16C170.805 298.26 169.168 298.663 167.683 302.49C167.607 302.767 167.381 302.919 167.104 302.919Z" fill="#FA5A5A"/>
<path d="M136.287 382.866C134.726 382.866 132.989 382.135 130.849 379.517C130.622 379.24 130.673 378.862 130.949 378.635C131.226 378.434 131.604 378.459 131.831 378.736C134.424 381.934 136.111 381.833 137.622 381.43C138.578 381.179 139.183 380.373 139.485 379.92C139.837 379.366 140.391 378.182 140.819 377.326L140.995 376.948C141.146 376.646 141.524 376.495 141.826 376.646C142.128 376.797 142.279 377.175 142.128 377.477L141.952 377.855C141.499 378.786 140.945 379.945 140.567 380.549C140.089 381.305 139.258 382.287 137.949 382.614C137.395 382.765 136.866 382.866 136.287 382.866Z" fill="white"/>
<path d="M348.256 405.578C348.205 405.578 348.155 405.578 348.13 405.553C347.802 405.478 347.576 405.15 347.651 404.798L347.727 404.495C347.953 403.513 348.256 402.154 348.482 401.449C348.759 400.593 349.363 399.459 350.547 398.83C352.334 397.873 354.5 397.395 358.15 400.215C358.427 400.416 358.478 400.819 358.276 401.096C358.075 401.373 357.672 401.423 357.395 401.222C354.122 398.704 352.511 399.208 351.126 399.938C350.295 400.366 349.867 401.222 349.666 401.852C349.464 402.481 349.137 403.866 348.961 404.772L348.885 405.075C348.809 405.377 348.558 405.578 348.256 405.578Z" fill="white"/>
<path d="M276.046 255.127C279.672 268.674 266.706 280.408 255.199 280.408C243.693 280.408 231.558 268.85 234.352 255.127C237.223 241.051 243.92 229.846 255.199 229.846C266.706 229.871 272.32 241.202 276.046 255.127Z" fill="#EAB193"/>
<path d="M272.898 245.005L249.811 253.113C249.811 253.113 262.324 261.347 275.215 252.257L272.898 245.005Z" fill="black"/>
<path d="M285.664 212.521C285.664 235.183 271.715 253.565 254.519 253.565C237.323 253.565 223.374 235.183 223.374 212.521C223.374 189.859 216.425 172.333 254.519 171.477C271.715 171.1 285.664 189.859 285.664 212.521Z" fill="#EAB193"/>
<path d="M296.944 220.251C294.955 225.916 289.844 229.265 285.538 227.755C281.233 226.244 279.37 220.427 281.384 214.762C283.373 209.096 288.484 205.747 292.79 207.258C297.095 208.769 298.958 214.585 296.944 220.251Z" fill="#EAB193"/>
<path d="M266.579 199.704C256.911 199.704 251.8 194.215 247.218 189.28C244.322 186.157 241.603 183.211 237.978 181.852C237.65 181.726 237.499 181.373 237.625 181.046C237.751 180.719 238.104 180.542 238.431 180.693C242.308 182.179 245.153 185.226 248.149 188.449C253.663 194.391 259.379 200.535 272.572 197.816C272.924 197.766 273.251 197.967 273.327 198.294C273.403 198.647 273.176 198.974 272.849 199.05C270.557 199.503 268.493 199.704 266.579 199.704Z" fill="black"/>
<path d="M244.449 213.453C244.449 214.536 243.568 215.417 242.485 215.417C241.403 215.417 240.521 214.536 240.521 213.453C240.521 212.371 241.403 211.489 242.485 211.489C243.543 211.489 244.449 212.371 244.449 213.453Z" fill="black"/>
<path d="M254.394 239.767C252.153 239.767 250.29 239.163 249.988 238.886C249.736 238.659 249.736 238.256 249.963 238.004C250.189 237.778 250.517 237.753 250.769 237.929C251.222 238.155 254.621 239.188 257.843 237.904C260.21 236.972 261.897 234.983 262.854 232.037C262.954 231.709 263.332 231.533 263.659 231.634C263.987 231.734 264.163 232.087 264.062 232.44C262.501 237.199 259.404 238.886 257.088 239.465C256.182 239.666 255.25 239.767 254.394 239.767Z" fill="black"/>
<path d="M235.611 208.517C235.51 208.517 235.435 208.492 235.334 208.442C235.032 208.291 234.881 207.913 235.032 207.611C235.057 207.56 238.104 201.492 245.229 203.179C245.556 203.255 245.783 203.607 245.707 203.934C245.632 204.262 245.304 204.488 244.952 204.413C238.809 202.952 236.291 207.938 236.19 208.165C236.064 208.391 235.838 208.517 235.611 208.517Z" fill="black"/>
<path d="M212.951 222.442C214.94 228.108 220.051 231.457 224.357 229.946C228.662 228.435 230.525 222.619 228.511 216.953C226.522 211.288 221.411 207.939 217.106 209.449C212.825 210.96 210.962 216.777 212.951 222.442Z" fill="#EAB193"/>
<path d="M219.171 216.147C220.53 215.367 222.695 216.575 224.005 218.867C224.685 220.05 225.012 221.309 224.961 222.342V227.554C224.961 227.982 224.609 228.36 224.156 228.36H223.325C222.897 228.36 222.519 228.007 222.519 227.554V224.608C221.336 224.381 220.001 223.324 219.095 221.737C217.761 219.395 217.811 216.928 219.171 216.147Z" fill="white"/>
<path d="M224.886 221.485C224.634 221.485 224.382 221.334 224.281 221.057C222.796 216.877 219.548 214.057 217.156 214.888C216.829 215.014 216.476 214.838 216.35 214.51C216.225 214.183 216.401 213.831 216.728 213.705C219.85 212.597 223.677 215.644 225.439 220.629C225.565 220.957 225.389 221.309 225.062 221.435C225.011 221.46 224.936 221.485 224.886 221.485Z" fill="black"/>
<path d="M264.037 212.748C264.037 213.831 264.918 214.712 266.001 214.712C267.084 214.712 267.965 213.831 267.965 212.748C267.965 211.665 267.084 210.784 266.001 210.784C264.918 210.759 264.037 211.665 264.037 212.748Z" fill="black"/>
<path d="M271.565 209.675C271.339 209.675 271.137 209.549 271.011 209.348C270.911 209.196 268.821 205.394 263.634 206.049C263.257 206.074 262.98 205.848 262.929 205.495C262.879 205.142 263.131 204.84 263.483 204.79C269.475 204.06 272.094 208.693 272.119 208.743C272.295 209.045 272.169 209.423 271.867 209.599C271.792 209.65 271.666 209.675 271.565 209.675Z" fill="black"/>
<path d="M254.192 229.895C252.706 229.895 251.372 229.24 250.617 228.661C250.34 228.46 250.289 228.057 250.491 227.78C250.692 227.503 251.095 227.452 251.372 227.654C251.498 227.755 254.242 229.794 256.483 227.704C256.735 227.478 257.138 227.478 257.364 227.729C257.591 227.981 257.591 228.384 257.339 228.611C256.357 229.567 255.249 229.895 254.192 229.895Z" fill="black"/>
<path d="M255.928 243.367H252.026C251.673 243.367 251.396 243.09 251.396 242.738C251.396 242.385 251.673 242.108 252.026 242.108H255.928C256.281 242.108 256.558 242.385 256.558 242.738C256.558 243.09 256.256 243.367 255.928 243.367Z" fill="black"/>
<path d="M290.574 214.284C289.215 213.503 287.049 214.712 285.74 217.003C285.06 218.187 284.733 219.446 284.783 220.478V225.691C284.783 226.119 285.136 226.496 285.589 226.496H286.42C286.848 226.496 287.226 226.144 287.226 225.691V222.744C288.409 222.518 289.743 221.46 290.65 219.874C291.959 217.557 291.934 215.09 290.574 214.284Z" fill="white"/>
<path d="M285.035 219.295C284.959 219.295 284.884 219.295 284.834 219.27C284.506 219.144 284.33 218.792 284.456 218.464C285.287 216.148 286.596 214.133 288.182 212.824C289.844 211.439 291.631 210.961 293.167 211.54C293.495 211.666 293.671 212.018 293.545 212.346C293.419 212.673 293.067 212.849 292.739 212.723C291.606 212.32 290.297 212.723 288.963 213.806C287.553 214.964 286.369 216.777 285.614 218.893C285.538 219.144 285.287 219.295 285.035 219.295Z" fill="black"/>
<path d="M223.854 214.712C224.231 219.42 225.339 216.575 226.472 215.266C233.824 206.855 229.947 183.916 229.141 184.042C235.083 179.107 244.424 183.816 254.243 190.589C260.663 195.021 271.666 198.017 276.374 192.452C276.374 192.452 278.715 216.323 282.794 217.053C286.873 217.784 280.276 215.467 291.707 203.355C307.896 186.183 286.168 183.614 290.096 179.359C310.414 157.402 285.639 149.52 257.314 159.894C221.99 140.128 218.088 158.661 227.454 166.693C228.335 167.449 200.036 167.801 215.772 181.348C216.905 182.33 204.97 191.672 212.675 197.413C225.339 206.83 223.451 209.449 223.854 214.712Z" fill="black"/>
<path d="M600.056 84.1273L600.459 80.1992C498.465 85.8396 275.493 92.0843 212.927 95.3829V93.3181C212.927 70.1272 218.944 59.0731 246.413 57.1594C246.413 57.1594 482.855 47.2384 567.426 41.4469C600.459 39.1807 600.459 61.3896 600.056 84.1273Z" fill="black"/>
<path d="M249.307 75.4911C249.307 78.84 246.588 81.5847 243.214 81.5847C239.865 81.5847 237.121 78.8652 237.121 75.4911C237.121 72.1421 239.84 69.3975 243.214 69.3975C246.588 69.3975 249.307 72.1421 249.307 75.4911Z" fill="white"/>
<path d="M270.558 73.7284C270.558 77.0773 267.839 79.822 264.465 79.822C261.116 79.822 258.372 77.1025 258.372 73.7284C258.372 70.3794 261.091 67.6348 264.465 67.6348C267.839 67.6599 270.558 70.3794 270.558 73.7284Z" fill="white"/>
<path d="M286.143 67.9367C288.812 67.9367 290.977 70.1022 290.977 72.7713C290.977 75.4404 288.812 77.6059 286.143 77.6059C283.474 77.6059 281.309 75.4404 281.309 72.7713C281.309 70.1022 283.474 67.9367 286.143 67.9367ZM286.143 66.6777C282.794 66.6777 280.05 69.3972 280.05 72.7713C280.05 76.1455 282.769 78.8649 286.143 78.8649C289.491 78.8649 292.236 76.1455 292.236 72.7713C292.236 69.3972 289.491 66.6777 286.143 66.6777Z" fill="white"/>
<path d="M377.411 434.963C377.31 434.963 377.21 434.937 377.109 434.887C376.807 434.711 376.681 434.333 376.857 434.031C384.99 418.998 390.025 390.973 390.025 360.933C390.025 329.483 381.188 306.317 375.926 295.313C375.775 295.011 375.901 294.633 376.228 294.482C376.53 294.331 376.908 294.457 377.059 294.785C382.371 305.889 391.284 329.256 391.284 360.958C391.284 391.199 386.173 419.452 377.965 434.66C377.864 434.837 377.638 434.963 377.411 434.963Z" fill="#050505"/>
<path d="M401.632 409.455C401.556 409.455 401.506 409.455 401.43 409.43C401.103 409.329 400.927 408.951 401.028 408.624C405.459 395.304 407.8 379.894 407.8 364.106C407.8 350.105 404.779 336.256 398.837 322.986C398.686 322.659 398.837 322.307 399.164 322.155C399.492 322.004 399.844 322.155 399.995 322.483C406.013 335.904 409.084 349.929 409.084 364.106C409.084 380.045 406.718 395.581 402.236 409.027C402.135 409.279 401.884 409.455 401.632 409.455Z" fill="#050505"/>
<path d="M122.086 87.3005H9.49192C4.255 87.3005 0 83.0702 0 77.8328C0 72.5953 4.255 68.3398 9.49192 68.3398H122.086C127.323 68.3398 131.578 72.5953 131.578 77.8328C131.552 83.0702 127.323 87.3005 122.086 87.3005Z" fill="#D1DBF6"/>
<path d="M167.683 82.3645H61.8619C61.5094 82.3645 61.2324 82.0875 61.2324 81.735C61.2324 81.3825 61.5094 81.1055 61.8619 81.1055H167.683C168.035 81.1055 168.312 81.3825 168.312 81.735C168.312 82.0875 168.035 82.3645 167.683 82.3645Z" fill="black"/>
<path d="M521.427 24.1233H415.606C415.254 24.1233 414.977 23.8463 414.977 23.4938C414.977 23.1412 415.254 22.8643 415.606 22.8643H521.427C521.78 22.8643 522.056 23.1412 522.056 23.4938C522.056 23.8463 521.78 24.1233 521.427 24.1233Z" fill="black"/>
<path d="M347.802 106.563C341.105 106.563 335.994 113.639 337.026 121.495L337.631 200.485C338.436 206.806 343.019 211.464 348.407 211.464H471.097C477.794 211.464 482.905 204.388 481.873 196.532L481.268 117.517C480.438 111.196 475.88 106.538 470.492 106.538H347.802V106.563Z" fill="white" stroke="black" stroke-width="0.5" stroke-miterlimit="10"/>
<path d="M278.212 573C277.557 573 276.877 572.95 276.198 572.849C262.979 570.835 261.897 550.892 260.839 531.629C259.807 512.845 258.85 495.093 247.445 494.287C247.143 494.262 246.866 494.262 246.589 494.262C236.669 494.262 234.403 506.877 232.011 520.223C229.367 534.978 226.573 550.212 212.775 548.399C197.04 546.335 184.677 517.705 184.149 516.496C184.023 516.169 184.149 515.816 184.476 515.665C184.778 515.539 185.156 515.665 185.307 515.993C185.433 516.295 197.921 545.151 212.927 547.14C225.591 548.827 228.109 534.827 230.752 519.996C233.144 506.701 235.611 492.978 246.564 492.978C246.866 492.978 247.193 492.978 247.52 493.003C260.034 493.884 261.041 512.165 262.073 531.529C263.08 550.288 264.138 569.702 276.349 571.565C279.345 572.018 281.888 571.414 284.154 569.702C292.487 563.432 295.081 543.212 297.598 523.647C300.771 499.046 304.019 473.564 319.05 474.672C329.775 475.427 333.804 492.676 337.731 509.37C341.432 525.133 345.259 541.399 354.5 541.399C354.575 541.399 354.651 541.399 354.726 541.399C366.711 541.047 373.282 525.611 381.641 506.046C390.453 485.399 401.431 459.69 423.033 445.463C482.301 406.459 536.986 441.787 568.408 487.866C568.609 488.143 568.534 488.546 568.232 488.748C567.955 488.949 567.552 488.873 567.35 488.571C536.281 442.995 482.2 408.02 423.713 446.52C402.412 460.521 391.536 486.053 382.799 506.55C374.289 526.518 367.542 542.306 354.777 542.658C354.676 542.658 354.575 542.658 354.5 542.658C344.278 542.658 340.526 526.619 336.523 509.647C332.721 493.406 328.768 476.636 318.974 475.931C318.697 475.906 318.445 475.906 318.194 475.906C305.026 475.906 301.904 500.255 298.857 523.824C296.314 543.64 293.671 564.137 284.909 570.734C282.97 572.245 280.704 573 278.212 573Z" fill="black"/>
<path d="M121.38 217.834C121.229 217.834 121.053 217.783 120.927 217.657C120.675 217.405 120.675 217.003 120.927 216.776L123.269 214.459C123.52 214.208 123.923 214.208 124.15 214.459C124.402 214.711 124.402 215.114 124.15 215.341L121.808 217.657C121.708 217.758 121.531 217.834 121.38 217.834Z" fill="#D1DBF6"/>
<path d="M121.38 222.844C121.229 222.844 121.053 222.794 120.927 222.668C120.675 222.416 120.675 222.013 120.927 221.787L128.279 214.459C128.531 214.208 128.934 214.208 129.16 214.459C129.412 214.711 129.412 215.114 129.16 215.341L121.808 222.668C121.708 222.769 121.531 222.844 121.38 222.844Z" fill="#D1DBF6"/>
<path d="M121.38 227.806C121.229 227.806 121.053 227.755 120.927 227.629C120.675 227.378 120.675 226.975 120.927 226.748L133.264 214.435C133.516 214.183 133.919 214.183 134.145 214.435C134.397 214.687 134.397 215.09 134.145 215.316L121.808 227.629C121.708 227.755 121.531 227.806 121.38 227.806Z" fill="#D1DBF6"/>
<path d="M121.38 232.816C121.229 232.816 121.053 232.766 120.927 232.64C120.675 232.388 120.675 231.985 120.927 231.759L135.983 216.751C136.235 216.5 136.638 216.5 136.864 216.751C137.116 217.003 137.116 217.406 136.864 217.633L121.808 232.64C121.708 232.766 121.531 232.816 121.38 232.816Z" fill="#D1DBF6"/>
<path d="M111.007 243.165C110.856 243.165 110.68 243.115 110.554 242.989C110.302 242.737 110.302 242.359 110.554 242.108L111.612 241.025C111.863 240.773 112.266 240.773 112.493 241.025C112.745 241.277 112.745 241.654 112.493 241.906L111.435 242.989C111.335 243.115 111.158 243.165 111.007 243.165Z" fill="#D1DBF6"/>
<path d="M121.38 237.803C121.229 237.803 121.053 237.752 120.927 237.626C120.675 237.375 120.675 236.972 120.927 236.745L135.983 221.738C136.235 221.486 136.638 221.486 136.864 221.738C137.116 221.989 137.116 222.392 136.864 222.619L121.808 237.626C121.708 237.752 121.531 237.803 121.38 237.803Z" fill="#D1DBF6"/>
<path d="M113.475 245.684C113.324 245.684 113.148 245.634 113.022 245.508C112.77 245.256 112.77 244.853 113.022 244.627L116.622 241.051C116.874 240.799 117.277 240.799 117.503 241.051C117.755 241.303 117.755 241.706 117.503 241.932L113.903 245.508C113.802 245.609 113.651 245.684 113.475 245.684Z" fill="#D1DBF6"/>
<path d="M115.967 248.201C115.816 248.201 115.64 248.151 115.514 248.025C115.262 247.773 115.262 247.37 115.514 247.143L135.983 226.747C136.235 226.496 136.638 226.496 136.865 226.747C137.116 226.999 137.116 227.402 136.865 227.629L116.395 248.025C116.295 248.125 116.118 248.201 115.967 248.201Z" fill="#D1DBF6"/>
<path d="M118.459 250.694C118.308 250.694 118.132 250.644 118.006 250.518C117.754 250.266 117.754 249.864 118.006 249.637L135.983 231.734C136.235 231.482 136.638 231.482 136.864 231.734C137.116 231.986 137.116 232.388 136.864 232.615L118.887 250.518C118.787 250.644 118.61 250.694 118.459 250.694Z" fill="#D1DBF6"/>
<path d="M120.928 253.212C120.777 253.212 120.601 253.162 120.475 253.036C120.223 252.784 120.223 252.381 120.475 252.155L135.984 236.719C136.236 236.467 136.639 236.467 136.866 236.719C137.117 236.971 137.117 237.374 136.866 237.6L121.356 253.036C121.255 253.162 121.079 253.212 120.928 253.212Z" fill="#D1DBF6"/>
<path d="M123.419 255.73C123.268 255.73 123.092 255.68 122.966 255.554C122.714 255.302 122.714 254.899 122.966 254.672L136.688 241.025C136.94 240.773 137.343 240.773 137.569 241.025C137.821 241.277 137.821 241.679 137.569 241.906L123.847 255.554C123.747 255.68 123.57 255.73 123.419 255.73Z" fill="#D1DBF6"/>
<path d="M125.913 258.248C125.761 258.248 125.585 258.198 125.459 258.072C125.208 257.82 125.208 257.417 125.459 257.19L141.699 241.025C141.951 240.773 142.353 240.773 142.58 241.025C142.832 241.277 142.832 241.679 142.58 241.906L126.341 258.072C126.24 258.172 126.064 258.248 125.913 258.248Z" fill="#D1DBF6"/>
<path d="M128.354 260.716C128.203 260.716 128.027 260.665 127.901 260.539C127.649 260.288 127.649 259.885 127.901 259.658L146.633 241.025C146.885 240.773 147.287 240.773 147.514 241.025C147.766 241.277 147.766 241.679 147.514 241.906L128.782 260.539C128.681 260.665 128.505 260.716 128.354 260.716Z" fill="#D1DBF6"/>
<path d="M150.888 164.578C145.047 164.578 139.659 160.7 138.023 154.808C137.846 154.128 138.224 153.449 138.904 153.247C139.584 153.046 140.263 153.449 140.465 154.128C142.076 159.895 148.043 163.269 153.809 161.657C159.549 160.046 162.923 154.053 161.337 148.312C159.726 142.546 153.733 139.171 147.993 140.783C147.313 140.984 146.633 140.582 146.432 139.902C146.256 139.222 146.633 138.542 147.313 138.34C154.388 136.351 161.79 140.531 163.754 147.607C165.743 154.708 161.564 162.085 154.489 164.049C153.28 164.427 152.072 164.578 150.888 164.578Z" fill="#D1DBF6"/>
<path d="M502.266 6.19569C501.133 8.18493 498.59 8.83961 496.626 7.7065C494.637 6.57339 493.982 4.0302 495.115 2.06614C496.248 0.10209 498.791 -0.577775 500.755 0.555333C502.719 1.68844 503.399 4.23164 502.266 6.19569Z" fill="#D1DBF6"/>
<path d="M513.747 8.23464C511.481 8.48644 509.416 6.87491 509.165 4.6087C508.913 2.34248 510.524 0.302888 512.79 0.0259061C515.056 -0.225896 517.096 1.38564 517.373 3.65185C517.649 5.94325 516.013 7.98284 513.747 8.23464Z" fill="#D1DBF6"/>
<path d="M153.507 499.853C148.875 499.853 145.123 496.076 145.123 491.468C145.123 486.835 148.9 483.083 153.507 483.083C158.14 483.083 161.891 486.86 161.891 491.468C161.891 496.101 158.115 499.853 153.507 499.853ZM153.507 484.972C149.932 484.972 147.011 487.892 147.011 491.468C147.011 495.044 149.932 497.964 153.507 497.964C157.082 497.964 160.003 495.044 160.003 491.468C160.003 487.867 157.082 484.972 153.507 484.972Z" fill="#D1DBF6"/>
<path d="M409.058 193.812C411.098 194.014 412.583 195.827 412.382 197.866C412.18 199.906 410.367 201.391 408.328 201.19C406.289 200.989 404.803 199.176 405.005 197.136C405.206 195.096 407.019 193.611 409.058 193.812Z" fill="black"/>
<path d="M424.997 201.492C424.871 201.492 424.72 201.492 424.595 201.467C422.404 201.24 420.793 199.276 421.019 197.086C421.12 196.028 421.649 195.071 422.454 194.391C423.285 193.712 424.343 193.409 425.375 193.51C426.432 193.611 427.389 194.14 428.069 194.945C428.749 195.776 429.051 196.809 428.95 197.866C428.85 198.924 428.321 199.881 427.515 200.561C426.81 201.165 425.904 201.492 424.997 201.492ZM424.972 194.769C424.343 194.769 423.738 194.996 423.26 195.399C422.706 195.852 422.354 196.507 422.278 197.237C422.127 198.748 423.235 200.082 424.72 200.233C425.451 200.309 426.156 200.082 426.709 199.629C427.263 199.176 427.616 198.521 427.691 197.791C427.767 197.061 427.54 196.356 427.087 195.776C426.634 195.222 425.979 194.87 425.249 194.794C425.174 194.769 425.073 194.769 424.972 194.769Z" fill="black"/>
<path d="M393.474 201.493C393.348 201.493 393.197 201.493 393.071 201.467C390.881 201.241 389.269 199.277 389.496 197.086C389.722 194.895 391.711 193.309 393.877 193.51C396.067 193.737 397.679 195.701 397.452 197.892C397.251 199.957 395.488 201.493 393.474 201.493ZM393.474 194.769C392.089 194.769 390.906 195.827 390.755 197.237C390.604 198.748 391.711 200.082 393.197 200.234C394.733 200.41 396.042 199.277 396.193 197.791C396.344 196.28 395.236 194.946 393.751 194.795C393.65 194.769 393.575 194.769 393.474 194.769Z" fill="black"/>
<path d="M437.41 171.025H380.383C377.538 171.025 375.171 168.985 374.743 166.19L374.441 135.143C374.189 133.582 374.667 131.92 375.75 130.661C376.833 129.402 378.419 128.672 380.081 128.672H437.108C439.953 128.672 442.319 130.711 442.747 133.506L443.049 164.554C443.301 166.115 442.823 167.777 441.74 169.036C440.658 170.32 439.071 171.025 437.41 171.025ZM380.081 129.931C378.771 129.931 377.563 130.485 376.707 131.492C375.851 132.474 375.498 133.783 375.674 135.068L375.977 166.115C376.304 168.205 378.142 169.791 380.358 169.791H437.385C438.694 169.791 439.902 169.237 440.758 168.23C441.614 167.248 441.967 165.939 441.791 164.654L441.488 133.607C441.161 131.517 439.323 129.931 437.108 129.931H380.081Z" fill="black"/>
<path d="M417.268 178.401H401.129V169.765H417.268V178.401ZM402.388 177.142H416.009V171.024H402.388V177.142Z" fill="black"/>
<path d="M427.339 178.403H391.159C390.806 178.403 390.529 178.126 390.529 177.773C390.529 177.421 390.806 177.144 391.159 177.144H427.339C427.691 177.144 427.968 177.421 427.968 177.773C427.968 178.126 427.691 178.403 427.339 178.403Z" fill="black"/>
<path d="M554.183 232.162C553.906 231.986 553.503 232.061 553.326 232.363L551.992 234.504C551.816 234.806 551.891 235.184 552.194 235.36C552.294 235.435 552.42 235.461 552.521 235.461C552.722 235.461 552.924 235.36 553.05 235.158L554.384 233.018C554.56 232.741 554.485 232.338 554.183 232.162Z" fill="black"/>
<path d="M549.726 238.053L547.485 241.603C547.309 241.905 547.385 242.283 547.687 242.459C547.787 242.535 547.913 242.56 548.014 242.56C548.215 242.56 548.417 242.459 548.543 242.258L550.784 238.708C550.96 238.405 550.884 238.028 550.582 237.851C550.305 237.675 549.927 237.751 549.726 238.053Z" fill="black"/>
<path d="M545.244 245.153C545.244 245.178 545.244 245.153 545.244 245.153C545.244 244.801 544.992 244.499 544.639 244.473C544.287 244.473 543.985 244.725 543.985 245.078C543.959 245.355 543.934 245.632 543.934 245.909L540.359 241.25C540.158 240.973 539.755 240.923 539.478 241.124C539.201 241.326 539.151 241.729 539.352 242.006L543.959 247.999C543.985 248.024 544.01 247.999 544.01 248.024C544.085 248.099 544.161 248.175 544.262 248.2C544.337 248.225 544.387 248.225 544.463 248.225C544.589 248.225 544.715 248.175 544.815 248.099C544.815 248.099 544.841 248.099 544.866 248.074C544.891 248.049 544.891 248.049 544.891 248.024C544.941 247.999 544.992 247.948 545.017 247.923L546.351 245.783C546.528 245.481 546.452 245.103 546.15 244.927C545.823 244.776 545.445 244.851 545.244 245.153Z" fill="black"/>
<path d="M467.849 153.372C466.162 153.17 464.5 152.969 462.889 152.843C462.536 152.792 462.234 153.069 462.209 153.422C462.184 153.775 462.435 154.077 462.788 154.102C464.374 154.228 466.036 154.404 467.697 154.631C467.723 154.631 467.748 154.631 467.773 154.631C468.075 154.631 468.352 154.404 468.402 154.077C468.453 153.724 468.201 153.397 467.849 153.372Z" fill="black"/>
<path d="M477.694 155.034C476.007 154.681 474.37 154.354 472.784 154.102C472.432 154.027 472.104 154.279 472.054 154.606C472.004 154.958 472.23 155.286 472.557 155.336C474.118 155.588 475.73 155.915 477.417 156.268C477.467 156.268 477.517 156.293 477.543 156.293C477.845 156.293 478.097 156.092 478.147 155.789C478.248 155.437 478.046 155.11 477.694 155.034Z" fill="black"/>
<path d="M487.361 157.502C485.775 157.023 484.164 156.57 482.552 156.167C482.2 156.092 481.873 156.293 481.797 156.62C481.722 156.948 481.923 157.3 482.25 157.376C483.836 157.779 485.423 158.232 487.009 158.71C487.059 158.736 487.135 158.736 487.185 158.736C487.462 158.736 487.714 158.559 487.789 158.282C487.865 157.955 487.689 157.602 487.361 157.502Z" fill="black"/>
<path d="M492.094 159.062C491.766 158.961 491.414 159.112 491.288 159.44C491.162 159.767 491.338 160.12 491.666 160.246C493.227 160.8 494.788 161.404 496.273 162.008C496.349 162.033 496.424 162.059 496.525 162.059C496.777 162.059 497.003 161.907 497.104 161.681C497.23 161.353 497.079 161.001 496.751 160.85C495.241 160.246 493.68 159.641 492.094 159.062Z" fill="black"/>
<path d="M544.816 234.579C544.463 234.579 544.187 234.881 544.187 235.209C544.187 235.914 544.212 236.619 544.212 237.349C544.212 238.281 544.212 239.187 544.187 240.144C544.187 240.496 544.463 240.773 544.791 240.799C544.791 240.799 544.791 240.799 544.816 240.799C545.168 240.799 545.445 240.522 545.445 240.194C545.471 239.237 545.471 238.306 545.471 237.374C545.471 236.644 545.471 235.939 545.445 235.209C545.445 234.856 545.143 234.579 544.816 234.579Z" fill="black"/>
<path d="M541.492 211.413C541.543 211.413 541.593 211.413 541.668 211.388C541.996 211.287 542.197 210.96 542.096 210.607C541.643 208.996 541.165 207.384 540.636 205.848C540.535 205.521 540.183 205.345 539.831 205.445C539.503 205.546 539.327 205.924 539.428 206.251C539.956 207.787 540.435 209.348 540.863 210.935C540.964 211.212 541.215 211.413 541.492 211.413Z" fill="black"/>
<path d="M542.954 220.529C543.004 220.831 543.281 221.057 543.583 221.057C543.608 221.057 543.659 221.057 543.684 221.057C544.036 221.007 544.263 220.68 544.212 220.327C543.961 218.691 543.659 217.054 543.306 215.442C543.231 215.115 542.903 214.863 542.551 214.964C542.198 215.039 541.997 215.367 542.072 215.719C542.4 217.306 542.702 218.917 542.954 220.529Z" fill="black"/>
<path d="M543.608 225.413C543.784 227.025 543.91 228.661 544.011 230.323C544.036 230.651 544.313 230.928 544.64 230.928H544.665C545.018 230.902 545.27 230.6 545.27 230.273C545.169 228.611 545.018 226.949 544.867 225.312C544.817 224.96 544.514 224.708 544.162 224.758C543.809 224.758 543.558 225.061 543.608 225.413Z" fill="black"/>
<path d="M534.417 192.249C533.586 190.839 532.68 189.429 531.723 188.044C531.522 187.767 531.144 187.692 530.842 187.893C530.565 188.095 530.49 188.472 530.691 188.774C531.623 190.134 532.504 191.519 533.335 192.904C533.46 193.105 533.662 193.206 533.863 193.206C533.964 193.206 534.09 193.181 534.191 193.105C534.493 192.954 534.593 192.551 534.417 192.249Z" fill="black"/>
<path d="M536.784 196.631C536.633 196.329 536.255 196.203 535.953 196.354C535.651 196.505 535.525 196.883 535.676 197.185C536.406 198.645 537.086 200.131 537.716 201.642C537.816 201.894 538.043 202.02 538.295 202.02C538.37 202.02 538.446 201.994 538.547 201.969C538.874 201.843 539.025 201.466 538.874 201.138C538.219 199.627 537.514 198.117 536.784 196.631Z" fill="black"/>
<path d="M525.48 180.264C525.253 180.013 524.85 179.987 524.598 180.239C524.347 180.466 524.321 180.869 524.573 181.121C525.681 182.329 526.764 183.563 527.771 184.822C527.897 184.973 528.073 185.049 528.274 185.049C528.4 185.049 528.551 184.998 528.677 184.923C528.954 184.696 528.979 184.318 528.778 184.041C527.72 182.782 526.613 181.498 525.48 180.264Z" fill="black"/>
<path d="M510.072 167.649C509.77 167.473 509.392 167.549 509.216 167.851C509.039 168.153 509.115 168.531 509.417 168.707C510.802 169.563 512.187 170.495 513.496 171.426C513.597 171.502 513.722 171.552 513.848 171.552C514.05 171.552 514.251 171.451 514.352 171.275C514.553 170.998 514.478 170.595 514.201 170.394C512.892 169.462 511.482 168.531 510.072 167.649Z" fill="black"/>
<path d="M501.309 162.864C500.982 162.713 500.604 162.839 500.478 163.166C500.327 163.469 500.453 163.846 500.781 163.997C502.266 164.702 503.751 165.458 505.161 166.238C505.262 166.289 505.363 166.314 505.464 166.314C505.69 166.314 505.892 166.188 506.017 165.987C506.194 165.684 506.068 165.307 505.766 165.13C504.331 164.35 502.82 163.594 501.309 162.864Z" fill="black"/>
<path d="M518.204 173.441C517.927 173.214 517.549 173.264 517.322 173.541C517.096 173.818 517.146 174.196 517.423 174.423C518.707 175.48 519.941 176.563 521.124 177.646C521.25 177.746 521.401 177.822 521.552 177.822C521.728 177.822 521.88 177.746 522.005 177.62C522.232 177.369 522.232 176.966 521.98 176.739C520.747 175.606 519.488 174.498 518.204 173.441Z" fill="black"/>
<path d="M457.853 152.541C456.217 152.491 455.31 152.516 455.31 152.516C454.958 152.516 454.681 152.818 454.681 153.146C454.681 153.498 454.958 153.775 455.31 153.775C455.31 153.775 456.217 153.775 457.777 153.8H457.803C458.13 153.8 458.432 153.523 458.432 153.196C458.482 152.843 458.206 152.541 457.853 152.541Z" fill="black"/>
<path d="M535.577 235.032C535.35 234.755 534.973 234.704 534.696 234.906C534.419 235.107 534.368 235.51 534.57 235.787L534.746 236.014C534.872 236.165 535.048 236.265 535.25 236.265C535.375 236.265 535.527 236.215 535.627 236.14C535.904 235.938 535.955 235.535 535.753 235.258L535.577 235.032Z" fill="black"/>
<path d="M545.294 293.048C545.244 293.048 545.194 293.048 545.143 293.023C544.816 292.947 544.589 292.595 544.69 292.268C544.992 291.034 552.017 262.354 564.58 262.354C564.606 262.354 564.656 262.354 564.681 262.354C565.034 262.354 565.311 262.656 565.311 262.983C565.311 263.336 565.034 263.613 564.681 263.613C564.656 263.638 564.606 263.613 564.58 263.613C552.999 263.613 545.974 292.268 545.899 292.545C545.848 292.847 545.597 293.048 545.294 293.048Z" fill="black"/>
<path d="M576.766 291.336C576.741 291.336 576.691 291.336 576.665 291.336C576.313 291.261 576.086 290.934 576.162 290.606C576.212 290.405 579.888 269.505 568.634 264.293C568.332 264.142 568.181 263.764 568.332 263.462C568.483 263.16 568.86 263.009 569.163 263.16C581.298 268.8 577.572 289.952 577.396 290.858C577.32 291.135 577.068 291.336 576.766 291.336Z" fill="black"/>
<path d="M518.456 259.08C513.949 257.897 509.443 261.044 508.964 265.678L497.685 310.725C497.307 314.477 499.699 317.926 503.35 318.858L586.184 340.387C590.69 341.571 595.197 338.423 595.676 333.79L606.955 288.743C607.333 284.991 604.941 281.541 601.29 280.609L518.456 259.08Z" fill="white"/>
<path d="M588.096 341.268C587.391 341.268 586.712 341.167 586.032 340.991L503.198 319.462C499.22 318.429 496.652 314.728 497.08 310.649L508.359 265.526C508.586 263.209 509.87 261.069 511.834 259.684C513.823 258.299 516.29 257.871 518.606 258.475L601.441 280.004C605.419 281.037 607.987 284.738 607.559 288.817L596.279 333.94C596.053 336.257 594.768 338.397 592.805 339.782C591.395 340.764 589.758 341.268 588.096 341.268ZM516.542 259.457C515.132 259.457 513.747 259.885 512.564 260.716C510.877 261.875 509.819 263.713 509.593 265.752L498.313 310.875C497.986 314.249 500.151 317.397 503.525 318.253L586.359 339.782C588.323 340.311 590.438 339.933 592.1 338.75C593.787 337.591 594.844 335.753 595.071 333.714L606.35 288.591C606.677 285.217 604.512 282.094 601.138 281.213L518.304 259.684C517.725 259.533 517.121 259.457 516.542 259.457Z" fill="black"/>
<path d="M609.396 292.091L592.93 288.792L590.689 373.725L616.32 362.847L609.396 292.091Z" fill="white"/>
<path d="M590.035 374.707L590.06 373.725L592.326 288.037L609.976 291.562L610.026 292.016L617 363.25L616.572 363.427L590.035 374.707ZM593.535 289.548L591.319 372.768L615.641 362.445L608.792 292.595L593.535 289.548Z" fill="black"/>
<path d="M500.152 290.001L491.768 363.602L590.69 373.725L592.931 288.792L500.152 290.001Z" fill="white"/>
<path d="M591.294 374.43L491.062 364.157L491.138 363.527L499.598 289.372L593.585 288.138L591.294 374.43ZM492.447 363.049L590.06 373.045L592.276 289.422L500.705 290.631L492.447 363.049Z" fill="black"/>
<path d="M524.524 300.124C524.448 300.124 524.398 300.124 524.323 300.098C523.995 299.998 523.794 299.645 523.92 299.318C524.448 297.606 537.39 257.544 556.449 253.213C559.546 252.508 562.089 253.137 564.028 255.051C572.915 263.864 565.689 297.706 565.387 299.142C565.312 299.494 564.984 299.696 564.632 299.62C564.304 299.544 564.078 299.217 564.153 298.865C564.229 298.512 571.556 264.242 563.146 255.932C561.51 254.321 559.42 253.817 556.751 254.447C538.397 258.627 525.279 299.293 525.153 299.721C525.053 299.947 524.801 300.124 524.524 300.124Z" fill="black"/>
<path d="M565.764 301.912C565.739 301.912 565.714 301.912 565.689 301.912C563.725 301.861 562.189 300.25 562.214 298.286C562.239 296.75 563.246 295.44 564.707 294.987C565.034 294.886 565.387 295.063 565.487 295.415C565.588 295.742 565.412 296.095 565.059 296.196C564.128 296.473 563.473 297.329 563.448 298.311C563.423 299.57 564.43 300.627 565.689 300.653C566.343 300.678 566.872 300.451 567.325 300.023C567.753 299.595 568.005 299.041 568.03 298.437C568.03 297.782 567.778 297.153 567.3 296.699C567.048 296.473 567.023 296.07 567.25 295.818C567.476 295.566 567.879 295.541 568.131 295.768C568.886 296.448 569.289 297.43 569.289 298.462C569.264 299.419 568.886 300.3 568.206 300.955C567.552 301.559 566.671 301.912 565.764 301.912Z" fill="black"/>
<path d="M523.768 302.062C521.905 302.062 520.318 300.576 520.218 298.688C520.117 296.749 521.628 295.087 523.591 294.986C523.994 294.986 524.246 295.238 524.246 295.591C524.271 295.943 523.994 296.245 523.642 296.245C522.383 296.296 521.401 297.378 521.477 298.637C521.527 299.896 522.584 300.878 523.868 300.803C524.473 300.778 525.027 300.501 525.455 300.048C525.857 299.594 526.084 299.015 526.034 298.411C526.008 297.932 525.832 297.479 525.53 297.101C525.303 296.824 525.354 296.447 525.631 296.22C525.908 295.994 526.311 296.044 526.512 296.321C526.99 296.9 527.242 297.605 527.267 298.36C527.318 299.317 526.99 300.199 526.361 300.904C525.732 301.609 524.85 302.012 523.919 302.062C523.894 302.062 523.843 302.062 523.768 302.062Z" fill="black"/>
<path d="M451.131 257.972H495.468C499.547 257.972 502.997 260.968 503.626 265.047L504.004 267.591L504.356 312.109C504.809 314.954 501.41 316.767 499.321 314.778L488.192 302.566H450.401C446.322 302.566 442.873 299.569 442.243 295.49L442.973 267.616C442.218 262.529 446.07 257.972 451.131 257.972Z" fill="#D1DBF6"/>
<path d="M460.799 272.954C460.875 272.249 461.101 271.569 461.454 270.965C461.806 270.335 462.284 269.806 462.864 269.328C463.468 268.849 464.122 268.497 464.802 268.296C465.482 268.094 466.187 268.044 466.942 268.119C467.672 268.195 468.352 268.421 468.982 268.774C469.611 269.126 470.165 269.605 470.618 270.209C471.071 270.788 471.399 271.418 471.625 272.098C471.827 272.778 471.877 273.483 471.802 274.213C471.726 274.968 471.499 275.673 471.147 276.278C470.794 276.907 470.341 277.461 469.737 277.914C469.158 278.393 468.503 278.72 467.798 278.922C467.093 279.123 466.388 279.173 465.658 279.098C464.928 279.022 464.248 278.796 463.619 278.443C462.989 278.091 462.461 277.612 461.957 277.033C461.479 276.429 461.151 275.799 460.95 275.094C460.774 274.414 460.698 273.709 460.799 272.954ZM462.461 273.18C462.335 274.263 462.612 275.22 463.266 276.051C463.921 276.882 464.802 277.36 465.86 277.486C466.942 277.612 467.874 277.335 468.705 276.681C469.536 276.026 470.014 275.145 470.14 274.087C470.266 273.029 469.989 272.073 469.334 271.242C468.68 270.411 467.798 269.932 466.741 269.806C465.683 269.68 464.727 269.957 463.896 270.612C463.04 271.242 462.561 272.123 462.461 273.18ZM474.571 287.785C474.647 287.055 474.873 286.375 475.226 285.771C475.578 285.141 476.031 284.612 476.61 284.159C477.215 283.681 477.844 283.328 478.524 283.127C479.204 282.925 479.934 282.875 480.664 282.95C481.394 283.026 482.074 283.253 482.703 283.605C483.333 283.958 483.887 284.436 484.365 285.04C484.844 285.619 485.171 286.249 485.372 286.954C485.574 287.634 485.649 288.339 485.548 289.069C485.473 289.825 485.246 290.504 484.894 291.134C484.541 291.763 484.063 292.317 483.459 292.796C482.854 293.274 482.225 293.602 481.52 293.803C480.815 294.005 480.11 294.055 479.38 293.979C478.65 293.904 477.97 293.677 477.341 293.325C476.711 292.972 476.157 292.494 475.704 291.915C475.251 291.335 474.924 290.681 474.722 290.001C474.546 289.245 474.47 288.515 474.571 287.785ZM476.233 287.986C476.107 289.044 476.384 290.001 477.038 290.832C477.693 291.663 478.549 292.141 479.632 292.267C480.689 292.393 481.646 292.116 482.477 291.461C483.308 290.807 483.786 289.925 483.912 288.868C484.038 287.81 483.761 286.853 483.106 286.022C482.452 285.191 481.57 284.713 480.513 284.587C479.43 284.461 478.499 284.738 477.668 285.393C476.812 286.073 476.359 286.929 476.233 287.986Z" fill="white"/>
<path d="M481.923 270.336L465.935 292.998C465.633 293.401 465.079 293.502 464.651 293.225L464.601 293.199C464.198 292.897 464.097 292.343 464.374 291.915L480.362 269.253C480.664 268.85 481.218 268.749 481.646 269.026L481.696 269.052C482.124 269.354 482.225 269.933 481.923 270.336Z" fill="white"/>
<path d="M567.325 180.796C569.541 187.267 566.016 194.317 559.444 196.584C552.873 198.825 545.748 195.425 543.532 188.954C541.317 182.483 544.841 175.432 551.413 173.166C557.984 170.925 565.109 174.324 567.325 180.796Z" fill="black"/>
<path d="M566.47 180.972C568.61 187.242 565.286 194.066 559.017 196.206C552.748 198.346 545.925 195.023 543.785 188.753C541.645 182.483 544.968 175.659 551.237 173.519C557.507 171.378 564.33 174.727 566.47 180.972Z" fill="white"/>
<path d="M555.139 197.363C549.953 197.363 545.093 194.09 543.306 188.928C542.223 185.781 542.45 182.381 543.91 179.385C545.37 176.388 547.913 174.147 551.086 173.065C554.233 171.982 557.632 172.209 560.628 173.669C563.624 175.129 565.865 177.673 566.947 180.845C569.188 187.367 565.689 194.493 559.168 196.709C557.858 197.137 556.474 197.363 555.139 197.363ZM555.114 173.392C553.88 173.392 552.621 173.593 551.388 174.021C545.396 176.086 542.198 182.633 544.237 188.601C546.302 194.594 552.848 197.792 558.815 195.752C564.807 193.687 568.005 187.14 565.966 181.173C564.379 176.388 559.898 173.392 555.114 173.392Z" fill="black"/>
<path d="M553.502 192.604C553.2 192.604 552.923 192.529 552.671 192.403C552.218 192.151 551.891 191.748 551.765 191.27L549.021 180.745C548.895 180.291 548.97 179.788 549.197 179.385C549.449 178.957 549.826 178.68 550.305 178.554C550.758 178.428 551.236 178.504 551.664 178.755C552.092 179.007 552.369 179.385 552.495 179.863L554.736 188.475L560.879 186.259C561.836 185.932 562.843 186.41 563.196 187.342C563.523 188.273 563.044 189.306 562.113 189.658L554.106 192.554C553.905 192.554 553.704 192.604 553.502 192.604ZM550.758 179.486C550.682 179.486 550.632 179.486 550.556 179.511C550.355 179.561 550.179 179.687 550.078 179.888C549.977 180.065 549.952 180.291 550.003 180.493L552.747 191.018C552.797 191.245 552.948 191.421 553.15 191.522C553.326 191.622 553.578 191.648 553.779 191.572L561.786 188.676C562.188 188.525 562.415 188.072 562.264 187.669C562.113 187.266 561.66 187.04 561.257 187.191L554.056 189.784L551.538 180.09C551.488 179.888 551.362 179.712 551.161 179.612C551.035 179.511 550.884 179.486 550.758 179.486Z" fill="black"/>
<path d="M550.379 163.218C544.764 171.553 533.384 173.668 524.924 167.977C516.465 162.286 514.148 150.905 519.763 142.596C525.377 134.261 536.758 132.146 545.217 137.837C553.677 143.527 555.968 154.884 550.379 163.218Z" fill="black"/>
<path d="M549.07 162.262C543.632 170.32 532.705 172.46 524.623 167.046C516.566 161.607 514.426 150.679 519.839 142.596C525.278 134.539 536.205 132.398 544.287 137.812C552.343 143.251 554.483 154.205 549.07 162.262Z" fill="white"/>
<path d="M534.417 170.646C530.917 170.646 527.367 169.639 524.271 167.549C515.937 161.934 513.721 150.578 519.336 142.243C522.055 138.189 526.184 135.47 530.968 134.538C535.752 133.606 540.611 134.588 544.639 137.308C548.693 140.027 551.412 144.157 552.344 148.941C553.275 153.725 552.293 158.585 549.574 162.614C546.074 167.826 540.283 170.646 534.417 170.646ZM534.467 135.445C529.004 135.445 523.641 138.063 520.368 142.948C515.131 150.704 517.196 161.279 524.976 166.517C532.73 171.754 543.305 169.69 548.542 161.909C553.779 154.153 551.714 143.578 543.934 138.34C541.039 136.376 537.741 135.445 534.467 135.445Z" fill="black"/>
<path d="M536.533 165.107C536.055 165.107 535.576 164.981 535.174 164.704L524.7 157.88C524.448 157.729 524.247 157.528 524.07 157.276C523.818 156.948 523.667 156.571 523.592 156.168C523.491 155.463 523.667 154.733 524.121 154.179L534.015 141.639C534.443 141.11 535.048 140.783 535.702 140.682C536.407 140.606 537.037 140.783 537.565 141.211C538.094 141.639 538.422 142.218 538.497 142.898C538.573 143.578 538.396 144.232 537.968 144.761L529.786 155.11L537.943 160.398C539.101 161.179 539.454 162.74 538.698 163.898C538.17 164.704 537.364 165.107 536.533 165.107ZM525.027 156.52C525.128 156.646 525.228 156.747 525.354 156.823L535.828 163.646C536.407 164.024 537.213 163.848 537.591 163.269C537.968 162.69 537.792 161.884 537.213 161.506L527.897 155.463L536.936 144.031C537.137 143.754 537.238 143.427 537.188 143.099C537.137 142.772 536.986 142.47 536.709 142.243C536.458 142.042 536.105 141.941 535.778 141.966C535.451 142.017 535.148 142.168 534.922 142.445L525.027 154.984C524.8 155.261 524.7 155.614 524.775 155.992C524.826 156.168 524.901 156.369 525.027 156.52Z" fill="black"/>
</svg>
