<svg width="705" height="452" viewBox="0 0 705 452" fill="none" xmlns="http://www.w3.org/2000/svg">
<path d="M698.386 246.769C698.386 260.972 696.686 274.802 693.449 288.025C683.434 329.351 658.701 364.893 625.14 388.798C596.727 409.018 561.979 420.912 524.483 420.912C428.436 420.912 350.579 342.948 350.579 246.769C350.579 150.59 428.436 72.626 524.483 72.626C620.529 72.626 698.386 150.59 698.386 246.769Z" fill="#00BA88"/>
<path d="M258.143 191.66C247.08 191.66 226.329 177.737 200.943 153.249C200.71 153.016 200.71 152.666 200.92 152.433C201.153 152.2 201.502 152.2 201.735 152.41C226.911 176.711 247.336 190.494 258.096 190.494C258.352 190.494 258.632 190.494 258.865 190.471C261.17 190.307 262.987 189.445 264.245 187.859C267.319 183.987 265.362 172.7 263.29 160.736C260.052 141.962 256.023 118.617 268.693 110.501C285.135 99.9593 326.172 117.59 394.107 164.444C416.07 179.58 436.774 184.734 455.639 179.696C494.835 169.271 519.219 118.593 537.013 81.6051C547.353 60.1025 554.876 44.4537 561.863 44.4537C561.979 44.4537 562.119 44.4537 562.235 44.477C571.97 45.2699 573.042 61.7584 574.206 79.203C575.301 95.808 576.442 112.949 585.618 113.696C585.874 113.719 586.107 113.719 586.363 113.719C598.73 113.719 602.084 88.0419 605.368 63.181C608.302 40.8854 611.05 19.8493 619.784 13.4125C622.043 11.7334 624.651 11.1503 627.516 11.6401C639.906 13.7623 640.558 34.7518 641.21 55.0184C641.839 74.8418 642.445 93.5925 653.135 94.3854C666.293 95.3882 668.343 79.8093 670.369 64.7669C671.859 53.7357 673.257 43.2876 678.823 39.113C680.942 37.5038 683.574 36.9208 686.648 37.3872C701.624 39.6028 696.709 75.8447 696.5 77.3839C696.453 77.7104 696.174 77.897 695.848 77.8736C695.522 77.827 695.312 77.5238 695.359 77.2206C695.405 76.8475 700.319 40.5823 686.485 38.53C683.691 38.1335 681.408 38.5999 679.522 40.0225C674.351 43.9173 672.977 54.1089 671.51 64.9068C669.484 79.9959 667.364 95.5748 654.346 95.5748C653.926 95.5748 653.484 95.5515 653.041 95.5282C641.303 94.6419 640.698 75.4015 640.046 55.0417C639.417 35.2183 638.765 14.7419 627.33 12.7595C624.744 12.3164 622.509 12.8295 620.483 14.3221C612.145 20.4557 609.303 42.2381 606.532 63.3209C602.969 90.3974 599.592 116.028 585.548 114.839C575.371 114.022 574.206 96.3444 573.065 79.2729C571.994 63.0877 570.899 46.3427 562.165 45.6431C562.072 45.6431 561.979 45.6431 561.886 45.6431C555.644 45.6431 547.889 61.7817 538.107 82.1415C520.221 119.34 495.72 170.297 455.988 180.862C436.774 185.97 415.743 180.792 393.502 165.447C325.985 118.896 285.391 101.265 269.368 111.527C257.351 119.223 261.31 142.172 264.477 160.596C266.667 173.353 268.576 184.36 265.199 188.628C263.732 190.471 261.636 191.497 258.981 191.683C258.702 191.66 258.422 191.66 258.143 191.66Z" fill="black"/>
<path d="M231.266 78.2699L352.465 224.823L462.508 65.373L231.266 78.2699Z" fill="white"/>
<path d="M352.512 225.779L352.023 225.196L230.078 77.7799L231.243 77.7099L463.673 64.7197L462.998 65.6992L352.512 225.779ZM232.454 78.806L352.418 223.867L461.344 66.0257L232.454 78.806Z" fill="black"/>
<path d="M465.954 66.096L234.222 87.6452C227.957 88.5781 222.089 84.2169 221.157 77.9667L220.714 75.0748C219.783 68.8013 224.138 62.9242 230.38 61.9914L461.087 33.6089C472.429 32.3028 479.02 39.0661 480.44 48.3715C481.931 58.05 472.196 65.1631 465.954 66.096Z" fill="white"/>
<path d="M232.477 88.3679C226.631 88.3679 221.461 84.0533 220.552 78.0597L220.11 75.1678C219.644 71.9727 220.436 68.801 222.346 66.1889C224.279 63.5769 227.073 61.8977 230.264 61.408L460.994 33.0255C471.708 31.7894 479.37 37.6432 481 48.2779C481.559 51.9627 480.581 55.6475 478.182 58.9359C474.828 63.5069 469.518 66.1656 466.002 66.6787H465.978L234.247 88.2279C233.664 88.3212 233.082 88.3679 232.477 88.3679ZM463.766 34.0516C462.927 34.0516 462.066 34.0983 461.181 34.2149L230.474 62.5974C224.535 63.4836 220.413 69.0575 221.298 75.0279L221.74 77.9197C222.625 83.8901 228.191 88.018 234.153 87.1085L465.908 65.5593C469.192 65.0695 474.13 62.5741 477.297 58.2829C479.51 55.2744 480.418 51.8927 479.905 48.5111C478.485 39.3923 472.406 34.0516 463.766 34.0516Z" fill="black"/>
<path d="M462.509 65.3723L233.036 81.2311C227.074 82.0007 220.227 78.0127 220.669 70.1066C220.18 71.6925 220.017 73.3717 220.274 75.1208L220.716 78.0127C221.648 84.2862 227.54 88.624 233.782 87.6912L465.513 66.1419C471.662 65.2324 481.141 58.3292 480.046 48.9072C481.373 56.8599 473.338 64.0663 462.509 65.3723Z" fill="black"/>
<path d="M239.789 386.303L490.502 393.09L352.278 224.824L239.789 386.303Z" fill="white"/>
<path d="M491.76 393.719L490.479 393.696L238.695 386.886L239.324 386L352.255 223.891L352.745 224.474L491.76 393.719ZM240.885 385.743L489.245 392.46L352.325 225.756L240.885 385.743Z" fill="black"/>
<path d="M235.877 376.25C235.877 376.25 425.268 389.381 494.788 393.089C513.746 394.092 516.796 421.658 494.788 420.445H235.504C197.659 420.492 200.71 374.268 235.877 376.25Z" fill="white"/>
<path d="M496.139 421.075C495.674 421.075 495.231 421.052 494.765 421.028H235.505C235.482 421.028 235.482 421.028 235.459 421.028C219.575 421.028 212.891 413.262 210.329 408.621C206.58 401.858 206.859 393.509 211.051 386.815C215.895 379.096 224.955 375.061 235.901 375.644C237.788 375.784 426.084 388.821 494.789 392.459C501.123 392.809 506.317 396.051 509.042 401.391C511.394 406.032 511.301 411.327 508.762 415.198C506.317 419.023 501.845 421.075 496.139 421.075ZM235.505 419.862H494.765C500.751 420.212 505.362 418.323 507.784 414.615C510.09 411.093 510.16 406.242 507.994 401.974C505.478 397.007 500.634 393.998 494.719 393.672C426.038 390.01 237.881 376.997 235.808 376.834C225.304 376.274 216.617 380.122 212.006 387.445C208.047 393.765 207.791 401.671 211.307 408.061C213.753 412.469 220.111 419.862 235.412 419.862C235.482 419.862 235.482 419.862 235.505 419.862Z" fill="black"/>
<path d="M505.176 399.479C505.292 406.149 502.125 418.51 491.411 417.927L235.505 420.446C220.087 420.446 211.47 412.493 208.792 403.677C210.166 413.682 218.876 422.894 235.785 422.871H495.045C512.209 423.827 514.142 407.292 505.176 399.479Z" fill="black"/>
<path d="M537.128 301.296L515.678 356.452C479.649 323.685 466.351 309.948 437.169 282.312C436.564 281.403 435.702 280.376 434.491 279.234C426.945 272.167 410.852 254.839 407.032 260.53C405.519 262.792 408.243 270.418 412.948 277.485C410.13 279.793 409.012 283.292 410.922 286.883C410.922 286.883 408.663 286.347 407.009 289.845C405.262 293.576 407.452 297.495 407.452 297.495C402.84 302.625 407.265 310.904 416.651 319.93C425.524 328.466 458.013 362.585 490.363 396.565C510.508 417.718 535.591 428.749 551.475 397.265C559.277 381.779 567.777 366.503 578.467 340.989L537.128 301.296Z" fill="#EAB193"/>
<path d="M693.402 287.163C683.317 328.769 658.444 364.521 624.651 388.589L584.825 355.262L570.619 383.924L518.893 342.575C540.785 276.015 545.699 272.4 567.149 251.854C588.459 231.517 634.293 223.355 677.332 250.478L643.562 289.938C659.515 289.821 677.774 286.09 693.402 287.163Z" fill="white"/>
<path d="M524.039 421.309C514.653 421.309 505.221 420.563 495.812 419C495.486 418.954 495.276 418.65 495.323 418.324C495.369 417.997 495.672 417.811 495.998 417.834C551.66 426.976 608.441 408.389 647.87 368.136C673.232 342.249 689.651 309.715 695.311 274.033C701.879 232.66 693.378 190.401 671.392 155.022C664.196 143.361 655.486 132.493 645.518 122.722C645.285 122.488 645.285 122.139 645.518 121.905C645.751 121.672 646.1 121.672 646.333 121.905C656.371 131.747 665.128 142.708 672.371 154.439C694.519 190.051 703.066 232.59 696.452 274.243C690.723 310.158 674.21 342.925 648.685 368.999C615.66 402.698 570.548 421.309 524.039 421.309Z" fill="black"/>
<path d="M589.437 386.723C589.437 386.723 578.165 407.666 579.236 422.801C580.424 439.826 592.79 450.624 592.767 423.035C592.767 416.551 592.325 410.301 592.325 410.301L589.437 386.723Z" fill="#EAB193"/>
<path d="M674.445 253.883L643.586 289.938L649.315 294.323C649.315 294.323 587.435 354.959 588.063 399.713C588.32 418.534 593.001 432.107 599.196 440.713C606.066 450.275 616.779 455.359 619.9 449.552C619.9 449.552 629.705 453.959 633.222 447.523C633.222 447.523 643.073 446.17 640.069 434.952C640.069 434.952 645.635 427.163 639.114 418.534C622.439 396.448 628.75 385.767 628.75 385.767L690.049 301.716C698.386 290.265 703.976 276.318 687.231 263.305L674.445 253.883Z" fill="#EAB193"/>
<path d="M649.291 294.883C649.152 294.883 649.035 294.836 648.919 294.743C636.901 284.784 622.928 278.907 622.788 278.861C622.485 278.744 622.345 278.394 622.485 278.091C622.601 277.788 622.951 277.648 623.254 277.788C623.393 277.834 637.53 283.782 649.687 293.857C649.943 294.066 649.967 294.44 649.757 294.673C649.641 294.813 649.478 294.883 649.291 294.883Z" fill="black"/>
<path d="M523.83 365.244C523.69 365.244 523.551 365.197 523.434 365.081L493.786 337.211C493.553 337.001 493.53 336.628 493.763 336.395C493.996 336.162 494.345 336.138 494.578 336.372L524.226 364.241C524.459 364.451 524.482 364.824 524.249 365.057C524.156 365.174 523.993 365.244 523.83 365.244Z" fill="black"/>
<path d="M598.148 440.455C597.961 440.455 597.775 440.362 597.659 440.199C592.512 432.759 589.041 420.212 588.273 411.653C584.5 369.604 615.149 333.642 615.452 333.292C615.662 333.059 616.034 333.036 616.267 333.245C616.5 333.455 616.547 333.828 616.314 334.062C616.011 334.412 585.664 370.024 589.414 411.56C590.159 419.955 593.56 432.269 598.59 439.546C598.777 439.802 598.707 440.175 598.45 440.362C598.381 440.432 598.264 440.455 598.148 440.455Z" fill="black"/>
<path d="M619.9 450.135C619.783 450.135 619.667 450.088 619.55 450.018C610.025 442.975 605.134 431.874 605.087 431.757C604.971 431.454 605.087 431.128 605.39 430.988C605.693 430.871 606.019 430.988 606.159 431.291C606.205 431.408 610.98 442.229 620.249 449.062C620.505 449.249 620.552 449.622 620.365 449.878C620.249 450.042 620.063 450.135 619.9 450.135Z" fill="black"/>
<path d="M633.198 448.105C633.105 448.105 632.988 448.082 632.918 448.035C622.322 441.948 615.614 428.398 615.335 427.839C615.195 427.559 615.311 427.209 615.591 427.069C615.894 426.929 616.22 427.046 616.359 427.326C616.429 427.466 623.207 441.109 633.477 447.032C633.757 447.196 633.85 447.546 633.687 447.825C633.617 448.012 633.407 448.105 633.198 448.105Z" fill="black"/>
<path d="M640.068 435.535C639.975 435.535 639.882 435.512 639.789 435.465C629.611 430.171 625.233 422.102 625.047 421.752C624.907 421.472 625 421.122 625.28 420.959C625.559 420.819 625.908 420.912 626.071 421.192C626.118 421.285 630.496 429.308 640.325 434.415C640.604 434.555 640.721 434.905 640.581 435.208C640.488 435.418 640.278 435.535 640.068 435.535Z" fill="black"/>
<path d="M56.57 378.537H142.532C147.237 378.537 151.033 374.712 151.033 370.024C151.033 365.313 147.213 361.512 142.532 361.512H56.57C51.8655 361.512 48.0693 365.336 48.0693 370.024C48.0693 374.735 51.8655 378.537 56.57 378.537Z" fill="#D1DBF6"/>
<path d="M95.534 390.454H0.58224C0.256186 390.454 0 390.198 0 389.871C0 389.545 0.256186 389.288 0.58224 389.288H95.534C95.8601 389.288 96.1163 389.545 96.1163 389.871C96.1163 390.198 95.8601 390.454 95.534 390.454Z" fill="black"/>
<path d="M554.037 268.715C554.642 275.128 565.542 276.458 574.904 271.63C585.618 266.103 587.155 254.815 584.896 249.568C582.45 243.924 576.372 229.371 576.372 229.371C576.372 229.371 550.357 239.539 550.613 245.206C550.963 252.063 553.548 263.257 554.037 268.715Z" fill="#EAB193"/>
<path d="M551.685 253.93L560.348 248.822L552.43 258.477L551.685 253.93Z" fill="black"/>
<path d="M530.584 249.521C542.741 263.211 567.521 253.812 576.022 237.207C577.256 234.875 578.211 232.379 578.863 229.674C580.843 221.721 580.307 212.276 575.859 201.921C575.859 201.921 567.614 181.305 534.03 190.773C520.359 196.511 516.26 233.359 530.584 249.521Z" fill="#EAB193"/>
<path d="M583.801 202.342C584.942 217.897 582.52 230.981 579.05 235.692L570.13 215.682C567.801 222.258 562.141 218.504 564.354 201.922C573.088 202.155 583.801 202.342 583.801 202.342Z" fill="#070707"/>
<path d="M585.524 223.028C583.87 229.045 578.84 232.893 574.275 231.634C569.734 230.374 567.381 224.497 569.035 218.48C570.689 212.463 575.719 208.615 580.284 209.874C584.825 211.134 587.178 217.034 585.524 223.028Z" fill="#EAB193"/>
<path d="M573.087 222.84C573.04 222.84 572.994 222.84 572.924 222.817C572.621 222.724 572.435 222.42 572.528 222.094C573.972 216.846 577.675 213.418 580.959 214.328C581.262 214.421 581.448 214.724 581.355 215.051C581.262 215.354 580.959 215.54 580.633 215.447C578.071 214.747 574.88 217.919 573.646 222.397C573.576 222.677 573.343 222.84 573.087 222.84Z" fill="black"/>
<path d="M583.8 202.341L525.413 200.965C530.583 185.503 542.741 178.576 558.368 178.529C571.294 178.506 581.564 185.316 583.8 202.341Z" fill="#3E6BEC"/>
<path d="M547.282 195.671L531.608 195.438C534.426 186.459 548.121 185.246 547.282 195.671Z" fill="#070707"/>
<path d="M606.345 203.74C606.345 203.74 606.321 203.74 606.345 203.74L525.39 202.154C524.738 202.131 524.226 201.618 524.249 200.965C524.272 200.312 524.831 199.916 525.437 199.822L606.368 201.408C607.02 201.431 607.532 201.945 607.509 202.598C607.509 203.227 606.974 203.74 606.345 203.74Z" fill="#070707"/>
<path d="M559.929 178.087C559.929 176.757 558.346 175.685 556.366 175.685C554.41 175.685 552.803 176.757 552.803 178.087C552.803 179.416 554.386 180.489 556.366 180.489C558.346 180.489 559.929 179.416 559.929 178.087Z" fill="#070707"/>
<path d="M584.08 202.855C583.801 202.855 583.544 202.645 583.498 202.342C582.1 191.777 577.582 184.687 570.036 181.282C569.757 181.142 569.617 180.792 569.757 180.512C569.897 180.233 570.223 180.093 570.526 180.233C578.444 183.824 583.195 191.217 584.639 202.202C584.686 202.528 584.453 202.808 584.15 202.855C584.127 202.855 584.103 202.855 584.08 202.855Z" fill="#070707"/>
<path d="M565.401 282.125C560.534 282.125 555.597 280.492 551.288 276.504C551.055 276.295 551.032 275.921 551.241 275.688C551.451 275.455 551.824 275.432 552.056 275.641C561.163 284.014 573.11 281.425 580.936 275.152C589.273 268.458 594.677 256.494 587.969 244.904C587.806 244.624 587.899 244.274 588.179 244.111C588.458 243.947 588.808 244.041 588.971 244.32C595.981 256.471 590.088 269.298 581.658 276.061C577.163 279.676 571.34 282.125 565.401 282.125Z" fill="black"/>
<path d="M570.899 384.158L561.885 376.951L559.23 382.129L570.899 384.158Z" fill="black"/>
<path d="M430.066 300.432C426.596 300.432 421.239 298.146 416.814 293.762C414.415 291.406 410.573 287.255 410.526 287.232C410.316 286.999 410.316 286.626 410.549 286.416C410.782 286.206 411.155 286.206 411.364 286.439C411.411 286.486 415.23 290.59 417.606 292.946C423.382 298.659 430.415 300.362 432.162 298.683C433.257 297.633 432.139 295.091 429.204 291.896C427.411 289.96 425.85 288.771 424.057 287.418C420.657 284.853 416.395 281.658 408.756 271.373C408.57 271.117 408.616 270.743 408.872 270.557C409.129 270.37 409.501 270.417 409.688 270.673C417.233 280.818 421.216 283.827 424.756 286.486C426.526 287.815 428.203 289.074 430.043 291.103C434.794 296.257 433.909 298.59 432.954 299.499C432.325 300.129 431.324 300.432 430.066 300.432Z" fill="black"/>
<path d="M447.743 305.423C447.603 305.423 447.464 305.377 447.37 305.283C447.324 305.237 443.225 301.739 440.873 299.57C435.516 294.602 432.838 288.468 434.934 285.926C435.865 284.784 438.451 283.618 445.228 288.515C445.484 288.702 445.554 289.075 445.368 289.331C445.181 289.588 444.809 289.658 444.552 289.471C439.452 285.786 436.727 285.6 435.842 286.673C434.561 288.259 436.145 293.599 441.665 298.73C443.993 300.899 448.069 304.374 448.116 304.421C448.372 304.63 448.395 305.004 448.186 305.237C448.069 305.353 447.906 305.423 447.743 305.423Z" fill="black"/>
<path d="M424.709 310.717C421.798 310.717 417.489 308.758 413.157 304.49C410.759 302.135 406.916 297.983 406.869 297.96C406.66 297.727 406.66 297.354 406.893 297.144C407.125 296.934 407.498 296.934 407.708 297.167C407.754 297.214 411.574 301.318 413.949 303.674C419.679 309.341 424.965 310.414 426.596 309.015C427.644 308.082 427.574 305.493 424.127 300.969C423.941 300.712 423.987 300.339 424.243 300.152C424.499 299.966 424.872 300.012 425.058 300.269C429.833 306.566 428.272 309.108 427.364 309.901C426.759 310.437 425.85 310.717 424.709 310.717Z" fill="black"/>
<path d="M419.144 317.831C416.722 317.831 413.159 316.221 409.083 312.187C408.85 311.954 408.85 311.604 409.083 311.371C409.316 311.137 409.665 311.137 409.898 311.371C414.719 316.152 418.958 317.458 420.635 316.291C421.613 315.615 421.659 314.006 420.751 312C420.611 311.697 420.751 311.371 421.03 311.231C421.31 311.091 421.659 311.231 421.799 311.511C422.964 314.076 422.777 316.222 421.287 317.248C420.774 317.621 420.029 317.831 419.144 317.831Z" fill="black"/>
<path d="M570.898 370.537C570.758 370.537 570.619 370.491 570.502 370.374C555.806 356.638 522.828 331.403 522.502 331.147C522.246 330.96 522.199 330.587 522.386 330.331C522.572 330.074 522.945 330.028 523.201 330.214C523.527 330.471 556.552 355.728 571.294 369.511C571.527 369.721 571.55 370.094 571.317 370.327C571.224 370.491 571.061 370.537 570.898 370.537Z" fill="black"/>
<path d="M639.23 281.495C639.114 281.495 638.997 281.472 638.904 281.402C638.648 281.215 638.578 280.865 638.764 280.585C648.732 266.219 667.178 245.09 667.364 244.857C667.574 244.623 667.946 244.6 668.179 244.81C668.412 245.02 668.436 245.393 668.226 245.626C668.04 245.836 649.641 266.942 639.696 281.238C639.58 281.402 639.417 281.495 639.23 281.495Z" fill="black"/>
<path d="M321.629 186.623L352.301 225.78L373.867 192.827C365.227 185.853 368.534 174.146 358.1 170.041C346.735 165.587 334.578 190.145 321.629 186.623Z" fill="black"/>
<path d="M375.01 145.693C384.302 149.168 389.193 159.592 385.933 168.944C382.672 178.296 372.494 183.054 363.202 179.579C353.909 176.104 349.018 165.679 352.279 156.327C355.54 146.975 365.717 142.218 375.01 145.693Z" fill="black"/>
<path d="M373.704 147.512C381.996 150.614 386.374 159.779 383.509 167.989C380.645 176.198 371.608 180.326 363.341 177.224C355.049 174.122 350.671 164.957 353.536 156.747C356.4 148.538 365.437 144.41 373.704 147.512Z" fill="white"/>
<path d="M369 178.856C367.044 178.856 365.064 178.506 363.154 177.783C354.584 174.565 350.042 165.05 353 156.56C354.421 152.502 357.332 149.237 361.221 147.418C365.204 145.553 369.722 145.389 373.914 146.952C382.485 150.17 387.026 159.686 384.069 168.175C382.648 172.233 379.737 175.498 375.847 177.317C373.681 178.343 371.352 178.856 369 178.856ZM368.069 147.045C365.879 147.045 363.737 147.512 361.711 148.468C358.101 150.147 355.399 153.155 354.095 156.934C351.347 164.84 355.585 173.679 363.574 176.664C367.486 178.133 371.678 177.993 375.382 176.244C378.991 174.565 381.693 171.556 382.997 167.778C385.745 159.872 381.507 151.033 373.518 148.048C371.725 147.395 369.885 147.045 368.069 147.045Z" fill="black"/>
<path d="M415.437 126.027C420.212 109.229 410.274 91.6741 393.239 86.8179C376.204 81.9618 358.523 91.6429 353.747 108.441C348.972 125.24 358.91 142.794 375.945 147.65C392.98 152.506 410.661 142.825 415.437 126.027Z" fill="black"/>
<path d="M390.195 145.975C406.801 142.821 417.709 126.783 414.558 110.155C411.408 93.5264 395.392 82.6038 378.787 85.7585C362.181 88.9133 351.274 104.951 354.424 121.579C357.574 138.208 373.59 149.13 390.195 145.975Z" fill="white"/>
<path d="M384.488 147.069C381.67 147.069 378.805 146.696 375.964 145.88C359.428 141.169 349.81 123.864 354.514 107.306C359.219 90.7474 376.5 81.1155 393.035 85.8265C409.571 90.5375 419.19 107.842 414.485 124.401C410.596 138.09 398.066 147.069 384.488 147.069ZM384.511 85.7799C371.446 85.7799 359.382 94.4089 355.632 107.609C351.114 123.538 360.36 140.213 376.29 144.737C392.197 149.285 408.849 140.003 413.367 124.051C417.885 108.122 408.639 91.447 392.709 86.9226C389.984 86.153 387.213 85.7799 384.511 85.7799Z" fill="black"/>
<path d="M393.407 135.409C393.081 135.409 392.732 135.362 392.406 135.269L371.422 129.648C370.979 129.532 370.583 129.345 370.211 129.089C369.698 128.739 369.279 128.249 368.976 127.689C368.464 126.71 368.394 125.567 368.767 124.541L378.362 98.4673C379.107 96.4383 381.343 95.4121 383.369 96.1584C385.372 96.9047 386.42 99.1436 385.675 101.149L377.547 123.212L394.408 127.713C396.481 128.272 397.716 130.418 397.157 132.494C396.9 133.496 396.248 134.336 395.34 134.872C394.758 135.222 394.082 135.409 393.407 135.409ZM370.863 128.132C371.119 128.319 371.422 128.436 371.724 128.529L392.708 134.149C393.407 134.336 394.152 134.243 394.781 133.87C395.41 133.496 395.852 132.913 396.039 132.214C396.435 130.768 395.55 129.252 394.106 128.879L376.01 124.028L384.58 100.753C385.093 99.3302 384.371 97.7676 382.973 97.2546C381.553 96.7415 379.992 97.4645 379.457 98.8638L369.861 124.937C369.605 125.66 369.652 126.453 370.001 127.13C370.211 127.549 370.49 127.876 370.863 128.132Z" fill="black"/>
<path d="M337.963 133.103C341.781 119.928 334.441 106.216 321.569 102.476C308.697 98.7353 295.167 106.383 291.349 119.557C287.531 132.731 294.871 146.443 307.743 150.184C320.615 153.924 334.145 146.277 337.963 133.103Z" fill="black"/>
<path d="M334.999 116.027C340.239 127.548 335.418 141.261 324.239 146.672C313.06 152.059 299.762 147.092 294.522 135.571C289.282 124.05 294.103 110.337 305.282 104.926C316.461 99.539 329.759 104.507 334.999 116.027Z" fill="white"/>
<path d="M314.76 149.447C312.198 149.447 309.613 149.004 307.121 148.094C301.275 145.972 296.594 141.611 293.962 135.827C288.606 124.026 293.566 109.94 305.001 104.413C310.474 101.777 316.646 101.451 322.352 103.527C328.198 105.649 332.879 110.01 335.511 115.794C340.867 127.595 335.907 141.681 324.472 147.208C321.397 148.677 318.067 149.447 314.76 149.447ZM314.736 103.34C311.592 103.34 308.448 104.063 305.514 105.462C294.638 110.71 289.933 124.12 295.033 135.337C297.525 140.841 301.974 144.993 307.54 146.998C312.943 148.957 318.789 148.654 323.982 146.159C334.859 140.911 339.563 127.501 334.463 116.284C331.971 110.78 327.522 106.628 321.956 104.623C319.604 103.76 317.159 103.34 314.736 103.34Z" fill="black"/>
<path d="M365.723 137.893C368.833 123.333 359.902 109.078 345.777 106.053C331.651 103.028 317.68 112.38 314.571 126.941C311.462 141.501 320.392 155.757 334.518 158.781C348.643 161.806 362.614 152.454 365.723 137.893Z" fill="white"/>
<path d="M339.796 159.942C334.975 159.942 330.247 158.59 326.055 155.978C319.907 152.13 315.621 146.019 314.038 138.766C310.8 124.004 319.883 109.148 334.276 105.65C341.147 103.97 348.25 105.113 354.259 108.868C360.407 112.716 364.693 118.826 366.276 126.079C369.514 140.842 360.431 155.698 346.038 159.196C343.965 159.686 341.869 159.942 339.796 159.942ZM340.495 106.069C338.515 106.069 336.512 106.303 334.533 106.792C320.745 110.151 312.058 124.377 315.156 138.51C316.669 145.436 320.768 151.29 326.661 154.975C332.39 158.566 339.19 159.663 345.758 158.053C359.546 154.695 368.233 140.469 365.135 126.336C363.621 119.409 359.522 113.556 353.63 109.871C349.624 107.352 345.106 106.069 340.495 106.069Z" fill="black"/>
<path d="M335.138 148.819C335.022 148.819 334.929 148.819 334.812 148.795C334.253 148.749 333.741 148.539 333.275 148.236C332.483 147.699 331.948 146.836 331.808 145.857L328.361 121.742C328.082 119.853 329.386 118.057 331.226 117.754C332.111 117.614 332.996 117.824 333.741 118.36C334.486 118.92 334.975 119.736 335.115 120.669L338.026 141.006L352.442 137.251C353.327 137.041 354.236 137.158 355.028 137.624C355.819 138.114 356.378 138.86 356.588 139.77C357.03 141.635 355.913 143.524 354.073 144.014L336 148.725C335.697 148.795 335.418 148.819 335.138 148.819ZM334.929 147.652C335.185 147.676 335.441 147.652 335.697 147.582L353.77 142.872C354.981 142.545 355.726 141.286 355.447 140.026C355.307 139.42 354.934 138.907 354.422 138.604C353.91 138.3 353.304 138.207 352.745 138.347L337.071 142.428L333.997 120.809C333.904 120.18 333.578 119.643 333.089 119.27C332.6 118.92 332.017 118.78 331.459 118.874C330.224 119.083 329.362 120.273 329.549 121.556L332.996 145.67C333.089 146.323 333.438 146.883 333.974 147.256C334.23 147.489 334.556 147.606 334.929 147.652Z" fill="black"/>
<path d="M354.118 165.237C353.699 176.082 344.593 184.711 333.81 184.524C323.027 184.337 314.619 175.405 315.038 164.584C315.458 153.739 324.564 145.11 335.347 145.297C346.13 145.483 354.538 154.416 354.118 165.237Z" fill="black"/>
<path d="M352.954 164.42C352.535 174.915 343.871 183.287 333.577 183.124C323.283 182.961 315.271 174.309 315.667 163.814C316.087 153.319 324.75 144.947 335.044 145.11C345.362 145.273 353.373 153.925 352.954 164.42Z" fill="white"/>
<path d="M333.88 183.684C333.764 183.684 333.67 183.684 333.554 183.684C328.477 183.591 323.772 181.515 320.302 177.83C316.739 174.052 314.876 169.061 315.085 163.744C315.504 152.946 324.471 144.27 335.068 144.48C340.145 144.574 344.849 146.649 348.32 150.334C351.883 154.112 353.746 159.126 353.536 164.42C353.117 175.125 344.337 183.684 333.88 183.684ZM334.742 145.67C324.914 145.67 316.646 153.739 316.25 163.814C316.063 168.805 317.787 173.492 321.141 177.037C324.401 180.489 328.826 182.448 333.577 182.518C333.67 182.518 333.787 182.518 333.88 182.518C343.708 182.518 351.976 174.449 352.372 164.374C352.558 159.383 350.835 154.695 347.481 151.127C344.221 147.675 339.796 145.716 335.044 145.646C334.951 145.67 334.858 145.67 334.742 145.67Z" fill="black"/>
<path d="M341.799 174.705H328.547C328.244 174.705 327.941 174.658 327.662 174.541C327.266 174.401 326.917 174.145 326.637 173.842C326.148 173.282 325.938 172.559 326.008 171.813L327.965 154.648C328.128 153.202 329.409 152.129 330.829 152.269C331.505 152.339 332.133 152.666 332.553 153.202C332.995 153.762 333.205 154.438 333.112 155.161L331.481 169.434H341.868C342.567 169.434 343.219 169.714 343.685 170.204C344.174 170.693 344.43 171.37 344.407 172.069C344.407 173.539 343.219 174.705 341.799 174.705ZM328.058 173.445C328.221 173.492 328.384 173.539 328.547 173.539H341.799C342.59 173.539 343.266 172.862 343.289 172.046C343.289 171.649 343.149 171.276 342.893 170.996C342.637 170.717 342.288 170.577 341.892 170.577H330.224L331.994 154.998C332.04 154.601 331.924 154.205 331.691 153.925C331.458 153.645 331.132 153.459 330.759 153.412C329.944 153.365 329.245 153.948 329.152 154.765L327.196 171.929C327.149 172.349 327.266 172.746 327.545 173.049C327.662 173.235 327.848 173.375 328.058 173.445Z" fill="black"/>
<path d="M362.316 198.354C356.913 204.977 347.085 206.073 340.377 200.826C333.67 195.578 332.622 185.946 338.025 179.346C343.428 172.723 353.256 171.627 359.964 176.874C366.671 182.122 367.719 191.754 362.316 198.354Z" fill="black"/>
<path d="M361.99 197.28C356.75 203.694 347.318 204.837 340.913 199.822C334.509 194.808 333.577 185.55 338.817 179.136C344.057 172.723 353.49 171.58 359.894 176.594C366.299 181.608 367.23 190.867 361.99 197.28Z" fill="white"/>
<path d="M350.043 203.531C346.689 203.531 343.335 202.482 340.564 200.289C337.373 197.794 335.393 194.226 334.951 190.214C334.485 186.11 335.719 182.052 338.374 178.787C343.801 172.14 353.606 170.951 360.267 176.152C363.434 178.647 365.437 182.215 365.88 186.226C366.345 190.331 365.111 194.389 362.456 197.677C359.289 201.526 354.654 203.531 350.043 203.531ZM350.765 174.076C346.479 174.076 342.194 175.942 339.259 179.51C336.791 182.518 335.673 186.273 336.092 190.075C336.511 193.759 338.351 197.071 341.286 199.357C347.434 204.161 356.517 203.065 361.548 196.908C364.016 193.899 365.134 190.121 364.715 186.343C364.296 182.658 362.456 179.347 359.545 177.061C356.96 175.055 353.862 174.076 350.765 174.076Z" fill="black"/>
<path d="M351.323 198.984C350.857 198.984 350.392 198.844 350.019 198.541L341.681 192.244C341.472 192.081 341.309 191.894 341.169 191.684C340.983 191.381 340.866 191.055 340.843 190.705C340.796 190.098 341.029 189.492 341.448 189.049L350.834 179.161C351.672 178.274 353.047 178.228 353.932 179.021C354.351 179.417 354.607 179.93 354.607 180.513C354.63 181.096 354.421 181.679 354.001 182.099L346.293 190.215L352.72 195.066C353.186 195.416 353.489 195.929 353.559 196.512C353.629 197.095 353.466 197.678 353.093 198.144C352.651 198.704 351.975 198.984 351.323 198.984ZM352.441 179.627C352.162 179.627 351.859 179.744 351.649 179.977L342.263 189.865C342.054 190.075 341.961 190.355 341.984 190.635C342.007 190.798 342.054 190.961 342.124 191.078C342.194 191.171 342.263 191.265 342.357 191.334L350.694 197.631C351.137 197.958 351.789 197.888 352.162 197.421C352.325 197.212 352.418 196.932 352.371 196.675C352.348 196.419 352.208 196.185 351.999 196.022L344.546 190.378L353.14 181.306C353.326 181.096 353.442 180.84 353.419 180.56C353.419 180.303 353.303 180.047 353.116 179.884C352.93 179.697 352.674 179.627 352.441 179.627Z" fill="black"/>
<path d="M261.31 285.134C256.792 285.134 253.136 281.472 253.136 276.948C253.136 272.423 256.792 268.762 261.31 268.762C265.829 268.762 269.485 272.423 269.485 276.948C269.485 281.472 265.805 285.134 261.31 285.134ZM261.31 270.511C257.77 270.511 254.882 273.403 254.882 276.948C254.882 280.493 257.77 283.384 261.31 283.384C264.85 283.384 267.738 280.493 267.738 276.948C267.738 273.403 264.85 270.511 261.31 270.511Z" fill="#D1DBF6"/>
<path d="M526.602 27.1955C519.126 27.1955 513.07 21.1085 513.07 13.6456C513.07 6.15934 519.149 0.0957031 526.602 0.0957031C527.254 0.0957031 527.766 0.60878 527.766 1.26179C527.766 1.91479 527.254 2.42787 526.602 2.42787C520.43 2.42787 515.399 7.46535 515.399 13.6456C515.399 19.8258 520.43 24.8633 526.602 24.8633C532.773 24.8633 537.804 19.8258 537.804 13.6456C537.804 12.9926 538.316 12.4795 538.968 12.4795C539.62 12.4795 540.133 12.9926 540.133 13.6456C540.133 21.1319 534.054 27.1955 526.602 27.1955Z" fill="#D1DBF6"/>
<path d="M690.141 117.8C689.023 119.736 686.554 120.412 684.598 119.293C682.665 118.174 681.99 115.701 683.108 113.742C684.225 111.807 686.694 111.13 688.65 112.25C690.607 113.369 691.259 115.841 690.141 117.8Z" fill="#D1DBF6"/>
<path d="M701.413 119.806C699.201 120.063 697.175 118.453 696.918 116.238C696.662 114.022 698.269 111.993 700.482 111.737C702.694 111.48 704.721 113.09 704.977 115.305C705.233 117.521 703.626 119.55 701.413 119.806Z" fill="#D1DBF6"/>
<path d="M292.518 228.881C288.885 226.782 284.227 228.019 282.108 231.68C281.875 232.077 281.712 232.496 281.549 232.893C280.967 231.26 279.849 229.814 278.242 228.881C274.609 226.782 269.951 228.019 267.831 231.68C266.76 233.546 266.574 235.691 267.133 237.627C267.226 237.907 268.251 239.47 268.251 239.47L278.055 251.504C279.895 253.626 283.202 253.626 285.019 251.504L294.94 239.33C294.94 239.33 295.895 237.814 295.988 237.487C296.92 234.222 295.569 230.654 292.518 228.881Z" fill="#D1DBF6"/>
<path d="M544.954 219.413C544.884 220.463 545.675 221.396 546.747 221.466C547.795 221.536 548.726 220.743 548.796 219.67C548.866 218.62 548.074 217.688 547.003 217.618C545.932 217.548 545.023 218.341 544.954 219.413Z" fill="black"/>
<path d="M552.173 211.717C552.01 211.717 551.847 211.647 551.731 211.507C551.544 211.297 547.445 206.633 543.183 210.108C542.927 210.317 542.578 210.271 542.368 210.014C542.159 209.758 542.205 209.408 542.461 209.198C547.585 204.977 552.569 210.691 552.616 210.737C552.825 210.994 552.802 211.344 552.546 211.554C552.429 211.67 552.313 211.717 552.173 211.717Z" fill="black"/>
<path d="M529.653 211.833C529.49 211.833 529.327 211.763 529.21 211.623C529.047 211.436 525.298 207.145 521.432 210.34C521.175 210.55 520.826 210.504 520.616 210.247C520.407 209.991 520.453 209.641 520.71 209.431C524.506 206.306 528.535 208.988 530.119 210.853C530.328 211.11 530.305 211.46 530.049 211.67C529.909 211.786 529.769 211.833 529.653 211.833Z" fill="black"/>
<path d="M528.627 219.087C528.557 220.136 527.649 220.952 526.578 220.882C525.53 220.813 524.715 219.903 524.784 218.83C524.854 217.781 525.763 216.964 526.834 217.034C527.882 217.104 528.697 218.014 528.627 219.087Z" fill="black"/>
<path d="M537.664 233.942H537.641C535.429 233.825 534.381 233.499 533.938 232.799C533.472 232.076 533.798 231.213 534.194 230.21C534.66 229.021 535.219 227.575 534.986 225.616C534.94 225.289 535.172 225.01 535.498 224.963C535.824 224.916 536.104 225.15 536.151 225.476C536.43 227.715 535.778 229.394 535.289 230.63C535.033 231.306 534.776 231.936 534.916 232.169C535.033 232.356 535.545 232.659 537.711 232.776C538.037 232.799 538.27 233.056 538.27 233.382C538.223 233.709 537.967 233.942 537.664 233.942Z" fill="black"/>
<path d="M551.079 245.953C550.1 245.953 548.866 245.673 547.352 244.857C547.073 244.694 546.956 244.344 547.119 244.064C547.259 243.784 547.632 243.668 547.911 243.831C549.984 244.95 551.754 245.09 552.895 244.227C554.013 243.388 554.246 241.825 553.99 240.729C553.873 240.263 553.524 239.143 552.383 238.91C552.08 238.84 551.871 238.537 551.94 238.21C552.01 237.907 552.313 237.697 552.639 237.767C553.873 238.024 554.805 239.027 555.131 240.473C555.457 241.965 555.131 243.994 553.594 245.137C553.082 245.534 552.266 245.953 551.079 245.953Z" fill="black"/>
<path d="M552.943 241.615C552.943 242.571 551.988 243.318 550.8 243.318C549.612 243.318 548.657 242.548 548.657 241.615C548.657 240.659 549.612 239.913 550.8 239.913C551.964 239.889 552.943 240.659 552.943 241.615Z" fill="black"/>
<path d="M262.521 377.837C270.928 364.964 275.702 363.215 276.424 360.369C276.937 358.387 283.435 346.213 287.301 343.601C287.301 343.601 298.387 333.783 301.554 330.331C303.627 328.069 309.659 318.017 316.063 311.161C316.902 310.274 326.753 292.69 341.309 274.755C343.335 272.237 349.554 249.172 352.908 248.822C356.098 248.495 363.9 272.19 372.75 282.125C379.76 289.984 382.718 308.968 397.577 320.839C402.701 324.944 416.581 341.222 417.559 343.554C418.445 345.653 422.707 353.979 425.525 357.687C426.782 359.693 432.907 370.608 435.539 373.266C436.797 374.549 441.035 386.07 443.877 390.011L262.521 377.837Z" fill="black"/>
<path d="M381.506 345.583C381.623 345.023 381.832 344.533 382.158 344.067C382.485 343.6 382.88 343.227 383.37 342.901C383.882 342.574 384.394 342.341 384.93 342.248C385.466 342.131 386.025 342.154 386.584 342.271C387.142 342.388 387.655 342.621 388.121 342.924C388.586 343.25 388.982 343.647 389.308 344.137C389.634 344.626 389.844 345.139 389.937 345.676C390.054 346.212 390.03 346.772 389.914 347.332C389.797 347.915 389.588 348.428 389.262 348.894C388.959 349.361 388.54 349.757 388.051 350.06C387.562 350.387 387.026 350.597 386.49 350.713C385.931 350.83 385.372 350.807 384.814 350.69C384.255 350.573 383.742 350.364 383.276 350.037C382.811 349.711 382.438 349.314 382.089 348.824C381.763 348.335 381.553 347.798 381.437 347.238C381.367 346.702 381.367 346.142 381.506 345.583ZM382.764 345.862C382.601 346.679 382.741 347.448 383.183 348.148C383.649 348.848 384.278 349.267 385.093 349.431C385.908 349.594 386.677 349.454 387.375 349.011C388.074 348.544 388.493 347.915 388.68 347.098C388.843 346.282 388.703 345.536 388.26 344.836C387.818 344.137 387.166 343.717 386.351 343.554C385.535 343.39 384.79 343.53 384.092 343.973C383.37 344.393 382.927 345.046 382.764 345.862ZM391.125 358.06C391.241 357.5 391.451 356.987 391.777 356.544C392.08 356.077 392.476 355.704 392.965 355.378C393.454 355.051 393.99 354.818 394.525 354.725C395.061 354.608 395.62 354.631 396.202 354.748C396.761 354.865 397.273 355.074 397.739 355.401C398.205 355.728 398.601 356.124 398.927 356.637C399.253 357.127 399.463 357.64 399.579 358.176C399.696 358.736 399.696 359.272 399.579 359.832C399.463 360.415 399.23 360.928 398.927 361.371C398.601 361.838 398.205 362.234 397.693 362.561C397.204 362.887 396.668 363.097 396.132 363.214C395.573 363.33 395.014 363.307 394.455 363.19C393.896 363.074 393.384 362.864 392.918 362.537C392.453 362.211 392.057 361.814 391.754 361.325C391.451 360.835 391.241 360.322 391.125 359.762C390.985 359.179 391.009 358.619 391.125 358.06ZM392.383 358.34C392.22 359.156 392.359 359.925 392.802 360.602C393.244 361.301 393.896 361.721 394.712 361.908C395.527 362.071 396.272 361.931 396.971 361.488C397.669 361.022 398.112 360.392 398.275 359.576C398.438 358.759 398.298 358.013 397.832 357.313C397.367 356.614 396.738 356.194 395.923 356.031C395.108 355.867 394.339 356.007 393.664 356.451C392.988 356.87 392.569 357.523 392.383 358.34Z" fill="white"/>
<path d="M398.043 345.046L384.069 361.465C383.813 361.768 383.347 361.815 383.045 361.558C382.742 361.301 382.695 360.835 382.951 360.532L396.925 344.113C397.181 343.81 397.647 343.764 397.95 344.02C398.276 344.277 398.323 344.743 398.043 345.046Z" fill="white"/>
<path d="M335.837 357.01C333.694 356.777 331.901 356.147 330.48 355.121C329.059 354.095 327.965 352.835 327.173 351.296C326.381 349.757 325.892 348.055 325.659 346.142C325.426 344.23 325.426 342.247 325.659 340.218C325.892 338.166 326.334 336.23 327.033 334.411C327.732 332.592 328.663 331.006 329.851 329.7C331.039 328.394 332.46 327.392 334.136 326.692C335.79 326.016 337.7 325.782 339.866 326.016C341.869 326.225 343.522 326.762 344.826 327.578C346.131 328.394 347.202 329.397 348.04 330.54L345.805 333.129C345.106 332.149 344.291 331.31 343.359 330.633C342.428 329.957 341.147 329.537 339.516 329.351C338.049 329.187 336.722 329.397 335.557 329.957C334.393 330.517 333.391 331.31 332.553 332.336C331.714 333.362 331.039 334.575 330.55 335.951C330.061 337.327 329.735 338.749 329.572 340.218C329.548 340.428 329.525 340.615 329.502 340.801C329.479 340.988 329.479 341.175 329.479 341.385C329.874 340.918 330.387 340.428 331.016 339.939C331.644 339.449 332.366 339.006 333.182 338.656C333.997 338.283 334.882 338.003 335.813 337.793C336.745 337.583 337.723 337.536 338.701 337.653C340.075 337.793 341.356 338.143 342.521 338.679C343.685 339.216 344.687 339.939 345.525 340.825C346.363 341.711 346.969 342.807 347.365 344.067C347.761 345.326 347.877 346.749 347.691 348.358C347.551 349.687 347.155 350.9 346.55 352.043C345.921 353.185 345.106 354.141 344.081 354.934C343.056 355.727 341.845 356.334 340.471 356.707C339.074 357.103 337.537 357.197 335.837 357.01ZM336.093 353.675C337.304 353.815 338.352 353.722 339.283 353.419C340.215 353.115 340.984 352.696 341.636 352.159C342.288 351.599 342.8 350.97 343.173 350.247C343.545 349.524 343.778 348.801 343.848 348.078C343.965 346.958 343.895 345.979 343.615 345.139C343.336 344.3 342.893 343.553 342.311 342.947C341.729 342.341 341.007 341.851 340.168 341.501C339.33 341.151 338.422 340.918 337.444 340.825C335.906 340.662 334.393 340.918 332.949 341.594C331.481 342.271 330.247 343.25 329.246 344.51C329.246 345.442 329.339 346.445 329.548 347.471C329.758 348.498 330.131 349.454 330.643 350.34C331.155 351.226 331.854 351.949 332.739 352.579C333.601 353.139 334.719 353.512 336.093 353.675Z" fill="white"/>
<path d="M363.108 359.972C360.988 359.739 359.218 359.086 357.844 357.99C356.47 356.894 355.376 355.565 354.584 353.955C353.792 352.369 353.28 350.62 353.047 348.731C352.814 346.842 352.791 344.976 353 343.134C353.21 341.292 353.606 339.473 354.234 337.677C354.863 335.881 355.748 334.295 356.866 332.919C357.984 331.543 359.335 330.47 360.919 329.701C362.502 328.931 364.365 328.651 366.485 328.884C368.581 329.118 370.328 329.771 371.725 330.867C373.122 331.963 374.217 333.292 374.985 334.878C375.777 336.441 376.29 338.19 376.523 340.079C376.779 341.968 376.802 343.834 376.592 345.676C376.383 347.519 375.964 349.338 375.312 351.133C374.659 352.929 373.798 354.538 372.68 355.914C371.585 357.314 370.234 358.386 368.627 359.156C367.044 359.926 365.204 360.206 363.108 359.972ZM363.457 356.637C364.924 356.801 366.205 356.591 367.277 355.984C368.348 355.378 369.256 354.538 370.002 353.442C370.747 352.346 371.329 351.087 371.748 349.664C372.167 348.241 372.447 346.772 372.61 345.256C372.773 343.764 372.796 342.248 372.703 340.779C372.587 339.286 372.307 337.933 371.818 336.744C371.329 335.531 370.63 334.528 369.699 333.712C368.767 332.896 367.579 332.406 366.112 332.243C364.645 332.08 363.364 332.313 362.293 332.896C361.221 333.502 360.313 334.342 359.568 335.415C358.823 336.487 358.24 337.747 357.844 339.169C357.425 340.592 357.122 342.061 356.959 343.577C356.796 345.093 356.773 346.586 356.866 348.055C356.959 349.548 357.262 350.9 357.751 352.113C358.24 353.326 358.939 354.352 359.871 355.168C360.802 355.984 361.99 356.474 363.457 356.637Z" fill="white"/>
<path d="M307.073 341.92L307.166 339.682L317.577 340.148L317.484 342.387L307.073 341.92Z" fill="white"/>
</svg>
