<svg width="565" height="569" viewBox="0 0 565 569" fill="none" xmlns="http://www.w3.org/2000/svg">
<path d="M100.124 470.243C100.063 470.243 99.9811 470.243 99.92 470.243C92.7843 470.039 85.0167 459.941 77.5141 450.149C72.2949 443.355 67.3611 436.929 63.5894 435.359C62.8554 435.053 62.305 435.032 61.9176 435.297C60.572 436.236 60.6943 440.418 60.7963 444.477C60.939 449.598 61.0817 454.881 58.7779 457.044C57.9828 457.778 56.9634 458.105 55.7606 457.982C49.4812 457.431 25.5666 435.46 0.143356 406.88C-0.0401319 406.676 -0.0197444 406.35 0.184131 406.166C0.388006 405.982 0.714207 406.003 0.897695 406.207C25.7705 434.134 49.889 456.432 55.8421 456.962C56.7799 457.044 57.5139 456.819 58.0847 456.289C60.0419 454.433 59.8992 449.149 59.7769 444.477C59.6546 439.745 59.5323 435.685 61.3468 434.441C62.0399 433.971 62.9166 433.951 63.9767 434.379C68.0135 436.052 73.0288 442.58 78.3296 449.475C85.3429 458.615 93.294 468.978 99.9607 469.161C102.04 469.223 103.916 468.284 105.628 466.305C111.663 459.308 106.872 437.195 101.816 413.775C95.0677 382.563 87.4224 347.189 102.795 336.561C105.995 334.358 109.115 333.644 112.336 334.337C122.142 336.5 130.991 351.575 142.183 370.649C165.507 410.389 197.434 464.816 262.164 436.052C275.029 430.34 291.033 417.468 307.975 403.84C327.588 388.071 347.873 371.751 366.569 363.571C402.634 347.781 425.55 344.925 434.663 355.064C447.099 368.895 429.077 401.025 428.302 402.392L427.324 404.106C419.434 417.916 400.983 450.291 410.178 460.41C416.029 466.856 433.338 457.635 445.958 450.924C455.683 445.742 460.392 443.335 461.636 445.334C462.941 447.456 461.921 450.781 460.861 454.331C459.332 459.329 458.557 462.695 461.391 463.817C465.774 465.591 525.306 437.297 564.267 417.876C564.511 417.753 564.817 417.855 564.96 418.1C565.082 418.345 564.98 418.651 564.736 418.794C555.051 423.628 472.013 464.857 461.717 464.877C461.432 464.877 461.187 464.837 461.024 464.775C457.089 463.205 458.516 458.553 459.882 454.045C460.841 450.883 461.84 447.619 460.779 445.885C460.005 444.641 452.808 448.455 446.447 451.842C433.521 458.737 415.825 468.162 409.444 461.124C399.76 450.455 417.802 418.834 426.467 403.636L427.446 401.923C433.868 390.621 443.491 366.406 433.929 355.778C425.142 346.006 402.614 348.964 366.997 364.55C348.424 372.689 328.179 388.948 308.627 404.677C291.624 418.345 275.579 431.258 262.592 437.031C197.026 466.183 164.834 411.286 141.307 371.221C130.685 353.105 121.49 337.458 112.132 335.378C109.196 334.725 106.322 335.398 103.386 337.438C88.5641 347.679 96.1483 382.706 102.815 413.592C108.157 438.296 112.764 459.635 106.403 467.019C104.548 469.161 102.428 470.243 100.124 470.243Z" fill="black"/>
<path d="M306.691 343.028H155.415L172.235 233.479H323.531L306.691 343.028ZM156.598 342.008H305.834L322.328 234.499H173.091L156.598 342.008Z" fill="black"/>
<path d="M303.387 359.368H184.222C179.92 359.368 175.782 357.532 172.907 354.309C170.012 351.086 168.626 346.761 169.094 342.477L170.114 342.579C169.686 346.577 170.97 350.617 173.682 353.616C176.373 356.614 180.226 358.328 184.242 358.328H303.408C311.216 358.328 317.74 352.718 318.943 344.986L330.87 267.241C331.991 259.918 327.424 253.043 320.248 251.268L320.492 250.269C328.178 252.166 333.071 259.53 331.889 267.384L319.962 345.129C318.657 353.391 311.705 359.368 303.387 359.368Z" fill="black"/>
<path d="M322.919 233.989L319.311 257.409H169.055L172.663 233.989H322.919Z" fill="black"/>
<path d="M192.235 246.25C192.214 248.616 190.278 250.513 187.913 250.493C185.548 250.473 183.652 248.535 183.672 246.168C183.692 243.802 185.629 241.905 187.994 241.925C190.359 241.945 192.255 243.883 192.235 246.25Z" fill="white"/>
<path d="M206.038 246.25C206.017 248.616 204.08 250.513 201.715 250.493C199.35 250.473 197.454 248.535 197.475 246.168C197.495 243.802 199.432 241.905 201.797 241.925C204.162 241.945 206.058 243.883 206.038 246.25Z" fill="white"/>
<path d="M215.559 241.904L215.6 242.924C216.476 242.924 217.292 243.291 217.903 243.903C218.515 244.516 218.841 245.352 218.841 246.229C218.821 248.004 217.353 249.452 215.539 249.452C213.744 249.432 212.297 247.963 212.317 246.148C212.338 244.373 213.806 242.924 215.579 242.924L215.559 241.904ZM215.559 241.904C213.214 241.904 211.298 243.802 211.278 246.148C211.257 248.514 213.153 250.452 215.518 250.472C215.539 250.472 215.539 250.472 215.559 250.472C217.903 250.472 219.82 248.575 219.84 246.229C219.861 243.863 217.965 241.925 215.6 241.904C215.579 241.904 215.579 241.904 215.559 241.904Z" fill="white"/>
<path d="M246.485 272.015C247.301 273.015 247.586 274.443 247.342 276.136L241.857 319.098C241.613 320.996 240.043 322.444 238.249 322.444H215.435C214.375 322.444 213.376 321.934 212.683 321.098C211.99 320.261 211.663 319.139 211.827 318.017L217.596 273.973C217.841 272.076 219.411 270.628 221.205 270.628L243.386 270.587C244.65 270.587 245.751 271.117 246.485 272.015Z" fill="black"/>
<path d="M242.266 272.934L238.351 272.995L238.188 274.321C238.066 275.096 237.373 275.667 236.557 275.667L228.117 275.484C227.118 275.484 226.363 274.647 226.506 273.729L226.588 273.056L222.204 272.934C220.716 272.934 219.452 274.137 219.248 275.769L214.172 315.917C213.764 318.997 215.334 319.67 217.148 319.67L236.068 319.629C237.576 319.629 239.636 318.793 240.206 315.488L245.222 276.708C245.487 274.708 245.405 272.954 242.266 272.934Z" fill="white"/>
<path d="M523.023 531.301L522.533 531.158L487.12 520.203L493.705 488.399L535.561 492.561L523.023 531.301ZM488.303 519.489L522.35 530.016L534.195 493.438L494.521 489.481L488.303 519.489Z" fill="#00966D"/>
<path d="M492.972 512.573C492.809 514.327 491.259 515.592 489.547 515.429C489.323 515.408 489.119 515.368 488.895 515.306L490.159 509.166C491.871 509.35 493.135 510.859 492.972 512.573Z" fill="#00966D"/>
<path d="M512.889 521.59C512.726 523.324 511.197 524.609 509.464 524.446C507.731 524.282 506.467 522.752 506.63 521.018C506.793 519.284 508.323 517.999 510.055 518.162C511.788 518.305 513.052 519.856 512.889 521.59Z" fill="#00966D"/>
<path d="M500.31 498.844C500.147 500.578 498.618 501.863 496.885 501.699C495.152 501.536 493.888 500.006 494.051 498.272C494.214 496.538 495.743 495.253 497.476 495.416C499.189 495.58 500.453 497.11 500.31 498.844Z" fill="#00966D"/>
<path d="M518.557 501.618C518.394 503.352 516.865 504.637 515.132 504.474C513.399 504.311 512.135 502.781 512.298 501.047C512.461 499.313 513.991 498.028 515.723 498.191C517.436 498.354 518.7 499.884 518.557 501.618Z" fill="#00966D"/>
<path d="M531.422 501.537L529.893 507.616C528.262 507.351 527.141 505.882 527.284 504.25C527.447 502.496 528.976 501.231 530.709 501.394C530.953 501.394 531.178 501.435 531.422 501.537Z" fill="#00966D"/>
<path d="M525.021 522.671L527.019 520.591C528.65 518.897 531.28 518.673 533.135 520.101C539.577 525.038 553.318 536.319 555.051 544.03C557.294 554.169 525.021 522.671 525.021 522.671Z" fill="white"/>
<path d="M554.277 546.519C549.017 546.519 528.833 527.098 524.654 523.039C524.45 522.835 524.45 522.529 524.633 522.325L526.631 520.244C528.446 518.347 531.361 518.122 533.42 519.714C540.943 525.466 553.808 536.258 555.52 543.928C555.806 545.173 555.602 546.009 554.95 546.376C554.766 546.478 554.542 546.519 554.277 546.519ZM525.734 522.651C536.397 533.014 552.156 546.784 554.46 545.479C554.664 545.356 554.705 544.867 554.542 544.153C552.829 536.523 538.782 525.079 532.829 520.509C531.178 519.244 528.833 519.428 527.386 520.938L525.734 522.651Z" fill="black"/>
<path d="M487.1 516.653L479.557 541.684L559.353 568.47C559.353 568.47 576.948 552.068 529.221 521.549C525.286 519.04 514.766 522.223 508.894 521.488C498.13 520.183 489.506 508.962 487.1 516.653Z" fill="white"/>
<path d="M559.354 569C559.293 569 559.252 569 559.191 568.98L479.394 542.194C479.129 542.113 478.986 541.827 479.068 541.562L486.611 516.531C487.08 515.042 487.794 514.124 488.793 513.716C490.831 512.9 493.604 514.43 497.09 516.347C500.597 518.285 504.573 520.489 508.956 521.039C511.28 521.325 514.481 520.978 517.56 520.631C522.412 520.101 527.019 519.571 529.507 521.162C555.908 538.053 562.269 550.681 562.963 558.31C563.595 565.185 559.864 568.735 559.701 568.878C559.599 568.959 559.476 569 559.354 569ZM480.189 541.378L559.211 567.919C559.945 567.082 562.453 563.818 561.943 558.351C561.25 550.966 554.971 538.645 528.956 522.019C526.775 520.631 522.147 521.141 517.682 521.631C514.542 521.978 511.301 522.345 508.834 522.039C504.246 521.468 500.006 519.122 496.601 517.224C493.482 515.49 490.77 514.001 489.18 514.634C488.487 514.919 487.957 515.613 487.59 516.796L480.189 541.378Z" fill="black"/>
<path d="M562.289 220.934C562.289 273.831 519.455 316.712 466.61 316.712C413.745 316.712 370.911 273.831 370.911 220.934C370.911 168.077 413.745 125.176 466.61 125.176C508.017 125.176 543.288 151.533 556.621 188.355C556.886 189.069 557.131 189.803 557.355 190.517C557.702 191.537 558.008 192.557 558.334 193.598C560.169 199.738 561.392 206.144 561.922 212.733C562.004 213.631 562.065 214.549 562.126 215.446C562.167 216.017 562.187 216.589 562.208 217.16C562.269 218.425 562.289 219.669 562.289 220.934Z" fill="#ED2E7E"/>
<path d="M359.739 105.306H434.99C439.108 105.306 442.431 101.961 442.431 97.8601C442.431 93.7393 439.088 90.4141 434.99 90.4141H359.739C355.621 90.4141 352.298 93.7597 352.298 97.8601C352.298 101.961 355.641 105.306 359.739 105.306Z" fill="#D1DBF6"/>
<path d="M393.868 101.429H310.748C310.463 101.429 310.238 101.205 310.238 100.919C310.238 100.634 310.463 100.409 310.748 100.409H393.868C394.153 100.409 394.378 100.634 394.378 100.919C394.378 101.205 394.153 101.429 393.868 101.429Z" fill="black"/>
<path d="M333.847 213.752H269.035C268.75 213.752 268.525 213.528 268.525 213.242C268.525 212.957 268.75 212.732 269.035 212.732H333.847C334.133 212.732 334.357 212.957 334.357 213.242C334.357 213.528 334.133 213.752 333.847 213.752Z" fill="black"/>
<path d="M411.951 530.586H304.02C299.901 530.586 296.578 527.241 296.578 523.14C296.578 519.02 299.922 515.694 304.02 515.694H411.951C416.07 515.694 419.393 519.04 419.393 523.14C419.393 527.261 416.049 530.586 411.951 530.586Z" fill="#D1DBF6"/>
<path d="M447.772 538.441H364.652C364.367 538.441 364.143 538.217 364.143 537.931C364.143 537.645 364.367 537.421 364.652 537.421H447.772C448.058 537.421 448.282 537.645 448.282 537.931C448.282 538.217 448.058 538.441 447.772 538.441Z" fill="black"/>
<path d="M172.071 556.985C150.236 556.985 129.359 548.866 113.294 534.137C95.373 517.674 85.0977 494.276 85.0977 469.959C85.0977 421.978 124.119 382.952 172.071 382.952C215.17 382.952 252.194 415.123 258.167 457.759C258.738 461.839 259.024 465.94 259.024 469.959C259.024 506.087 236.312 538.87 202.53 551.498C202.326 551.579 202.102 551.661 201.877 551.743L201.429 551.906C192.01 555.292 182.142 556.985 172.071 556.985Z" fill="white"/>
<path d="M172.071 383.482C215.7 383.482 251.786 415.816 257.658 457.861C258.208 461.839 258.494 465.858 258.494 469.978C258.494 507.107 235.15 538.768 202.326 551.049C201.959 551.191 201.592 551.314 201.205 551.477C192.112 554.721 182.285 556.495 172.05 556.495C149.502 556.495 129.012 547.907 113.62 533.79C96.3923 517.96 85.5869 495.234 85.5869 469.978C85.6073 422.181 124.303 383.482 172.071 383.482ZM172.071 382.462C123.834 382.462 84.5879 421.712 84.5879 469.978C84.5879 494.459 94.9244 517.98 112.947 534.545C129.114 549.355 150.093 557.515 172.071 557.515C182.203 557.515 192.132 555.802 201.572 552.436L202.061 552.252C202.285 552.171 202.509 552.089 202.734 551.987C236.699 539.298 259.533 506.331 259.533 469.978C259.533 465.939 259.248 461.818 258.677 457.718C252.663 414.796 215.435 382.462 172.071 382.462Z" fill="black"/>
<path d="M191.052 468.04C185.14 482.381 166.995 483.421 155.374 472.752C153.723 471.263 152.214 469.57 150.909 467.611C146.995 461.879 144.65 454.229 145.16 444.702C145.16 444.702 145.649 425.913 175.089 423.567C187.648 424.077 197.74 451.842 191.052 468.04Z" fill="#EAB193"/>
<path d="M183.509 490.092C186.159 500.027 147.606 500.68 150.277 490.786C151.664 485.706 154.314 475.649 155.374 471.691C156.679 466.836 176.434 467.02 177.882 471.61C179.635 477.159 182.326 485.604 183.509 490.092Z" fill="#EAB193"/>
<path d="M260.122 423.053C271.326 411.403 270.969 392.87 259.326 381.66C247.683 370.449 229.162 370.805 217.958 382.456C206.754 394.106 207.111 412.639 218.754 423.849C230.397 435.06 248.918 434.704 260.122 423.053Z" fill="white"/>
<path d="M239.024 432.544C234.926 432.544 230.848 431.687 226.995 429.973C219.717 426.75 214.151 420.895 211.276 413.47C208.402 406.044 208.606 397.966 211.827 390.683C215.048 383.4 220.899 377.831 228.32 374.954C235.741 372.078 243.815 372.282 251.093 375.505C258.372 378.728 263.937 384.583 266.812 392.009C269.687 399.434 269.483 407.513 266.262 414.796C263.04 422.079 257.189 427.648 249.768 430.524C246.282 431.871 242.653 432.544 239.024 432.544ZM239.044 373.955C235.537 373.955 232.031 374.608 228.667 375.913C221.511 378.688 215.843 384.073 212.744 391.111C209.645 398.129 209.441 405.962 212.214 413.123C214.987 420.283 220.369 425.955 227.403 429.055C234.416 432.156 242.245 432.36 249.401 429.586C256.557 426.811 262.225 421.426 265.324 414.388C268.423 407.37 268.626 399.536 265.854 392.376C263.081 385.216 257.699 379.544 250.665 376.444C246.934 374.791 242.999 373.955 239.044 373.955Z" fill="black"/>
<path d="M235.579 421.038C235.029 421.038 234.478 420.916 233.989 420.671C233.051 420.222 232.358 419.406 232.052 418.427L224.386 393.009C224.101 392.07 224.203 391.071 224.672 390.214C225.141 389.357 225.915 388.704 226.853 388.439C228.79 387.847 230.849 388.949 231.44 390.907L237.944 412.47L253.459 406.187C255.355 405.432 257.496 406.35 258.25 408.227C259.004 410.104 258.107 412.246 256.232 413.021L236.986 420.834C236.598 420.998 236.17 421.079 235.742 421.1C235.681 421.038 235.64 421.038 235.579 421.038ZM227.913 389.276C227.669 389.276 227.404 389.316 227.139 389.398C226.466 389.602 225.895 390.071 225.569 390.683C225.243 391.315 225.161 392.03 225.365 392.703L233.031 418.121C233.235 418.835 233.744 419.427 234.417 419.753C234.804 419.937 235.232 420.039 235.661 420.018C235.966 419.998 236.272 419.937 236.558 419.835L255.804 412.022C257.149 411.471 257.822 409.92 257.271 408.554C256.721 407.207 255.172 406.534 253.806 407.085L237.251 413.796L230.421 391.152C230.115 390.03 229.055 389.276 227.913 389.276Z" fill="black"/>
<path d="M239.412 460.797L238.27 443.376C238.27 443.376 225.059 427.198 228.28 421.854C232.297 415.203 242.185 431.727 244.957 431.584C246.609 431.503 265.794 427.484 268.444 406.043C269.259 399.515 274.988 397.72 275.457 409.613C276.13 427.341 258.005 462.98 258.005 462.98L239.412 460.797Z" fill="#EAB193"/>
<path d="M264.794 452.965C262.98 489.991 264.59 499.824 262.205 527.18C259.493 558.127 238.82 572.999 202.062 551.15C202.062 551.15 201.226 551.456 200.757 551.62C191.664 554.863 182.326 556.475 172.092 556.475C149.543 556.475 129.054 547.886 113.661 533.769C139.635 498.11 145.812 485.727 170.848 486.91C177.576 487.237 180.675 487.93 193.845 495.907C211.154 506.413 223.55 513.879 223.55 513.879C223.55 513.879 229.625 481.647 236.883 451.435L264.794 452.965Z" fill="#00BA88"/>
<path d="M208.77 555.087C208.688 555.087 208.586 555.067 208.505 555.006C199.86 549.804 181.634 538.849 181.634 538.849L182.164 537.972C182.164 537.972 200.39 548.927 209.035 554.129C209.279 554.271 209.361 554.577 209.218 554.822C209.116 554.985 208.953 555.087 208.77 555.087Z" fill="black"/>
<path d="M177.291 437.093C174.274 437.093 172.194 435.828 170.176 434.604C166.608 432.442 162.918 430.198 153.438 434.665C153.193 434.788 152.887 434.665 152.765 434.42C152.642 434.176 152.765 433.87 153.009 433.747C162.999 429.055 166.914 431.442 170.706 433.747C173.54 435.461 176.231 437.093 181.572 435.298C181.837 435.216 182.123 435.359 182.225 435.624C182.306 435.889 182.164 436.175 181.899 436.277C180.125 436.848 178.616 437.093 177.291 437.093Z" fill="black"/>
<path d="M173.07 448.966C173.274 449.802 172.764 450.638 171.928 450.822C171.093 451.026 170.257 450.516 170.073 449.68C169.869 448.843 170.379 448.007 171.215 447.823C172.03 447.619 172.866 448.129 173.07 448.966Z" fill="black"/>
<path d="M165.242 447.456C165.221 447.456 165.201 447.456 165.181 447.456C164.895 447.415 164.712 447.171 164.732 446.885C164.752 446.763 165.119 443.825 167.382 442.071C168.728 441.03 170.42 440.643 172.459 440.887C172.744 440.928 172.928 441.173 172.907 441.459C172.867 441.744 172.602 441.928 172.337 441.907C170.583 441.683 169.136 442.009 168.014 442.866C166.078 444.355 165.751 446.987 165.751 447.007C165.731 447.273 165.507 447.456 165.242 447.456Z" fill="black"/>
<path d="M185.976 446.477C186.18 447.313 187.016 447.823 187.831 447.619C188.667 447.415 189.177 446.578 188.973 445.763C188.769 444.926 187.933 444.416 187.118 444.62C186.302 444.804 185.792 445.64 185.976 446.477Z" fill="black"/>
<path d="M190.747 443.56C190.584 443.56 190.441 443.479 190.339 443.356C190.237 443.213 187.831 440.051 184.325 442.357C184.1 442.499 183.774 442.438 183.611 442.214C183.448 441.969 183.53 441.663 183.754 441.5C188.076 438.664 191.134 442.703 191.155 442.744C191.318 442.969 191.277 443.295 191.053 443.458C190.951 443.519 190.849 443.56 190.747 443.56Z" fill="black"/>
<path d="M180.757 459.472C180.492 459.472 180.268 459.268 180.247 459.003C180.227 458.717 180.451 458.473 180.716 458.473C182.612 458.35 183.652 457.147 183.999 456.045C184.264 455.188 184.121 454.372 183.652 454.005C183.122 453.577 182.164 453.74 181.002 454.413C180.757 454.556 180.451 454.474 180.309 454.229C180.166 453.985 180.247 453.679 180.492 453.536C182.592 452.291 183.774 452.801 184.284 453.209C185.1 453.842 185.365 455.086 184.957 456.351C184.508 457.759 183.183 459.329 180.777 459.493C180.777 459.472 180.757 459.472 180.757 459.472Z" fill="black"/>
<path d="M156.679 466.857L155.17 472.548C153.519 471.059 152.234 469.55 150.93 467.591C152.255 466.796 154.599 466.286 155.945 466.02C156.414 465.939 156.801 466.388 156.679 466.857Z" fill="black"/>
<path d="M185.996 431.299C193.172 425.118 194.008 411.001 181.184 418.896C190.216 401.801 178.289 395.905 155.129 415.938C133.396 411.776 127.647 418.692 139.614 427.851C129.645 428.341 130.032 432.584 134.864 435.971C136.943 437.419 138.37 436.726 137.575 437.419C128.442 445.334 141.245 447.252 142.815 453.862C143.692 457.513 150.134 451.475 153.58 455.983C158.146 461.94 160.491 448.843 151.52 437.072C168.238 421.487 175.476 440.336 185.996 431.299Z" fill="black"/>
<path d="M143.202 466.062C147.158 469.55 152.499 469.958 155.15 466.959C157.8 463.96 156.74 458.697 152.805 455.209C148.87 451.72 143.508 451.312 140.858 454.311C138.208 457.31 139.268 462.553 143.202 466.062Z" fill="#EAB193"/>
<path d="M145.283 458.575C145.996 457.391 148.178 457.412 150.155 458.595C151.195 459.227 151.97 460.043 152.357 460.859L154.58 464.858C154.763 465.184 154.641 465.613 154.315 465.817L153.662 466.184C153.336 466.367 152.908 466.245 152.704 465.919L151.44 463.654C150.441 463.981 148.953 463.736 147.587 462.899C145.609 461.675 144.569 459.758 145.283 458.575Z" fill="white"/>
<path d="M151.684 460.268C151.561 460.268 151.439 460.227 151.337 460.145C149.849 458.84 148.177 457.942 146.587 457.656C145.098 457.371 143.896 457.656 143.202 458.452C143.019 458.656 142.693 458.677 142.489 458.493C142.285 458.309 142.265 457.983 142.448 457.779C143.386 456.718 144.935 456.31 146.791 456.657C148.544 456.983 150.42 457.963 152.03 459.391C152.234 459.574 152.254 459.9 152.071 460.104C151.949 460.206 151.806 460.268 151.684 460.268Z" fill="black"/>
<path d="M178.208 479.301C175.537 479.301 170.624 478.689 166.546 474.772C166.342 474.568 166.342 474.262 166.526 474.058C166.73 473.854 167.035 473.854 167.239 474.038C172.683 479.26 179.941 478.179 180.022 478.158C180.287 478.118 180.552 478.301 180.614 478.587C180.654 478.872 180.471 479.117 180.185 479.178C180.104 479.199 179.35 479.301 178.208 479.301Z" fill="black"/>
<path d="M223.51 513.879L228.24 516.756L224.672 507.841L223.51 513.879Z" fill="black"/>
<path d="M264.815 464.183C264.794 464.183 264.774 464.183 264.754 464.183L234.641 461.123C234.356 461.103 234.152 460.838 234.193 460.573C234.213 460.287 234.478 460.083 234.743 460.124L264.224 463.123L262.939 452.963C262.898 452.678 263.102 452.433 263.388 452.392C263.653 452.372 263.918 452.555 263.959 452.841L265.324 463.633C265.345 463.796 265.284 463.939 265.182 464.061C265.08 464.122 264.937 464.183 264.815 464.183Z" fill="black"/>
<path d="M233.54 430.055C232.235 430.055 230.849 429.32 229.728 427.913C228.953 426.954 228.402 426.056 228.117 425.24C228.015 424.975 228.158 424.69 228.423 424.588C228.688 424.486 228.973 424.628 229.075 424.894C229.32 425.587 229.809 426.383 230.523 427.26C231.93 429.014 233.724 429.524 234.947 428.525C235.987 427.688 236.129 426.016 235.314 424.445C235.192 424.2 235.273 423.894 235.538 423.751C235.783 423.608 236.089 423.71 236.231 423.976C237.271 425.975 237.006 428.158 235.599 429.32C234.967 429.81 234.274 430.055 233.54 430.055Z" fill="black"/>
<path d="M275.273 412.287C274.03 412.267 272.97 411.675 272.236 410.614C271.542 409.615 271.196 408.289 271.237 406.759C271.257 405.331 271.461 404.147 271.807 403.229C271.909 402.964 272.195 402.842 272.46 402.923C272.725 403.025 272.847 403.311 272.766 403.576C272.46 404.392 272.297 405.453 272.276 406.779C272.256 408.064 272.541 409.227 273.112 410.043C273.663 410.839 274.417 411.267 275.314 411.267C275.6 411.267 275.824 411.512 275.824 411.777C275.783 412.063 275.559 412.287 275.273 412.287Z" fill="black"/>
<path d="M253.01 428.341L247.139 434.338L243.815 431.074L253.01 428.341Z" fill="black"/>
<path d="M225.589 80.0908C225.589 95.9417 220.961 110.732 212.969 123.155C198.657 145.412 173.601 160.161 145.079 160.161C135.231 160.161 125.792 158.407 117.066 155.184C107.79 151.777 99.3289 146.738 92.0301 140.373L91.969 140.312C89.5021 138.17 87.1575 135.865 84.976 133.417C72.5193 119.565 64.8535 101.368 64.5477 81.3965C64.5273 80.9681 64.5273 80.5192 64.5273 80.0704C64.5273 35.8634 100.573 0 145.079 0C157.291 0 168.83 2.71322 179.187 7.50724C191.929 13.4641 202.857 22.6033 210.93 33.9254C220.166 46.9815 225.589 62.9139 225.589 80.0908Z" fill="#3E6BEC"/>
<path d="M210.909 33.9249C209.502 37.3929 207.137 40.6161 204.303 42.4521C201.694 41.3505 197.943 40.1877 193.376 39.0657C187.423 37.6377 185.282 43.1661 181.347 45.1653C173.478 49.1637 171.928 76.0715 171.928 76.0715L92.0293 140.373L91.9681 140.311L84.9752 133.416C72.5184 119.565 64.8527 101.368 64.5469 81.3959C71.9883 71.0327 84.7305 60.8938 106.015 60.4858C121.265 60.2002 109.685 38.0253 137.922 37.0257C158.799 36.2709 153.192 30.2732 158.493 21.6644C164.548 11.8315 172.152 7.95551 179.186 7.50671C184.976 7.13951 190.399 9.11832 194.191 12.0151C198.167 15.0752 199.777 18.8288 200.104 19.9712C212.459 16.646 214.191 25.9484 210.909 33.9249Z" fill="black"/>
<path d="M110.766 127.195L120.103 132.193L117.29 121.544L110.766 127.195Z" fill="#070707"/>
<path d="M198.065 25.3574C198.983 25.9694 204.385 29.723 204.385 42.0855C204.385 54.448 205.303 70.5233 189.869 70.5233C187.667 70.5233 184.283 69.7073 184.283 69.7073C182.367 74.1545 186.913 77.2349 187.28 77.3573C191.561 86.6598 192.54 90.393 190.175 92.1678C182.754 97.737 151.48 84.375 168.095 71.1965C170.99 64.1788 168.646 53.53 168.646 53.53C163.325 53.8972 159.329 48.6544 161.592 43.6359C164.344 37.5567 170.725 40.2903 172.336 42.4323C178.677 30.8655 194.885 36.9447 198.065 25.3574Z" fill="#EAB193"/>
<path d="M108.421 170.688L108.564 170.708C107.728 172.156 107.565 172.34 108.421 170.688Z" fill="#ED2E7E"/>
<path d="M211.216 125.767C196.904 148.023 173.601 160.182 145.058 160.182C135.211 160.182 127.056 158.121 118.351 154.878C122.816 146.616 127.749 138.272 130.604 132.846C122.754 129.337 106.628 121.564 96.8623 117.484C96.8623 117.484 107.994 96.6353 113.906 87.9245C127.851 67.3407 154.212 67.8712 167.933 70.9312C172.908 91.4537 189.259 87.6593 186.975 77.2144C208.138 90.6581 211.196 122.747 211.216 125.767Z" fill="#ED2E7E"/>
<path d="M153.193 154.939C145.058 154.939 138.616 152.062 132.479 140.332C131.399 138.272 130.074 136.599 129.014 135.396C128.83 135.192 128.85 134.865 129.075 134.682C129.299 134.498 129.605 134.518 129.788 134.743C130.869 136.008 132.255 137.721 133.376 139.884C141.144 154.755 149.095 154.878 161.287 153.286C167.668 152.45 172.887 152.613 177.271 153.776C177.536 153.858 177.699 154.123 177.638 154.408C177.556 154.674 177.291 154.837 177.006 154.776C172.765 153.654 167.668 153.49 161.43 154.327C158.494 154.653 155.762 154.939 153.193 154.939Z" fill="white"/>
<path d="M178.087 139.944C170.808 139.944 164.631 137.068 159.432 131.274C158.413 130.132 157.516 128.745 156.598 127.296C152.724 121.237 147.913 113.71 127.648 115.036C111.521 116.117 107.994 109.262 105.425 104.264C105.262 103.938 105.099 103.632 104.936 103.326C104.814 103.081 104.895 102.775 105.14 102.632C105.385 102.51 105.69 102.592 105.833 102.836C105.996 103.142 106.159 103.469 106.343 103.795C108.789 108.548 112.153 115.036 127.607 114.016C148.484 112.628 153.458 120.462 157.475 126.745C158.392 128.173 159.248 129.499 160.207 130.581C168.28 139.536 178.78 141.229 192.358 135.762C197.149 133.824 202.042 133.457 205.019 133.743C205.304 133.763 205.508 134.028 205.467 134.293C205.447 134.579 205.202 134.783 204.917 134.742C201.328 134.395 196.537 135.15 192.725 136.68C187.404 138.863 182.531 139.944 178.087 139.944Z" fill="white"/>
<path d="M175.701 94.2896C168.504 94.2896 164.59 90.0872 159.676 81.3763C153.581 70.6255 144.508 71.1559 142.755 71.3599C142.469 71.3803 142.225 71.1967 142.184 70.9111C142.143 70.6255 142.347 70.3807 142.632 70.3399C144.508 70.1155 154.151 69.5647 160.573 80.8663C167.526 93.1268 171.807 95.9624 186.833 91.0052C191.338 89.516 196.333 89.6588 200.186 91.3724C200.452 91.4948 200.553 91.7804 200.452 92.0456C200.329 92.3108 200.044 92.4128 199.779 92.3108C196.15 90.6992 191.44 90.5768 187.159 91.9844C182.49 93.5144 178.78 94.2896 175.701 94.2896Z" fill="white"/>
<path d="M208.118 119.402C202.267 119.402 199.453 116.628 196.477 113.69C192.134 109.406 187.201 104.551 170.585 108.162C153.663 111.854 142.164 105.959 136.456 90.679C134.988 86.7621 131.624 81.5805 123.938 79.0509C123.673 78.9693 123.53 78.6837 123.612 78.3981C123.693 78.1125 123.979 77.9901 124.264 78.0717C132.358 80.7237 135.885 86.1909 137.435 90.3118C142.939 105.041 154.03 110.712 170.381 107.142C187.547 103.409 192.685 108.468 197.211 112.935C200.371 116.057 203.082 118.729 209.443 118.301C209.708 118.26 209.973 118.484 209.994 118.77C210.014 119.056 209.81 119.3 209.525 119.321C209.015 119.382 208.567 119.402 208.118 119.402Z" fill="white"/>
<path d="M143.794 160.65C122.917 160.65 103.202 152.531 88.1767 137.721C72.5802 122.359 63.9971 101.878 63.9971 80.029C63.9971 54.6513 76.25 30.4567 96.7598 15.2995C96.9841 15.1363 97.3103 15.1771 97.4734 15.4015C97.6365 15.6259 97.5957 15.9523 97.3715 16.1155C77.1063 31.0892 65.0164 54.9777 65.0164 80.029C65.0164 101.592 73.4977 121.829 88.8903 136.986C104.038 151.899 123.977 159.936 145.038 159.61C188.891 158.937 209.564 132.621 219.207 110.69C219.33 110.425 219.615 110.323 219.88 110.425C220.145 110.527 220.247 110.833 220.145 111.098C210.38 133.314 189.442 159.936 145.058 160.63C144.63 160.65 144.202 160.65 143.794 160.65Z" fill="black"/>
<path d="M184.283 70.2376C184.222 70.2376 184.16 70.2172 184.099 70.1968C183.977 70.156 181 68.9524 179.634 67.7488C179.43 67.5652 179.41 67.2388 179.594 67.0348C179.777 66.8308 180.103 66.8104 180.307 66.994C181.53 68.0752 184.425 69.238 184.466 69.2584C184.731 69.3604 184.854 69.6664 184.752 69.9316C184.67 70.1152 184.487 70.2376 184.283 70.2376Z" fill="black"/>
<path d="M165.649 49.0413C165.425 49.0413 165.221 48.8985 165.16 48.6741C164.63 46.7769 164.773 45.4101 165.568 44.5941C166.689 43.4721 168.585 43.9617 168.667 43.9821C168.932 44.0637 169.095 44.3289 169.034 44.5941C168.952 44.8593 168.687 45.0225 168.422 44.9613C168.402 44.9613 166.995 44.5941 166.302 45.3081C165.792 45.8385 165.731 46.8993 166.159 48.3885C166.241 48.6537 166.078 48.9393 165.813 49.0209C165.731 49.0413 165.69 49.0413 165.649 49.0413Z" fill="black"/>
<path d="M206.649 43.84C206.506 43.84 206.364 43.7788 206.282 43.6768C206.099 43.4728 206.099 43.1464 206.323 42.9628C214.437 35.5575 214.437 28.4583 211.746 24.2763C209.626 20.9918 205.874 19.4414 203 20.6654C202.735 20.7674 202.449 20.6654 202.327 20.4002C202.225 20.135 202.327 19.8494 202.592 19.727C205.915 18.299 210.197 20.033 212.582 23.7255C215.497 28.2543 215.558 35.8839 206.975 43.7176C206.894 43.7992 206.771 43.84 206.649 43.84Z" fill="black"/>
<path d="M85.9546 58.6497C85.7303 58.6497 85.5264 58.507 85.4653 58.3029C85.3837 58.0377 85.5264 57.7521 85.7915 57.6705C91.235 55.9569 96.4542 56.0589 100.654 56.1609C106.22 56.2833 110.257 56.3649 111.622 52.4277C117.535 35.516 122.795 35.2916 142.387 34.4552C145.568 34.3124 149.156 34.1696 153.172 33.9248C153.499 33.9452 153.702 34.1288 153.702 34.4144C153.723 34.7 153.499 34.9448 153.233 34.9448C149.197 35.1896 145.588 35.3324 142.428 35.4752C122.897 36.3116 118.248 36.5156 112.581 52.7541C110.97 57.4053 106.403 57.2829 100.634 57.1809C96.2911 57.0789 91.3777 56.9769 86.0973 58.6497C86.0565 58.6497 85.9954 58.6497 85.9546 58.6497Z" fill="black"/>
<path d="M221.383 247.535C229.877 234.909 226.375 217.676 213.561 209.045C200.746 200.413 183.472 203.651 174.978 216.277C166.484 228.903 169.986 246.136 182.8 254.768C195.615 263.399 212.889 260.161 221.383 247.535Z" fill="black"/>
<path d="M215.029 251.719C226.36 242.288 227.905 225.45 218.48 214.112C209.054 202.774 192.227 201.228 180.896 210.659C169.565 220.091 168.02 236.928 177.445 248.266C186.871 259.605 203.698 261.15 215.029 251.719Z" fill="white"/>
<path d="M197.903 258.408C192.541 258.408 187.321 256.817 182.775 253.757C176.761 249.697 172.663 243.536 171.276 236.396C169.89 229.256 171.358 222.014 175.415 215.996C179.472 209.958 185.629 205.878 192.765 204.491C199.901 203.103 207.138 204.572 213.152 208.632C219.187 212.691 223.265 218.852 224.651 225.992C226.037 233.132 224.57 240.374 220.512 246.392C216.455 252.431 210.298 256.511 203.163 257.898C201.409 258.245 199.656 258.408 197.903 258.408ZM198.005 205.001C196.312 205.001 194.62 205.164 192.928 205.49C186.057 206.837 180.145 210.753 176.231 216.568C172.316 222.361 170.909 229.338 172.255 236.213C173.601 243.088 177.535 249.004 183.326 252.921C189.116 256.817 196.088 258.225 202.959 256.899C209.829 255.552 215.742 251.615 219.656 245.821C223.571 240.028 224.977 233.051 223.632 226.176C222.286 219.301 218.351 213.385 212.561 209.468C208.198 206.531 203.163 205.001 198.005 205.001Z" fill="black"/>
<path d="M201.104 249.982C200.472 249.982 199.84 249.799 199.269 249.431L183.387 239.089C183.061 238.864 182.775 238.599 182.531 238.293C182.205 237.865 181.98 237.334 181.878 236.804C181.715 235.865 181.98 234.886 182.572 234.152L197.577 215.139C198.148 214.425 198.943 213.976 199.84 213.874C200.737 213.752 201.634 214.017 202.347 214.588C203.061 215.139 203.51 215.955 203.612 216.852C203.713 217.75 203.469 218.648 202.918 219.362L190.217 235.437L202.979 243.74C204.549 244.76 204.998 246.881 203.978 248.452C203.306 249.431 202.205 249.982 201.104 249.982ZM200.227 214.874C200.125 214.874 200.044 214.874 199.942 214.894C199.31 214.976 198.739 215.282 198.352 215.792L183.346 234.805C182.939 235.335 182.755 236.008 182.857 236.661C182.918 237.049 183.081 237.416 183.306 237.722C183.469 237.946 183.672 238.13 183.897 238.273L199.779 248.595C200.88 249.309 202.347 249.003 203.061 247.901C203.775 246.8 203.448 245.331 202.368 244.617L188.667 235.702L202.062 218.729C202.449 218.24 202.633 217.607 202.551 216.975C202.47 216.342 202.164 215.771 201.675 215.384C201.267 215.037 200.757 214.874 200.227 214.874Z" fill="black"/>
<path d="M190.155 238.6C191.399 244.189 187.036 244.169 182.795 243.924C182.938 246.413 179.431 249.657 172.132 246.658C169.727 249.126 162.265 251.697 151.255 238.498C121.51 202.859 115.536 197.698 96.0664 171.422C90.6229 164.058 85.7503 154.286 90.8879 142.923C94.1296 135.763 97.7993 127.644 101.571 119.504C112.213 123.931 126.22 130.744 130.623 132.846C127.769 138.252 125.465 142.474 121 150.736C123.712 153.531 142.142 175.543 153.355 187.62C154.497 188.864 187.199 204.878 188.137 205.654C183.896 207.347 180.002 210.04 176.842 213.691C176.067 213.324 175.252 212.957 174.436 212.528C171.174 210.896 169.339 210.203 171.337 212.896C172.173 214.018 173.233 215.323 174.558 216.71C177.861 220.24 182.999 223.708 188.116 227.196C195.558 232.255 199.248 236.805 190.155 238.6Z" fill="#EAB193"/>
<path d="M190.542 239.008C190.501 239.008 190.44 239.008 190.399 238.988C190.155 238.906 184.324 237.07 174.721 228.91C174.497 228.726 174.477 228.4 174.66 228.196C174.843 227.992 175.17 227.951 175.374 228.135C184.793 236.132 190.644 237.988 190.705 238.008C190.97 238.09 191.133 238.376 191.052 238.641C190.95 238.865 190.746 239.008 190.542 239.008Z" fill="black"/>
<path d="M182.795 244.291C182.734 244.291 182.673 244.271 182.591 244.25C182.51 244.21 174.905 241.007 168.075 233.54C167.892 233.336 167.892 233.01 168.116 232.826C168.32 232.643 168.646 232.643 168.83 232.867C175.496 240.17 182.917 243.292 182.999 243.332C183.264 243.434 183.386 243.74 183.284 244.006C183.182 244.169 182.979 244.291 182.795 244.291Z" fill="black"/>
<path d="M172.235 247.209C172.133 247.209 172.031 247.189 171.949 247.128C171.908 247.107 167.301 243.966 162.632 239.539C162.428 239.355 162.428 239.029 162.612 238.825C162.795 238.621 163.121 238.6 163.325 238.804C167.933 243.17 172.459 246.25 172.52 246.291C172.744 246.454 172.806 246.76 172.663 247.005C172.561 247.128 172.398 247.209 172.235 247.209Z" fill="black"/>
<path d="M120.98 150.716L117.474 146.921L123.977 145.167L120.98 150.716Z" fill="black"/>
<path d="M192.561 58.3246C192.358 58.3246 192.154 58.2022 192.072 57.9778C191.97 57.7126 192.113 57.427 192.378 57.325C193.153 57.0598 195.477 56.2438 195.66 55.6114C195.742 55.3462 195.395 54.8566 194.988 54.2854C194.274 53.2858 193.295 51.9394 192.949 49.7769C192.908 49.4913 193.091 49.2465 193.377 49.1853C193.642 49.1445 193.907 49.3281 193.968 49.6137C194.274 51.5314 195.171 52.7758 195.823 53.6938C196.415 54.5098 196.884 55.1626 196.639 55.9174C196.374 56.7334 195.355 57.3658 192.725 58.2838C192.684 58.3246 192.623 58.3246 192.561 58.3246Z" fill="black"/>
<path d="M190.848 61.6702C187.953 60.6298 186.057 58.4878 185.385 56.9986C183.876 53.6326 183.937 60.3442 185.711 61.4254C188.667 63.2002 191.827 62.017 190.848 61.6702Z" fill="black"/>
<path d="M184.63 42.1675C184.385 42.1675 184.161 41.9839 184.12 41.7187C184.08 41.4331 184.284 41.1883 184.549 41.1475L189.238 40.4947C189.503 40.4743 189.768 40.6579 189.809 40.9231C189.849 41.2087 189.645 41.4535 189.38 41.4943L184.691 42.1471C184.671 42.1675 184.651 42.1675 184.63 42.1675Z" fill="black"/>
<path d="M201.511 44.3088C201.47 44.3088 201.429 44.3088 201.388 44.2884L197.392 43.2888C197.127 43.2276 196.944 42.942 197.025 42.6768C197.087 42.4116 197.372 42.228 197.637 42.3096L201.633 43.3092C201.898 43.3704 202.082 43.656 202 43.9212C201.939 44.1456 201.735 44.3088 201.511 44.3088Z" fill="black"/>
<path d="M200.267 48.1033C200.043 48.1033 199.839 47.9605 199.778 47.7361C199.656 47.3281 199.431 46.7977 199.044 46.7161C198.555 46.5937 197.882 47.1241 197.678 47.3281C197.474 47.5321 197.148 47.5117 196.964 47.3281C196.761 47.1241 196.761 46.7977 196.964 46.6141C197.087 46.4917 198.188 45.4513 199.289 45.7369C199.961 45.9001 200.451 46.4917 200.736 47.4505C200.818 47.7157 200.655 48.0013 200.39 48.0829C200.369 48.1033 200.308 48.1033 200.267 48.1033Z" fill="black"/>
<path d="M188.626 46.9813C188.401 46.9813 188.197 46.8384 188.136 46.614C188.014 46.206 187.79 45.6756 187.402 45.594C186.913 45.4716 186.24 46.002 186.036 46.206C185.833 46.41 185.506 46.3896 185.323 46.206C185.119 46.002 185.119 45.6756 185.323 45.492C185.445 45.3696 186.526 44.3292 187.647 44.6148C188.32 44.778 188.809 45.3696 189.095 46.3284C189.176 46.5936 189.013 46.8792 188.748 46.9609C188.728 46.9813 188.666 46.9813 188.626 46.9813Z" fill="black"/>
<path d="M403.145 285.398L399.475 278.87L396.376 283.011L403.145 285.398Z" fill="black"/>
<path d="M520.067 265.773L452.115 307.165C452.115 307.165 504.124 400.149 487.814 498.049L547.977 507.148C547.977 507.148 557.519 377.586 507.631 307.594C512.197 305.268 527.203 297.088 535.337 287.153C529.873 280.115 525.307 273.831 520.067 265.773Z" fill="#1C3FAC"/>
<path d="M426.019 266.038C377.965 307.96 314.581 296.496 306.344 295.802C295.783 294.904 297.333 271.342 297.333 271.342C365.182 273.953 383.042 260.857 414.724 228.318L426.019 266.038Z" fill="#EAB193"/>
<path d="M562.227 217.16C542.268 227.217 517.803 229.869 517.803 229.869L505.244 200.819C530.81 199.901 544.225 197.943 558.354 193.598C560.189 199.738 561.412 206.144 561.942 212.733C562.023 213.631 562.085 214.549 562.146 215.446C562.187 216.017 562.207 216.589 562.227 217.16Z" fill="#EAB193"/>
<path d="M523.084 231.479L518.456 200.206C476.56 203.021 463.553 196.065 441.187 206.938C423.43 215.567 410.117 237.089 385.55 254.226L403.144 285.417L431.422 266.139C446.264 295.189 446.876 298.718 453.338 310.326C453.338 310.326 501.902 282.215 522.208 268.812C514.786 257.714 509.2 248.983 499.72 233.621C499.74 233.601 516.091 232.459 523.084 231.479Z" fill="white"/>
<path d="M432.645 214.691C432.991 218.465 439.964 218.527 445.632 216.058C450.667 213.875 453.664 210.203 452.36 207.123C450.932 203.798 445.774 191.578 445.774 191.578C445.774 191.578 430.484 197.535 430.647 200.881C430.83 204.899 432.339 211.489 432.645 214.691Z" fill="#EAB193"/>
<path d="M431.258 206.02L436.355 203.001L431.706 208.672L431.258 206.02Z" fill="black"/>
<path d="M418.862 203.409C425.998 211.447 440.575 205.919 445.57 196.167C446.284 194.801 446.854 193.332 447.242 191.741C448.404 187.069 448.098 181.52 445.468 175.441C445.468 175.441 440.616 163.323 420.881 168.892C412.848 172.279 410.442 193.923 418.862 203.409Z" fill="#EAB193"/>
<path d="M428.017 184.722C428.078 185.314 428.628 185.722 429.199 185.661C429.791 185.6 430.198 185.049 430.137 184.478C430.076 183.886 429.525 183.478 428.955 183.539C428.363 183.6 427.935 184.131 428.017 184.722Z" fill="black"/>
<path d="M426.059 182.111C425.958 182.111 425.856 182.091 425.774 182.009C425.55 181.846 425.489 181.519 425.652 181.295C426.426 180.173 427.405 179.541 428.526 179.377C430.524 179.112 432.237 180.499 432.318 180.561C432.543 180.744 432.563 181.05 432.4 181.275C432.216 181.499 431.911 181.519 431.686 181.356C431.666 181.356 430.239 180.193 428.669 180.397C427.833 180.52 427.099 181.009 426.488 181.887C426.365 182.029 426.202 182.111 426.059 182.111Z" fill="black"/>
<path d="M419.005 186.213C419.066 186.804 418.659 187.335 418.067 187.396C417.476 187.457 416.946 187.049 416.885 186.458C416.824 185.866 417.232 185.336 417.823 185.274C418.394 185.213 418.924 185.642 419.005 186.213Z" fill="black"/>
<path d="M414.643 184.601C414.561 184.601 414.459 184.581 414.378 184.52C414.133 184.377 414.052 184.071 414.194 183.826C414.235 183.744 415.295 182.01 416.906 181.623C417.66 181.439 418.414 181.582 419.128 182.031C419.373 182.174 419.434 182.5 419.291 182.724C419.148 182.969 418.822 183.03 418.578 182.888C418.088 182.582 417.619 182.48 417.15 182.602C415.948 182.888 415.091 184.316 415.071 184.336C414.989 184.52 414.806 184.601 414.643 184.601Z" fill="black"/>
<path d="M425.366 194.311C424.856 194.311 424.51 194.189 424.245 193.944C423.694 193.413 423.857 192.597 424.061 191.741C424.204 191.047 424.367 190.272 424.163 189.701C424.061 189.435 424.204 189.15 424.469 189.048C424.734 188.946 425.02 189.089 425.121 189.354C425.427 190.211 425.223 191.149 425.06 191.965C424.958 192.414 424.816 193.087 424.958 193.23C424.979 193.25 425.264 193.475 426.712 193.087C426.977 193.026 427.262 193.169 427.344 193.454C427.425 193.719 427.262 194.005 426.977 194.087C426.324 194.229 425.794 194.311 425.366 194.311Z" fill="black"/>
<path d="M450.137 175.706C450.81 184.845 449.383 192.515 447.344 195.29L442.105 183.539C440.739 187.395 437.415 185.192 438.7 175.461C443.837 175.604 450.137 175.706 450.137 175.706Z" fill="black"/>
<path d="M451.157 187.865C450.179 191.394 447.223 193.659 444.552 192.924C441.881 192.19 440.495 188.722 441.473 185.193C442.452 181.663 445.408 179.399 448.079 180.133C450.75 180.868 452.136 184.336 451.157 187.865Z" fill="#EAB193"/>
<path d="M443.838 187.926C443.797 187.926 443.756 187.926 443.695 187.905C443.43 187.824 443.267 187.559 443.348 187.273C444.225 184.091 446.488 182.051 448.506 182.601C448.771 182.683 448.934 182.948 448.853 183.234C448.771 183.499 448.506 183.662 448.221 183.581C446.814 183.193 445.02 185.009 444.327 187.538C444.266 187.763 444.062 187.926 443.838 187.926Z" fill="black"/>
<path d="M450.137 175.707L415.825 174.911C418.863 165.833 426.019 161.773 435.193 161.732C442.798 161.712 448.812 165.711 450.137 175.707Z" fill="#3E6BEC"/>
<path d="M428.669 171.789L419.454 171.646C421.126 166.383 429.159 165.669 428.669 171.789Z" fill="black"/>
<path d="M463.389 176.869C463.389 176.869 463.368 176.869 463.389 176.869L415.804 175.931C415.233 175.91 414.785 175.461 414.805 174.89C414.826 174.319 415.315 173.911 415.845 173.891L463.409 174.829C463.98 174.849 464.429 175.298 464.408 175.869C464.388 176.42 463.939 176.869 463.389 176.869Z" fill="black"/>
<path d="M433.807 163.303C435.102 163.303 436.152 162.599 436.152 161.732C436.152 160.864 435.102 160.161 433.807 160.161C432.513 160.161 431.463 160.864 431.463 161.732C431.463 162.599 432.513 163.303 433.807 163.303Z" fill="black"/>
<path d="M450.301 176.176C450.056 176.176 449.832 175.992 449.791 175.727C448.975 169.587 446.345 165.466 441.983 163.487C441.717 163.365 441.616 163.059 441.738 162.814C441.86 162.549 442.166 162.447 442.411 162.569C447.12 164.691 449.954 169.077 450.81 175.605C450.851 175.89 450.647 176.135 450.362 176.176C450.341 176.176 450.321 176.176 450.301 176.176Z" fill="black"/>
<path d="M308.341 290.64C308.158 305.022 296.15 316.548 281.552 316.344C266.934 316.16 255.252 304.328 255.436 289.946C255.619 275.564 267.627 264.038 282.225 264.242C296.843 264.426 308.545 276.258 308.341 290.64Z" fill="black"/>
<path d="M305.164 298.08C310.067 285.023 303.465 270.461 290.416 265.554C277.367 260.647 262.814 267.254 257.91 280.311C253.006 293.367 259.608 307.93 272.657 312.837C285.706 317.744 300.26 311.137 305.164 298.08Z" fill="white"/>
<path d="M281.531 314.977C281.409 314.977 281.307 314.977 281.184 314.977C266.995 314.793 255.598 303.084 255.781 288.885C255.965 274.789 267.484 263.467 281.531 263.467C281.653 263.467 281.755 263.467 281.878 263.467C296.067 263.65 307.464 275.36 307.28 289.559C307.077 303.635 295.558 314.977 281.531 314.977ZM281.511 264.466C268.034 264.466 256.964 275.34 256.78 288.885C256.597 302.533 267.545 313.773 281.184 313.957C281.286 313.957 281.409 313.957 281.511 313.957C294.987 313.957 306.057 303.063 306.241 289.538H306.75H306.241C306.424 275.89 295.476 264.65 281.837 264.466C281.735 264.466 281.633 264.466 281.511 264.466Z" fill="black"/>
<path d="M274.05 303.043C273.683 303.043 273.316 302.981 272.969 302.859C272.48 302.675 272.031 302.39 271.664 302.002C271.053 301.329 270.747 300.431 270.828 299.513L272.867 276.686C273.03 274.911 274.6 273.585 276.374 273.748C278.148 273.911 279.473 275.482 279.31 277.257L277.597 296.535L291.97 296.494C293.764 296.494 295.212 297.942 295.212 299.717C295.212 300.574 294.886 301.411 294.274 302.023C293.662 302.635 292.847 302.981 291.991 302.981L274.05 303.043C274.07 303.043 274.07 303.043 274.05 303.043ZM276.088 274.768C274.947 274.768 273.988 275.645 273.887 276.788L271.848 299.615C271.787 300.227 272.011 300.86 272.419 301.308C272.663 301.574 272.969 301.778 273.316 301.9C273.56 301.982 273.825 301.982 274.07 302.023L291.991 301.961C292.582 301.961 293.132 301.716 293.561 301.308C293.968 300.88 294.213 300.329 294.213 299.738C294.213 298.514 293.214 297.514 291.991 297.514L276.517 297.555L278.331 277.155C278.433 275.931 277.536 274.85 276.313 274.748C276.231 274.768 276.17 274.768 276.088 274.768Z" fill="black"/>
<path d="M302.185 271.484C302.185 271.484 299.617 271.402 294.703 271.198C274.866 270.382 284.265 282.969 308.709 281.582L302.185 271.484Z" fill="#EAB193"/>
<path d="M307.261 282.093C298.637 282.093 290.033 280.033 289.931 279.992C289.666 279.931 289.483 279.645 289.564 279.38C289.626 279.115 289.911 278.931 290.176 279.013C290.298 279.054 302.388 281.95 312.154 280.808C312.419 280.788 312.684 280.971 312.725 281.257C312.766 281.542 312.562 281.787 312.276 281.828C310.625 282.012 308.933 282.093 307.261 282.093Z" fill="black"/>
<path d="M456.09 316.631C456.07 316.631 456.049 316.631 456.029 316.631C432.257 313.999 411.401 303.472 395.702 286.173C395.519 285.969 395.519 285.643 395.743 285.459C395.947 285.276 396.273 285.276 396.457 285.5C411.972 302.616 432.624 313.02 456.151 315.631C456.437 315.651 456.641 315.917 456.6 316.202C456.559 316.447 456.335 316.631 456.09 316.631Z" fill="black"/>
<path d="M507.569 308.347C507.385 308.347 507.202 308.245 507.12 308.061C506.998 307.816 507.1 307.51 507.344 307.368C507.813 307.123 509.118 306.368 510.28 305.695C511.096 305.226 511.83 304.797 512.156 304.614C518.761 301.003 524.98 296.576 530.607 291.456C549.424 274.36 560.474 250.941 561.698 225.522C562.921 200.104 554.175 175.746 537.09 156.896C535.724 155.387 534.48 154.102 533.298 152.98C532.645 152.347 531.993 151.715 531.341 151.103C525.856 145.942 519.72 141.474 513.135 137.802C512.441 137.414 511.789 137.047 511.116 136.7C510.871 136.578 510.77 136.252 510.912 136.007C511.035 135.762 511.361 135.66 511.605 135.782C512.278 136.129 512.951 136.517 513.603 136.884C520.311 140.617 526.509 145.146 532.054 150.348C532.727 150.96 533.4 151.592 534.032 152.245C535.214 153.367 536.478 154.673 537.865 156.203C555.133 175.236 563.981 199.88 562.737 225.563C561.494 251.247 550.342 274.911 531.32 292.21C525.632 297.372 519.353 301.86 512.686 305.491C512.36 305.674 511.626 306.103 510.831 306.552C509.669 307.225 508.343 308 507.854 308.245C507.732 308.327 507.65 308.347 507.569 308.347Z" fill="black"/>
<path d="M539.435 386.95C539.211 386.95 538.987 386.787 538.946 386.562C528.324 341.295 518.946 326.545 507.101 307.859C506.04 306.186 504.96 304.472 503.859 302.718C503.777 302.595 503.757 302.453 503.798 302.31L506.387 293.354C506.469 293.089 506.754 292.926 507.019 293.007C507.284 293.089 507.447 293.375 507.366 293.64L504.837 302.371C505.898 304.064 506.937 305.696 507.957 307.308C519.863 326.076 529.282 340.907 539.945 386.338C540.006 386.603 539.843 386.889 539.557 386.95C539.517 386.95 539.476 386.95 539.435 386.95Z" fill="black"/>
<path d="M545.958 495.58C545.897 495.58 545.856 495.58 545.795 495.559C536.722 492.662 490.871 489.194 490.402 489.153C490.117 489.133 489.913 488.888 489.933 488.603C489.953 488.317 490.198 488.072 490.484 488.133C492.38 488.276 536.926 491.642 546.101 494.58C546.366 494.662 546.508 494.947 546.427 495.212C546.386 495.437 546.182 495.58 545.958 495.58Z" fill="#3E6BEC"/>
<path d="M465.306 309.224C465.102 309.224 464.919 309.122 464.837 308.918L463.573 306.124C463.451 305.858 463.573 305.573 463.818 305.45C464.063 305.328 464.368 305.45 464.491 305.695L465.755 308.49C465.877 308.755 465.755 309.041 465.51 309.163C465.449 309.204 465.388 309.224 465.306 309.224Z" fill="#3E6BEC"/>
<path d="M502.82 488.378C502.8 488.378 502.8 488.378 502.82 488.378C502.514 488.378 502.31 488.133 502.31 487.848C502.392 485.767 502.453 483.707 502.494 481.687C502.494 481.401 502.718 481.197 503.003 481.197C503.003 481.197 503.003 481.197 503.024 481.197C503.309 481.197 503.533 481.442 503.513 481.728C503.472 483.768 503.391 485.828 503.33 487.909C503.309 488.154 503.085 488.378 502.82 488.378ZM503.126 476.036C502.84 476.036 502.616 475.791 502.616 475.526C502.657 473.445 502.657 471.385 502.677 469.365C502.677 469.08 502.901 468.855 503.187 468.855C503.472 468.855 503.697 469.08 503.697 469.365C503.697 471.405 503.676 473.466 503.635 475.547C503.635 475.812 503.411 476.036 503.126 476.036ZM503.146 463.694C502.861 463.694 502.636 463.47 502.636 463.184C502.616 461.103 502.575 459.043 502.534 457.023C502.534 456.738 502.759 456.513 503.024 456.493C503.35 456.493 503.533 456.717 503.554 456.982C503.595 459.022 503.635 461.083 503.656 463.164C503.676 463.449 503.432 463.674 503.146 463.694C503.166 463.694 503.166 463.694 503.146 463.694ZM502.861 451.352C502.596 451.352 502.371 451.128 502.351 450.862C502.269 448.782 502.188 446.721 502.066 444.702C502.045 444.416 502.269 444.171 502.555 444.171C502.84 444.171 503.085 444.375 503.085 444.661C503.187 446.701 503.289 448.741 503.37 450.842C503.391 451.087 503.166 451.332 502.861 451.352C502.881 451.352 502.861 451.352 502.861 451.352ZM502.208 439.01C501.943 439.01 501.719 438.806 501.699 438.541C501.556 436.46 501.393 434.42 501.209 432.4C501.189 432.115 501.393 431.87 501.678 431.85C501.943 431.788 502.208 432.033 502.229 432.319C502.412 434.338 502.575 436.399 502.718 438.48C502.738 438.765 502.534 439.01 502.249 439.03C502.229 439.01 502.208 439.01 502.208 439.01ZM501.128 426.709C500.863 426.709 500.659 426.505 500.618 426.26C500.394 424.199 500.17 422.159 499.904 420.14C499.864 419.854 500.068 419.609 500.353 419.569C500.618 419.548 500.883 419.732 500.924 420.017C501.169 422.037 501.413 424.077 501.637 426.158C501.658 426.443 501.474 426.688 501.189 426.729C501.169 426.709 501.148 426.709 501.128 426.709ZM499.599 414.469C499.354 414.469 499.13 414.285 499.089 414.04C498.783 411.98 498.477 409.96 498.131 407.961C498.09 407.675 498.273 407.431 498.559 407.369C498.844 407.308 499.109 407.512 499.15 407.798C499.497 409.817 499.803 411.837 500.108 413.897C500.149 414.183 499.966 414.428 499.68 414.469C499.639 414.469 499.619 414.469 499.599 414.469ZM497.56 402.29C497.315 402.29 497.111 402.127 497.05 401.882C496.663 399.842 496.255 397.843 495.827 395.843C495.766 395.578 495.949 395.293 496.214 395.231C496.479 395.17 496.765 395.354 496.826 395.619C497.254 397.618 497.662 399.638 498.049 401.678C498.11 401.963 497.927 402.229 497.641 402.269C497.621 402.29 497.58 402.29 497.56 402.29ZM494.991 390.213C494.767 390.213 494.543 390.05 494.502 389.825C494.033 387.806 493.544 385.827 493.034 383.848C492.973 383.583 493.136 383.297 493.401 383.236C493.666 383.175 493.951 383.338 494.012 383.603C494.522 385.582 495.011 387.581 495.501 389.601C495.562 389.866 495.399 390.152 495.113 390.213C495.073 390.213 495.032 390.213 494.991 390.213ZM491.913 378.279C491.688 378.279 491.484 378.136 491.423 377.912C490.873 375.933 490.282 373.974 489.69 371.996C489.609 371.73 489.751 371.445 490.037 371.363C490.302 371.282 490.587 371.424 490.669 371.71C491.26 373.668 491.851 375.647 492.402 377.646C492.483 377.912 492.32 378.197 492.055 378.279C491.994 378.258 491.953 378.279 491.913 378.279ZM488.324 366.467C488.1 366.467 487.917 366.324 487.835 366.12C487.203 364.162 486.551 362.224 485.878 360.266C485.796 360 485.919 359.715 486.184 359.613C486.449 359.511 486.734 359.653 486.836 359.919C487.509 361.877 488.161 363.815 488.793 365.794C488.875 366.059 488.732 366.345 488.467 366.426C488.447 366.467 488.386 366.467 488.324 366.467ZM484.308 354.778C484.104 354.778 483.9 354.655 483.839 354.451C483.146 352.534 482.412 350.596 481.678 348.678C481.576 348.413 481.719 348.127 481.963 348.025C482.228 347.923 482.514 348.066 482.616 348.311C483.35 350.249 484.063 352.167 484.777 354.105C484.879 354.37 484.736 354.655 484.471 354.757C484.43 354.778 484.369 354.778 484.308 354.778ZM479.925 343.252C479.721 343.252 479.537 343.129 479.456 342.925C478.701 341.028 477.927 339.111 477.152 337.213C477.05 336.948 477.172 336.663 477.437 336.54C477.702 336.438 477.988 336.561 478.11 336.826C478.905 338.743 479.66 340.661 480.414 342.558C480.516 342.823 480.394 343.109 480.129 343.231C480.047 343.231 479.986 343.252 479.925 343.252ZM475.236 331.828C475.032 331.828 474.848 331.705 474.767 331.522C473.972 329.645 473.156 327.748 472.341 325.851C472.239 325.585 472.341 325.3 472.606 325.177C472.871 325.075 473.156 325.177 473.278 325.443C474.094 327.34 474.909 329.237 475.704 331.114C475.806 331.379 475.684 331.665 475.439 331.787C475.358 331.807 475.297 331.828 475.236 331.828ZM470.343 320.485C470.139 320.485 469.955 320.363 469.874 320.179C469.058 318.323 468.222 316.446 467.366 314.528C467.244 314.263 467.366 313.978 467.631 313.855C467.896 313.733 468.181 313.855 468.304 314.12C469.16 316.018 469.976 317.894 470.811 319.771C470.934 320.036 470.811 320.322 470.546 320.444C470.485 320.485 470.404 320.485 470.343 320.485Z" fill="#3E6BEC"/>
<path d="M502.411 497.721H502.391C502.105 497.701 501.901 497.476 501.901 497.191C501.942 496.171 502.003 495.151 502.044 494.131C502.064 493.845 502.248 493.621 502.574 493.641C502.86 493.661 503.063 493.886 503.063 494.171C503.023 495.191 502.962 496.211 502.921 497.231C502.921 497.517 502.696 497.721 502.411 497.721Z" fill="#3E6BEC"/>
<path d="M509.648 499.557C509.363 499.557 509.139 499.312 509.139 499.047C510.627 410.919 505.673 376.667 467.935 303.737C467.813 303.492 467.895 303.186 468.16 303.043C468.404 302.921 468.71 303.002 468.853 303.267C506.692 376.422 511.667 410.735 510.158 499.068C510.158 499.333 509.913 499.557 509.648 499.557Z" fill="#3E6BEC"/>
<path d="M478.578 320.954C478.414 320.954 478.251 320.873 478.149 320.73C477.986 320.506 478.048 320.179 478.292 320.016C478.374 319.955 485.856 314.61 477.477 297.984C477.354 297.739 477.456 297.433 477.701 297.29C477.946 297.168 478.251 297.27 478.394 297.515C487.222 315.018 479.21 320.628 478.883 320.852C478.781 320.934 478.68 320.954 478.578 320.954Z" fill="#3E6BEC"/>
<path d="M527.324 278.237C521.494 278.237 517.702 273.219 517.661 273.157C517.518 272.913 517.579 272.607 517.824 272.464C518.048 272.301 518.374 272.382 518.537 272.627C518.558 272.668 522.105 277.237 527.406 277.237C527.691 277.237 527.916 277.462 527.916 277.747C527.895 278.013 527.61 278.217 527.324 278.237Z" fill="#3E6BEC"/>
<path d="M439.495 223.137C432.339 223.137 429.26 218.077 429.199 218.016C429.056 217.771 429.138 217.465 429.383 217.323C429.627 217.18 429.933 217.261 430.076 217.506C430.3 217.873 435.642 226.503 449.342 219.322C453.053 217.384 455.397 214.854 456.274 211.815C457.558 207.388 455.275 203.328 455.254 203.287C455.112 203.043 455.193 202.737 455.438 202.594C455.683 202.451 455.988 202.533 456.131 202.777C456.233 202.961 458.659 207.225 457.252 212.08C456.294 215.385 453.786 218.139 449.811 220.219C445.713 222.341 442.288 223.137 439.495 223.137Z" fill="black"/>
<path d="M406.834 280.726C406.63 280.726 406.446 280.603 406.365 280.399C402.328 270.342 389.851 251.452 389.728 251.268C389.565 251.044 389.647 250.717 389.871 250.554C390.095 250.391 390.422 250.452 390.585 250.697C390.707 250.88 403.245 269.852 407.323 280.012C407.425 280.277 407.302 280.563 407.037 280.685C406.976 280.726 406.915 280.726 406.834 280.726Z" fill="black"/>
<path d="M518.252 230.379C518.027 230.379 517.823 230.216 517.762 229.991C515.723 221.913 513.481 200.452 513.46 200.248C513.44 199.962 513.644 199.718 513.909 199.697C514.194 199.656 514.439 199.881 514.459 200.146C514.48 200.37 516.702 221.729 518.741 229.747C518.802 230.012 518.639 230.297 518.374 230.359C518.333 230.379 518.292 230.379 518.252 230.379Z" fill="black"/>
<path d="M431.441 266.141L435.315 263.387L433.134 269.486L431.441 266.141Z" fill="black"/>
<path d="M561.983 561.595C561.922 561.595 561.881 561.595 561.82 561.574L483.206 535.442C482.94 535.36 482.798 535.054 482.879 534.789C482.961 534.524 483.267 534.381 483.532 534.462L562.146 560.595C562.411 560.676 562.554 560.983 562.472 561.248C562.391 561.452 562.207 561.595 561.983 561.595Z" fill="black"/>
<path d="M485.04 525.997C484.755 525.997 484.53 525.772 484.53 525.487C484.53 525.201 484.755 524.977 485.04 524.977C485.04 524.977 485.04 524.977 485.06 524.977C485.55 524.977 494.112 524.834 494.765 515.878C494.785 515.593 495.03 515.368 495.315 515.409C495.601 515.43 495.805 515.674 495.784 515.96C495.05 525.915 485.223 525.997 485.04 525.997Z" fill="black"/>
<path d="M530.669 531.954C529.955 531.954 529.262 531.627 528.793 531.036C528.406 530.546 528.243 529.914 528.324 529.302C528.406 528.669 528.732 528.119 529.221 527.731C529.731 527.343 530.343 527.18 530.975 527.262C531.607 527.343 532.157 527.67 532.544 528.159C533.34 529.179 533.156 530.668 532.116 531.464C531.688 531.79 531.178 531.954 530.669 531.954ZM530.669 528.241C530.383 528.241 530.098 528.343 529.853 528.526C529.568 528.751 529.384 529.057 529.344 529.424C529.303 529.771 529.384 530.138 529.609 530.424C530.057 531.015 530.893 531.117 531.484 530.669C532.076 530.22 532.177 529.363 531.729 528.792C531.505 528.506 531.199 528.323 530.832 528.282C530.791 528.261 530.73 528.241 530.669 528.241Z" fill="black"/>
<path d="M536.865 538.032C536.131 538.032 535.418 537.706 534.928 537.074C534.113 536.013 534.296 534.462 535.377 533.646C536.437 532.83 537.986 533.014 538.802 534.095C539.617 535.156 539.434 536.706 538.353 537.522C537.905 537.869 537.375 538.032 536.865 538.032ZM535.988 534.462C535.377 534.952 535.254 535.829 535.723 536.462C536.192 537.074 537.089 537.196 537.721 536.727C538.333 536.237 538.455 535.36 537.986 534.728C537.497 534.095 536.6 533.973 535.988 534.462Z" fill="black"/>
<path d="M544.878 543.561C544.776 543.561 544.674 543.561 544.552 543.54C543.899 543.459 543.328 543.132 542.921 542.602C542.105 541.541 542.288 539.991 543.369 539.175C544.429 538.359 545.979 538.542 546.794 539.624C547.202 540.134 547.365 540.786 547.283 541.439C547.202 542.092 546.876 542.663 546.346 543.051C545.918 543.398 545.408 543.561 544.878 543.561ZM544.001 539.991C543.389 540.48 543.267 541.358 543.736 541.99C543.96 542.296 544.307 542.48 544.674 542.541C545.041 542.582 545.428 542.48 545.734 542.255C546.04 542.031 546.223 541.684 546.284 541.317C546.325 540.929 546.223 540.562 545.999 540.256C545.51 539.624 544.613 539.522 544.001 539.991Z" fill="black"/>
<path d="M530.626 530.484C530.484 530.484 530.341 530.423 530.239 530.321C530.056 530.117 530.076 529.79 530.28 529.607C535.764 524.69 534.174 520.712 534.092 520.549C533.99 520.284 534.092 519.998 534.357 519.876C534.622 519.753 534.908 519.876 535.03 520.141C535.112 520.325 537.028 524.935 530.953 530.382C530.871 530.443 530.749 530.484 530.626 530.484Z" fill="black"/>
<path d="M536.866 536.094C536.743 536.094 536.621 536.054 536.519 535.972C536.315 535.788 536.295 535.462 536.478 535.258C541.045 530.138 540.107 525.364 540.087 525.323C540.026 525.058 540.209 524.772 540.474 524.711C540.739 524.65 541.025 524.833 541.086 525.099C541.127 525.323 542.146 530.423 537.233 535.931C537.131 536.033 536.988 536.094 536.866 536.094Z" fill="black"/>
<path d="M544.858 541.643C544.735 541.643 544.613 541.603 544.511 541.501C544.307 541.317 544.287 540.991 544.491 540.787C548.996 535.911 547.63 532.463 547.569 532.32C547.467 532.055 547.569 531.77 547.834 531.647C548.099 531.525 548.385 531.647 548.507 531.912C548.589 532.076 550.24 536.074 545.245 541.48C545.143 541.582 545 541.643 544.858 541.643Z" fill="black"/>
<path d="M506.57 509.39C506.407 511.124 504.878 512.41 503.145 512.246C501.412 512.083 500.148 510.553 500.311 508.819C500.474 507.085 502.003 505.8 503.736 505.963C505.469 506.106 506.733 507.656 506.57 509.39Z" fill="#00966D"/>
<path d="M523.757 513.492C523.593 515.226 522.064 516.511 520.331 516.348C518.598 516.185 517.334 514.655 517.498 512.921C517.661 511.187 519.19 509.902 520.923 510.065C522.656 510.228 523.92 511.758 523.757 513.492Z" fill="#00966D"/>
<path d="M342.675 455.27H314.907V450.231C314.907 449.803 314.56 449.456 314.132 449.456H306.874C306.446 449.456 306.1 449.803 306.1 450.231C306.1 450.66 306.446 451.006 306.874 451.006H313.358V456.045V461.268C313.358 468.591 319.311 474.548 326.63 474.548H330.177C337.476 474.548 343.409 468.612 343.409 461.309V456.025C343.429 455.617 343.083 455.27 342.675 455.27ZM341.9 461.329C341.9 467.775 336.661 473.039 330.198 473.039H326.65C320.167 473.039 314.907 467.755 314.907 461.288V456.82H341.9V461.329Z" fill="#D1DBF6"/>
<path d="M321.492 477.241C320.208 477.241 319.168 478.282 319.168 479.567C319.168 480.852 320.208 481.892 321.492 481.892C322.777 481.892 323.816 480.852 323.816 479.567C323.796 478.282 322.756 477.241 321.492 477.241Z" fill="#D1DBF6"/>
<path d="M335.336 477.241C334.051 477.241 333.012 478.282 333.012 479.567C333.012 480.852 334.051 481.892 335.336 481.892C336.62 481.892 337.66 480.852 337.66 479.567C337.64 478.282 336.62 477.241 335.336 477.241Z" fill="#D1DBF6"/>
<path d="M99.4923 469.835C99.4515 469.835 99.4107 469.835 99.37 469.835C94.5381 469.753 89.6043 465 84.9764 459.9C84.7929 459.696 84.8133 459.369 85.0171 459.186C85.221 459.002 85.5472 459.002 85.7307 459.227C90.1956 464.163 94.9459 468.754 99.3904 468.835C99.4311 468.835 99.4719 468.835 99.4923 468.835C101.368 468.835 103.04 468.04 104.63 466.387C110.563 460.247 107.138 440.928 102.408 418.161C102.347 417.896 102.53 417.61 102.795 417.549C103.06 417.508 103.346 417.672 103.407 417.937C108.361 441.805 111.664 460.573 105.364 467.081C103.59 468.917 101.633 469.835 99.4923 469.835Z" fill="black"/>
<path d="M325.161 169.933C321.512 169.933 318.535 166.955 318.535 163.303C318.535 159.651 321.512 156.673 325.161 156.673C328.81 156.673 331.787 159.651 331.787 163.303C331.767 166.955 328.81 169.933 325.161 169.933ZM325.161 158.223C322.348 158.223 320.064 160.508 320.064 163.323C320.064 166.138 322.348 168.423 325.161 168.423C327.975 168.423 330.258 166.138 330.258 163.323C330.258 160.508 327.954 158.223 325.161 158.223Z" fill="#D1DBF6"/>
<path d="M62.2031 219.872C58.5537 219.872 55.5771 216.894 55.5771 213.242C55.5771 209.591 58.5537 206.612 62.2031 206.612C65.8525 206.612 68.829 209.591 68.829 213.242C68.8087 216.894 65.8525 219.872 62.2031 219.872ZM62.2031 208.163C59.3896 208.163 57.1062 210.448 57.1062 213.263C57.1062 216.078 59.3896 218.363 62.2031 218.363C65.0166 218.363 67.3 216.078 67.3 213.263C67.2796 210.448 64.9962 208.163 62.2031 208.163Z" fill="#D1DBF6"/>
<path d="M229.727 191.619C224.202 191.619 219.717 187.131 219.717 181.602C219.717 176.074 224.202 171.586 229.727 171.586C230.155 171.586 230.502 171.933 230.502 172.361C230.502 172.79 230.155 173.136 229.727 173.136C225.058 173.136 221.246 176.931 221.246 181.623C221.246 186.315 225.038 190.109 229.727 190.109C234.416 190.109 238.208 186.315 238.208 181.623C238.208 181.194 238.555 180.848 238.983 180.848C239.411 180.848 239.758 181.194 239.758 181.623C239.737 187.131 235.252 191.619 229.727 191.619Z" fill="#D1DBF6"/>
<path d="M369.137 411.878C368.24 413.429 366.262 413.959 364.692 413.061C363.143 412.164 362.613 410.185 363.51 408.614C364.407 407.064 366.384 406.533 367.954 407.431C369.504 408.349 370.034 410.328 369.137 411.878Z" fill="#D1DBF6"/>
<path d="M378.169 413.49C376.395 413.694 374.785 412.409 374.581 410.634C374.377 408.859 375.661 407.248 377.435 407.044C379.209 406.84 380.819 408.125 381.023 409.9C381.227 411.675 379.963 413.286 378.169 413.49Z" fill="#D1DBF6"/>
<path d="M90.2154 267.608C84.7923 267.608 80.3682 272.035 80.3682 277.462C80.3682 282.888 84.7719 287.315 90.2154 287.315C95.6384 287.315 100.063 282.908 100.063 277.462C100.063 272.035 95.6384 267.608 90.2154 267.608ZM93.5181 282.97C93.3754 283.072 93.2123 283.112 93.0696 283.112C92.8453 283.112 92.6007 283.011 92.458 282.807L89.461 278.788V271.831C89.461 271.403 89.8076 271.056 90.2357 271.056C90.6639 271.056 91.0105 271.403 91.0105 271.831V278.298L93.7016 281.909C93.9259 282.235 93.8647 282.725 93.5181 282.97Z" fill="#D1DBF6"/>
<path d="M111.806 258.102H73.7625C70.2763 258.102 67.2997 260.692 66.7696 264.181L66.4434 266.364L63.2018 287.702L60.3475 304.553C59.9602 307.001 62.8756 308.551 64.6697 306.858L75.7605 296.372H108.177C111.663 296.372 114.64 293.781 115.17 290.293L118.799 266.364C119.471 262.018 116.148 258.102 111.806 258.102ZM90.2153 288.824C83.9563 288.824 78.839 283.724 78.839 277.441C78.839 271.158 83.9359 266.058 90.2153 266.058C96.4743 266.058 101.592 271.158 101.592 277.441C101.592 283.724 96.4946 288.824 90.2153 288.824Z" fill="#D1DBF6"/>
<path d="M431.686 197.576C432.808 197.718 435.438 195.638 434.112 194.25C431.992 192.047 430.545 197.433 431.686 197.576Z" fill="black"/>
<path d="M185.996 465.489C185.935 465.468 185.853 465.468 185.792 465.489C184.671 465.53 176.251 465.122 174.253 461.715C174.11 461.47 173.804 461.388 173.559 461.531C173.315 461.674 173.233 461.98 173.376 462.225C173.743 462.837 174.253 463.367 174.864 463.816C174.864 463.938 174.721 465.693 175.884 466.448C176.026 466.529 178.167 467.916 181.123 467.916C181.837 467.916 182.591 467.835 183.386 467.631C183.529 467.59 183.631 467.488 183.712 467.366C184.018 467.121 184.222 466.754 184.324 466.468C184.813 466.488 185.221 466.509 185.506 466.509C185.792 466.509 185.975 466.509 186.037 466.488C186.261 466.427 186.424 466.203 186.404 465.978C186.404 465.754 186.22 465.55 185.996 465.489ZM183.121 466.57C183.06 466.59 183.019 466.631 182.958 466.672C179.411 467.468 176.475 465.611 176.434 465.591C176.087 465.366 175.945 464.897 175.904 464.489C178.126 465.672 181.103 466.182 183.264 466.407C183.203 466.468 183.162 466.55 183.121 466.57Z" fill="black"/>
<path d="M252.256 498.049C251.827 498.049 251.44 497.967 251.053 497.845C249.687 497.335 248.729 495.927 248.239 493.643C247.974 492.48 247.485 491.704 246.771 491.378C246.058 491.052 245.12 491.133 244.121 491.664L243.795 491.827C243.061 492.214 242.123 492.684 241.593 492.888C240.92 493.153 239.901 493.377 238.902 492.969C237.393 492.357 235.966 491.256 235.823 487.502C235.823 487.216 236.027 486.992 236.313 486.972C236.618 486.992 236.822 487.176 236.843 487.461C236.965 490.786 238.127 491.541 239.289 492.01C239.982 492.296 240.737 492.133 241.226 491.929C241.715 491.745 242.653 491.256 243.326 490.909L243.652 490.746C244.936 490.093 246.201 489.97 247.199 490.44C247.893 490.766 248.81 491.541 249.238 493.418C249.666 495.336 250.4 496.499 251.42 496.886C252.521 497.294 254.09 496.805 255.925 495.438C256.15 495.275 256.476 495.315 256.639 495.54C256.802 495.764 256.761 496.091 256.537 496.254C254.926 497.437 253.479 498.049 252.256 498.049Z" fill="white"/>
<path d="M224.365 534.014C224.345 534.014 224.324 534.014 224.283 534.014C223.998 533.973 223.814 533.708 223.855 533.443C224.385 529.73 225.914 528.792 227.484 528.323C228.544 528.017 229.523 528.343 230.155 528.669C230.685 528.935 231.603 529.547 232.275 529.995L232.52 530.159C233.458 530.771 234.375 530.975 235.13 530.709C235.884 530.444 236.455 529.751 236.822 528.608C237.556 526.405 238.657 525.099 240.063 524.732C241.572 524.345 243.346 525.059 245.344 526.874C245.548 527.058 245.568 527.384 245.384 527.588C245.201 527.792 244.875 527.813 244.671 527.629C242.979 526.079 241.49 525.426 240.349 525.732C239.289 526.017 238.432 527.099 237.821 528.955C237.229 530.75 236.23 531.444 235.497 531.689C234.457 532.056 233.213 531.811 231.99 531.015L231.745 530.852C231.093 530.424 230.196 529.832 229.706 529.587C229.238 529.343 228.504 529.098 227.79 529.302C226.587 529.649 225.364 530.281 224.875 533.586C224.834 533.831 224.61 534.014 224.365 534.014Z" fill="white"/>
<path d="M145.873 542.868C145.832 542.868 145.791 542.868 145.751 542.847C145.486 542.786 145.302 542.5 145.363 542.235C145.955 539.665 146.974 538.114 148.381 537.666C149.686 537.237 151.215 537.768 152.948 539.257C153.804 540.012 154.64 540.318 155.312 540.154C156.006 539.991 156.597 539.359 157.005 538.359L157.107 538.094C157.392 537.36 157.8 536.38 158.065 535.87C158.391 535.238 159.003 534.442 159.981 534.157C162 533.565 163.59 534.279 165.486 536.584C165.669 536.809 165.629 537.115 165.404 537.298C165.18 537.482 164.874 537.441 164.691 537.217C162.611 534.687 161.368 534.789 160.267 535.116C159.614 535.299 159.186 535.891 158.962 536.34C158.717 536.788 158.33 537.747 158.044 538.461L157.942 538.726C157.412 540.032 156.556 540.889 155.557 541.134C154.844 541.297 153.702 541.256 152.275 540.032C150.848 538.788 149.645 538.318 148.707 538.624C147.688 538.951 146.872 540.297 146.362 542.46C146.322 542.705 146.097 542.868 145.873 542.868Z" fill="white"/>
<path d="M243.631 514.634C243.407 514.634 243.203 514.491 243.142 514.267C243.061 514.002 243.224 513.716 243.489 513.635C244.304 513.39 244.814 512.553 245.099 511.88C245.426 511.064 245.874 509.922 246.18 509.391C246.608 508.535 247.301 507.902 248.096 507.678C250.094 507.086 251.685 507.78 253.601 510.105C253.784 510.33 253.744 510.636 253.54 510.819C253.316 511.003 253.01 510.962 252.826 510.758C250.726 508.208 249.483 508.331 248.402 508.657C247.872 508.8 247.403 509.249 247.097 509.861C246.812 510.371 246.363 511.493 246.078 512.166C245.528 513.512 244.732 514.328 243.774 514.614C243.713 514.634 243.672 514.634 243.631 514.634Z" fill="#FA5A5A"/>
<path d="M239.045 474.466C238.066 474.466 237.067 473.997 235.905 472.997C235.701 472.813 235.66 472.487 235.844 472.283C236.027 472.079 236.353 472.038 236.557 472.222C238.372 473.793 239.33 473.548 240.146 473.181C240.614 472.956 240.879 472.507 241.022 472.14C241.165 471.773 241.369 471.018 241.532 470.447L241.593 470.223C241.899 469.141 242.51 468.366 243.306 468.04C243.876 467.815 244.794 467.693 246.058 468.448C247.281 469.162 248.239 469.345 248.912 468.999C249.666 468.631 250.156 467.55 250.339 465.918C250.38 465.633 250.625 465.449 250.91 465.469C251.196 465.49 251.399 465.755 251.359 466.041C251.134 468.081 250.462 469.386 249.381 469.917C248.362 470.427 247.077 470.223 245.548 469.325C244.814 468.897 244.182 468.774 243.693 468.978C243.183 469.182 242.796 469.713 242.592 470.488L242.531 470.712C242.368 471.324 242.143 472.079 241.98 472.507C241.777 473.038 241.369 473.731 240.594 474.078C240.064 474.343 239.554 474.466 239.045 474.466Z" fill="white"/>
<path d="M165.506 523.569C164.446 523.569 163.468 523.019 162.346 521.856C162.142 521.652 162.163 521.325 162.367 521.142C162.57 520.958 162.897 520.958 163.08 521.162C164.67 522.815 165.588 522.672 166.403 522.386C166.872 522.223 167.158 521.795 167.321 521.489C167.484 521.142 167.79 520.387 167.973 519.877L168.034 519.714C168.422 518.694 169.074 518.021 169.89 517.776C170.44 517.613 171.358 517.592 172.52 518.408C173.274 518.959 174.334 519.53 175.19 519.204C175.924 518.918 176.495 517.939 176.821 516.389C176.883 516.103 177.148 515.94 177.433 516.001C177.718 516.062 177.882 516.327 177.82 516.613C177.413 518.551 176.658 519.734 175.557 520.163C174.538 520.571 173.315 520.244 171.928 519.245C171.276 518.775 170.685 518.612 170.195 518.755C169.706 518.898 169.278 519.367 169.013 520.081L168.952 520.244C168.748 520.795 168.442 521.55 168.259 521.937C168.014 522.427 167.565 523.059 166.77 523.325C166.322 523.488 165.914 523.569 165.506 523.569Z" fill="#FA5A5A"/>
<path d="M226.302 549.089C225.242 549.089 224.263 548.538 223.142 547.375C222.938 547.171 222.959 546.845 223.163 546.661C223.366 546.478 223.693 546.478 223.876 546.682C225.466 548.334 226.384 548.191 227.199 547.906C227.668 547.743 227.954 547.335 228.117 547.008C228.28 546.682 228.565 545.968 228.749 545.437L228.83 545.233C229.218 544.234 229.87 543.54 230.665 543.295C231.216 543.132 232.133 543.112 233.295 543.928C234.049 544.479 235.11 545.05 235.966 544.723C236.7 544.438 237.271 543.459 237.597 541.908C237.658 541.623 237.923 541.459 238.209 541.521C238.474 541.582 238.657 541.847 238.596 542.133C238.188 544.071 237.434 545.254 236.333 545.682C235.314 546.07 234.09 545.764 232.704 544.764C232.051 544.295 231.46 544.132 230.971 544.275C230.482 544.417 230.054 544.887 229.788 545.601L229.707 545.805C229.503 546.355 229.218 547.09 229.014 547.477C228.769 547.967 228.3 548.599 227.525 548.865C227.097 549.007 226.69 549.089 226.302 549.089Z" fill="#FA5A5A"/>
<path d="M254.416 482.585C253.356 482.585 252.378 482.034 251.256 480.871C251.052 480.667 251.073 480.341 251.277 480.157C251.481 479.953 251.807 479.974 251.99 480.178C253.56 481.83 254.498 481.687 255.314 481.422C255.66 481.3 256.007 480.953 256.231 480.504C256.394 480.218 256.639 479.566 256.802 479.076L256.945 478.729C257.332 477.73 257.984 477.036 258.8 476.791C259.35 476.628 260.268 476.608 261.409 477.424C262.347 478.097 263.163 478.403 263.815 478.28C264.08 478.219 264.366 478.423 264.406 478.688C264.447 478.974 264.264 479.239 263.999 479.28C263.061 479.443 261.98 479.096 260.818 478.26C260.166 477.791 259.595 477.628 259.085 477.77C258.596 477.913 258.168 478.382 257.903 479.096L257.78 479.443C257.577 479.994 257.332 480.626 257.148 480.973C256.802 481.646 256.292 482.156 255.68 482.381C255.232 482.503 254.824 482.585 254.416 482.585Z" fill="#FA5A5A"/>
<path d="M197.903 535.013C196.435 535.013 194.763 534.34 192.683 531.933C192.5 531.729 192.52 531.402 192.745 531.219C192.948 531.035 193.275 531.056 193.458 531.28C195.884 534.075 197.495 534.32 199.33 533.769C200.247 533.504 200.838 532.749 201.165 532.178C201.491 531.627 202.001 530.464 202.388 529.607L202.571 529.22C203.285 527.649 204.365 526.608 205.63 526.323C206.527 526.119 207.933 526.16 209.707 527.588C209.931 527.771 209.952 528.077 209.789 528.302C209.605 528.526 209.299 528.546 209.075 528.383C207.913 527.445 206.853 527.098 205.874 527.322C204.916 527.547 204.08 528.383 203.509 529.648L203.326 530.036C202.918 530.954 202.408 532.116 202.041 532.708C201.613 533.442 200.838 534.401 199.595 534.769C199.065 534.891 198.494 535.013 197.903 535.013Z" fill="white"/>
<path d="M188.708 509.941C187.382 509.941 186.2 509.227 184.875 507.697C184.691 507.493 184.712 507.167 184.936 506.983C185.14 506.799 185.466 506.82 185.65 507.044C187.505 509.207 188.667 509.084 189.686 508.778C190.298 508.594 190.685 508.105 190.91 507.697C191.134 507.289 191.542 506.412 191.807 505.8L191.909 505.596C192.439 504.433 193.234 503.658 194.192 503.433C194.865 503.27 195.925 503.311 197.23 504.351C197.454 504.535 197.474 504.841 197.311 505.065C197.128 505.29 196.822 505.31 196.598 505.147C195.803 504.514 195.089 504.27 194.437 504.412C193.805 504.576 193.234 505.126 192.846 506.004L192.744 506.208C192.459 506.861 192.051 507.738 191.807 508.187C191.48 508.737 190.91 509.451 189.972 509.737C189.544 509.88 189.115 509.941 188.708 509.941Z" fill="white"/>
<path d="M155.252 495.947C153.968 495.947 152.5 495.356 150.685 493.254C150.502 493.05 150.522 492.724 150.747 492.541C150.95 492.357 151.277 492.377 151.46 492.602C153.764 495.254 155.191 495.131 156.475 494.744C157.25 494.519 157.739 493.887 158.025 493.397C158.31 492.928 158.759 491.888 159.085 491.153L159.228 490.847C159.839 489.46 160.798 488.562 161.919 488.297C162.694 488.114 163.958 488.154 165.507 489.399C165.731 489.582 165.752 489.888 165.589 490.113C165.405 490.337 165.099 490.358 164.875 490.194C163.896 489.399 162.979 489.113 162.164 489.297C161.348 489.481 160.634 490.195 160.166 491.276L160.023 491.582C159.676 492.357 159.207 493.397 158.902 493.928C158.514 494.581 157.841 495.437 156.761 495.743C156.292 495.845 155.782 495.947 155.252 495.947Z" fill="white"/>
<path d="M130.888 528.057C130.623 528.057 130.338 528.016 130.032 527.935C128.462 527.486 126.933 526.548 126.383 522.835C126.342 522.549 126.525 522.304 126.811 522.263C127.076 522.223 127.341 522.406 127.382 522.692C127.871 525.997 129.094 526.609 130.297 526.955C131.031 527.16 131.745 526.915 132.213 526.67C132.682 526.425 133.6 525.813 134.252 525.385L134.476 525.221C135.679 524.426 136.923 524.181 137.983 524.548C138.717 524.793 139.716 525.487 140.328 527.282C140.409 527.547 140.267 527.833 140.001 527.935C139.736 528.037 139.451 527.874 139.349 527.608C138.962 526.466 138.391 525.772 137.637 525.507C136.903 525.262 135.965 525.446 135.027 526.078L134.803 526.241C134.13 526.69 133.192 527.302 132.662 527.588C132.254 527.812 131.622 528.057 130.888 528.057Z" fill="#FA5A5A"/>
<path d="M178.168 548.62C176.904 548.62 175.497 548.029 173.764 545.907C173.581 545.683 173.621 545.377 173.846 545.193C174.07 545.009 174.376 545.05 174.559 545.275C176.659 547.865 178.025 547.763 179.248 547.457C179.982 547.274 180.471 546.682 180.757 546.233C181.042 545.785 181.511 544.826 181.837 544.132L181.98 543.847C182.102 543.602 182.408 543.479 182.653 543.602C182.898 543.724 183.02 544.03 182.898 544.275L182.755 544.561C182.408 545.275 181.919 546.274 181.613 546.764C181.226 547.376 180.553 548.171 179.493 548.437C179.065 548.539 178.637 548.62 178.168 548.62Z" fill="#FA5A5A"/>
<path d="M165.323 508.269C164.059 508.269 162.652 507.677 160.919 505.555C160.736 505.331 160.777 505.025 161.001 504.841C161.225 504.658 161.531 504.699 161.714 504.923C163.814 507.514 165.18 507.412 166.404 507.106C167.137 506.922 167.627 506.331 167.912 505.882C168.198 505.433 168.667 504.474 168.993 503.781L169.135 503.495C169.258 503.25 169.564 503.128 169.808 503.25C170.053 503.373 170.175 503.679 170.053 503.923L169.91 504.209C169.564 504.923 169.074 505.923 168.768 506.412C168.381 507.024 167.708 507.82 166.648 508.085C166.22 508.187 165.792 508.269 165.323 508.269Z" fill="white"/>
<path d="M229.075 511.553C228.81 511.553 228.585 511.349 228.565 511.084C228.544 510.798 228.748 510.554 229.034 510.533C232.357 510.288 233.071 509.105 233.499 507.922C233.601 507.657 233.886 507.514 234.151 507.616C234.416 507.718 234.559 508.004 234.457 508.269C233.886 509.799 232.846 511.268 229.115 511.533C229.095 511.553 229.095 511.553 229.075 511.553Z" fill="white"/>
<path d="M238.719 556.27C238.454 556.27 238.23 556.066 238.209 555.801C238.189 555.515 238.393 555.271 238.678 555.25C242.001 555.005 242.715 553.822 243.143 552.639C243.245 552.374 243.531 552.231 243.796 552.333C244.061 552.435 244.203 552.721 244.101 552.986C243.531 554.516 242.491 555.985 238.76 556.25C238.739 556.27 238.719 556.27 238.719 556.27Z" fill="white"/>
<path d="M205.976 516.103C205.711 516.103 205.487 515.899 205.466 515.634C205.446 515.348 205.65 515.103 205.935 515.083C209.258 514.838 209.972 513.655 210.4 512.472C210.502 512.207 210.787 512.064 211.052 512.166C211.317 512.268 211.46 512.554 211.358 512.819C210.787 514.349 209.748 515.817 206.017 516.083C205.996 516.103 205.996 516.103 205.976 516.103Z" fill="#FA5A5A"/>
<path d="M178.289 529.852C178.024 529.852 177.8 529.648 177.78 529.383C177.759 529.097 177.963 528.853 178.249 528.832C181.572 528.587 182.285 527.404 182.714 526.221C182.815 525.956 183.101 525.813 183.366 525.915C183.631 526.017 183.774 526.303 183.672 526.568C183.101 528.098 182.061 529.567 178.33 529.832C178.33 529.852 178.31 529.852 178.289 529.852Z" fill="white"/>
<path d="M149.889 519.734C149.073 519.734 148.074 519.55 146.831 519.081C146.566 518.979 146.443 518.693 146.525 518.428C146.627 518.163 146.912 518.04 147.177 518.122C150.297 519.285 151.438 518.51 152.315 517.612C152.519 517.408 152.845 517.408 153.029 517.612C153.232 517.816 153.232 518.142 153.029 518.326C152.315 519.101 151.398 519.734 149.889 519.734Z" fill="white"/>
<path d="M209.849 545.825C208.585 545.825 207.158 545.233 205.425 543.071C205.242 542.846 205.282 542.52 205.507 542.357C205.731 542.173 206.057 542.214 206.22 542.438C208.3 545.05 209.666 544.968 210.889 544.662C211.174 544.58 211.439 544.764 211.501 545.029C211.562 545.295 211.399 545.58 211.134 545.641C210.746 545.743 210.298 545.825 209.849 545.825Z" fill="#FA5A5A"/>
<path d="M253.438 532.647C253.397 532.647 253.336 532.647 253.295 532.626C253.03 532.545 252.867 532.259 252.949 531.994C253.418 530.423 254.376 528.914 258.086 528.404C258.372 528.363 258.617 528.567 258.657 528.832C258.698 529.118 258.494 529.362 258.229 529.403C254.926 529.852 254.294 531.076 253.927 532.28C253.866 532.504 253.662 532.647 253.438 532.647Z" fill="white"/>
<path d="M181.246 497.947C179.982 497.947 178.575 497.356 176.842 495.234C176.659 495.01 176.699 494.704 176.924 494.52C177.148 494.336 177.474 494.377 177.637 494.602C179.737 497.192 181.103 497.09 182.326 496.784C182.591 496.723 182.877 496.886 182.938 497.152C182.999 497.417 182.836 497.702 182.571 497.764C182.163 497.866 181.715 497.947 181.246 497.947Z" fill="#FA5A5A"/>
<path d="M143.896 508.717C143.876 508.717 143.855 508.717 143.835 508.717C143.549 508.677 143.366 508.432 143.386 508.146C143.774 505.127 142.999 503.964 141.633 503.087C140.96 502.638 140.145 502.659 139.594 502.74C139.064 502.822 138.004 503.107 137.229 503.311L136.903 503.393C136.638 503.475 136.353 503.311 136.271 503.026C136.189 502.761 136.353 502.475 136.638 502.393L136.944 502.312C137.739 502.087 138.819 501.802 139.411 501.7C140.145 501.577 141.205 501.577 142.163 502.189C143.59 503.128 144.854 504.495 144.365 508.248C144.365 508.513 144.161 508.717 143.896 508.717Z" fill="#FA5A5A"/>
<path d="M163.712 554.801C163.528 554.801 163.345 554.699 163.263 554.516C161.775 551.578 160.49 551.394 159.328 551.476C158.635 551.517 158.085 551.986 157.738 552.374C157.412 552.761 156.8 553.598 156.372 554.21L156.168 554.475C156.005 554.699 155.679 554.76 155.455 554.597C155.23 554.434 155.169 554.108 155.332 553.883L155.536 553.618C156.005 552.945 156.596 552.108 156.963 551.7C157.432 551.17 158.207 550.517 159.247 550.456C161.367 550.313 162.794 551.374 164.16 554.046C164.282 554.291 164.181 554.597 163.936 554.74C163.875 554.781 163.793 554.801 163.712 554.801Z" fill="white"/>
<path d="M133.029 542.888C132.825 542.888 132.642 542.766 132.56 542.582C131.215 539.522 129.89 539.257 128.626 539.237H128.605C127.871 539.237 127.239 539.665 126.852 540.032C126.464 540.4 125.751 541.216 125.221 541.807L125.037 542.032C124.854 542.236 124.528 542.256 124.324 542.072C124.12 541.889 124.1 541.562 124.283 541.358L124.466 541.134C124.997 540.522 125.731 539.686 126.179 539.278C126.709 538.788 127.627 538.217 128.666 538.217C130.297 538.237 132.03 538.727 133.519 542.174C133.641 542.44 133.519 542.725 133.254 542.848C133.152 542.868 133.09 542.888 133.029 542.888Z" fill="white"/>
<path d="M242.368 155.367C241.389 155.367 240.37 155.204 239.309 154.857C231.358 152.287 234.885 131.234 238.616 108.937C242.021 88.557 245.548 67.4837 238.8 65.3009C236.047 64.4033 232.153 66.3413 225.792 71.7677C225.589 71.9513 225.262 71.9309 225.079 71.7065C224.895 71.5025 224.916 71.1761 225.14 70.9925C231.786 65.3213 235.986 63.3425 239.106 64.3421C246.69 66.7901 243.265 87.3534 239.615 109.12C236.129 130.01 232.52 151.593 239.615 153.899C249.891 157.224 256.129 141.23 261.634 127.113C265.793 116.444 269.728 106.366 275.09 105.224C277.128 104.796 279.269 105.652 281.45 107.815C286.445 112.752 286.017 121.993 285.589 130.948C285.141 140.455 284.712 149.431 290.89 151.92C294.621 153.429 298.596 148.003 303.184 141.72C309.606 132.948 317.598 122.034 328.627 126.42C339.8 130.867 352.379 153.205 352.909 154.143C353.052 154.388 352.95 154.694 352.705 154.837C352.46 154.98 352.154 154.878 352.012 154.633C351.889 154.409 339.086 131.662 328.24 127.358C317.944 123.258 310.543 133.376 303.999 142.311C299.167 148.941 294.988 154.653 290.503 152.858C283.673 150.125 284.101 140.781 284.57 130.908C284.978 122.176 285.406 113.16 280.737 108.549C278.78 106.632 277.006 105.856 275.314 106.224C270.482 107.244 266.649 117.076 262.592 127.48C257.454 140.639 251.705 155.367 242.368 155.367Z" fill="black"/>
<path d="M233.254 274.218L228.83 274.157C228.565 274.157 228.361 273.933 228.361 273.688C228.361 273.423 228.586 273.219 228.83 273.219L233.254 273.28C233.519 273.28 233.723 273.504 233.723 273.749C233.723 274.014 233.499 274.239 233.254 274.218Z" fill="white"/>
<path d="M236.292 273.81C236.272 274.096 236.047 274.32 235.762 274.3C235.477 274.279 235.252 274.055 235.273 273.769C235.293 273.484 235.517 273.259 235.803 273.28C236.088 273.3 236.292 273.524 236.292 273.81Z" fill="white"/>
<path d="M219.738 302.126C219.575 302.126 219.433 302.044 219.331 301.922C219.168 301.698 219.208 301.371 219.433 301.208L236.212 288.886C236.436 288.723 236.762 288.764 236.925 288.988C237.088 289.213 237.047 289.539 236.823 289.702L220.044 302.024C219.942 302.085 219.84 302.126 219.738 302.126Z" fill="black"/>
<path d="M222.796 305.145C222.633 305.145 222.49 305.063 222.388 304.941C222.225 304.717 222.266 304.39 222.49 304.227L229.096 299.372C229.32 299.209 229.646 299.249 229.809 299.474C229.972 299.698 229.932 300.025 229.707 300.188L223.102 305.043C223.02 305.125 222.898 305.145 222.796 305.145Z" fill="black"/>
<path d="M232.214 298.23C232.051 298.23 231.908 298.148 231.806 298.026C231.643 297.801 231.684 297.475 231.908 297.312L235.293 294.823C235.517 294.66 235.843 294.701 236.006 294.925C236.169 295.149 236.128 295.476 235.904 295.639L232.52 298.128C232.438 298.209 232.316 298.23 232.214 298.23Z" fill="black"/>
<path d="M128.218 137.415C128.137 137.415 128.055 137.394 127.994 137.353C127.749 137.231 127.647 136.925 127.77 136.66L142.408 107.936C142.53 107.692 142.836 107.59 143.101 107.712C143.346 107.834 143.448 108.14 143.325 108.406L128.687 137.129C128.585 137.313 128.402 137.415 128.218 137.415Z" fill="black"/>
</svg>
