<svg width="222" height="26" viewBox="0 0 222 26" fill="none" xmlns="http://www.w3.org/2000/svg">
<path d="M183.682 0H220.258C220.491 0.00440252 220.721 0.0539744 220.935 0.145789C221.149 0.237603 221.342 0.369829 221.504 0.53506C221.666 0.700291 221.793 0.895234 221.878 1.1087C221.963 1.32216 222.004 1.54987 222 1.77902V24.0176C222.004 24.2467 221.963 24.4744 221.878 24.6879C221.793 24.9014 221.666 25.0963 221.504 25.2615C221.342 25.4268 221.149 25.559 220.935 25.6508C220.721 25.7426 220.491 25.7922 220.258 25.7966H183.682C183.448 25.7922 183.218 25.7426 183.004 25.6508C182.79 25.559 182.597 25.4268 182.435 25.2615C182.273 25.0963 182.146 24.9014 182.061 24.6879C181.976 24.4744 181.935 24.2467 181.94 24.0176V1.77902C181.935 1.54987 181.976 1.32216 182.061 1.1087C182.146 0.895234 182.273 0.700291 182.435 0.53506C182.597 0.369829 182.79 0.237603 183.004 0.145789C183.218 0.0539744 183.448 0.00440252 183.682 0Z" fill="url(#paint0_linear)"/>
<path d="M213.261 17.6738L212.998 16.3452H210.141L209.671 17.6738H207.328L210.68 9.39889C210.758 9.1937 210.9 9.01822 211.087 8.8984C211.274 8.77859 211.495 8.7208 211.718 8.73308H213.524L215.324 17.6748L213.261 17.6738ZM211.969 11.1644L210.788 14.5105H212.634L211.969 11.1644ZM204.354 11.2816C204.354 12.2584 207.489 12.4674 207.489 14.7134C207.489 16.8763 205.175 17.6718 203.642 17.6718C202.77 17.6859 201.906 17.5194 201.104 17.1833L201.439 15.244C202.358 15.9827 205.147 16.1933 205.147 15.0205C205.147 13.8478 202.039 13.8199 202.039 11.5872C202.039 9.21504 204.687 8.72656 205.801 8.72656C206.491 8.74393 207.173 8.87129 207.822 9.10331L207.501 10.9595C206.541 10.4342 204.352 10.3088 204.352 11.2856L204.354 11.2816ZM197.474 17.6738L198.878 8.73157H201.126L199.722 17.6738H197.474ZM192.085 17.6738L190.135 9.91492C190.479 10.1262 190.808 10.3614 191.118 10.6188C192.055 11.4064 192.769 12.419 193.188 13.5581L193.442 14.8828L195.586 8.73308H198.005L194.429 17.6748L192.085 17.6738ZM188.12 8.97706L188.015 8.9465L188.12 8.97706ZM187.89 8.91043L187.84 8.8969L187.89 8.91043ZM188.443 9.08477L188.309 9.03868L188.443 9.08477ZM190.001 9.82875C189.931 9.78634 189.862 9.74549 189.792 9.7065C189.859 9.75165 189.928 9.79066 189.999 9.83376L190.001 9.82875ZM189.464 9.53116C189.403 9.50038 189.341 9.4677 189.281 9.43897C189.338 9.47283 189.4 9.50539 189.462 9.53617L189.464 9.53116ZM188.905 9.26763L188.781 9.21503L188.905 9.26763Z" fill="#494CA3"/>
<path d="M193.186 13.5622L192.43 9.54227C192.39 9.29997 192.257 9.08174 192.059 8.93206C191.861 8.78238 191.613 8.71288 191.364 8.73717H187.821L187.779 8.88797C189.009 9.21362 190.149 9.80612 191.115 10.6219C192.053 11.4096 192.767 12.4226 193.186 13.5622Z" fill="#FFC000"/>
<path d="M123.017 0.164062H159.316C159.785 0.176431 160.23 0.370309 160.554 0.703631C160.877 1.03695 161.054 1.48254 161.044 1.94309V24.1801C161.054 24.6407 160.877 25.0863 160.554 25.4196C160.23 25.7529 159.785 25.9468 159.316 25.9592H123.017C122.548 25.9468 122.103 25.7529 121.779 25.4196C121.455 25.0863 121.279 24.6407 121.288 24.1801V1.94409C121.279 1.48337 121.455 1.03768 121.779 0.704132C122.103 0.370587 122.548 0.176431 123.017 0.164062Z" fill="#F1F1F1"/>
<path d="M121.719 25.353C121.441 25.0238 121.29 24.6095 121.291 24.1821V1.94409C121.282 1.48337 121.458 1.03768 121.782 0.704132C122.105 0.370587 122.551 0.176431 123.02 0.164062H159.318C159.758 0.165033 160.181 0.335882 160.494 0.640005L121.724 25.353H121.719Z" fill="white" fill-opacity="0.73"/>
<path d="M136.596 18.598L137.954 16.1867L137.198 10.3957H139.048L139.347 13.823L141.158 10.3957H143.068L138.67 18.598H136.596ZM130.793 14.2724C131.078 12.8626 132.465 12.4152 134.515 12.4152C134.637 11.7883 134.231 11.6311 133.539 11.6547C132.929 11.6837 132.329 11.8204 131.769 12.058L131.931 10.6492C132.604 10.4439 133.301 10.3234 134.005 10.291C135.286 10.2684 136.711 10.67 136.386 12.3045L135.592 16.1521H133.742L133.863 15.569C133.648 15.7866 133.391 15.9604 133.107 16.0795C132.824 16.1986 132.518 16.2609 132.21 16.2628C131.333 16.2587 130.552 15.6982 130.794 14.2679L130.793 14.2724ZM132.685 14.1827C132.627 14.2637 132.594 14.3597 132.59 14.4588C132.586 14.5578 132.611 14.6561 132.663 14.7413C132.715 14.8265 132.79 14.8953 132.881 14.9392C132.971 14.9831 133.073 14.9999 133.173 14.9883C133.402 14.9983 133.627 14.9268 133.807 14.7869C133.986 14.647 134.108 14.4485 134.15 14.2273C134.174 14.0544 134.209 13.8831 134.255 13.7143H133.787C133.578 13.6953 133.368 13.7278 133.176 13.809C132.983 13.8902 132.815 14.0171 132.685 14.1787V14.1827ZM124.418 16.1521L125.948 8.79304H129.404C129.712 8.79036 130.016 8.86036 130.291 8.99695C130.566 9.13353 130.803 9.33279 130.984 9.5781C131.164 9.82341 131.282 10.1075 131.327 10.4067C131.372 10.7059 131.344 11.0113 131.244 11.2975C131.145 11.9704 130.801 12.5855 130.276 13.0294C129.752 13.4734 129.082 13.7169 128.389 13.7143H126.944L126.447 16.1521H124.418ZM127.232 12.3045H128.183C128.461 12.2827 128.725 12.1724 128.934 11.9909C129.143 11.8093 129.286 11.5659 129.342 11.2975C129.386 11.1871 129.402 11.0682 129.389 10.9503C129.376 10.8325 129.334 10.7193 129.267 10.6207C129.2 10.522 129.11 10.4409 129.004 10.3837C128.899 10.3265 128.78 10.2948 128.66 10.292H127.667L127.232 12.3045Z" fill="#3284AE"/>
<path d="M148.785 14.268C149.073 12.8583 150.475 12.4123 152.553 12.4123C152.697 11.7844 152.286 11.6293 151.585 11.6518C150.962 11.6833 150.35 11.8194 149.773 12.0541L149.938 10.6453C150.628 10.4426 151.34 10.3225 152.059 10.2881C153.356 10.2656 154.776 10.6667 154.447 12.3001L153.644 16.1467H151.791L151.915 15.5661C151.466 16.0064 150.858 16.2558 150.224 16.26C149.327 16.2589 148.537 15.6993 148.785 14.268ZM150.7 14.1788C150.644 14.2625 150.613 14.3606 150.612 14.4609C150.611 14.5612 150.639 14.6595 150.694 14.7445C150.748 14.8294 150.826 14.8973 150.919 14.9399C151.011 14.9824 151.114 14.9979 151.216 14.9844C151.443 14.9944 151.667 14.9227 151.845 14.783C152.023 14.6434 152.143 14.4451 152.183 14.2249C152.224 14.0454 152.245 13.8884 152.288 13.7119H151.835C151.621 13.6906 151.405 13.7223 151.206 13.8036C151.007 13.8849 150.832 14.0135 150.697 14.1778L150.7 14.1788ZM154.5 16.1467L156.032 8.76562H157.934L156.382 16.1467H154.5ZM142.41 16.1467L143.938 8.78917H147.387C147.694 8.78836 147.997 8.85945 148.27 8.99658C148.544 9.13372 148.78 9.33297 148.96 9.57773C149.139 9.82249 149.257 10.1056 149.302 10.4039C149.348 10.7021 149.321 11.0068 149.223 11.2926C149.123 11.9679 148.777 12.5848 148.25 13.0291C147.723 13.4734 147.049 13.715 146.354 13.7089H144.93L144.413 16.1457L142.41 16.1467ZM145.218 12.3001H146.146C146.426 12.2789 146.693 12.1698 146.905 11.9885C147.117 11.8072 147.264 11.5634 147.324 11.2936C147.365 11.1817 147.379 11.0617 147.364 10.9434C147.349 10.8252 147.305 10.7121 147.237 10.6138C147.168 10.5155 147.077 10.435 146.97 10.3783C146.863 10.3217 146.744 10.2906 146.623 10.2881H145.632L145.218 12.3001Z" fill="#3CA9C7"/>
<path d="M62.213 0H98.7604C99.2314 0.00942868 99.6794 0.201916 100.006 0.535561C100.332 0.869205 100.51 1.31657 100.5 1.77902V24.0176C100.51 24.48 100.332 24.9269 100.006 25.2605C99.6794 25.5942 99.2314 25.7872 98.7604 25.7966H62.213C61.742 25.7872 61.294 25.5942 60.9677 25.2605C60.6414 24.9269 60.4635 24.48 60.473 24.0176V1.77902C60.4635 1.31657 60.6414 0.869205 60.9677 0.535561C61.294 0.201916 61.742 0.00942868 62.213 0Z" fill="#5870BE"/>
<path d="M77.9824 12.8942C77.9828 11.0722 78.5335 9.2913 79.5647 7.77656C80.596 6.26183 82.0615 5.08135 83.7761 4.38434C85.4906 3.68734 87.3771 3.50518 89.1971 3.86081C91.0171 4.21643 92.6889 5.0939 94.001 6.3823C95.3131 7.67071 96.2066 9.31217 96.5686 11.0991C96.9306 12.8861 96.7448 14.7384 96.0347 16.4217C95.3246 18.105 94.1222 19.5435 92.5793 20.5559C91.0364 21.5682 89.2224 22.1088 87.3667 22.109C86.1342 22.109 84.9138 21.8707 83.7752 21.4076C82.6366 20.9445 81.602 20.2658 80.7306 19.4101C79.8591 18.5544 79.168 17.5387 78.6964 16.4207C78.2249 15.3027 77.9823 14.1043 77.9824 12.8942Z" fill="#FFAF38"/>
<path d="M72.9897 22.1052C71.3896 22.105 69.8163 21.7032 68.419 20.9379C67.0217 20.1726 65.8469 19.0691 65.0062 17.7325C64.1655 16.3959 63.6869 14.8706 63.6157 13.3012C63.5446 11.7319 63.8833 10.1704 64.5998 8.76576C65.3162 7.3611 66.3865 6.16002 67.7091 5.27585C69.0316 4.39169 70.5623 3.85399 72.156 3.71426C73.7497 3.57453 75.3533 3.83717 76.8145 4.47727C78.2756 5.11737 79.5459 6.1137 80.5044 7.3715H79.2505V7.98722H80.936C81.0624 8.18319 81.1816 8.38621 81.2924 8.59142H78.6233V9.20714H81.5944C81.6863 9.41235 81.7689 9.61765 81.8421 9.82286H77.9964V10.4381H82.0385C82.5466 12.2582 82.4766 14.1875 81.8379 15.9675H77.9964V16.5833H81.5901C81.4961 16.7956 81.3948 16.9935 81.2924 17.1895H78.6233V17.8052H80.9287C80.7897 18.0206 80.6445 18.227 80.4972 18.4209H79.2505V19.0366H79.9819C79.1012 20.0015 78.0234 20.7733 76.8187 21.3021C75.6139 21.8308 74.3093 22.1043 72.9897 22.1052Z" fill="#E63737"/>
<path d="M62.6952 14.4308L63.252 10.1721L64.1008 10.279L64.7151 13.4214C64.7714 13.7139 64.8118 13.9326 64.8362 14.0774C64.9049 13.9286 65.0102 13.7106 65.1522 13.4233L66.5599 10.5888L67.3185 10.6843L66.7617 14.943L66.2181 14.8745L66.6842 11.3101L64.9798 14.7186L64.4712 14.6545L63.7128 10.8739L63.2387 14.4993L62.6952 14.4308ZM69.6687 14.9223C69.4534 15.0626 69.2512 15.1552 69.0622 15.2003C68.875 15.2456 68.6787 15.2553 68.4733 15.2295C68.1342 15.1867 67.8843 15.0716 67.7237 14.8841C67.5633 14.6946 67.5 14.471 67.5337 14.2134C67.5534 14.0624 67.6053 13.9292 67.6893 13.8138C67.7756 13.6967 67.8788 13.6073 67.9992 13.5457C68.1214 13.4843 68.2549 13.4431 68.3994 13.4219C68.5057 13.4077 68.6641 13.4011 68.8748 13.402C69.3038 13.4049 69.6227 13.384 69.8314 13.3395C69.8427 13.268 69.8496 13.2227 69.8521 13.2033C69.88 12.9903 69.8502 12.8339 69.7628 12.7344C69.6445 12.5994 69.4536 12.5153 69.1901 12.4821C68.944 12.4511 68.7561 12.4717 68.6265 12.544C68.4991 12.6146 68.393 12.7557 68.3082 12.9675L67.8057 12.8333C67.8808 12.6203 67.9804 12.4537 68.1045 12.3335C68.2288 12.2114 68.3964 12.1272 68.6073 12.0809C68.8184 12.0327 69.0568 12.0253 69.3222 12.0588C69.5858 12.092 69.7959 12.1499 69.9525 12.2326C70.1091 12.3154 70.2199 12.4091 70.285 12.5137C70.3504 12.6164 70.3892 12.7414 70.4015 12.8886C70.4073 12.9799 70.395 13.1417 70.3646 13.3741L70.2734 14.0713C70.2099 14.5574 70.1803 14.8667 70.1846 14.9991C70.1911 15.1299 70.2196 15.2585 70.2701 15.3849L69.7236 15.3161C69.6835 15.2008 69.6652 15.0695 69.6687 14.9223ZM69.7778 13.7491C69.5778 13.8026 69.2843 13.8326 68.8974 13.839C68.6783 13.8428 68.5216 13.8585 68.4274 13.8861C68.3332 13.9136 68.2569 13.962 68.1986 14.0315C68.1405 14.0989 68.1056 14.1782 68.0936 14.2692C68.0754 14.4087 68.1125 14.5314 68.205 14.6376C68.2995 14.744 68.4484 14.81 68.6519 14.8356C68.8534 14.861 69.0384 14.84 69.2067 14.7726C69.3753 14.7033 69.5064 14.5968 69.6001 14.4531C69.6717 14.342 69.7226 14.1712 69.7528 13.9408L69.7778 13.7491ZM70.8294 14.5193L71.3574 14.5031C71.3594 14.714 71.4191 14.883 71.5364 15.0099C71.6557 15.1372 71.8345 15.2158 72.0728 15.2458C72.3131 15.2761 72.4977 15.2501 72.6267 15.1679C72.7558 15.0838 72.829 14.9759 72.8463 14.8442C72.8617 14.7261 72.8225 14.6267 72.7287 14.5459C72.6631 14.4904 72.4925 14.4089 72.217 14.3014C71.846 14.1562 71.5904 14.0394 71.4503 13.9509C71.3124 13.8607 71.2128 13.7487 71.1515 13.615C71.0924 13.4796 71.0727 13.3364 71.0925 13.1853C71.1104 13.0478 71.158 12.9249 71.2352 12.8165C71.3146 12.7064 71.4137 12.6195 71.5323 12.5557C71.6215 12.5059 71.7386 12.4694 71.8834 12.4463C72.0305 12.4215 72.1844 12.4193 72.3452 12.4395C72.5875 12.4701 72.7951 12.5316 72.9681 12.6243C73.1431 12.7172 73.2663 12.8292 73.3378 12.9602C73.4096 13.0894 73.4489 13.2557 73.4558 13.4594L72.9351 13.4646C72.9326 13.3029 72.881 13.1704 72.7802 13.0672C72.6814 12.9642 72.5303 12.8999 72.3268 12.8742C72.0865 12.844 71.9098 12.8621 71.7967 12.9285C71.6836 12.995 71.6201 13.0815 71.6062 13.188C71.5974 13.2558 71.6107 13.3195 71.6462 13.3791C71.6815 13.4406 71.7423 13.4955 71.8286 13.5438C71.8784 13.5697 72.0266 13.6337 72.2733 13.7356C72.6305 13.881 72.8776 13.9948 73.0145 14.077C73.1537 14.1575 73.2571 14.2631 73.3247 14.3937C73.3924 14.5242 73.4145 14.6786 73.3912 14.8568C73.3684 15.0311 73.2956 15.1892 73.1726 15.3312C73.0518 15.4715 72.89 15.5722 72.687 15.6332C72.4842 15.6923 72.2618 15.7066 72.0195 15.6761C71.6184 15.6256 71.3231 15.5038 71.1337 15.3106C70.9462 15.1177 70.8447 14.8539 70.8294 14.5193ZM75.0983 15.5176L75.1134 15.9891C74.9621 16.0015 74.8283 16.0004 74.712 15.9857C74.5221 15.9618 74.3788 15.9133 74.282 15.84C74.1852 15.7668 74.1218 15.6791 74.0919 15.5769C74.0621 15.4728 74.0678 15.2638 74.1088 14.9501L74.3409 13.1752L73.9572 13.1268L74.0104 12.7201L74.3941 12.7685L74.494 12.0045L75.0553 11.7563L74.9144 12.834L75.4405 12.9003L75.3873 13.307L74.8612 13.2407L74.6253 15.0447C74.6058 15.1938 74.602 15.2908 74.6139 15.3356C74.6277 15.3806 74.6533 15.4183 74.6907 15.4486C74.73 15.4791 74.7885 15.4993 74.866 15.5091C74.9241 15.5164 75.0015 15.5192 75.0983 15.5176ZM77.7947 15.3228L78.3266 15.4577C78.2001 15.7627 78.0101 15.9878 77.7567 16.133C77.5033 16.2783 77.1974 16.3283 76.8389 16.2832C76.3874 16.2263 76.047 16.0427 75.8177 15.7323C75.5906 15.4202 75.5099 15.0134 75.5755 14.5118C75.6433 13.9928 75.8297 13.6068 76.1346 13.3539C76.4395 13.1009 76.8051 13.0013 77.2314 13.055C77.6442 13.107 77.963 13.2899 78.1879 13.6036C78.4128 13.9174 78.4919 14.3289 78.4253 14.8383C78.4213 14.8693 78.4142 14.9156 78.4042 14.9773L76.1021 14.6874C76.0771 15.0287 76.1391 15.3003 76.288 15.5022C76.4369 15.704 76.6403 15.8211 76.898 15.8536C77.0898 15.8778 77.2602 15.848 77.409 15.7644C77.5578 15.6808 77.6864 15.5336 77.7947 15.3228ZM76.1873 14.2611L77.911 14.4782C77.9217 14.2158 77.8813 14.0128 77.7897 13.8694C77.6494 13.647 77.4465 13.5191 77.181 13.4857C76.9407 13.4554 76.7277 13.5103 76.542 13.6503C76.3582 13.7905 76.24 13.9941 76.1873 14.2611ZM78.8594 16.4668L79.2628 13.3817L79.7337 13.441L79.6726 13.9087C79.8213 13.705 79.9506 13.5747 80.0605 13.5176C80.1723 13.4609 80.2893 13.4402 80.4114 13.4555C80.5877 13.4777 80.7596 13.5565 80.9271 13.6918L80.6834 14.1542C80.5654 14.0625 80.4425 14.0087 80.3146 13.9926C80.2002 13.9782 80.093 14.0001 79.9928 14.0583C79.8928 14.1146 79.8155 14.2014 79.7608 14.3185C79.6784 14.4971 79.6227 14.6968 79.5938 14.9175L79.3826 16.5327L78.8594 16.4668ZM84.1502 15.6155L84.6954 15.8288C84.5167 16.2768 84.2573 16.6034 83.9173 16.8086C83.5795 17.0121 83.1887 17.0859 82.7449 17.03C82.2857 16.9722 81.9238 16.8321 81.6594 16.6098C81.3972 16.3858 81.2137 16.0871 81.1089 15.7137C81.006 15.3405 80.9811 14.9505 81.0343 14.5439C81.0923 14.1004 81.2271 13.7246 81.4387 13.4166C81.6526 13.1069 81.9266 12.8865 82.2609 12.7554C82.5974 12.6226 82.9536 12.5799 83.3295 12.6272C83.7558 12.6809 84.1001 12.8345 84.3624 13.088C84.6248 13.3415 84.7874 13.6721 84.8503 14.0796L84.278 14.1404C84.2197 13.8181 84.1058 13.5744 83.9363 13.4094C83.7668 13.2443 83.5397 13.1438 83.2548 13.108C82.9273 13.0667 82.6429 13.1106 82.4014 13.2397C82.162 13.3689 81.9803 13.5606 81.8565 13.8147C81.7329 14.0669 81.6528 14.3334 81.616 14.6142C81.5687 14.9763 81.5796 15.2996 81.6488 15.5839C81.7202 15.8665 81.8585 16.0886 82.0639 16.2503C82.2693 16.412 82.5018 16.5092 82.7615 16.5419C83.0774 16.5817 83.3567 16.5244 83.5994 16.3699C83.8422 16.2155 84.0258 15.964 84.1502 15.6155ZM87.2137 17.1323C86.9984 17.2725 86.7962 17.3651 86.6071 17.4102C86.42 17.4555 86.2237 17.4652 86.0183 17.4394C85.6792 17.3967 85.4293 17.2815 85.2687 17.094C85.1083 16.9045 85.0449 16.6809 85.0786 16.4234C85.0984 16.2723 85.1503 16.1391 85.2343 16.0237C85.3205 15.9066 85.4238 15.8172 85.5441 15.7556C85.6664 15.6942 85.7998 15.653 85.9444 15.6318C86.0507 15.6176 86.2091 15.611 86.4197 15.612C86.8488 15.6148 87.1676 15.594 87.3763 15.5494C87.3877 15.478 87.3946 15.4326 87.3971 15.4132C87.425 15.2002 87.3952 15.0439 87.3077 14.9443C87.1895 14.8093 86.9986 14.7252 86.735 14.692C86.4889 14.661 86.3011 14.6816 86.1715 14.7539C86.0441 14.8245 85.938 14.9656 85.8531 15.1774L85.3507 15.0432C85.4258 14.8303 85.5254 14.6637 85.6494 14.5435C85.7737 14.4213 85.9413 14.3371 86.1522 14.2908C86.3634 14.2426 86.6017 14.2352 86.8672 14.2687C87.1307 14.3019 87.3408 14.3598 87.4974 14.4426C87.654 14.5253 87.7649 14.619 87.83 14.7236C87.8954 14.8263 87.9342 14.9513 87.9464 15.0985C87.9522 15.1898 87.9399 15.3517 87.9095 15.5841L87.8184 16.2812C87.7548 16.7673 87.7252 17.0766 87.7296 17.209C87.7361 17.3398 87.7646 17.4684 87.815 17.5948L87.2686 17.526C87.2285 17.4107 87.2102 17.2795 87.2137 17.1323ZM87.3228 15.959C87.1228 16.0125 86.8293 16.0425 86.4424 16.0489C86.2232 16.0528 86.0666 16.0685 85.9724 16.096C85.8782 16.1235 85.8019 16.1719 85.7436 16.2414C85.6855 16.3089 85.6505 16.3881 85.6386 16.4791C85.6204 16.6186 85.6575 16.7414 85.75 16.8475C85.8444 16.9539 85.9934 17.0199 86.1968 17.0455C86.3984 17.0709 86.5833 17.0499 86.7517 16.9825C86.9203 16.9132 87.0514 16.8067 87.1451 16.663C87.2167 16.5519 87.2676 16.3812 87.2977 16.1507L87.3228 15.959ZM88.4574 17.6757L88.8608 14.5907L89.3317 14.65L89.2705 15.1177C89.4193 14.914 89.5486 14.7836 89.6585 14.7266C89.7703 14.6698 89.8873 14.6491 90.0094 14.6645C90.1857 14.6867 90.3576 14.7654 90.5251 14.9007L90.2814 15.3631C90.1634 15.2715 90.0404 15.2176 89.9126 15.2015C89.7982 15.1871 89.691 15.209 89.5908 15.2673C89.4908 15.3236 89.4135 15.4103 89.3588 15.5274C89.2763 15.706 89.2207 15.9057 89.1918 16.1265L88.9806 17.7416L88.4574 17.6757ZM92.4484 18.1784L92.4993 17.7892C92.2635 18.0705 91.9558 18.1872 91.5759 18.1394C91.3298 18.1084 91.112 18.0121 90.9224 17.8504C90.7347 17.6889 90.5995 17.48 90.5168 17.2235C90.4363 16.9653 90.4167 16.6784 90.458 16.3627C90.4983 16.0548 90.5861 15.7824 90.7214 15.5455C90.8571 15.3067 91.0363 15.1334 91.2592 15.0256C91.4821 14.9179 91.7205 14.88 91.9743 14.912C92.1603 14.9354 92.3208 14.996 92.4558 15.0937C92.591 15.1894 92.6959 15.306 92.7705 15.4434L92.9703 13.9154L93.4906 13.9809L92.9338 18.2396L92.4484 18.1784ZM90.9957 16.4305C90.9441 16.8255 90.9888 17.1314 91.1299 17.348C91.2709 17.5646 91.4548 17.6871 91.6816 17.7157C91.9102 17.7445 92.1162 17.6759 92.2994 17.51C92.4848 17.3424 92.6026 17.0669 92.6527 16.6835C92.7079 16.2613 92.667 15.9412 92.5301 15.7231C92.3931 15.5051 92.2055 15.3811 91.9671 15.351C91.7346 15.3217 91.5274 15.3921 91.3457 15.5621C91.1658 15.7324 91.0492 16.0218 90.9957 16.4305Z" fill="white"/>
<path d="M1.74138 0.203125H38.2983C38.5316 0.207661 38.7617 0.257541 38.9754 0.349415C39.1892 0.441288 39.3825 0.573468 39.5441 0.738686C39.7058 0.903904 39.8328 1.09893 39.9178 1.31232C40.0027 1.52572 40.0439 1.75358 40.0392 1.98265V24.2227C40.0485 24.6852 39.8702 25.1322 39.5438 25.4657C39.2173 25.7991 38.7693 25.9916 38.2983 26.0007H1.74138C1.27037 25.9916 0.82232 25.7991 0.495828 25.4657C0.169337 25.1322 -0.00887528 24.6852 0.000362114 24.2227V1.98265C-0.00435077 1.75358 0.036981 1.52572 0.121932 1.31232C0.206884 1.09893 0.333769 0.903904 0.495445 0.738686C0.657122 0.573468 0.850359 0.441288 1.06413 0.349415C1.27791 0.257541 1.50807 0.207661 1.74138 0.203125Z" fill="#353A40"/>
<path d="M23.7105 17.1968C23.4342 17.0589 23.207 16.8417 23.0585 16.5746C22.8804 16.2476 22.7938 15.8805 22.8077 15.51C22.7924 15.2574 22.8282 15.0043 22.9132 14.7655C22.9982 14.5267 23.1308 14.3069 23.303 14.1187C23.4862 13.9474 23.7031 13.8149 23.9406 13.7294C24.1781 13.644 24.4309 13.6071 24.6834 13.6217C24.9378 13.6056 25.1929 13.6408 25.433 13.7249C25.6731 13.8091 25.8931 13.9406 26.0796 14.1112C26.2503 14.2958 26.3815 14.5122 26.4656 14.7474C26.5498 14.9827 26.5853 15.232 26.5697 15.4809C26.5853 15.8417 26.5136 16.201 26.3607 16.5295C26.2225 16.7968 26.0075 17.0185 25.7421 17.1667C25.4313 17.3281 25.0828 17.4068 24.7315 17.3947C24.3802 17.4071 24.0306 17.3394 23.7105 17.1968ZM24.1348 14.7169C24 14.9614 23.9295 15.2349 23.9295 15.513C23.9295 15.791 24 16.0645 24.1348 16.309C24.2058 16.3848 24.2922 16.445 24.3882 16.4864C24.4843 16.5277 24.588 16.5495 24.6929 16.5495C24.7977 16.5495 24.9014 16.5277 24.9975 16.4864C25.0935 16.445 25.1798 16.3848 25.2508 16.309C25.4092 16.0553 25.479 15.7575 25.4495 15.4614C25.472 15.194 25.398 14.9275 25.2405 14.7084C25.1714 14.6299 25.0851 14.5681 24.988 14.527C24.891 14.486 24.7859 14.4668 24.6804 14.4714C24.5764 14.4685 24.4731 14.489 24.3785 14.5315C24.284 14.574 24.2005 14.6377 24.1348 14.7169ZM13.7765 17.3576C13.5944 17.34 13.4172 17.2892 13.254 17.2078C13.1061 17.1285 12.9755 17.0214 12.8695 16.8927C12.761 16.7706 12.6796 16.628 12.6302 16.4734C12.5661 16.274 12.531 16.0667 12.5257 15.8576V13.6843H13.6449V15.9087C13.6399 15.9933 13.652 16.0783 13.6805 16.1582C13.709 16.2382 13.7534 16.3116 13.8111 16.3747C13.9379 16.4816 14.0995 16.5405 14.2666 16.5405C14.4338 16.5405 14.5955 16.4816 14.7223 16.3747C14.7799 16.311 14.8242 16.2367 14.8526 16.1562C14.8809 16.0758 14.8927 15.9907 14.8874 15.9057V13.6813H16.0066V15.8546C16.0072 16.0641 15.9719 16.2724 15.9022 16.4704C15.8377 16.6588 15.7305 16.8301 15.5886 16.9719C15.4635 17.1058 15.3097 17.2108 15.1383 17.2795C14.8862 17.3656 14.6203 17.4068 14.3534 17.4007C14.1607 17.3969 13.9686 17.3822 13.7777 17.3566L13.7765 17.3576ZM29.5971 17.3331L28.2386 15.3301V17.3331H27.1831V13.6853H28.2281L29.5961 15.7028V13.6853H30.6536V17.3331H29.5971ZM19.1699 17.3331L17.8114 15.3301V17.3331H16.756V13.6853H17.801L19.1679 15.7028V13.6853H20.2254V17.3331H19.1699ZM21.0196 17.3235V13.6823H22.1482V17.3235H21.0196ZM12.4453 12.2129C12.2033 11.9668 12.0596 11.6437 12.0407 11.3021L13.1089 11.2355C13.12 11.3778 13.1682 11.5145 13.2488 11.6333C13.307 11.7068 13.3825 11.7654 13.4687 11.8041C13.555 11.8429 13.6494 11.861 13.7441 11.8562C13.8779 11.865 14.0103 11.824 14.1152 11.742C14.1545 11.7115 14.1863 11.6729 14.2083 11.6288C14.2304 11.5846 14.2422 11.5361 14.2428 11.487C14.2434 11.4378 14.2328 11.3893 14.2118 11.3447C14.1908 11.3001 14.16 11.2604 14.1215 11.229C13.9478 11.1184 13.7516 11.0463 13.5467 11.0176C13.1648 10.9548 12.8039 10.8031 12.4944 10.5747C12.3923 10.4874 12.3112 10.3788 12.257 10.257C12.2028 10.1353 12.1768 10.0036 12.1808 9.87078C12.1813 9.68229 12.2376 9.49791 12.3428 9.34023C12.4619 9.16435 12.6319 9.02768 12.8309 8.94746C13.1156 8.84039 13.4197 8.79168 13.7244 8.80467C14.0973 8.78024 14.4687 8.8713 14.7861 9.06519C14.9141 9.16465 15.0191 9.29 15.094 9.43242C15.169 9.57483 15.2123 9.73124 15.2208 9.89132L14.1632 9.95395C14.1493 9.81761 14.0864 9.69049 13.9856 9.59574C13.8789 9.51578 13.7465 9.47621 13.6125 9.48402C13.5073 9.4765 13.4029 9.50601 13.3178 9.56718C13.2865 9.59176 13.2613 9.62281 13.2441 9.65836C13.2269 9.69391 13.2182 9.73273 13.2186 9.77209C13.2194 9.80282 13.2272 9.83291 13.2415 9.86026C13.2558 9.88761 13.2762 9.91182 13.3011 9.9304C13.4152 10.0018 13.544 10.0472 13.6783 10.0637C14.0415 10.1297 14.3955 10.2378 14.7328 10.3858C14.923 10.4753 15.0834 10.6158 15.1957 10.7911C15.2927 10.9545 15.3427 11.1406 15.34 11.3297C15.3413 11.5594 15.274 11.7843 15.1466 11.977C15.0155 12.1758 14.8276 12.3321 14.6063 12.4263C14.3291 12.5362 14.0315 12.5887 13.7327 12.5797C13.2711 12.627 12.8091 12.4948 12.4453 12.2119V12.2129ZM29.5981 12.5105L28.2397 10.507V12.5105H27.1842V8.86329H28.2292L29.5971 10.8813V8.86329H30.6546V12.5105H29.5981ZM25.5487 12.5105L24.9489 11.3953C24.9006 11.2896 24.8314 11.1944 24.7452 11.1152C24.6648 11.0588 24.5681 11.029 24.4692 11.0301H24.37V12.5105H23.2423V8.86329H25.1119C25.3801 8.85295 25.6483 8.88297 25.9072 8.95247C26.0889 9.01078 26.2454 9.12728 26.3513 9.28362C26.4675 9.45915 26.5262 9.66556 26.5196 9.87479C26.5243 10.0576 26.4799 10.2386 26.391 10.3993C26.3049 10.5454 26.1827 10.6675 26.0357 10.755C25.913 10.8235 25.78 10.8728 25.6417 10.9008C25.7454 10.9309 25.844 10.9757 25.9343 11.0341C26.0015 11.0912 26.0615 11.1559 26.113 11.227C26.1727 11.2972 26.2255 11.373 26.2708 11.4529L26.8143 12.5105H25.5487ZM24.371 10.3397H24.8444C24.9447 10.3326 25.044 10.3158 25.1411 10.2901C25.2139 10.2754 25.2788 10.235 25.323 10.1764C25.3702 10.1153 25.3952 10.0406 25.3941 9.96397C25.3973 9.91333 25.3889 9.86273 25.3696 9.81568C25.3502 9.76862 25.3204 9.72617 25.2822 9.69193C25.1571 9.61648 25.0102 9.58384 24.8642 9.59875H24.371V10.3397ZM19.5639 12.5105V8.86329H22.5714V9.64183H20.6905V10.2215H22.4377V10.9665H20.6905V11.6849H22.629V12.5105H19.5639ZM16.7924 12.5105V9.76407H15.6482V8.86329H19.0602V9.76407H17.9107V12.5105H16.7924ZM8.57337 12.5105V8.86329H11.581V9.64183H9.69991V10.2215H11.4462V10.9665H9.69162V11.6849H11.6281V12.5105H8.57337ZM6.30883 12.5105L5.6724 10.2135L5.03814 12.5105H3.93776L3.12988 8.86329H4.19582L4.57941 10.9048L5.1416 8.86329H6.20333L6.76653 10.9028L7.15012 8.86329H8.21083L7.41036 12.5105H6.30883Z" fill="#ECD345"/>
<path d="M35.6607 17.3969V8.79883H36.9147V17.3969H35.6607ZM32.5361 17.3969V8.79883H33.7901V17.3969H32.5361Z" fill="#ECD345"/>
<defs>
<linearGradient id="paint0_linear" x1="201.97" y1="25.7966" x2="201.97" y2="0" gradientUnits="userSpaceOnUse">
<stop stop-color="#E59703"/>
<stop offset="0.231" stop-color="#E59703"/>
<stop offset="0.234" stop-color="white"/>
<stop offset="0.761" stop-color="white"/>
<stop offset="0.766" stop-color="#5457BB"/>
<stop offset="1" stop-color="#5457BB"/>
</linearGradient>
</defs>
</svg>
