<svg width="20" height="20" viewBox="0 0 20 20" fill="none" xmlns="http://www.w3.org/2000/svg">
<path d="M17.1056 2.27637H2.89472C2.55296 2.27637 2.27686 2.55247 2.27686 2.89423V17.1051C2.27686 17.4468 2.55296 17.723 2.89472 17.723H17.1056C17.4473 17.723 17.7234 17.4468 17.7234 17.1051V2.89423C17.7234 2.55247 17.4473 2.27637 17.1056 2.27637ZM15.3215 6.78484H14.0877C13.1204 6.78484 12.9331 7.24437 12.9331 7.92016V9.40883H15.2423L14.9411 11.7393H12.9331V17.723H10.5253V11.7413H8.51148V9.40883H10.5253V7.69039C10.5253 5.69585 11.7437 4.6088 13.5239 4.6088C14.3773 4.6088 15.1091 4.67252 15.3234 4.70148V6.78484H15.3215Z" fill="white"/>
</svg>
