<svg width="48" height="48" viewBox="0 0 48 48" fill="none" xmlns="http://www.w3.org/2000/svg">
<path d="M3.97461 13.6776C5.42773 10.6495 7.48086 8.09011 10.0684 5.96198C13.5746 3.06511 17.5965 1.32136 22.1059 0.786983C27.4027 0.158858 32.3809 1.16198 36.984 3.91823C38.1277 4.60261 39.1965 5.38073 40.2184 6.22448C40.4715 6.43073 40.4434 6.55261 40.2277 6.75886C38.1371 8.84011 36.0465 10.9214 33.9746 13.0214C33.7309 13.2651 33.5996 13.2464 33.3371 13.0495C27.2621 8.37136 18.4027 9.63698 13.8746 15.8245C13.0777 16.912 12.4309 18.0839 11.9809 19.3589C11.9434 19.4714 11.8684 19.5745 11.8121 19.687C10.6027 18.7682 9.38398 17.8495 8.18398 16.9214C6.77773 15.8432 5.37148 14.7651 3.97461 13.6776Z" fill="#E94335"/>
<path d="M11.8122 28.4805C12.2153 29.3711 12.5528 30.2992 13.0591 31.1336C15.1872 34.6211 18.2247 36.8617 22.2278 37.6586C25.8372 38.3805 29.306 37.893 32.5403 36.0836C32.6528 36.0273 32.7653 35.9711 32.8685 35.9148C32.9247 35.9711 32.9716 36.0367 33.0278 36.0836C35.4466 37.9586 37.8747 39.8336 40.2935 41.7086C39.131 42.8617 37.8091 43.7898 36.4028 44.5961C32.3247 46.9211 27.9091 47.8586 23.2591 47.5023C17.4653 47.0523 12.4685 44.7648 8.34346 40.6398C6.53408 38.8305 5.04346 36.7867 3.96533 34.4523C4.96846 33.6836 5.97158 32.9242 6.97471 32.1555C8.58721 30.9273 10.1997 29.7086 11.8122 28.4805Z" fill="#34A853"/>
<path d="M40.3029 41.7094C37.8841 39.8344 35.456 37.9594 33.0372 36.0844C32.981 36.0375 32.9247 35.9719 32.8779 35.9156C33.7122 35.2687 34.5654 34.6406 35.2497 33.8156C36.3935 32.4469 37.1529 30.9 37.5466 29.1656C37.5935 28.95 37.556 28.875 37.3404 28.8844C37.2279 28.8937 37.1247 28.8844 37.0122 28.8844C33.1872 28.8844 29.3529 28.875 25.5279 28.8937C25.106 28.8937 25.0122 28.7812 25.0216 28.3781C25.0404 25.6594 25.0404 22.9406 25.0216 20.2219C25.0216 19.875 25.1154 19.7812 25.4622 19.7812C32.4747 19.7906 39.4872 19.7906 46.5091 19.7812C46.8091 19.7812 46.931 19.8562 47.006 20.175C47.5779 22.7531 47.5404 25.3406 47.1935 27.9469C46.9122 30.0281 46.406 32.0437 45.6279 33.9937C44.4747 36.8719 42.7779 39.3844 40.5466 41.5406C40.4622 41.6062 40.3779 41.6531 40.3029 41.7094Z" fill="#4285F3"/>
<path d="M11.8122 28.4813C10.1997 29.7094 8.58718 30.9281 6.97468 32.1563C5.97156 32.9156 4.96843 33.6844 3.96531 34.4531C3.18718 33.0094 2.68093 31.4813 2.26843 29.9063C1.48093 26.8594 1.35906 23.7656 1.79031 20.6625C2.12781 18.225 2.83093 15.8813 3.96531 13.6875C5.37156 14.7656 6.76843 15.8531 8.17468 16.9313C9.38406 17.8594 10.5934 18.7781 11.8028 19.6969C11.5966 20.7 11.3059 21.6844 11.2122 22.7156C11.0434 24.5906 11.2216 26.4188 11.7559 28.2188C11.7934 28.2938 11.8028 28.3875 11.8122 28.4813Z" fill="#FABB06"/>
</svg>
