<svg width="32" height="32" viewBox="0 0 32 32" fill="none" xmlns="http://www.w3.org/2000/svg">
<rect width="32" height="32" rx="3.29897" fill="#3E6BEC"/>
<path d="M14.264 20.008C14.184 19.176 14.224 18.472 14.384 17.896C14.544 17.304 14.76 16.8 15.032 16.384C15.32 15.952 15.64 15.584 15.992 15.28C16.36 14.96 16.696 14.656 17 14.368C17.32 14.08 17.584 13.784 17.792 13.48C18 13.16 18.104 12.784 18.104 12.352C18.104 11.792 17.944 11.344 17.624 11.008C17.32 10.672 16.768 10.504 15.968 10.504C15.712 10.504 15.44 10.536 15.152 10.6C14.864 10.648 14.576 10.728 14.288 10.84C14 10.936 13.72 11.056 13.448 11.2C13.192 11.328 12.96 11.464 12.752 11.608L11.552 9.304C12.16 8.888 12.856 8.544 13.64 8.272C14.44 8 15.4 7.864 16.52 7.864C18.024 7.864 19.2 8.232 20.048 8.968C20.896 9.688 21.32 10.664 21.32 11.896C21.32 12.712 21.208 13.392 20.984 13.936C20.776 14.464 20.512 14.92 20.192 15.304C19.872 15.672 19.52 16 19.136 16.288C18.752 16.576 18.4 16.888 18.08 17.224C17.76 17.544 17.488 17.92 17.264 18.352C17.04 18.784 16.928 19.336 16.928 20.008H14.264ZM13.784 23.416C13.784 22.856 13.96 22.416 14.312 22.096C14.664 21.76 15.128 21.592 15.704 21.592C16.312 21.592 16.792 21.76 17.144 22.096C17.496 22.416 17.672 22.856 17.672 23.416C17.672 23.976 17.496 24.424 17.144 24.76C16.792 25.096 16.312 25.264 15.704 25.264C15.128 25.264 14.664 25.096 14.312 24.76C13.96 24.424 13.784 23.976 13.784 23.416Z" fill="white"/>
</svg>
