<?xml version="1.0" standalone="no"?>
<!DOCTYPE svg PUBLIC "-//W3C//DTD SVG 20010904//EN"
 "http://www.w3.org/TR/2001/REC-SVG-20010904/DTD/svg10.dtd">
<svg version="1.0" xmlns="http://www.w3.org/2000/svg"
 width="506.000000pt" height="605.000000pt" viewBox="0 0 506.000000 605.000000"
 preserveAspectRatio="xMidYMid meet">
<g transform="translate(0.000000,605.000000) scale(0.100000,-0.100000)"
fill="#0156FF" stroke="none">
<path d="M1260 5295 l-1255 -744 -2 -923 -3 -923 938 -555 c515 -305 1084
-642 1264 -748 l328 -194 1005 571 c553 314 1008 571 1010 571 3 0 5 -118 5
-263 l0 -262 -1010 -603 -1010 -603 -1259 761 c-692 418 -1261 760 -1265 760
-3 0 -5 -151 -4 -336 l3 -335 1262 -734 1263 -734 1260 732 1260 732 0 927 0
928 -82 -49 c-295 -173 -1913 -1113 -1924 -1118 -12 -4 -14 39 -13 273 l0 279
1009 600 1009 600 0 325 1 325 -1254 743 c-689 408 -1260 742 -1267 742 -8 0
-579 -335 -1269 -745z"/>
</g>
</svg>
