<svg width="32" height="32" viewBox="0 0 32 32" fill="none" xmlns="http://www.w3.org/2000/svg">
<path fill-rule="evenodd" clip-rule="evenodd" d="M0 16C0 7.17733 7.17733 0 16 0C24.822 0 32 7.17733 32 16C32 24.8227 24.822 32 16 32C7.17733 32 0 24.8227 0 16ZM2.66667 16C2.66667 23.352 8.648 29.3333 16 29.3333C23.352 29.3333 29.3333 23.352 29.3333 16C29.3333 8.648 23.352 2.66667 16 2.66667C8.648 2.66667 2.66667 8.648 2.66667 16ZM17.3334 14.6667H21.3334C22.0694 14.6667 22.6667 15.264 22.6667 16C22.6667 16.736 22.0694 17.3333 21.3334 17.3333H17.3334V21.3333C17.3334 22.0693 16.736 22.6667 16 22.6667C15.264 22.6667 14.6667 22.0693 14.6667 21.3333V17.3333H10.6667C9.9307 17.3333 9.33337 16.736 9.33337 16C9.33337 15.264 9.9307 14.6667 10.6667 14.6667H14.6667V10.6667C14.6667 9.93068 15.264 9.33334 16 9.33334C16.736 9.33334 17.3334 9.93068 17.3334 10.6667V14.6667Z" fill="#3E6BEC"/>
</svg>
