<svg width="69" height="80" viewBox="0 0 69 80" fill="none" xmlns="http://www.w3.org/2000/svg">
<path d="M55.588 17.508L51.8164 22.352C57.1624 26.4958 60.8467 32.4182 62.201 39.0453C63.5554 45.6723 62.4902 52.5653 59.1986 58.4744C55.907 64.3836 50.607 68.9176 44.2595 71.2544C37.9119 73.5913 30.9371 73.5762 24.5997 71.212C18.2623 68.8478 12.9819 64.2909 9.71585 58.3677C6.44981 52.4444 5.41439 45.5469 6.79734 38.9257C8.18028 32.3046 11.89 26.3981 17.2539 22.2774C22.6179 18.1566 29.2808 16.0944 36.0347 16.4645L30.7281 22.0314L34.6644 25.7879L43.0411 16.9875L46.7938 13.0462L42.8638 9.30475L34.0697 0.926758L30.3144 4.86808L36.0423 10.3243C27.2568 9.92427 18.6518 12.9044 11.9955 18.6524C5.33925 24.4003 1.13739 32.4794 0.2534 41.2295C-0.630585 49.9795 1.87045 58.7358 7.24255 65.6989C12.6146 72.6621 20.4497 77.3031 29.1377 78.6683C30.9304 78.9516 32.7425 79.0941 34.5575 79.0945C41.7226 79.0767 48.7035 76.8228 54.5263 72.6472C60.349 68.4717 64.7232 62.5829 67.0387 55.8021C69.3542 49.0214 69.4954 41.6871 67.4427 34.8223C65.39 27.9575 61.2457 21.9046 55.588 17.508Z" fill="#FF6875"/>
<path d="M37.854 62.232V58.6993C42.043 58.2316 46.1176 55.5864 46.1176 50.5626C46.1176 43.7373 39.7712 42.9553 35.1359 42.3846C32.1727 42.03 29.9035 41.6189 29.9035 39.8236C29.9035 37.3268 33.4236 37.0578 34.9323 37.0578C37.1776 37.0578 39.5739 38.1138 40.3885 39.4603L40.6249 39.8526L45.2765 37.6977L45.0465 37.2288C44.3561 35.8638 43.3359 34.6927 42.0784 33.8218C40.8209 32.9509 39.3658 32.4077 37.8452 32.2415V29.1299H32.4015V32.2264C27.3262 32.9807 24.3114 35.7918 24.3114 39.8224C24.3114 46.3938 30.2781 47.0601 34.6318 47.5491C38.5115 48.0068 40.3169 48.9647 40.3169 50.5664C40.3169 53.6176 36.0914 53.8553 34.7965 53.8553C31.9137 53.8553 29.1391 52.417 28.3295 50.5061L28.1296 50.0346L23.0781 52.1756L23.2793 52.6471C24.7766 56.1534 28.0089 58.3498 32.4078 58.869V62.232H37.854Z" fill="#FF6875"/>
</svg>
