<svg width="102" height="66" viewBox="0 0 102 66" fill="none" xmlns="http://www.w3.org/2000/svg">
<path d="M101.328 33.9212C101.328 33.9023 101.328 33.8835 101.328 33.8646C101.32 33.2568 101.072 32.6769 100.638 32.2509C100.204 31.8248 99.6202 31.587 99.0124 31.5891H98.4039L88.9925 13.4099C88.7966 13.0327 88.5005 12.7169 88.1368 12.497C87.773 12.2772 87.3557 12.162 86.9307 12.164H70.8724L71.4847 7.30748C71.585 6.37885 71.487 5.43951 71.1972 4.55157C70.9074 3.66364 70.4324 2.84735 69.8036 2.15666C69.1748 1.46598 68.4066 0.916627 67.5497 0.544955C66.6928 0.173283 65.7668 -0.0122447 64.8328 0.000626712H14.9924C14.3834 0.00388188 13.7973 0.232589 13.3471 0.642608C12.897 1.05263 12.6146 1.61489 12.5546 2.22084L12.0518 6.22126H40.4519C40.887 6.21901 41.318 6.3045 41.7193 6.47263C42.1205 6.64077 42.4837 6.88807 42.7872 7.19978C43.0907 7.51149 43.3283 7.88119 43.4856 8.28679C43.643 8.69238 43.7169 9.12555 43.7031 9.56038C43.6754 10.4522 43.3029 11.2985 42.664 11.9213C42.025 12.5441 41.1694 12.8947 40.2772 12.8995H30.8054V12.9133H2.99614C2.36584 12.9166 1.76132 13.164 1.30957 13.6035C0.857817 14.0431 0.593992 14.6406 0.573511 15.2706C0.563356 15.5783 0.615409 15.8849 0.726554 16.172C0.837699 16.4592 1.00565 16.7209 1.22034 16.9416C1.43504 17.1623 1.69207 17.3374 1.97603 17.4564C2.25999 17.5753 2.56505 17.6358 2.87293 17.6341H39.6964C40.5335 17.7613 41.2949 18.191 41.8366 18.8418C42.3782 19.4926 42.6625 20.3193 42.6357 21.1656C42.6056 22.1165 42.2097 23.0191 41.5305 23.6852C40.8512 24.3513 39.9411 24.7296 38.9898 24.7411H13.6082C12.9702 24.7444 12.3583 24.9953 11.9017 25.4409C11.4451 25.8865 11.1793 26.492 11.1604 27.1298C11.1499 27.4407 11.2023 27.7505 11.3144 28.0406C11.4265 28.3308 11.5961 28.5954 11.8129 28.8184C12.0298 29.0415 12.2894 29.2184 12.5763 29.3387C12.8632 29.459 13.1714 29.5202 13.4825 29.5185H38.5712C39.4163 29.6349 40.1887 30.0595 40.74 30.7105C41.2913 31.3616 41.5827 32.1934 41.5583 33.0462C41.5283 34.0016 41.1291 34.9082 40.4444 35.5752C39.7598 36.2423 38.8431 36.6178 37.8872 36.6229H9.10865H6.6898C6.05177 36.6262 5.43996 36.8771 4.98332 37.3227C4.52669 37.7683 4.26092 38.3738 4.24202 39.0116C4.23153 39.3225 4.28391 39.6323 4.39604 39.9225C4.50817 40.2126 4.67773 40.4772 4.89456 40.7002C5.11139 40.9233 5.37103 41.1003 5.65791 41.2205C5.94479 41.3408 6.253 41.402 6.56407 41.4003H8.65103L7.83511 49.9417C7.73503 50.8702 7.83317 51.8094 8.12306 52.6972C8.41294 53.585 8.88796 54.4011 9.51671 55.0917C10.1455 55.7822 10.9136 56.3314 11.7704 56.703C12.6272 57.0746 13.5531 57.2601 14.487 57.2473H16.2885C16.7113 59.6674 17.9769 61.8599 19.8612 63.4363C21.7455 65.0128 24.127 65.8715 26.5837 65.8604C29.0826 65.8429 31.5026 64.9833 33.4525 63.4203C35.4024 61.8574 36.7682 59.6825 37.329 57.2473H59.7965C61.5899 57.2313 63.3201 56.5826 64.682 55.4155C65.9346 56.6089 67.6036 57.2661 69.3336 57.2473H69.7032C70.126 59.6674 71.3916 61.8599 73.2759 63.4363C75.1603 65.0128 77.5417 65.8715 79.9985 65.8604C82.4974 65.8429 84.9174 64.9833 86.8672 63.4203C88.8171 61.8574 90.1829 59.6825 90.7438 57.2473H92.2235C94.1308 57.2106 95.9591 56.479 97.3653 55.1899C98.7715 53.9008 99.6589 52.1429 99.861 50.2459L101.314 34.1537C101.314 34.1324 101.314 34.111 101.314 34.0884C101.314 34.0658 101.321 34.023 101.322 33.9891C101.323 33.9551 101.328 33.94 101.328 33.9212ZM26.7082 61.0868C25.9316 61.0902 25.1623 60.9371 24.4461 60.6368C23.7299 60.3364 23.0816 59.8948 22.5397 59.3385C21.9979 58.7821 21.5737 58.1223 21.2924 57.3984C21.0111 56.6745 20.8785 55.9014 20.9025 55.1251C20.9538 53.5334 21.6196 52.0233 22.7601 50.9118C23.9007 49.8003 25.4274 49.1737 27.02 49.1635C27.7966 49.1601 28.566 49.3131 29.2821 49.6135C29.9983 49.9139 30.6467 50.3554 31.1885 50.9118C31.7303 51.4682 32.1545 52.128 32.4358 52.8519C32.7171 53.5758 32.8497 54.3489 32.8258 55.1251C32.7744 56.7169 32.1086 58.2269 30.9681 59.3384C29.8275 60.45 28.3008 61.0766 26.7082 61.0868ZM80.1254 61.0868C79.3488 61.0902 78.5795 60.9371 77.8633 60.6368C77.1471 60.3364 76.4988 59.8948 75.957 59.3385C75.4151 58.7821 74.9909 58.1223 74.7096 57.3984C74.4283 56.6745 74.2957 55.9014 74.3197 55.1251C74.371 53.5334 75.0368 52.0233 76.1774 50.9118C77.3179 49.8003 78.8447 49.1737 80.4372 49.1635C81.2138 49.1601 81.9832 49.3131 82.6994 49.6135C83.4155 49.9139 84.0639 50.3554 84.6057 50.9118C85.1475 51.4682 85.5718 52.128 85.8531 52.8519C86.1344 53.5758 86.267 54.3489 86.243 55.1251C86.1917 56.7169 85.5259 58.2269 84.3853 59.3384C83.2447 60.45 81.718 61.0766 80.1254 61.0868ZM95.1151 49.9367C95.0351 50.621 94.7118 51.2538 94.204 51.7196C93.6962 52.1854 93.0379 52.453 92.3492 52.4737H90.75C90.2222 50.1708 88.9263 48.1161 87.0756 46.6476C85.2248 45.1791 82.9293 44.3842 80.5667 44.3937C78.1618 44.4104 75.8272 45.2071 73.9138 46.6641C72.0004 48.1211 70.6116 50.1598 69.9559 52.4737H69.4644C69.1797 52.4801 68.8968 52.4265 68.6343 52.3162C68.3717 52.206 68.1354 52.0416 67.9406 51.8338C67.75 51.6185 67.6067 51.3656 67.52 51.0914C67.4334 50.8172 67.4054 50.5279 67.4378 50.2422L70.445 16.9263H77.3508L76.257 29.0583C76.1568 29.9869 76.2548 30.9263 76.5446 31.8142C76.8344 32.7021 77.3093 33.5184 77.9381 34.2091C78.5669 34.8998 79.3351 35.4492 80.192 35.8208C81.0489 36.1925 81.9749 36.378 82.9089 36.3652H96.3396L95.1151 49.9367Z" fill="#FF6875"/>
</svg>
