<svg width="315" height="329" viewBox="0 0 315 329" fill="none" xmlns="http://www.w3.org/2000/svg">
<path d="M1.65428 284.361C1.98033 284.338 2.21323 284.058 2.18994 283.754L1.77073 276.758C1.74744 276.431 1.46796 276.222 1.1652 276.198C0.839143 276.222 0.606244 276.501 0.629533 276.805L1.04875 283.801C1.07204 284.104 1.32822 284.361 1.63099 284.361H1.65428Z" fill="black"/>
<path d="M2.46873 298.308C2.79479 298.285 3.02769 298.005 3.0044 297.702L2.58518 290.705C2.56189 290.379 2.28241 290.169 1.97965 290.146C1.65359 290.169 1.4207 290.449 1.44399 290.752L1.8632 297.748C1.88649 298.052 2.14268 298.308 2.44544 298.308C2.46873 298.308 2.46873 298.308 2.46873 298.308Z" fill="black"/>
<path d="M0.839107 270.392C1.16516 270.368 1.39806 270.088 1.37477 269.785L1.3049 268.782C1.28161 268.456 1.00214 268.223 0.699371 268.223C0.373318 268.246 0.140423 268.526 0.163713 268.829L0.233579 269.832C0.256868 270.135 0.513053 270.392 0.815817 270.392H0.839107Z" fill="black"/>
<path d="M3.3076 312.277C3.63365 312.254 3.86655 311.974 3.84326 311.671L3.42405 304.674C3.40076 304.347 3.12128 304.138 2.81851 304.114C2.49246 304.138 2.25956 304.417 2.28285 304.721L2.70207 311.717C2.72536 312.02 2.98154 312.277 3.28431 312.277C3.28431 312.277 3.28431 312.277 3.3076 312.277Z" fill="black"/>
<path d="M41.3163 279.044L38.4982 282.635C38.3119 282.892 38.3352 283.265 38.5914 283.451C38.7078 283.545 38.8243 283.568 38.9407 283.568C39.1038 283.568 39.2901 283.498 39.4065 283.335L42.2246 279.743C42.4109 279.487 42.3876 279.114 42.1314 278.927C41.8985 278.74 41.5259 278.787 41.3163 279.044Z" fill="black"/>
<path d="M34.213 288.139L29.9045 293.643C29.7181 293.9 29.7414 294.273 29.9976 294.459C30.1141 294.553 30.2305 294.576 30.347 294.576C30.51 294.576 30.6963 294.506 30.8128 294.343L35.1213 288.839C35.3077 288.582 35.2844 288.209 35.0282 288.023C34.772 287.836 34.3994 287.883 34.213 288.139Z" fill="black"/>
<path d="M25.5968 299.17L21.2883 304.673C21.1019 304.93 21.1252 305.303 21.3814 305.49C21.4979 305.583 21.6143 305.606 21.7308 305.606C21.8938 305.606 22.0801 305.536 22.1965 305.373L26.5051 299.869C26.6914 299.613 26.6682 299.24 26.412 299.053C26.1558 298.866 25.8064 298.913 25.5968 299.17Z" fill="black"/>
<path d="M8.38419 321.209L5.93878 324.358C5.96207 324.311 5.96207 324.288 5.96207 324.241C6.05523 323.938 5.86892 323.611 5.56615 323.518C5.2401 323.425 4.93733 323.611 4.84417 323.914C4.75102 324.241 4.68115 324.474 4.61128 324.754L4.26193 318.644C4.23864 318.317 3.95917 318.107 3.6564 318.084C3.33035 318.107 3.09745 318.387 3.12074 318.69L3.53995 325.687C3.56324 325.99 3.81943 326.247 4.12219 326.247H4.14548C4.19206 326.247 4.21536 326.2 4.26193 326.2C4.21536 326.41 4.16877 326.573 4.12219 326.713C4.02904 326.853 3.98246 327.016 4.00575 327.156C3.98246 327.203 3.98246 327.296 3.98246 327.296C3.91259 327.599 4.09891 327.926 4.40167 327.996C4.44825 327.996 4.49483 328.019 4.54141 328.019C4.79759 328.019 5.05378 327.832 5.10036 327.576C5.10036 327.576 5.12365 327.436 5.19352 327.249L9.33907 321.932C9.52539 321.675 9.5021 321.302 9.24591 321.116C8.94314 320.929 8.57051 320.953 8.38419 321.209Z" fill="black"/>
<path d="M17.0021 310.202L12.6935 315.706C12.5072 315.962 12.5305 316.335 12.7867 316.522C12.9031 316.615 13.0196 316.639 13.136 316.639C13.2991 316.639 13.4854 316.569 13.6018 316.405L17.9104 310.901C18.0967 310.645 18.0734 310.272 17.8172 310.085C17.5611 309.899 17.1884 309.945 17.0021 310.202Z" fill="black"/>
<path d="M32.5131 258.871C32.2336 258.707 31.8843 258.824 31.7212 259.104C30.58 261.179 29.4621 263.255 28.4141 265.307C28.2744 265.587 28.3675 265.937 28.6703 266.1C28.7634 266.147 28.8566 266.17 28.9498 266.17C29.1594 266.17 29.369 266.054 29.4621 265.867C30.5335 263.838 31.6281 261.762 32.7693 259.687C32.8857 259.384 32.7926 259.034 32.5131 258.871Z" fill="black"/>
<path d="M14.65 296.955C14.3473 296.838 14.0212 296.978 13.9048 297.281C12.9965 299.567 12.1813 301.759 11.4128 303.858C11.2963 304.161 11.4593 304.488 11.7621 304.605C11.832 304.628 11.9018 304.651 11.9717 304.651C12.2046 304.651 12.4375 304.511 12.5074 304.278C13.2759 302.202 14.0911 300.01 14.9994 297.725C15.0925 297.421 14.9295 297.072 14.65 296.955Z" fill="black"/>
<path d="M19.2843 284.314C18.3062 286.529 17.3979 288.675 16.5129 290.774C16.3964 291.077 16.5362 291.403 16.8156 291.543C16.8855 291.567 16.9554 291.59 17.0485 291.59C17.2814 291.59 17.491 291.45 17.5842 291.24C18.4459 289.141 19.3775 286.996 20.3324 284.803C20.4721 284.5 20.3324 284.174 20.0296 284.034C19.7734 283.871 19.4241 284.01 19.2843 284.314Z" fill="black"/>
<path d="M63.5574 212.903C62.0203 214.653 60.5065 216.472 59.0392 218.267C58.8296 218.524 58.8762 218.874 59.1324 219.084C59.2488 219.177 59.3653 219.224 59.505 219.224C59.6681 219.224 59.8311 219.154 59.9475 219.014C61.4148 217.218 62.9286 215.422 64.4424 213.673C64.652 213.44 64.6287 213.067 64.3958 212.857C64.1397 212.647 63.767 212.67 63.5574 212.903Z" fill="black"/>
<path d="M54.6618 223.795C53.2178 225.661 51.8204 227.55 50.4463 229.415C50.26 229.672 50.3066 230.045 50.5628 230.232C50.6559 230.302 50.7957 230.348 50.9121 230.348C51.0984 230.348 51.2615 230.255 51.3779 230.115C52.7287 228.249 54.1261 226.36 55.5701 224.518C55.7564 224.261 55.7098 223.888 55.4536 223.702C55.244 223.492 54.8714 223.538 54.6618 223.795Z" fill="black"/>
<path d="M46.4171 235.153C45.0895 237.112 43.7853 239.047 42.5277 241.006C42.3414 241.286 42.4345 241.636 42.6907 241.823C42.7839 241.893 42.9003 241.916 43.0168 241.916C43.2031 241.916 43.3894 241.823 43.5059 241.659C44.7635 239.724 46.0444 237.788 47.3952 235.829C47.5815 235.572 47.5117 235.199 47.2555 235.013C46.9527 234.826 46.6034 234.896 46.4171 235.153Z" fill="black"/>
<path d="M39.569 246.766C39.2895 246.603 38.9402 246.673 38.7772 246.953C37.5428 248.982 36.3318 250.988 35.1906 252.993C35.0275 253.273 35.1207 253.623 35.4002 253.786C35.4933 253.833 35.5865 253.856 35.7029 253.856C35.9125 253.856 36.0989 253.763 36.2153 253.576C37.3798 251.571 38.5676 249.565 39.8019 247.559C39.9416 247.28 39.8485 246.93 39.569 246.766Z" fill="black"/>
<path d="M311.127 10.658C310.824 10.5647 310.498 10.728 310.382 11.0312C309.66 13.2001 308.775 15.3457 307.773 17.398C307.633 17.6779 307.75 18.0277 308.029 18.1676C308.122 18.2143 308.192 18.2376 308.285 18.2376C308.495 18.2376 308.705 18.121 308.798 17.9111C309.823 15.8121 310.731 13.6199 311.476 11.4043C311.593 11.1011 311.43 10.7513 311.127 10.658Z" fill="black"/>
<path d="M171.156 137.993C171.18 137.993 171.203 137.993 171.249 137.993C171.575 137.947 171.785 137.643 171.738 137.34C171.412 134.961 171.18 132.653 171.086 130.414C171.063 130.087 170.784 129.831 170.481 129.854C170.155 129.877 169.922 130.134 169.922 130.46C170.015 132.723 170.248 135.078 170.597 137.48C170.621 137.783 170.877 137.993 171.156 137.993Z" fill="black"/>
<path d="M170.528 124.024C170.551 124.024 170.551 124.024 170.574 124.024C170.877 124.024 171.133 123.791 171.156 123.488C171.319 121.156 171.645 118.87 172.088 116.678C172.158 116.375 171.948 116.048 171.645 115.978C171.343 115.908 171.017 116.118 170.947 116.421C170.481 118.66 170.155 121.016 169.992 123.395C169.969 123.721 170.201 124.001 170.528 124.024Z" fill="black"/>
<path d="M173.229 110.428C173.299 110.451 173.369 110.474 173.439 110.474C173.672 110.474 173.905 110.334 173.974 110.101C174.766 107.956 175.744 105.857 176.886 103.874C177.049 103.594 176.956 103.245 176.676 103.081C176.397 102.918 176.047 103.011 175.884 103.291C174.72 105.344 173.718 107.489 172.903 109.681C172.787 109.961 172.926 110.311 173.229 110.428Z" fill="black"/>
<path d="M180.262 98.3708C180.425 98.3708 180.611 98.3008 180.728 98.1376C182.102 96.3884 183.662 94.6626 185.339 93.0068C185.572 92.7736 185.572 92.4238 185.339 92.1905C185.106 91.9573 184.757 91.9573 184.524 92.1905C182.801 93.8697 181.217 95.6421 179.82 97.4379C179.61 97.6945 179.656 98.0676 179.913 98.2542C180.006 98.3241 180.122 98.3708 180.262 98.3708Z" fill="black"/>
<path d="M178.283 152.873C178.306 152.873 178.306 152.873 178.33 152.873C180.659 152.663 182.988 152.523 185.293 152.406C185.619 152.383 185.852 152.126 185.852 151.8C185.829 151.473 185.549 151.24 185.247 151.24C182.941 151.334 180.589 151.497 178.236 151.707C177.91 151.73 177.678 152.01 177.701 152.336C177.724 152.64 177.98 152.873 178.283 152.873Z" fill="black"/>
<path d="M73.1059 202.618C71.4757 204.274 69.8454 205.977 68.2384 207.703C68.0288 207.936 68.0288 208.309 68.2617 208.519C68.3781 208.612 68.5179 208.682 68.6576 208.682C68.8206 208.682 68.9604 208.612 69.0768 208.495C70.6605 206.793 72.2908 205.09 73.8978 203.458C74.1307 203.225 74.1307 202.852 73.8978 202.642C73.7115 202.385 73.3388 202.385 73.1059 202.618Z" fill="black"/>
<path d="M304.349 23.3678C303.092 25.2568 301.694 27.0993 300.181 28.8717C299.971 29.1282 299.994 29.4781 300.25 29.688C300.367 29.7812 300.507 29.8279 300.623 29.8279C300.786 29.8279 300.949 29.7579 301.066 29.618C302.603 27.8222 304.047 25.9332 305.328 23.9975C305.514 23.7176 305.421 23.3678 305.165 23.1812C304.885 23.0413 304.512 23.1112 304.349 23.3678Z" fill="black"/>
<path d="M295.382 33.8869C293.728 35.4261 291.958 36.942 290.095 38.3879C289.839 38.5745 289.793 38.9477 290.002 39.2042C290.119 39.3441 290.282 39.4374 290.468 39.4374C290.584 39.4374 290.724 39.3908 290.817 39.3208C292.704 37.8515 294.52 36.3123 296.174 34.7498C296.407 34.5399 296.43 34.1667 296.197 33.9335C295.988 33.677 295.615 33.6536 295.382 33.8869Z" fill="black"/>
<path d="M22.708 278.74C22.9176 278.74 23.1272 278.624 23.2436 278.414C24.1985 276.338 25.2232 274.239 26.2713 272.094C26.411 271.814 26.2946 271.464 26.0151 271.324C25.7356 271.184 25.3863 271.301 25.2465 271.58C24.1985 273.726 23.1738 275.848 22.2189 277.924C22.0791 278.204 22.2189 278.554 22.4984 278.694C22.5449 278.717 22.6381 278.74 22.708 278.74Z" fill="black"/>
<path d="M9.78194 310.132C9.47917 310.015 9.15312 310.202 9.03667 310.505C8.19824 312.977 7.45297 315.216 6.84744 317.198C6.75428 317.501 6.91731 317.828 7.22008 317.921C7.28995 317.945 7.33653 317.945 7.4064 317.945C7.66258 317.945 7.89548 317.781 7.96535 317.548C8.59417 315.566 9.31614 313.35 10.1546 310.878C10.2477 310.575 10.0847 310.248 9.78194 310.132Z" fill="black"/>
<path d="M94.23 184.102C92.3668 185.501 90.5037 186.947 88.6871 188.44C88.4309 188.65 88.4076 189.023 88.5939 189.256C88.7104 189.396 88.8734 189.466 89.0364 189.466C89.1762 189.466 89.2926 189.419 89.4091 189.326C91.2023 187.857 93.0655 186.411 94.9054 185.035C95.1616 184.848 95.2082 184.475 95.0218 184.218C94.8588 183.962 94.4862 183.915 94.23 184.102Z" fill="black"/>
<path d="M209.422 166.727C209.119 166.61 208.793 166.796 208.676 167.1C207.978 169.152 206.79 171.158 205.23 172.883C205.02 173.117 205.043 173.49 205.276 173.7C205.393 173.793 205.532 173.84 205.672 173.84C205.835 173.84 205.998 173.77 206.115 173.653C207.768 171.811 209.049 169.688 209.794 167.473C209.911 167.17 209.748 166.843 209.422 166.727Z" fill="black"/>
<path d="M208.583 76.7748C208.443 76.4949 208.094 76.3783 207.814 76.5183C205.602 77.6144 203.529 78.7105 201.596 79.8066C201.316 79.9699 201.223 80.3197 201.363 80.5996C201.479 80.7862 201.666 80.9028 201.875 80.9028C201.969 80.9028 202.062 80.8794 202.155 80.8328C204.065 79.76 206.137 78.6639 208.327 77.5677C208.606 77.4278 208.723 77.078 208.583 76.7748Z" fill="black"/>
<path d="M199.849 176.825C197.706 177.758 195.494 178.084 193.328 177.781C193.002 177.734 192.722 177.968 192.676 178.271C192.629 178.597 192.862 178.877 193.165 178.924C193.747 179.017 194.353 179.04 194.935 179.04C196.752 179.04 198.545 178.644 200.315 177.874C200.618 177.758 200.734 177.408 200.618 177.105C200.478 176.848 200.129 176.708 199.849 176.825Z" fill="black"/>
<path d="M205.998 154.343C205.741 154.156 205.369 154.226 205.182 154.483C204.996 154.739 205.066 155.112 205.322 155.299C207.255 156.652 208.513 158.424 209.072 160.546C209.142 160.803 209.375 160.989 209.631 160.989C209.677 160.989 209.724 160.989 209.77 160.966C210.073 160.873 210.26 160.57 210.19 160.266C209.584 157.841 208.163 155.859 205.998 154.343Z" fill="black"/>
<path d="M199.103 152.803C199.15 152.803 199.173 152.803 199.22 152.803C199.499 152.803 199.732 152.616 199.802 152.337C199.872 152.01 199.662 151.707 199.336 151.66C197.357 151.264 195.144 151.077 192.745 151.077H192.28C191.953 151.077 191.697 151.334 191.697 151.66C191.697 151.987 191.953 152.243 192.28 152.243H192.745C195.074 152.243 197.217 152.43 199.103 152.803Z" fill="black"/>
<path d="M259.703 55.2492C257.56 56.1587 255.418 57.0449 253.252 57.9312C252.949 58.0478 252.809 58.3976 252.926 58.7008C253.019 58.934 253.228 59.0739 253.461 59.0739C253.531 59.0739 253.601 59.0506 253.671 59.0273C255.837 58.1411 258.003 57.2548 260.145 56.3453C260.448 56.2287 260.588 55.8789 260.448 55.5757C260.332 55.2492 260.006 55.1326 259.703 55.2492Z" fill="black"/>
<path d="M272.372 49.3722C270.393 50.375 268.273 51.4012 266.084 52.404C265.781 52.544 265.665 52.8938 265.805 53.1736C265.898 53.3835 266.108 53.5235 266.34 53.5235C266.434 53.5235 266.503 53.5001 266.573 53.4768C268.763 52.4507 270.905 51.4245 272.908 50.4217C273.188 50.2818 273.304 49.9319 273.164 49.6287C273.025 49.3256 272.675 49.2323 272.372 49.3722Z" fill="black"/>
<path d="M196.355 83.6082C196.169 83.3283 195.82 83.2584 195.54 83.4449C193.491 84.7743 191.558 86.1736 189.811 87.5496C189.555 87.7361 189.508 88.1093 189.718 88.3658C189.834 88.5058 189.997 88.599 190.184 88.599C190.3 88.599 190.44 88.5524 190.533 88.4824C192.257 87.1298 194.166 85.7538 196.192 84.4478C196.472 84.2379 196.542 83.8881 196.355 83.6082Z" fill="black"/>
<path d="M220.6 70.7347C218.271 71.7142 216.152 72.6238 214.149 73.5333C213.846 73.6732 213.729 73.9997 213.869 74.3029C213.962 74.5128 214.172 74.6527 214.405 74.6527C214.475 74.6527 214.568 74.6294 214.638 74.6061C216.641 73.7199 218.737 72.8103 221.066 71.8308C221.368 71.7142 221.508 71.3644 221.369 71.0612C221.252 70.7347 220.903 70.5948 220.6 70.7347Z" fill="black"/>
<path d="M233.642 65.5331C231.453 66.3727 229.263 67.2356 227.097 68.0752C226.795 68.1918 226.655 68.5416 226.771 68.8215C226.864 69.0547 227.074 69.1946 227.307 69.1946C227.377 69.1946 227.447 69.1713 227.517 69.148C229.683 68.2851 231.848 67.4455 234.038 66.6059C234.34 66.4893 234.48 66.1628 234.364 65.8596C234.271 65.5564 233.945 65.4165 233.642 65.5331Z" fill="black"/>
<path d="M246.732 60.4966C244.566 61.3361 242.376 62.1757 240.187 63.0153C239.884 63.1319 239.745 63.4584 239.861 63.7616C239.954 63.9948 240.164 64.1347 240.397 64.1347C240.467 64.1347 240.537 64.1347 240.606 64.0881C242.796 63.2485 244.985 62.4089 247.151 61.5693C247.454 61.4527 247.593 61.1029 247.477 60.8231C247.36 60.5432 247.034 60.4033 246.732 60.4966Z" fill="black"/>
<path d="M178.492 161.853C177.933 160.383 177.398 158.961 176.885 157.538C176.769 157.235 176.443 157.072 176.14 157.188C175.837 157.305 175.674 157.631 175.791 157.935C176.28 159.357 176.815 160.803 177.398 162.272C177.7 163.042 178.003 163.788 178.329 164.511C178.422 164.721 178.632 164.861 178.865 164.861C178.935 164.861 179.028 164.838 179.098 164.814C179.401 164.674 179.517 164.348 179.401 164.045C179.075 163.345 178.772 162.622 178.492 161.853Z" fill="black"/>
<path d="M124.25 166.027C123.971 166.167 123.831 166.517 123.971 166.796C124.064 167.006 124.274 167.123 124.507 167.123C124.6 167.123 124.67 167.1 124.763 167.076C126.859 166.097 129.001 165.164 131.144 164.278C131.447 164.161 131.587 163.811 131.47 163.508C131.354 163.205 131.004 163.065 130.702 163.182C128.512 164.091 126.346 165.047 124.25 166.027Z" fill="black"/>
<path d="M117.94 169.129C115.891 170.201 113.818 171.321 111.792 172.51C111.512 172.674 111.419 173.023 111.582 173.303C111.699 173.49 111.885 173.606 112.095 173.606C112.188 173.606 112.281 173.583 112.374 173.536C114.4 172.37 116.45 171.251 118.499 170.178C118.779 170.038 118.895 169.688 118.755 169.385C118.592 169.082 118.22 168.965 117.94 169.129Z" fill="black"/>
<path d="M284.46 42.4225C282.597 43.6585 280.617 44.8713 278.521 46.0607C278.242 46.2239 278.149 46.5737 278.312 46.8536C278.428 47.0402 278.614 47.1568 278.824 47.1568C278.917 47.1568 279.01 47.1335 279.104 47.0868C281.2 45.8741 283.226 44.638 285.112 43.402C285.392 43.2154 285.462 42.8656 285.275 42.5857C285.089 42.3059 284.716 42.2359 284.46 42.4225Z" fill="black"/>
<path d="M105.782 176.126C103.849 177.362 101.869 178.668 99.9364 179.997C99.6802 180.184 99.6104 180.534 99.7967 180.813C99.9131 180.977 100.099 181.07 100.286 181.07C100.402 181.07 100.519 181.047 100.612 180.977C102.545 179.647 104.501 178.341 106.434 177.129C106.714 176.965 106.784 176.592 106.621 176.336C106.411 176.032 106.062 175.962 105.782 176.126Z" fill="black"/>
<path d="M143.861 158.424C141.626 159.124 139.39 159.87 137.201 160.663C136.898 160.78 136.735 161.106 136.851 161.409C136.944 161.643 137.154 161.806 137.41 161.806C137.48 161.806 137.55 161.806 137.597 161.783C139.762 160.99 141.998 160.243 144.187 159.567C144.49 159.474 144.677 159.147 144.56 158.844C144.514 158.494 144.187 158.331 143.861 158.424Z" fill="black"/>
<path d="M157.438 154.855C155.179 155.345 152.874 155.905 150.615 156.488C150.312 156.581 150.125 156.884 150.195 157.211C150.265 157.467 150.498 157.654 150.754 157.654C150.801 157.654 150.847 157.654 150.894 157.631C153.153 157.048 155.436 156.488 157.671 155.998C157.974 155.928 158.184 155.625 158.114 155.299C158.044 154.972 157.741 154.785 157.438 154.855Z" fill="black"/>
<path d="M172.297 143.73C171.994 143.8 171.784 144.104 171.854 144.43C172.343 146.646 172.949 148.954 173.624 151.24C173.694 151.497 173.927 151.66 174.183 151.66C174.23 151.66 174.3 151.66 174.346 151.636C174.649 151.543 174.835 151.217 174.742 150.914C174.067 148.628 173.485 146.366 172.995 144.174C172.926 143.847 172.623 143.66 172.297 143.73Z" fill="black"/>
<path d="M182.685 170.108C182.499 169.828 182.149 169.781 181.87 169.944C181.614 170.131 181.544 170.481 181.707 170.761C183.174 172.93 184.804 174.702 186.528 176.031C186.621 176.125 186.761 176.148 186.877 176.148C187.04 176.148 187.226 176.078 187.343 175.915C187.529 175.658 187.483 175.285 187.226 175.099C185.643 173.863 184.082 172.16 182.685 170.108Z" fill="black"/>
<path d="M83.3312 192.963C81.5845 194.502 79.8378 196.088 78.1377 197.698C77.9048 197.907 77.9048 198.281 78.1144 198.514C78.2308 198.63 78.3938 198.7 78.5336 198.7C78.6733 198.7 78.8131 198.654 78.9295 198.537C80.6064 196.951 82.3531 195.365 84.0998 193.826C84.3327 193.616 84.356 193.243 84.1464 193.01C83.9368 192.777 83.5874 192.753 83.3312 192.963Z" fill="black"/>
<path d="M171.273 152.454C168.944 152.757 166.615 153.107 164.333 153.503C164.007 153.55 163.797 153.853 163.867 154.18C163.914 154.46 164.17 154.669 164.449 154.669C164.472 154.669 164.519 154.669 164.542 154.669C166.801 154.273 169.107 153.923 171.436 153.643C171.762 153.597 171.972 153.317 171.948 152.99C171.879 152.64 171.576 152.431 171.273 152.454Z" fill="black"/>
<path d="M313.502 -0.000186102C313.176 -0.0235078 312.896 0.186387 312.85 0.489569C312.687 1.63233 312.5 2.77509 312.267 3.91786C312.197 4.24436 312.407 4.54754 312.733 4.59419C312.78 4.59419 312.803 4.59419 312.85 4.59419C313.129 4.59419 313.362 4.40761 313.432 4.12775C313.665 2.98499 313.851 1.79558 314.014 0.629499C314.037 0.349639 313.828 0.0464573 313.502 -0.000186102Z" fill="black"/>
</svg>
