<svg width="262" height="246" viewBox="0 0 262 246" fill="none" xmlns="http://www.w3.org/2000/svg">
<path d="M261.515 179.391C261.182 179.314 260.824 179.544 260.747 179.877L259.928 183.637C259.851 183.97 260.081 184.328 260.414 184.404C260.465 184.404 260.517 184.43 260.542 184.43C260.849 184.43 261.105 184.225 261.156 183.918L261.975 180.158C262.078 179.826 261.847 179.468 261.515 179.391Z" fill="black"/>
<path d="M251.686 224.462C251.328 224.385 250.995 224.616 250.918 224.948L249.127 233.21C249.05 233.568 249.281 233.901 249.613 233.978C249.665 233.978 249.716 234.003 249.741 234.003C250.048 234.003 250.304 233.799 250.355 233.492L252.147 225.229C252.249 224.871 252.019 224.539 251.686 224.462Z" fill="black"/>
<path d="M258.904 191.413C258.546 191.337 258.213 191.567 258.136 191.899L256.345 200.162C256.268 200.52 256.498 200.852 256.831 200.929C256.882 200.929 256.934 200.954 256.959 200.954C257.266 200.954 257.522 200.75 257.573 200.443L259.365 192.181C259.441 191.823 259.237 191.49 258.904 191.413Z" fill="black"/>
<path d="M255.295 207.938C254.936 207.861 254.604 208.091 254.527 208.424L252.736 216.686C252.659 217.044 252.889 217.377 253.222 217.453C253.273 217.453 253.324 217.479 253.35 217.479C253.657 217.479 253.913 217.274 253.964 216.967L255.755 208.705C255.858 208.347 255.627 208.014 255.295 207.938Z" fill="black"/>
<path d="M248.079 240.986C247.721 240.91 247.388 241.14 247.312 241.472L247.209 241.907C247.184 241.754 247.158 241.6 247.132 241.447C247.081 241.089 246.748 240.858 246.39 240.91C246.032 240.961 245.802 241.293 245.853 241.651C245.93 242.035 245.981 242.444 246.032 242.828L243.038 238.787C242.833 238.505 242.424 238.454 242.142 238.659C241.861 238.863 241.809 239.273 242.014 239.554L246.569 245.744C246.569 245.77 246.595 245.744 246.621 245.77C246.723 245.898 246.876 246 247.056 246C247.056 246 247.056 246 247.081 246C247.209 246 247.337 245.949 247.465 245.872C247.593 245.795 247.67 245.667 247.695 245.514L248.514 241.779C248.642 241.396 248.412 241.063 248.079 240.986Z" fill="black"/>
<path d="M98.6024 35.7342C98.2953 35.5551 97.9114 35.683 97.7323 35.99C97.5531 36.2969 97.6811 36.6806 97.9882 36.8597C100.215 38.0619 102.467 39.3409 104.719 40.6199C104.821 40.6711 104.923 40.6966 105.026 40.6966C105.256 40.6966 105.461 40.5943 105.589 40.3897C105.768 40.0827 105.665 39.699 105.358 39.52C103.106 38.2154 100.854 36.962 98.6024 35.7342Z" fill="black"/>
<path d="M112.037 43.4602C111.73 43.2811 111.346 43.3834 111.167 43.6648C110.988 43.9718 111.09 44.3555 111.372 44.5345C113.547 45.8647 115.748 47.2204 117.923 48.6017C118.026 48.6784 118.154 48.704 118.256 48.704C118.461 48.704 118.665 48.6017 118.793 48.3971C118.972 48.0901 118.896 47.7064 118.589 47.5018C116.413 46.146 114.238 44.7647 112.037 43.4602Z" fill="black"/>
<path d="M84.8334 28.6236C84.5263 28.4701 84.1424 28.598 83.9889 28.905C83.8353 29.212 83.9633 29.5957 84.2704 29.7491C86.548 30.8746 88.8512 32.0257 91.1799 33.228C91.2823 33.2791 91.3847 33.3047 91.4614 33.3047C91.6918 33.3047 91.9221 33.1768 92.0244 32.9722C92.178 32.6652 92.0756 32.2815 91.7429 32.1025C89.4398 30.9002 87.1366 29.7491 84.8334 28.6236Z" fill="black"/>
<path d="M137.73 60.7514C137.449 60.5468 137.039 60.5979 136.834 60.8793C136.63 61.1607 136.681 61.57 136.962 61.7746C139.01 63.3094 141.057 64.8698 143.079 66.4557C143.207 66.558 143.335 66.5836 143.463 66.5836C143.642 66.5836 143.846 66.5069 143.974 66.3278C144.205 66.0464 144.154 65.6371 143.872 65.4325C141.825 63.8466 139.777 62.2862 137.73 60.7514Z" fill="black"/>
<path d="M70.7851 22.1269C70.4524 21.999 70.0942 22.1269 69.9406 22.4595C69.7871 22.792 69.9406 23.1501 70.2733 23.3036C72.6021 24.3268 74.9308 25.3755 77.3108 26.4755C77.3876 26.5266 77.4899 26.5266 77.5667 26.5266C77.797 26.5266 78.0274 26.3987 78.1553 26.1429C78.3089 25.836 78.1553 25.4523 77.8482 25.2988C75.4683 24.1989 73.1139 23.1245 70.7851 22.1269Z" fill="black"/>
<path d="M149.913 70.3189C149.657 70.0887 149.248 70.1398 149.017 70.3956C148.787 70.677 148.838 71.0607 149.094 71.2909C151.064 72.928 153.009 74.5907 154.954 76.3046C155.082 76.4069 155.236 76.458 155.364 76.458C155.543 76.458 155.722 76.3813 155.85 76.2534C156.08 75.9976 156.055 75.5883 155.799 75.3581C153.854 73.6443 151.883 71.956 149.913 70.3189Z" fill="black"/>
<path d="M125.089 51.7988C124.808 51.5941 124.398 51.6709 124.193 51.9778C123.989 52.2592 124.065 52.6685 124.372 52.8731C126.497 54.3056 128.595 55.7636 130.719 57.2473C130.821 57.324 130.949 57.3752 131.077 57.3752C131.282 57.3752 131.487 57.2728 131.589 57.0938C131.794 56.8124 131.717 56.4031 131.436 56.1985C129.337 54.6893 127.213 53.2057 125.089 51.7988Z" fill="black"/>
<path d="M237.816 204.612C237.868 204.612 237.944 204.612 237.996 204.586C238.328 204.484 238.533 204.126 238.431 203.793C237.688 201.312 236.921 198.831 236.102 196.401C235.999 196.068 235.616 195.864 235.283 195.992C234.95 196.094 234.771 196.452 234.873 196.81C235.667 199.24 236.435 201.67 237.177 204.152C237.279 204.433 237.535 204.612 237.816 204.612Z" fill="black"/>
<path d="M245.135 234.592C245.187 234.592 245.212 234.592 245.263 234.592C245.622 234.515 245.826 234.183 245.775 233.85C245.289 231.292 244.777 228.76 244.214 226.278C244.137 225.92 243.805 225.716 243.446 225.792C243.114 225.869 242.883 226.202 242.96 226.56C243.498 229.041 244.009 231.573 244.496 234.106C244.572 234.387 244.828 234.592 245.135 234.592Z" fill="black"/>
<path d="M19.6027 4.22094C16.8133 3.50471 14.2798 2.86522 12.0534 2.35363C11.6951 2.25131 11.3624 2.48153 11.2856 2.81406C11.2089 3.17218 11.4136 3.50471 11.7463 3.58145C13.9727 4.11863 16.4806 4.73254 19.2444 5.44877C19.2956 5.44877 19.3468 5.47435 19.398 5.47435C19.6795 5.47435 19.9354 5.29529 20.0122 4.98834C20.1401 4.6558 19.9354 4.32326 19.6027 4.22094Z" fill="black"/>
<path d="M63.6457 19.1081C61.2146 18.1104 58.809 17.1384 56.4546 16.2431C56.122 16.1152 55.7637 16.2687 55.6357 16.6012C55.5078 16.9338 55.6613 17.2919 55.994 17.4198C58.3484 18.3151 60.7283 19.2871 63.1595 20.2847C63.2362 20.3103 63.313 20.3359 63.4154 20.3359C63.6713 20.3359 63.9016 20.1824 64.004 19.9266C64.1319 19.5941 63.9784 19.2359 63.6457 19.1081Z" fill="black"/>
<path d="M49.1852 13.5056C46.6773 12.6104 44.2462 11.7406 41.8662 10.9477C41.5335 10.8198 41.1753 11.0244 41.0473 11.357C40.9193 11.6895 41.1241 12.0476 41.4568 12.1755C43.8111 12.9685 46.2423 13.8126 48.7502 14.7335C48.8269 14.7591 48.9037 14.7591 48.9549 14.7591C49.2108 14.7591 49.4667 14.6056 49.5435 14.3242C49.697 13.9917 49.5179 13.6335 49.1852 13.5056Z" fill="black"/>
<path d="M34.497 8.54311C31.9124 7.72456 29.43 6.98275 27.0757 6.2921C26.743 6.18978 26.3847 6.39442 26.2823 6.72696C26.18 7.05949 26.3847 7.41761 26.7174 7.51993C29.0718 8.185 31.5285 8.95239 34.1132 9.74536C34.1644 9.77094 34.2411 9.77094 34.3179 9.77094C34.5994 9.77094 34.8553 9.59188 34.9321 9.33609C35.0344 9.00355 34.8297 8.64543 34.497 8.54311Z" fill="black"/>
<path d="M161.557 80.5241C161.301 80.2939 160.891 80.2939 160.661 80.5497C160.431 80.8055 160.431 81.2147 160.686 81.445C162.555 83.1844 164.423 84.9494 166.291 86.7399C166.419 86.8678 166.572 86.919 166.726 86.919C166.879 86.919 167.059 86.8423 167.187 86.7144C167.442 86.4586 167.417 86.0493 167.187 85.8191C165.318 84.0285 163.45 82.2635 161.557 80.5241Z" fill="black"/>
<path d="M210.435 140.228C210.256 139.921 209.847 139.819 209.565 140.023C209.258 140.203 209.156 140.586 209.36 140.893C210.666 143.067 211.971 145.318 213.25 147.544C213.378 147.749 213.583 147.876 213.813 147.876C213.916 147.876 214.018 147.851 214.12 147.8C214.427 147.621 214.53 147.237 214.351 146.93C213.071 144.653 211.766 142.402 210.435 140.228Z" fill="black"/>
<path d="M227.401 175.58C227.478 175.58 227.58 175.554 227.657 175.529C227.99 175.401 228.143 175.017 227.99 174.685C226.966 172.28 225.917 169.901 224.867 167.599C224.714 167.266 224.33 167.139 224.023 167.292C223.69 167.445 223.562 167.829 223.716 168.136C224.765 170.438 225.814 172.817 226.812 175.196C226.915 175.426 227.145 175.58 227.401 175.58Z" fill="black"/>
<path d="M172.662 91.3202C172.406 91.0644 172.022 91.0644 171.767 91.2946C171.511 91.5504 171.511 91.9341 171.741 92.1899C173.532 94.0316 175.298 95.8989 177.038 97.7918C177.166 97.9197 177.345 97.9965 177.499 97.9965C177.652 97.9965 177.806 97.9453 177.934 97.8174C178.19 97.5872 178.215 97.1779 177.96 96.9221C176.219 95.0292 174.428 93.1619 172.662 91.3202Z" fill="black"/>
<path d="M233.21 189.904C233.543 189.776 233.722 189.418 233.594 189.085C232.724 186.63 231.803 184.2 230.881 181.846C230.753 181.514 230.369 181.36 230.062 181.488C229.73 181.616 229.576 181.974 229.704 182.307C230.625 184.66 231.521 187.09 232.391 189.52C232.493 189.776 232.724 189.955 233.005 189.955C233.082 189.955 233.133 189.93 233.21 189.904Z" fill="black"/>
<path d="M242.475 218.732C241.86 216.2 241.221 213.719 240.555 211.237C240.453 210.905 240.12 210.7 239.762 210.777C239.429 210.879 239.224 211.212 239.301 211.57C239.967 214.025 240.606 216.507 241.221 219.039C241.297 219.32 241.553 219.525 241.835 219.525C241.886 219.525 241.937 219.525 241.988 219.5C242.347 219.423 242.577 219.065 242.475 218.732Z" fill="black"/>
<path d="M218.034 153.709C217.88 153.402 217.497 153.274 217.164 153.453C216.857 153.606 216.729 153.99 216.908 154.323C218.085 156.548 219.262 158.876 220.414 161.178C220.516 161.408 220.747 161.536 220.977 161.536C221.079 161.536 221.182 161.511 221.259 161.459C221.566 161.306 221.694 160.922 221.54 160.615C220.414 158.262 219.237 155.934 218.034 153.709Z" fill="black"/>
<path d="M183.129 102.729C182.898 102.473 182.489 102.447 182.233 102.677C181.977 102.908 181.926 103.317 182.182 103.573C183.871 105.517 185.56 107.512 187.147 109.456C187.275 109.609 187.454 109.686 187.633 109.686C187.786 109.686 187.914 109.635 188.042 109.533C188.324 109.302 188.349 108.893 188.145 108.637C186.507 106.668 184.818 104.673 183.129 102.729Z" fill="black"/>
<path d="M192.956 114.699C192.725 114.418 192.341 114.367 192.06 114.597C191.778 114.802 191.727 115.211 191.958 115.492C193.544 117.539 195.105 119.611 196.59 121.657C196.717 121.836 196.897 121.913 197.101 121.913C197.229 121.913 197.357 121.862 197.485 121.785C197.767 121.58 197.843 121.171 197.613 120.89C196.103 118.843 194.542 116.746 192.956 114.699Z" fill="black"/>
<path d="M202.066 127.209C201.862 126.927 201.478 126.85 201.171 127.055C200.889 127.26 200.812 127.643 201.017 127.95C202.476 130.073 203.909 132.248 205.291 134.371C205.419 134.55 205.623 134.652 205.828 134.652C205.956 134.652 206.058 134.627 206.186 134.55C206.493 134.371 206.57 133.962 206.366 133.655C204.958 131.506 203.525 129.332 202.066 127.209Z" fill="black"/>
<path d="M233.978 226.431C233.774 226.15 233.364 226.099 233.083 226.303C232.801 226.508 232.75 226.917 232.955 227.198L237.51 233.389C237.638 233.568 237.817 233.645 238.022 233.645C238.15 233.645 238.278 233.593 238.406 233.517C238.687 233.312 238.738 232.903 238.533 232.621L233.978 226.431Z" fill="black"/>
<path d="M209.615 193.357C209.41 193.075 209.001 193.024 208.719 193.229C208.438 193.434 208.387 193.843 208.591 194.124L210.204 196.299C210.332 196.478 210.511 196.554 210.715 196.554C210.843 196.554 210.971 196.503 211.099 196.426C211.381 196.222 211.432 195.813 211.227 195.531L209.615 193.357Z" fill="black"/>
<path d="M224.894 214.076C224.69 213.794 224.28 213.743 223.999 213.948C223.717 214.152 223.666 214.562 223.871 214.843L228.426 221.033C228.554 221.212 228.733 221.289 228.938 221.289C229.066 221.289 229.194 221.238 229.321 221.161C229.603 220.957 229.654 220.547 229.449 220.266L224.894 214.076Z" fill="black"/>
<path d="M215.783 201.721C215.578 201.44 215.169 201.389 214.887 201.593C214.606 201.798 214.555 202.207 214.759 202.489L219.314 208.679C219.442 208.858 219.622 208.935 219.826 208.935C219.954 208.935 220.082 208.883 220.21 208.807C220.492 208.602 220.543 208.193 220.338 207.911L215.783 201.721Z" fill="black"/>
<path d="M4.40093 1.96892C4.34975 1.96892 4.32415 1.96892 4.27297 1.96892C1.86743 1.48291 0.536696 1.27827 0.536696 1.27827C0.178423 1.22711 -0.0518951 0.894573 -0.000713276 0.536457C0.0760595 0.178342 0.383151 -0.0518758 0.741424 -0.000716393C0.741424 -0.000716393 2.07215 0.203921 4.52888 0.689936C4.88716 0.766675 5.09188 1.09921 5.0407 1.43175C4.96393 1.76428 4.70802 1.96892 4.40093 1.96892Z" fill="black"/>
</svg>
