<svg width="68" height="90" viewBox="0 0 68 90" fill="none" xmlns="http://www.w3.org/2000/svg">
<path d="M0.0273438 71.1998V89.7649H67.695V71.1998C67.6923 69.13 66.8689 67.1458 65.4053 65.6822C63.9418 64.2186 61.9575 63.3952 59.8877 63.3926H7.83456C5.76478 63.3952 3.78053 64.2186 2.31697 65.6822C0.853404 67.1458 0.030005 69.13 0.0273438 71.1998H0.0273438ZM5.23216 71.1998C5.23316 70.5099 5.50766 69.8485 5.99549 69.3607C6.48332 68.8729 7.14467 68.5984 7.83456 68.5974H10.437V84.5638H5.23216V71.1998ZM15.643 68.5974H22.3728L33.8611 80.0857L45.3495 68.5974H52.0755V84.5638H15.643V68.5974ZM62.4901 71.1998V84.5601H57.2853V68.5936H59.8877C60.5783 68.5946 61.2402 68.8697 61.7281 69.3583C62.2161 69.8469 62.4901 70.5092 62.4901 71.1998ZM37.9885 68.5974L33.8611 72.7248L29.7338 68.5974H37.9885Z" fill="#FF6875"/>
<path d="M53.3326 52.978H57.289V47.7732H59.8914C61.9612 47.7706 63.9454 46.9472 65.409 45.4836C66.8726 44.02 67.6959 42.0358 67.6986 39.966V34.7612C67.6983 25.7874 64.1331 17.1813 57.7875 10.8361C51.4418 4.49093 42.8355 0.926424 33.8617 0.926758C24.888 0.927091 16.2819 4.49223 9.93668 10.8379C3.59151 17.1835 0.0270103 25.7899 0.0273438 34.7637L0.0273438 39.9685C0.030005 42.0383 0.853402 44.0226 2.31696 45.4861C3.78052 46.9497 5.76477 47.7731 7.83455 47.7757H11.7771C13.2245 51.8749 15.7845 55.4902 19.1704 58.2168C22.5562 60.9434 26.6343 62.6736 30.9478 63.2136C35.2614 63.7536 39.6401 63.0821 43.5936 61.2744C47.5471 59.4666 50.9193 56.5939 53.3326 52.978ZM59.8914 42.5672H57.1381C57.235 41.7031 57.2837 40.8342 57.284 39.9647V34.7599C57.2837 33.8904 57.235 33.0216 57.1381 32.1575H59.8864C60.5763 32.1585 61.2376 32.433 61.7254 32.9209C62.2133 33.4087 62.4878 34.07 62.4888 34.7599V39.9647C62.4891 40.6555 62.2152 41.3182 61.7272 41.8071C61.2393 42.296 60.5771 42.5712 59.8864 42.5722L59.8914 42.5672ZM33.8611 6.13471C40.1188 6.14276 46.2021 8.19732 51.1833 11.985C56.1645 15.7727 59.7701 21.0857 61.4503 27.1136C60.936 27.0089 60.4125 26.9562 59.8876 26.9565H55.9438C54.3292 22.3897 51.3386 18.4359 47.3837 15.6393C43.4288 12.8428 38.7042 11.3411 33.8605 11.3411C29.0167 11.3411 24.2921 12.8428 20.3372 15.6393C16.3823 18.4359 13.3917 22.3897 11.7771 26.9565H7.83455C7.30969 26.9562 6.78615 27.0089 6.27185 27.1136C7.95204 21.0857 11.5577 15.7727 16.5389 11.985C21.52 8.19732 27.6034 6.14276 33.8611 6.13471ZM48.8067 24.3591C47.1239 26.763 44.8876 28.7268 42.2864 30.0847C39.6851 31.4427 36.7954 32.1549 33.8611 32.1613H15.8291C16.3501 28.5428 17.9482 25.1648 20.4153 22.4669C22.8824 19.769 26.1043 17.8761 29.662 17.0344C33.2196 16.1927 36.9482 16.4412 40.3627 17.7476C43.7771 19.0539 46.7194 21.3577 48.8067 24.3591ZM7.83455 42.5722C7.14466 42.5712 6.48331 42.2967 5.99548 41.8088C5.50765 41.321 5.23315 40.6597 5.23215 39.9698V34.765C5.23315 34.0751 5.50765 33.4137 5.99548 32.9259C6.48331 32.4381 7.14466 32.1636 7.83455 32.1626H10.5878C10.4909 33.0266 10.4422 33.8955 10.442 34.765V39.9698C10.4422 40.8393 10.4909 41.7081 10.5878 42.5722H7.83455ZM15.6418 39.9698V37.3674H33.8611C37.1566 37.3613 40.4139 36.6624 43.4218 35.3161C46.4298 33.9698 49.121 32.0062 51.3211 29.5526C51.8268 31.2434 52.0831 32.9989 52.0817 34.7637V39.9685C52.0845 42.6696 51.4831 45.3371 50.3216 47.7757H41.6683L39.3777 45.4901C37.9133 46.9543 35.9274 47.7768 33.8567 47.7768C31.786 47.7768 29.8 46.9543 28.3357 45.4901L24.6559 49.17C26.8707 51.3848 29.8102 52.7264 32.9345 52.9486C36.0589 53.1707 39.1586 52.2585 41.6645 50.3794V52.978H46.5928C44.0315 55.4871 40.7864 57.1841 37.2646 57.8563C33.7427 58.5285 30.1007 58.1459 26.7954 56.7565C23.4901 55.3671 20.6685 53.0328 18.6846 50.0463C16.7006 47.0598 15.6425 43.554 15.643 39.9685L15.6418 39.9698Z" fill="#FF6875"/>
</svg>
