<svg width="30" height="18" viewBox="0 0 30 18" fill="none" xmlns="http://www.w3.org/2000/svg">
<path fill-rule="evenodd" clip-rule="evenodd" d="M29.294 1.24911C29.5164 0.544482 29.294 0.032028 28.3091 0.032028H25.0366C24.2105 0.032028 23.8292 0.480427 23.6068 0.960854C23.6068 0.960854 21.9229 5.0605 19.5717 7.71886C18.8092 8.48754 18.4597 8.74377 18.0467 8.74377C17.8242 8.74377 17.5383 8.48755 17.5383 7.78292V1.21708C17.5383 0.38434 17.2841 0 16.5851 0H11.438C10.9297 0 10.6119 0.38434 10.6119 0.768681C10.6119 1.56939 11.7875 1.76157 11.9146 4.00356V8.87189C11.9146 9.92883 11.724 10.121 11.3109 10.121C10.1989 10.121 7.49826 5.98932 5.87787 1.28114C5.56015 0.352313 5.24243 0 4.41635 0H1.11203C0.158861 0 0 0.448397 0 0.928824C0 1.79359 1.11203 6.14947 5.17888 11.9146C7.87953 15.8541 11.724 17.968 15.1872 17.968C17.2841 17.968 17.5383 17.4875 17.5383 16.6868V13.7082C17.5383 12.7473 17.7289 12.5872 18.3962 12.5872C18.8727 12.5872 19.7306 12.8434 21.6687 14.7331C23.8928 16.9751 24.274 18 25.5131 18H28.7857C29.7389 18 30.1837 17.5196 29.9295 16.5907C29.6435 15.6619 28.5633 14.3167 27.1653 12.7153C26.4028 11.8185 25.259 10.8256 24.9095 10.3452C24.4329 9.70463 24.56 9.4484 24.9095 8.87189C24.8777 8.87189 28.881 3.17082 29.294 1.24911Z" fill="#F6F7F8"/>
</svg>
