<svg width="48" height="48" viewBox="0 0 48 48" fill="none" xmlns="http://www.w3.org/2000/svg">
<path d="M47.8773 44.8928C47.8773 46.5391 46.5391 47.8774 44.8927 47.8774H3.10767C1.46152 47.8774 0.123047 46.5391 0.123047 44.8928V3.10767C0.123047 1.46142 1.46152 0.123047 3.10767 0.123047H44.8927C46.5391 0.123047 47.8773 1.46142 47.8773 3.10767V44.8928Z" fill="#ED1F24"/>
<path d="M29.3882 9.87793H25.1087C20.9037 9.87793 17.3376 13.0787 17.3376 19.293C17.3376 23.0209 19.0645 25.7696 22.1423 27.1255L16.399 37.5195C16.211 37.8587 16.399 38.1219 16.6992 38.1219H19.3648C19.5898 38.1219 19.7407 38.0468 19.8157 37.8587L25.0338 27.6528H26.9107V37.8587C26.9107 37.971 27.0229 38.1219 27.1731 38.1219H29.5011C29.7261 38.1219 29.8014 38.0089 29.8014 37.8214V10.2545C29.8013 9.9909 29.6511 9.87793 29.3882 9.87793ZM26.9106 25.243H25.3339C22.8564 25.243 20.454 23.4354 20.454 18.9165C20.454 14.2083 22.7062 12.2879 24.996 12.2879H26.9107V25.243H26.9106Z" fill="white"/>
</svg>
